G04*
G04 #@! TF.GenerationSoftware,Altium Limited,Altium Designer,20.0.2 (26)*
G04*
G04 Layer_Color=32896*
%FSLAX25Y25*%
%MOIN*%
G70*
G01*
G75*
%ADD10C,0.00787*%
%ADD13C,0.01000*%
%ADD16C,0.00394*%
%ADD58C,0.02756*%
%ADD59C,0.00500*%
%ADD60C,0.00050*%
D10*
X96287Y67476D02*
X97075D01*
X96287Y64524D02*
X97075D01*
X96287Y56524D02*
X97075D01*
X96287Y59476D02*
X97075D01*
X108382Y67905D02*
X114681D01*
X108382Y56094D02*
Y67905D01*
Y56094D02*
X114681D01*
Y67905D01*
X109563Y62000D02*
X113500D01*
X79382Y67905D02*
X85681D01*
X79382Y56094D02*
Y67905D01*
Y56094D02*
X85681D01*
Y67905D01*
X80563Y62000D02*
X84500D01*
D13*
X61932Y41100D02*
Y44700D01*
X56932Y41100D02*
X61932D01*
X56932D02*
Y44700D01*
Y48700D02*
Y52300D01*
X61932Y48700D02*
Y52300D01*
X56932D02*
X61932D01*
X61132Y16800D02*
X61932Y17600D01*
X61132Y15700D02*
Y16800D01*
X56532Y17600D02*
X57231Y16900D01*
Y15700D02*
Y16900D01*
Y15700D02*
X61132D01*
X56532Y17600D02*
X61932D01*
X56532D02*
Y21800D01*
Y24600D02*
Y29000D01*
X61932D01*
Y24800D02*
Y29000D01*
Y17600D02*
Y21800D01*
X24732Y1500D02*
X28332D01*
X24732D02*
Y6500D01*
X28332D01*
X32331D02*
X35932D01*
X32331Y1500D02*
X35932D01*
Y6500D01*
X82804Y19192D02*
X85350Y16646D01*
X82804Y19192D02*
X86339Y22728D01*
X88885Y20182D01*
X91714Y17354D02*
X94259Y14808D01*
X88178Y13818D02*
X90724Y11272D01*
X94259Y14808D01*
X103575Y15492D02*
X107175D01*
Y10492D02*
Y15492D01*
X103575Y10492D02*
X107175D01*
X95975D02*
X99575D01*
X95975Y15492D02*
X99575D01*
X95975Y10492D02*
Y15492D01*
X112339Y11272D02*
X114885Y13818D01*
X108804Y14808D02*
X112339Y11272D01*
X108804Y14808D02*
X111349Y17354D01*
X114178Y20182D02*
X116724Y22728D01*
X117713Y16646D02*
X120259Y19192D01*
X116724Y22728D02*
X120259Y19192D01*
X117713Y43354D02*
X120259Y40808D01*
X116724Y37272D02*
X120259Y40808D01*
X114178Y39818D02*
X116724Y37272D01*
X108804Y45192D02*
X111349Y42646D01*
X112339Y48728D02*
X114885Y46182D01*
X108804Y45192D02*
X112339Y48728D01*
X115032Y32000D02*
Y35600D01*
X120031D01*
Y32000D02*
Y35600D01*
Y24400D02*
Y28000D01*
X115032Y24400D02*
Y28000D01*
Y24400D02*
X120031D01*
X88178Y46182D02*
X90724Y48728D01*
X94259Y45192D01*
X91714Y42646D02*
X94259Y45192D01*
X86339Y37272D02*
X88885Y39818D01*
X82804Y40808D02*
X85350Y43354D01*
X82804Y40808D02*
X86339Y37272D01*
X88032Y24400D02*
Y28000D01*
X83031Y24400D02*
X88032D01*
X83031D02*
Y28000D01*
Y32000D02*
Y35600D01*
X88032Y32000D02*
Y35600D01*
X83031D02*
X88032D01*
X95975Y44744D02*
X99575D01*
X95975D02*
Y49744D01*
X99575D01*
X103575D02*
X107175D01*
X103575Y44744D02*
X107175D01*
Y49744D01*
X118532Y62000D02*
X122531D01*
X123031Y64000D02*
Y67600D01*
X118032D02*
X123031D01*
X118032Y64000D02*
Y67600D01*
Y56400D02*
Y60000D01*
Y56400D02*
X123031D01*
Y60000D01*
D16*
X69131Y1100D02*
Y2600D01*
X54132Y1100D02*
Y2600D01*
Y1100D02*
X69131D01*
X54132Y11600D02*
Y13100D01*
X69131D01*
Y11600D02*
Y13100D01*
X64131Y7100D02*
X67132D01*
X61632Y9600D02*
X64131Y7100D01*
X56132D02*
X60632D01*
X41399Y73947D02*
X42055D01*
Y72635D01*
X42711Y73947D02*
X42055D01*
X43039Y74603D02*
X43695D01*
X44023Y74275D01*
Y73619D01*
X43695Y73291D01*
X43039D01*
X42711Y73619D01*
Y74275D01*
X43039Y74603D01*
Y72635D02*
X43695Y72307D01*
X44679Y73947D02*
X46647D01*
X45335Y72635D02*
Y73619D01*
X44679D01*
X45991Y72635D02*
Y73619D01*
X46647D01*
X47959D01*
Y72635D01*
X47303Y73619D02*
Y72635D01*
X55406Y41162D02*
Y39194D01*
X54094D01*
X53438D02*
X52126Y40506D01*
X51471Y39194D02*
Y41162D01*
X50487D01*
X50159Y40834D01*
Y40178D01*
X50487Y39850D01*
X51471D01*
X50815D02*
X50159Y39194D01*
X49503Y41162D02*
X48191Y39194D01*
Y41162D02*
X49503Y39194D01*
X42406Y56506D02*
X42144Y56768D01*
X41619D01*
X41357Y56506D01*
Y56243D01*
X41619Y55981D01*
X41881D01*
X41619D01*
X41357Y55718D01*
Y55456D01*
X41619Y55194D01*
X42144D01*
X42406Y55456D01*
X40832Y56768D02*
Y55718D01*
X40307Y55194D01*
X39783Y55718D01*
Y56768D01*
X39258Y56506D02*
X38995Y56768D01*
X38471D01*
X38208Y56506D01*
Y56243D01*
X38471Y55981D01*
X38733D01*
X38471D01*
X38208Y55718D01*
Y55456D01*
X38471Y55194D01*
X38995D01*
X39258Y55456D01*
X52794Y33334D02*
X53122Y33662D01*
X53778D01*
X54106Y33334D01*
Y32022D01*
X53778Y31694D01*
X53122D01*
X52794Y32022D01*
Y32678D01*
X53450D01*
X52138Y31694D02*
Y33662D01*
X50827Y31694D01*
Y33662D01*
X50171D02*
Y31694D01*
X49187D01*
X48859Y32022D01*
Y33334D01*
X49187Y33662D01*
X50171D01*
X50994Y25162D02*
X52306D01*
Y24178D01*
X51650Y24506D01*
X51322D01*
X50994Y24178D01*
Y23522D01*
X51322Y23194D01*
X51978D01*
X52306Y23522D01*
X50338Y25162D02*
Y23850D01*
X49683Y23194D01*
X49027Y23850D01*
Y25162D01*
X57757Y56506D02*
X58019Y56768D01*
X58544D01*
X58806Y56506D01*
Y55456D01*
X58544Y55194D01*
X58019D01*
X57757Y55456D01*
Y55981D01*
X58281D01*
X57232Y55194D02*
Y56768D01*
X56182Y55194D01*
Y56768D01*
X55658D02*
Y55194D01*
X54871D01*
X54608Y55456D01*
Y56506D01*
X54871Y56768D01*
X55658D01*
X47606Y56868D02*
Y55294D01*
X46819D01*
X46557Y55556D01*
Y56606D01*
X46819Y56868D01*
X47606D01*
X46032D02*
X45507D01*
X45770D01*
Y55294D01*
X46032D01*
X45507D01*
X43933Y56868D02*
X44458D01*
X44720Y56606D01*
Y55556D01*
X44458Y55294D01*
X43933D01*
X43671Y55556D01*
Y56606D01*
X43933Y56868D01*
X52157Y56606D02*
X52419Y56868D01*
X52944D01*
X53206Y56606D01*
Y55556D01*
X52944Y55294D01*
X52419D01*
X52157Y55556D01*
X51632Y56868D02*
Y55294D01*
X50582D01*
X50058Y56868D02*
Y55294D01*
Y55818D01*
X49008Y56868D01*
X49795Y56081D01*
X49008Y55294D01*
X55606Y48662D02*
Y46694D01*
Y47678D01*
X54294D01*
Y48662D01*
Y46694D01*
X53638D02*
X52327Y48006D01*
X51671Y48662D02*
X50359D01*
X51015D01*
Y46694D01*
X49703Y48662D02*
X48391Y46694D01*
Y48662D02*
X49703Y46694D01*
X68215Y27932D02*
X67559D01*
X67232Y28260D01*
Y29572D01*
X67559Y29900D01*
X68215D01*
X68543Y29572D01*
Y28260D01*
X68215Y27932D01*
X69199Y29900D02*
Y27932D01*
X70511Y29900D01*
Y27932D01*
X73543Y47900D02*
X72232D01*
X73543Y46588D01*
Y46260D01*
X73215Y45932D01*
X72559D01*
X72232Y46260D01*
X67232Y47900D02*
X67888D01*
X67559D01*
Y45932D01*
X67232Y46260D01*
X111320Y72340D02*
X111648Y72668D01*
X112303D01*
X112631Y72340D01*
Y71028D01*
X112303Y70700D01*
X111648D01*
X111320Y71028D01*
X110664Y70700D02*
X110008D01*
X110336D01*
Y72668D01*
X110664Y72340D01*
X109024Y70700D02*
X108368D01*
X108696D01*
Y72668D01*
X109024Y72340D01*
X83020D02*
X83348Y72668D01*
X84004D01*
X84332Y72340D01*
Y71028D01*
X84004Y70700D01*
X83348D01*
X83020Y71028D01*
X82364Y70700D02*
X81708D01*
X82036D01*
Y72668D01*
X82364Y72340D01*
X80724D02*
X80396Y72668D01*
X79740D01*
X79412Y72340D01*
Y71028D01*
X79740Y70700D01*
X80396D01*
X80724Y71028D01*
Y72340D01*
X22660Y2916D02*
Y4884D01*
X21676D01*
X21348Y4556D01*
Y3900D01*
X21676Y3572D01*
X22660D01*
X22004D02*
X21348Y2916D01*
X20692D02*
X20036D01*
X20364D01*
Y4884D01*
X20692Y4556D01*
X17740Y4884D02*
X19052D01*
Y3900D01*
X18396Y4228D01*
X18068D01*
X17740Y3900D01*
Y3244D01*
X18068Y2916D01*
X18724D01*
X19052Y3244D01*
X7332Y64000D02*
Y65968D01*
X6348D01*
X6020Y65640D01*
Y64984D01*
X6348Y64656D01*
X7332D01*
X4052Y64000D02*
X5364D01*
X4052Y65312D01*
Y65640D01*
X4380Y65968D01*
X5036D01*
X5364Y65640D01*
X70628Y59556D02*
X70956Y59884D01*
X71612D01*
X71940Y59556D01*
Y59228D01*
X71612Y58900D01*
X70956D01*
X70628Y58572D01*
Y58244D01*
X70956Y57916D01*
X71612D01*
X71940Y58244D01*
X68660Y57916D02*
X69972D01*
X68660Y59228D01*
Y59556D01*
X68988Y59884D01*
X69644D01*
X69972Y59556D01*
X56631Y15700D02*
Y17668D01*
X55648D01*
X55320Y17340D01*
Y16684D01*
X55648Y16356D01*
X56631D01*
X55976D02*
X55320Y15700D01*
X53352Y17668D02*
X54664D01*
Y15700D01*
X53352D01*
X54664Y16684D02*
X54008D01*
X51384Y17340D02*
X51712Y17668D01*
X52368D01*
X52696Y17340D01*
Y17012D01*
X52368Y16684D01*
X51712D01*
X51384Y16356D01*
Y16028D01*
X51712Y15700D01*
X52368D01*
X52696Y16028D01*
X119060Y49116D02*
Y51084D01*
X118076D01*
X117748Y50756D01*
Y50100D01*
X118076Y49772D01*
X119060D01*
X118404D02*
X117748Y49116D01*
X117092D02*
X116436D01*
X116764D01*
Y51084D01*
X117092Y50756D01*
X115452D02*
X115124Y51084D01*
X114468D01*
X114140Y50756D01*
Y49444D01*
X114468Y49116D01*
X115124D01*
X115452Y49444D01*
Y50756D01*
X87740Y48016D02*
Y49984D01*
X86756D01*
X86428Y49656D01*
Y49000D01*
X86756Y48672D01*
X87740D01*
X87084D02*
X86428Y48016D01*
X85772Y48344D02*
X85444Y48016D01*
X84788D01*
X84460Y48344D01*
Y49656D01*
X84788Y49984D01*
X85444D01*
X85772Y49656D01*
Y49328D01*
X85444Y49000D01*
X84460D01*
X85240Y13516D02*
Y15484D01*
X84256D01*
X83928Y15156D01*
Y14500D01*
X84256Y14172D01*
X85240D01*
X84584D02*
X83928Y13516D01*
X83272Y15156D02*
X82944Y15484D01*
X82288D01*
X81960Y15156D01*
Y14828D01*
X82288Y14500D01*
X81960Y14172D01*
Y13844D01*
X82288Y13516D01*
X82944D01*
X83272Y13844D01*
Y14172D01*
X82944Y14500D01*
X83272Y14828D01*
Y15156D01*
X82944Y14500D02*
X82288D01*
X122640Y14316D02*
Y16284D01*
X121656D01*
X121328Y15956D01*
Y15300D01*
X121656Y14972D01*
X122640D01*
X121984D02*
X121328Y14316D01*
X120672Y16284D02*
X119360D01*
Y15956D01*
X120672Y14644D01*
Y14316D01*
X82140Y33116D02*
Y35084D01*
X81156D01*
X80828Y34756D01*
Y34100D01*
X81156Y33772D01*
X82140D01*
X81484D02*
X80828Y33116D01*
X78860Y35084D02*
X79516Y34756D01*
X80172Y34100D01*
Y33444D01*
X79844Y33116D01*
X79188D01*
X78860Y33444D01*
Y33772D01*
X79188Y34100D01*
X80172D01*
X97440Y52416D02*
Y54384D01*
X96456D01*
X96128Y54056D01*
Y53400D01*
X96456Y53072D01*
X97440D01*
X96784D02*
X96128Y52416D01*
X94160Y54384D02*
X95472D01*
Y53400D01*
X94816Y53728D01*
X94488D01*
X94160Y53400D01*
Y52744D01*
X94488Y52416D01*
X95144D01*
X95472Y52744D01*
X125240Y32716D02*
Y34684D01*
X124256D01*
X123928Y34356D01*
Y33700D01*
X124256Y33372D01*
X125240D01*
X124584D02*
X123928Y32716D01*
X122288D02*
Y34684D01*
X123272Y33700D01*
X121960D01*
X110040Y7316D02*
Y9284D01*
X109056D01*
X108728Y8956D01*
Y8300D01*
X109056Y7972D01*
X110040D01*
X109384D02*
X108728Y7316D01*
X108072Y8956D02*
X107744Y9284D01*
X107088D01*
X106760Y8956D01*
Y8628D01*
X107088Y8300D01*
X107416D01*
X107088D01*
X106760Y7972D01*
Y7644D01*
X107088Y7316D01*
X107744D01*
X108072Y7644D01*
X66040Y52616D02*
Y54584D01*
X65056D01*
X64728Y54256D01*
Y53600D01*
X65056Y53272D01*
X66040D01*
X65384D02*
X64728Y52616D01*
X62760D02*
X64072D01*
X62760Y53928D01*
Y54256D01*
X63088Y54584D01*
X63744D01*
X64072Y54256D01*
X28412Y61316D02*
Y63284D01*
X27428D01*
X27100Y62956D01*
Y62300D01*
X27428Y61972D01*
X28412D01*
X26444Y61316D02*
X25788D01*
X26116D01*
Y63284D01*
X26444Y62956D01*
X60424Y32316D02*
Y34284D01*
X59112Y32316D01*
Y34284D01*
X57472D02*
X58128D01*
X58456Y33956D01*
Y32644D01*
X58128Y32316D01*
X57472D01*
X57144Y32644D01*
Y33956D01*
X57472Y34284D01*
X56488Y32316D02*
Y34284D01*
X55504D01*
X55176Y33956D01*
Y33300D01*
X55504Y32972D01*
X56488D01*
X55832D02*
X55176Y32316D01*
X103940Y62884D02*
Y60916D01*
X102628D01*
X100660D02*
X101972D01*
X100660Y62228D01*
Y62556D01*
X100988Y62884D01*
X101644D01*
X101972Y62556D01*
X103912Y71384D02*
Y69416D01*
X102600D01*
X101944D02*
X101288D01*
X101616D01*
Y71384D01*
X101944Y71056D01*
X121520Y72140D02*
X121848Y72468D01*
X122503D01*
X122831Y72140D01*
Y70828D01*
X122503Y70500D01*
X121848D01*
X121520Y70828D01*
X120864Y70500D02*
X120208D01*
X120536D01*
Y72468D01*
X120864Y72140D01*
X117912Y70500D02*
X119224D01*
X117912Y71812D01*
Y72140D01*
X118240Y72468D01*
X118896D01*
X119224Y72140D01*
D58*
X36675Y60922D02*
D03*
X39160Y18676D02*
D03*
D59*
X48092Y63186D02*
X61439D01*
Y66828D01*
X67443D01*
Y77851D01*
X48092D02*
X67443D01*
X28742D02*
X48092D01*
X28742Y66828D02*
Y77851D01*
Y66828D02*
X34746D01*
Y63186D02*
Y66828D01*
Y63186D02*
X48092D01*
X78232Y24800D02*
Y49900D01*
X63231Y24800D02*
X78232D01*
X63231Y24900D02*
Y49900D01*
X78074D01*
X19422Y27953D02*
Y43253D01*
X21322Y27953D02*
Y43553D01*
X19422Y27953D02*
X21322D01*
X15522D02*
X19322D01*
X15522Y33753D02*
Y48833D01*
Y23243D02*
Y33753D01*
X3922Y48833D02*
Y59660D01*
X4022Y12416D02*
Y23243D01*
X3922Y48833D02*
X15522D01*
X4022Y23243D02*
X15522D01*
X3922Y59660D02*
X41624D01*
Y55329D02*
Y59660D01*
X33522Y55329D02*
X41624D01*
X33522Y16747D02*
X41424D01*
Y12416D02*
Y16747D01*
X33522D02*
Y55329D01*
X4022Y12416D02*
X41424D01*
X15922Y43553D02*
X21322D01*
D60*
X106000Y38400D02*
X106300D01*
X105800Y38350D02*
X106600D01*
X105700Y38300D02*
X106800D01*
X105700Y38250D02*
X106950D01*
X95300D02*
X95950D01*
X105650Y38200D02*
X107050D01*
X95100D02*
X96050D01*
X105650Y38150D02*
X107200D01*
X94950D02*
X96100D01*
X105600Y38100D02*
X107300D01*
X94800D02*
X96100D01*
X105600Y38050D02*
X107400D01*
X94700D02*
X96150D01*
X105550Y38000D02*
X107500D01*
X94550D02*
X96150D01*
X105550Y37950D02*
X107600D01*
X94450D02*
X96200D01*
X105500Y37900D02*
X107700D01*
X94350D02*
X96200D01*
X105500Y37850D02*
X107800D01*
X94250D02*
X96250D01*
X105450Y37800D02*
X107900D01*
X94150D02*
X96250D01*
X105450Y37750D02*
X107950D01*
X94100D02*
X96300D01*
X105400Y37700D02*
X108050D01*
X94000D02*
X96300D01*
X105400Y37650D02*
X108150D01*
X93900D02*
X96350D01*
X105350Y37600D02*
X108200D01*
X93800D02*
X96350D01*
X105350Y37550D02*
X108300D01*
X93750D02*
X96400D01*
X105300Y37500D02*
X108350D01*
X93650D02*
X96400D01*
X105300Y37450D02*
X108450D01*
X93600D02*
X96450D01*
X105250Y37400D02*
X108550D01*
X93500D02*
X96450D01*
X105250Y37350D02*
X108600D01*
X93450D02*
X96500D01*
X105200Y37300D02*
X108650D01*
X93350D02*
X96550D01*
X105200Y37250D02*
X108750D01*
X93300D02*
X96550D01*
X105150Y37200D02*
X108850D01*
X93200D02*
X96600D01*
X105100Y37150D02*
X108900D01*
X104600D02*
X104650D01*
X93150D02*
X96600D01*
X105100Y37100D02*
X108950D01*
X104550D02*
X104650D01*
X97100D02*
X97150D01*
X93100D02*
X96650D01*
X105050Y37050D02*
X108950D01*
X104500D02*
X104650D01*
X97150D02*
X97200D01*
X93000D02*
X96650D01*
X105050Y37000D02*
X109000D01*
X104450D02*
X104600D01*
X97150D02*
X97250D01*
X92950D02*
X96700D01*
X105000Y36950D02*
X109000D01*
X104400D02*
X104600D01*
X97200D02*
X97300D01*
X92900D02*
X96750D01*
X105000Y36900D02*
X109050D01*
X104350D02*
X104550D01*
X97200D02*
X97350D01*
X92850D02*
X96750D01*
X104950Y36850D02*
X109050D01*
X104300D02*
X104550D01*
X97200D02*
X97400D01*
X92800D02*
X96800D01*
X104900Y36800D02*
X109050D01*
X104250D02*
X104550D01*
X97250D02*
X97450D01*
X92800D02*
X96850D01*
X104900Y36750D02*
X109050D01*
X104200D02*
X104500D01*
X97250D02*
X97500D01*
X92800D02*
X96850D01*
X104850Y36700D02*
X109050D01*
X104150D02*
X104500D01*
X97300D02*
X97550D01*
X92750D02*
X96900D01*
X104800Y36650D02*
X109050D01*
X104100D02*
X104500D01*
X97300D02*
X97600D01*
X92750D02*
X96950D01*
X104800Y36600D02*
X109050D01*
X104050D02*
X104450D01*
X97300D02*
X97650D01*
X92750D02*
X96950D01*
X104750Y36550D02*
X109050D01*
X104000D02*
X104450D01*
X97350D02*
X97700D01*
X92750D02*
X97000D01*
X104700Y36500D02*
X109000D01*
X103950D02*
X104400D01*
X97350D02*
X97800D01*
X92750D02*
X97050D01*
X104700Y36450D02*
X109000D01*
X103900D02*
X104400D01*
X97400D02*
X97850D01*
X92750D02*
X97050D01*
X104650Y36400D02*
X109000D01*
X103850D02*
X104400D01*
X97400D02*
X97900D01*
X92750D02*
X97100D01*
X104600Y36350D02*
X108950D01*
X103800D02*
X104350D01*
X97400D02*
X97950D01*
X92800D02*
X97150D01*
X104600Y36300D02*
X108950D01*
X103700D02*
X104350D01*
X97450D02*
X98000D01*
X92800D02*
X97150D01*
X104550Y36250D02*
X108900D01*
X103650D02*
X104300D01*
X97450D02*
X98100D01*
X92800D02*
X97200D01*
X104500Y36200D02*
X108900D01*
X103600D02*
X104300D01*
X97500D02*
X98150D01*
X92850D02*
X97250D01*
X104500Y36150D02*
X108850D01*
X103550D02*
X104300D01*
X97500D02*
X98200D01*
X92850D02*
X97250D01*
X104450Y36100D02*
X108850D01*
X103450D02*
X104250D01*
X97500D02*
X98300D01*
X92900D02*
X97300D01*
X104400Y36050D02*
X108800D01*
X103400D02*
X104250D01*
X97550D02*
X98350D01*
X92900D02*
X97350D01*
X104350Y36000D02*
X108800D01*
X103350D02*
X104250D01*
X97550D02*
X98400D01*
X92950D02*
X97400D01*
X104350Y35950D02*
X108750D01*
X103350D02*
X104200D01*
X97600D02*
X98450D01*
X92950D02*
X97450D01*
X104300Y35900D02*
X108700D01*
X103300D02*
X104200D01*
X97600D02*
X98450D01*
X93000D02*
X97450D01*
X104250Y35850D02*
X108650D01*
X103300D02*
X104150D01*
X103050D02*
X103100D01*
X97600D02*
X98500D01*
X93050D02*
X97500D01*
X104200Y35800D02*
X108650D01*
X103250D02*
X104150D01*
X102950D02*
X103050D01*
X98750D02*
X98800D01*
X97650D02*
X98550D01*
X93050D02*
X97550D01*
X104200Y35750D02*
X108600D01*
X103250D02*
X104150D01*
X102850D02*
X103000D01*
X98750D02*
X98850D01*
X97650D02*
X98550D01*
X93100D02*
X97600D01*
X104150Y35700D02*
X108550D01*
X103200D02*
X104100D01*
X102750D02*
X102950D01*
X98800D02*
X98950D01*
X97700D02*
X98600D01*
X93150D02*
X97600D01*
X103150Y35650D02*
X108500D01*
X102650D02*
X102950D01*
X98850D02*
X99100D01*
X97700D02*
X98600D01*
X93200D02*
X97650D01*
X103150Y35600D02*
X108450D01*
X102450D02*
X102900D01*
X98900D02*
X99250D01*
X93200D02*
X98650D01*
X103100Y35550D02*
X108400D01*
X102250D02*
X102850D01*
X98950D02*
X99400D01*
X93250D02*
X98700D01*
X103100Y35500D02*
X108350D01*
X101950D02*
X102800D01*
X99000D02*
X99700D01*
X93300D02*
X98700D01*
X103050Y35450D02*
X108300D01*
X101650D02*
X102750D01*
X101300D02*
X101450D01*
X100450D02*
X100500D01*
X99050D02*
X100000D01*
X93350D02*
X98750D01*
X103000Y35400D02*
X108250D01*
X101300D02*
X102700D01*
X99100D02*
X100550D01*
X93400D02*
X98800D01*
X103000Y35350D02*
X108200D01*
X101250D02*
X102700D01*
X99100D02*
X100550D01*
X93450D02*
X98800D01*
X102950Y35300D02*
X108150D01*
X101250D02*
X102650D01*
X99150D02*
X100600D01*
X93500D02*
X98850D01*
X102900Y35250D02*
X108100D01*
X101250D02*
X102600D01*
X99200D02*
X100600D01*
X93550D02*
X98900D01*
X102900Y35200D02*
X108050D01*
X101200D02*
X102550D01*
X99250D02*
X100600D01*
X93600D02*
X98950D01*
X102850Y35150D02*
X108000D01*
X101200D02*
X102500D01*
X99300D02*
X100650D01*
X93650D02*
X98950D01*
X102800Y35100D02*
X107950D01*
X101150D02*
X102450D01*
X99350D02*
X100650D01*
X93700D02*
X99000D01*
X102750Y35050D02*
X107900D01*
X101150D02*
X102400D01*
X99400D02*
X100700D01*
X93750D02*
X99050D01*
X102750Y35000D02*
X107850D01*
X101150D02*
X102350D01*
X99450D02*
X100700D01*
X93800D02*
X99100D01*
X102700Y34950D02*
X107800D01*
X101100D02*
X102300D01*
X99500D02*
X100700D01*
X93850D02*
X99100D01*
X102650Y34900D02*
X107750D01*
X101100D02*
X102300D01*
X99550D02*
X100750D01*
X93900D02*
X99150D01*
X102650Y34850D02*
X107700D01*
X101100D02*
X102250D01*
X99600D02*
X100750D01*
X93950D02*
X99200D01*
X102600Y34800D02*
X107650D01*
X101050D02*
X102200D01*
X99650D02*
X100800D01*
X94000D02*
X99250D01*
X102550Y34750D02*
X107600D01*
X101050D02*
X102150D01*
X99700D02*
X100800D01*
X94100D02*
X99250D01*
X102500Y34700D02*
X107550D01*
X101050D02*
X102100D01*
X99750D02*
X100800D01*
X94150D02*
X99300D01*
X102500Y34650D02*
X107500D01*
X101000D02*
X102050D01*
X99800D02*
X100850D01*
X94200D02*
X99350D01*
X102450Y34600D02*
X107450D01*
X101000D02*
X102000D01*
X99850D02*
X100850D01*
X94250D02*
X99400D01*
X102400Y34550D02*
X107400D01*
X100950D02*
X101950D01*
X99900D02*
X100900D01*
X94300D02*
X99400D01*
X102350Y34500D02*
X107350D01*
X100950D02*
X101900D01*
X99950D02*
X100900D01*
X94350D02*
X99450D01*
X102350Y34450D02*
X107300D01*
X100000D02*
X101850D01*
X94400D02*
X99500D01*
X102300Y34400D02*
X107250D01*
X100050D02*
X101800D01*
X94450D02*
X99550D01*
X102250Y34350D02*
X107200D01*
X100100D02*
X101750D01*
X94500D02*
X99600D01*
X102200Y34300D02*
X107150D01*
X100150D02*
X101700D01*
X94550D02*
X99600D01*
X102150Y34250D02*
X107100D01*
X100200D02*
X101650D01*
X94600D02*
X99650D01*
X102150Y34200D02*
X107050D01*
X100250D02*
X101600D01*
X94700D02*
X99700D01*
X102100Y34150D02*
X107000D01*
X100300D02*
X101550D01*
X94750D02*
X99750D01*
X102050Y34100D02*
X106900D01*
X100350D02*
X101500D01*
X94800D02*
X99800D01*
X102000Y34050D02*
X106850D01*
X100400D02*
X101450D01*
X94850D02*
X99850D01*
X101950Y34000D02*
X106800D01*
X100450D02*
X101400D01*
X94900D02*
X99850D01*
X101950Y33950D02*
X106750D01*
X100500D02*
X101350D01*
X94950D02*
X99900D01*
X101900Y33900D02*
X106700D01*
X100550D02*
X101300D01*
X95000D02*
X99950D01*
X101850Y33850D02*
X106650D01*
X100600D02*
X101250D01*
X95050D02*
X100000D01*
X101800Y33800D02*
X106600D01*
X100600D02*
X101250D01*
X95150D02*
X100050D01*
X101750Y33750D02*
X106550D01*
X100600D02*
X101250D01*
X95200D02*
X100100D01*
X101750Y33700D02*
X106500D01*
X100600D02*
X101300D01*
X95250D02*
X100150D01*
X101700Y33650D02*
X106450D01*
X100550D02*
X101300D01*
X95300D02*
X100150D01*
X101650Y33600D02*
X106400D01*
X100550D02*
X101350D01*
X95350D02*
X100200D01*
X101600Y33550D02*
X106350D01*
X100500D02*
X101350D01*
X95400D02*
X100250D01*
X101550Y33500D02*
X106300D01*
X101000D02*
X101400D01*
X100500D02*
X100900D01*
X95450D02*
X100300D01*
X101500Y33450D02*
X106250D01*
X101050D02*
X101400D01*
X100450D02*
X100850D01*
X95500D02*
X100350D01*
X101500Y33400D02*
X106150D01*
X101100D02*
X101450D01*
X100450D02*
X100800D01*
X95550D02*
X100400D01*
X101150Y33350D02*
X106100D01*
X95650D02*
X100750D01*
X101200Y33300D02*
X106050D01*
X95700D02*
X100700D01*
X101250Y33250D02*
X106000D01*
X95750D02*
X100650D01*
X101300Y33200D02*
X105950D01*
X95800D02*
X100600D01*
X101250Y33150D02*
X105900D01*
X95850D02*
X100600D01*
X101200Y33100D02*
X105850D01*
X95900D02*
X100650D01*
X101200Y33050D02*
X105800D01*
X95950D02*
X100700D01*
X101150Y33000D02*
X105750D01*
X96000D02*
X100750D01*
X101100Y32950D02*
X105700D01*
X96100D02*
X100800D01*
X101050Y32900D02*
X105650D01*
X96150D02*
X100850D01*
X101000Y32850D02*
X105600D01*
X96200D02*
X100900D01*
X96250Y32800D02*
X105550D01*
X96300Y32750D02*
X105450D01*
X96350Y32700D02*
X105400D01*
X96400Y32650D02*
X105350D01*
X96500Y32600D02*
X105300D01*
X96550Y32550D02*
X105250D01*
X96600Y32500D02*
X105200D01*
X96650Y32450D02*
X105150D01*
X96700Y32400D02*
X105100D01*
X96750Y32350D02*
X105050D01*
X96800Y32300D02*
X105000D01*
X96850Y32250D02*
X104950D01*
X96950Y32200D02*
X104900D01*
X97000Y32150D02*
X104850D01*
X97050Y32100D02*
X104750D01*
X97100Y32050D02*
X104700D01*
X97150Y32000D02*
X104650D01*
X97200Y31950D02*
X104600D01*
X97250Y31900D02*
X104550D01*
X97300Y31850D02*
X104500D01*
X97400Y31800D02*
X104450D01*
X97450Y31750D02*
X104400D01*
X97500Y31700D02*
X104350D01*
X97550Y31650D02*
X104300D01*
X97600Y31600D02*
X104250D01*
X97650Y31550D02*
X104150D01*
X97700Y31500D02*
X104100D01*
X97800Y31450D02*
X104050D01*
X97850Y31400D02*
X104000D01*
X97900Y31350D02*
X103950D01*
X97950Y31300D02*
X103900D01*
X98000Y31250D02*
X103850D01*
X98050Y31200D02*
X103800D01*
X98150Y31150D02*
X103700D01*
X98200Y31100D02*
X103650D01*
X98250Y31050D02*
X103600D01*
X98300Y31000D02*
X103550D01*
X98350Y30950D02*
X103500D01*
X98450Y30900D02*
X103450D01*
X98500Y30850D02*
X103400D01*
X98550Y30800D02*
X103300D01*
X98600Y30750D02*
X103250D01*
X98650Y30700D02*
X103200D01*
X98750Y30650D02*
X103150D01*
X98800Y30600D02*
X103100D01*
X98850Y30550D02*
X103150D01*
X98800Y30500D02*
X103200D01*
X98750Y30450D02*
X103250D01*
X98700Y30400D02*
X103300D01*
X98650Y30350D02*
X103350D01*
X98600Y30300D02*
X103400D01*
X98550Y30250D02*
X103450D01*
X98500Y30200D02*
X103500D01*
X98450Y30150D02*
X103550D01*
X98400Y30100D02*
X103600D01*
X98350Y30050D02*
X103650D01*
X98300Y30000D02*
X103700D01*
X98250Y29950D02*
X103750D01*
X98200Y29900D02*
X103800D01*
X98150Y29850D02*
X103900D01*
X98100Y29800D02*
X103950D01*
X98050Y29750D02*
X104000D01*
X98000Y29700D02*
X104050D01*
X97950Y29650D02*
X104100D01*
X97900Y29600D02*
X104150D01*
X97850Y29550D02*
X104200D01*
X97800Y29500D02*
X104250D01*
X97700Y29450D02*
X104300D01*
X97650Y29400D02*
X104400D01*
X97600Y29350D02*
X104450D01*
X97550Y29300D02*
X104500D01*
X97500Y29250D02*
X104550D01*
X97450Y29200D02*
X104600D01*
X97400Y29150D02*
X104650D01*
X97350Y29100D02*
X104700D01*
X97300Y29050D02*
X104750D01*
X97250Y29000D02*
X104850D01*
X97200Y28950D02*
X104900D01*
X101050Y28900D02*
X104950D01*
X97100D02*
X100900D01*
X101150Y28850D02*
X105000D01*
X97050D02*
X100850D01*
X101200Y28800D02*
X105050D01*
X97000D02*
X100750D01*
X101300Y28750D02*
X105100D01*
X96950D02*
X100700D01*
X101350Y28700D02*
X105200D01*
X96900D02*
X100650D01*
X101450Y28650D02*
X105250D01*
X96850D02*
X100550D01*
X101500Y28600D02*
X105300D01*
X96800D02*
X100500D01*
X101600Y28550D02*
X105350D01*
X96750D02*
X100400D01*
X101650Y28500D02*
X105400D01*
X96700D02*
X100350D01*
X101750Y28450D02*
X105500D01*
X96600D02*
X100250D01*
X101800Y28400D02*
X105550D01*
X96550D02*
X100200D01*
X101900Y28350D02*
X105600D01*
X96500D02*
X100100D01*
X102000Y28300D02*
X105650D01*
X96450D02*
X100050D01*
X102050Y28250D02*
X105700D01*
X96400D02*
X99950D01*
X102150Y28200D02*
X105800D01*
X96350D02*
X99900D01*
X102200Y28150D02*
X105850D01*
X96250D02*
X99800D01*
X102300Y28100D02*
X105900D01*
X96200D02*
X99750D01*
X102400Y28050D02*
X105950D01*
X96150D02*
X99650D01*
X102450Y28000D02*
X106050D01*
X96100D02*
X99600D01*
X102550Y27950D02*
X106100D01*
X96050D02*
X99500D01*
X102650Y27900D02*
X106150D01*
X95950D02*
X99400D01*
X102700Y27850D02*
X106250D01*
X95900D02*
X99350D01*
X102800Y27800D02*
X106300D01*
X95850D02*
X99250D01*
X102900Y27750D02*
X106350D01*
X95800D02*
X99150D01*
X103000Y27700D02*
X106400D01*
X95750D02*
X99100D01*
X103100Y27650D02*
X106500D01*
X95650D02*
X99000D01*
X103150Y27600D02*
X106550D01*
X95600D02*
X98900D01*
X103250Y27550D02*
X106600D01*
X95550D02*
X98850D01*
X103350Y27500D02*
X106700D01*
X95500D02*
X98750D01*
X103450Y27450D02*
X106750D01*
X95400D02*
X98650D01*
X103550Y27400D02*
X106800D01*
X95350D02*
X98550D01*
X103650Y27350D02*
X106900D01*
X95300D02*
X98500D01*
X103750Y27300D02*
X106950D01*
X95250D02*
X98400D01*
X103850Y27250D02*
X107000D01*
X95150D02*
X98300D01*
X103950Y27200D02*
X107100D01*
X95100D02*
X98200D01*
X104050Y27150D02*
X107150D01*
X95050D02*
X98100D01*
X104150Y27100D02*
X107200D01*
X94950D02*
X98000D01*
X104250Y27050D02*
X107300D01*
X94900D02*
X97900D01*
X104350Y27000D02*
X107350D01*
X94850D02*
X97800D01*
X104450Y26950D02*
X107450D01*
X94800D02*
X97700D01*
X104550Y26900D02*
X107500D01*
X94700D02*
X97600D01*
X104700Y26850D02*
X107600D01*
X94650D02*
X97500D01*
X104800Y26800D02*
X107650D01*
X94550D02*
X97400D01*
X104900Y26750D02*
X107700D01*
X94500D02*
X97300D01*
X105050Y26700D02*
X107800D01*
X94450D02*
X97200D01*
X105150Y26650D02*
X107850D01*
X94350D02*
X97050D01*
X105300Y26600D02*
X107950D01*
X94300D02*
X96950D01*
X105450Y26550D02*
X108000D01*
X94250D02*
X96850D01*
X105550Y26500D02*
X108100D01*
X94150D02*
X96700D01*
X105700Y26450D02*
X108150D01*
X94100D02*
X96600D01*
X105850Y26400D02*
X108250D01*
X94000D02*
X96450D01*
X106000Y26350D02*
X108350D01*
X93950D02*
X96350D01*
X106150Y26300D02*
X108400D01*
X93850D02*
X96200D01*
X106350Y26250D02*
X108500D01*
X93800D02*
X96050D01*
X106550Y26200D02*
X108550D01*
X93700D02*
X95900D01*
X106750Y26150D02*
X108650D01*
X93650D02*
X95750D01*
X106950Y26100D02*
X108750D01*
X93550D02*
X95600D01*
X107200Y26050D02*
X108800D01*
X93500D02*
X95400D01*
X107500Y26000D02*
X108900D01*
X93400D02*
X95200D01*
X108000Y25950D02*
X108650D01*
X93350D02*
X95000D01*
X93250Y25900D02*
X94750D01*
X93150Y25850D02*
X94500D01*
X93150Y25800D02*
X94100D01*
X109950Y24800D02*
X110150D01*
X109150D02*
X109200D01*
X109050D02*
X109100D01*
X108500D02*
X108650D01*
X107600D02*
X107750D01*
X106550D02*
X107000D01*
X105400D02*
X106300D01*
X105300D02*
X105350D01*
X104100D02*
X104500D01*
X103950D02*
X104050D01*
X102450D02*
X102900D01*
X101200D02*
X101700D01*
X99700D02*
X100150D01*
X98850D02*
X98950D01*
X98750D02*
X98800D01*
X97500D02*
X97700D01*
X96550D02*
X96700D01*
X95050D02*
X95550D01*
X94550D02*
X94800D01*
X94250D02*
X94500D01*
X93850D02*
X94200D01*
X93300D02*
X93550D01*
X92850D02*
X93250D01*
X92400D02*
X92550D01*
X92250D02*
X92350D01*
X92000D02*
X92200D01*
X109950Y24750D02*
X110150D01*
X109000D02*
X109250D01*
X108500D02*
X108700D01*
X107600D02*
X107800D01*
X106450D02*
X107150D01*
X105250D02*
X106300D01*
X103800D02*
X104500D01*
X102300D02*
X103000D01*
X101050D02*
X101750D01*
X99600D02*
X100250D01*
X98700D02*
X99000D01*
X97500D02*
X97750D01*
X96500D02*
X96750D01*
X95000D02*
X95650D01*
X93800D02*
X94850D01*
X92850D02*
X93600D01*
X91850D02*
X92550D01*
X109950Y24700D02*
X110150D01*
X109000D02*
X109250D01*
X108500D02*
X108700D01*
X107600D02*
X107800D01*
X106450D02*
X107200D01*
X105250D02*
X106300D01*
X103700D02*
X104500D01*
X102250D02*
X103100D01*
X100950D02*
X101750D01*
X99500D02*
X100350D01*
X98650D02*
X99000D01*
X97450D02*
X97800D01*
X96500D02*
X96750D01*
X95000D02*
X95750D01*
X93800D02*
X94850D01*
X92850D02*
X93600D01*
X91750D02*
X92550D01*
X109950Y24650D02*
X110150D01*
X109000D02*
X109250D01*
X108500D02*
X108700D01*
X107600D02*
X107800D01*
X106450D02*
X107250D01*
X105250D02*
X106300D01*
X103650D02*
X104500D01*
X102200D02*
X103150D01*
X100900D02*
X101750D01*
X99450D02*
X100400D01*
X98650D02*
X99000D01*
X97450D02*
X97800D01*
X96450D02*
X96800D01*
X95350D02*
X95800D01*
X95000D02*
X95300D01*
X93800D02*
X94850D01*
X92850D02*
X93600D01*
X91700D02*
X92550D01*
X109950Y24600D02*
X110150D01*
X109000D02*
X109250D01*
X108500D02*
X108700D01*
X107600D02*
X107800D01*
X107000D02*
X107300D01*
X106450D02*
X106550D01*
X105700D02*
X105900D01*
X104300D02*
X104500D01*
X103650D02*
X103950D01*
X102900D02*
X103200D01*
X102150D02*
X102450D01*
X101500D02*
X101750D01*
X100900D02*
X101200D01*
X100150D02*
X100450D01*
X99400D02*
X99700D01*
X98650D02*
X99000D01*
X97450D02*
X97800D01*
X96450D02*
X96800D01*
X95550D02*
X95800D01*
X95000D02*
X95100D01*
X94200D02*
X94400D01*
X93400D02*
X93600D01*
X92350D02*
X92550D01*
X91700D02*
X92000D01*
X109950Y24550D02*
X110150D01*
X109000D02*
X109250D01*
X108500D02*
X108700D01*
X107600D02*
X107800D01*
X107050D02*
X107300D01*
X105700D02*
X105900D01*
X104300D02*
X104500D01*
X103600D02*
X103850D01*
X102950D02*
X103250D01*
X102100D02*
X102400D01*
X101550D02*
X101700D01*
X100900D02*
X101100D01*
X100200D02*
X100500D01*
X99350D02*
X99650D01*
X98600D02*
X99000D01*
X97450D02*
X97850D01*
X96450D02*
X96850D01*
X95600D02*
X95850D01*
X94200D02*
X94400D01*
X93400D02*
X93600D01*
X92350D02*
X92550D01*
X91650D02*
X91900D01*
X109950Y24500D02*
X110150D01*
X109000D02*
X109250D01*
X108500D02*
X108700D01*
X107600D02*
X107800D01*
X107100D02*
X107300D01*
X105700D02*
X105900D01*
X104300D02*
X104500D01*
X103600D02*
X103850D01*
X103000D02*
X103250D01*
X102100D02*
X102350D01*
X101500D02*
X101750D01*
X100850D02*
X101100D01*
X100250D02*
X100500D01*
X99350D02*
X99600D01*
X98600D02*
X99000D01*
X97450D02*
X97850D01*
X96650D02*
X96850D01*
X96400D02*
X96600D01*
X95650D02*
X95850D01*
X94200D02*
X94400D01*
X93400D02*
X93600D01*
X92350D02*
X92550D01*
X91650D02*
X91850D01*
X109950Y24450D02*
X110150D01*
X109000D02*
X109250D01*
X108500D02*
X108700D01*
X107600D02*
X107800D01*
X107100D02*
X107300D01*
X105700D02*
X105900D01*
X104300D02*
X104500D01*
X103600D02*
X103800D01*
X103050D02*
X103300D01*
X102050D02*
X102300D01*
X101500D02*
X101750D01*
X100850D02*
X101100D01*
X100300D02*
X100550D01*
X99300D02*
X99550D01*
X98550D02*
X98950D01*
X97450D02*
X97900D01*
X96650D02*
X96850D01*
X96400D02*
X96600D01*
X95650D02*
X95850D01*
X94200D02*
X94400D01*
X93400D02*
X93600D01*
X92350D02*
X92550D01*
X91650D02*
X91850D01*
X109950Y24400D02*
X110150D01*
X109000D02*
X109250D01*
X108500D02*
X108700D01*
X107600D02*
X107800D01*
X107100D02*
X107300D01*
X105700D02*
X105900D01*
X104300D02*
X104500D01*
X103600D02*
X103800D01*
X103100D02*
X103300D01*
X102050D02*
X102250D01*
X101500D02*
X101750D01*
X100850D02*
X101100D01*
X100350D02*
X100550D01*
X99300D02*
X99500D01*
X98800D02*
X99000D01*
X98550D02*
X98750D01*
X97450D02*
X97900D01*
X96700D02*
X96900D01*
X96350D02*
X96600D01*
X95650D02*
X95850D01*
X94200D02*
X94400D01*
X93400D02*
X93600D01*
X92350D02*
X92550D01*
X91650D02*
X91850D01*
X109950Y24350D02*
X110150D01*
X109000D02*
X109250D01*
X108500D02*
X108700D01*
X107600D02*
X107800D01*
X107100D02*
X107300D01*
X105700D02*
X105900D01*
X104300D02*
X104500D01*
X103600D02*
X103800D01*
X103100D02*
X103350D01*
X102000D02*
X102250D01*
X101500D02*
X101750D01*
X100900D02*
X101100D01*
X100350D02*
X100600D01*
X99300D02*
X99500D01*
X98800D02*
X99000D01*
X98500D02*
X98750D01*
X97750D02*
X97950D01*
X97450D02*
X97700D01*
X96700D02*
X96900D01*
X96350D02*
X96550D01*
X95600D02*
X95850D01*
X94200D02*
X94400D01*
X93400D02*
X93600D01*
X92350D02*
X92550D01*
X91650D02*
X91850D01*
X109950Y24300D02*
X110150D01*
X109000D02*
X109250D01*
X108500D02*
X108700D01*
X107600D02*
X107800D01*
X107050D02*
X107300D01*
X105700D02*
X105900D01*
X104300D02*
X104500D01*
X103600D02*
X103800D01*
X103150D02*
X103350D01*
X102000D02*
X102250D01*
X101500D02*
X101750D01*
X100900D02*
X101100D01*
X100400D02*
X100600D01*
X99250D02*
X99500D01*
X98800D02*
X99000D01*
X98500D02*
X98700D01*
X97750D02*
X97950D01*
X97450D02*
X97700D01*
X96750D02*
X96950D01*
X96350D02*
X96550D01*
X95550D02*
X95800D01*
X94200D02*
X94400D01*
X93400D02*
X93600D01*
X92350D02*
X92550D01*
X91650D02*
X91850D01*
X109950Y24250D02*
X110150D01*
X109000D02*
X109250D01*
X108500D02*
X108700D01*
X107600D02*
X107800D01*
X106950D02*
X107250D01*
X105700D02*
X105900D01*
X104300D02*
X104500D01*
X103650D02*
X103850D01*
X103150D02*
X103350D01*
X102000D02*
X102200D01*
X101500D02*
X101750D01*
X100950D02*
X101150D01*
X100400D02*
X100600D01*
X99250D02*
X99450D01*
X98800D02*
X99000D01*
X98450D02*
X98700D01*
X97800D02*
X98000D01*
X97450D02*
X97700D01*
X96750D02*
X96950D01*
X96300D02*
X96500D01*
X95500D02*
X95800D01*
X94200D02*
X94400D01*
X93400D02*
X93600D01*
X92350D02*
X92550D01*
X91650D02*
X91900D01*
X109950Y24200D02*
X110150D01*
X109000D02*
X109250D01*
X108500D02*
X108700D01*
X107600D02*
X107800D01*
X106850D02*
X107250D01*
X105700D02*
X105900D01*
X104300D02*
X104500D01*
X103650D02*
X103900D01*
X103150D02*
X103350D01*
X102000D02*
X102200D01*
X101500D02*
X101750D01*
X101000D02*
X101250D01*
X100400D02*
X100600D01*
X99250D02*
X99450D01*
X98800D02*
X99000D01*
X98450D02*
X98650D01*
X97800D02*
X98000D01*
X97450D02*
X97700D01*
X96750D02*
X96950D01*
X96300D02*
X96500D01*
X95400D02*
X95750D01*
X94200D02*
X94400D01*
X93400D02*
X93600D01*
X92350D02*
X92550D01*
X91700D02*
X91950D01*
X109000Y24150D02*
X110150D01*
X108500D02*
X108700D01*
X107600D02*
X107800D01*
X106750D02*
X107200D01*
X105700D02*
X105900D01*
X104300D02*
X104500D01*
X103700D02*
X104000D01*
X103150D02*
X103350D01*
X102000D02*
X102200D01*
X101050D02*
X101750D01*
X100400D02*
X100600D01*
X99250D02*
X99450D01*
X98800D02*
X99000D01*
X98450D02*
X98650D01*
X97800D02*
X98000D01*
X97450D02*
X97700D01*
X96800D02*
X97000D01*
X96250D02*
X96500D01*
X95300D02*
X95700D01*
X94200D02*
X94400D01*
X92850D02*
X93600D01*
X92350D02*
X92550D01*
X91750D02*
X92050D01*
X109000Y24100D02*
X110150D01*
X108500D02*
X108700D01*
X107600D02*
X107800D01*
X106700D02*
X107100D01*
X105700D02*
X105900D01*
X103750D02*
X104500D01*
X103150D02*
X103350D01*
X102000D02*
X102200D01*
X101000D02*
X101750D01*
X100400D02*
X100600D01*
X99250D02*
X99450D01*
X98800D02*
X99000D01*
X98400D02*
X98600D01*
X97850D02*
X98050D01*
X97450D02*
X97700D01*
X96800D02*
X97000D01*
X96250D02*
X96450D01*
X95200D02*
X95650D01*
X94200D02*
X94400D01*
X92850D02*
X93600D01*
X91800D02*
X92550D01*
X109000Y24050D02*
X110150D01*
X108500D02*
X108700D01*
X107600D02*
X107800D01*
X106600D02*
X107000D01*
X105700D02*
X105900D01*
X103800D02*
X104500D01*
X103150D02*
X103350D01*
X102000D02*
X102200D01*
X100900D02*
X101750D01*
X100400D02*
X100650D01*
X99250D02*
X99450D01*
X98800D02*
X99000D01*
X98400D02*
X98600D01*
X97850D02*
X98050D01*
X97500D02*
X97700D01*
X96800D02*
X97000D01*
X96250D02*
X96450D01*
X95150D02*
X95550D01*
X94200D02*
X94400D01*
X92850D02*
X93600D01*
X91850D02*
X92550D01*
X109000Y24000D02*
X110150D01*
X108500D02*
X108700D01*
X107600D02*
X107800D01*
X106550D02*
X106950D01*
X105700D02*
X105900D01*
X103900D02*
X104500D01*
X103150D02*
X103350D01*
X102000D02*
X102200D01*
X101500D02*
X101750D01*
X100850D02*
X101200D01*
X100400D02*
X100650D01*
X99250D02*
X99450D01*
X98800D02*
X99000D01*
X98350D02*
X98550D01*
X97900D02*
X98100D01*
X97450D02*
X97700D01*
X96850D02*
X97050D01*
X96200D02*
X96450D01*
X95050D02*
X95450D01*
X94200D02*
X94400D01*
X93000D02*
X93600D01*
X91950D02*
X92550D01*
X109950Y23950D02*
X110150D01*
X109000D02*
X109250D01*
X108500D02*
X108700D01*
X107600D02*
X107800D01*
X106500D02*
X106850D01*
X105700D02*
X105900D01*
X104300D02*
X104500D01*
X103800D02*
X104150D01*
X103150D02*
X103350D01*
X102000D02*
X102200D01*
X101500D02*
X101750D01*
X100850D02*
X101100D01*
X100400D02*
X100600D01*
X99250D02*
X99450D01*
X98800D02*
X99000D01*
X98350D02*
X98550D01*
X97900D02*
X98100D01*
X97450D02*
X97700D01*
X96850D02*
X97050D01*
X96200D02*
X96400D01*
X95050D02*
X95350D01*
X94200D02*
X94400D01*
X93400D02*
X93600D01*
X92350D02*
X92550D01*
X91850D02*
X92200D01*
X109950Y23900D02*
X110150D01*
X109000D02*
X109250D01*
X108500D02*
X108700D01*
X107600D02*
X107800D01*
X106450D02*
X106750D01*
X105700D02*
X105900D01*
X104300D02*
X104500D01*
X103750D02*
X104000D01*
X103150D02*
X103350D01*
X102000D02*
X102200D01*
X101500D02*
X101750D01*
X100800D02*
X101050D01*
X100400D02*
X100600D01*
X99250D02*
X99450D01*
X98800D02*
X99000D01*
X98300D02*
X98550D01*
X97950D02*
X98150D01*
X97450D02*
X97650D01*
X96200D02*
X97100D01*
X95000D02*
X95300D01*
X94200D02*
X94400D01*
X93400D02*
X93600D01*
X92350D02*
X92550D01*
X91800D02*
X92050D01*
X109950Y23850D02*
X110150D01*
X109000D02*
X109250D01*
X108500D02*
X108700D01*
X107600D02*
X107800D01*
X106450D02*
X106700D01*
X105700D02*
X105900D01*
X104300D02*
X104500D01*
X103750D02*
X103950D01*
X103150D02*
X103350D01*
X102000D02*
X102250D01*
X101500D02*
X101750D01*
X100800D02*
X101000D01*
X100400D02*
X100600D01*
X99250D02*
X99500D01*
X98800D02*
X99000D01*
X98300D02*
X98500D01*
X97950D02*
X98150D01*
X97450D02*
X97700D01*
X96150D02*
X97100D01*
X94950D02*
X95250D01*
X94200D02*
X94400D01*
X93400D02*
X93600D01*
X92350D02*
X92550D01*
X91800D02*
X92000D01*
X109950Y23800D02*
X110150D01*
X109000D02*
X109250D01*
X108450D02*
X108700D01*
X107600D02*
X107800D01*
X106400D02*
X106650D01*
X105700D02*
X105900D01*
X104300D02*
X104500D01*
X103700D02*
X103950D01*
X103100D02*
X103350D01*
X102050D02*
X102250D01*
X101500D02*
X101750D01*
X100800D02*
X101000D01*
X100350D02*
X100600D01*
X99300D02*
X99500D01*
X98800D02*
X99000D01*
X98300D02*
X98500D01*
X98000D02*
X98150D01*
X97450D02*
X97700D01*
X96150D02*
X97100D01*
X94950D02*
X95200D01*
X94200D02*
X94400D01*
X93400D02*
X93600D01*
X92350D02*
X92550D01*
X91750D02*
X92000D01*
X109950Y23750D02*
X110150D01*
X109000D02*
X109250D01*
X108450D02*
X108700D01*
X107600D02*
X107800D01*
X106400D02*
X106650D01*
X105700D02*
X105900D01*
X104300D02*
X104500D01*
X103700D02*
X103900D01*
X103100D02*
X103300D01*
X102050D02*
X102250D01*
X101500D02*
X101750D01*
X100800D02*
X101000D01*
X100350D02*
X100550D01*
X99300D02*
X99500D01*
X98800D02*
X99000D01*
X98250D02*
X98450D01*
X98000D02*
X98200D01*
X97450D02*
X97700D01*
X96900D02*
X97150D01*
X96700D02*
X96850D01*
X96450D02*
X96650D01*
X96100D02*
X96400D01*
X94950D02*
X95150D01*
X94200D02*
X94400D01*
X93400D02*
X93600D01*
X92350D02*
X92550D01*
X91700D02*
X91950D01*
X109950Y23700D02*
X110150D01*
X109000D02*
X109250D01*
X108450D02*
X108650D01*
X107600D02*
X107850D01*
X106400D02*
X106650D01*
X105700D02*
X105900D01*
X104300D02*
X104500D01*
X103650D02*
X103900D01*
X103050D02*
X103300D01*
X102050D02*
X102300D01*
X101500D02*
X101750D01*
X100800D02*
X101000D01*
X100300D02*
X100550D01*
X99300D02*
X99550D01*
X98800D02*
X99000D01*
X98250D02*
X98450D01*
X98000D02*
X98200D01*
X97450D02*
X97700D01*
X96950D02*
X97150D01*
X96100D02*
X96300D01*
X94950D02*
X95150D01*
X94200D02*
X94400D01*
X93400D02*
X93600D01*
X92350D02*
X92550D01*
X91700D02*
X91900D01*
X109950Y23650D02*
X110150D01*
X109000D02*
X109250D01*
X108400D02*
X108650D01*
X107650D02*
X107850D01*
X106450D02*
X106650D01*
X105700D02*
X105900D01*
X104300D02*
X104500D01*
X103600D02*
X103850D01*
X103000D02*
X103250D01*
X102100D02*
X102350D01*
X101500D02*
X101750D01*
X100800D02*
X101050D01*
X100250D02*
X100550D01*
X99350D02*
X99600D01*
X98800D02*
X99000D01*
X98050D02*
X98400D01*
X97450D02*
X97700D01*
X96950D02*
X97200D01*
X96100D02*
X96300D01*
X94950D02*
X95150D01*
X94200D02*
X94400D01*
X93400D02*
X93600D01*
X92350D02*
X92550D01*
X91650D02*
X91900D01*
X109950Y23600D02*
X110150D01*
X109000D02*
X109250D01*
X108400D02*
X108650D01*
X107650D02*
X107900D01*
X107250D02*
X107300D01*
X106450D02*
X106650D01*
X105700D02*
X105900D01*
X104300D02*
X104500D01*
X103600D02*
X103800D01*
X102950D02*
X103250D01*
X102100D02*
X102400D01*
X101500D02*
X101750D01*
X100850D02*
X101100D01*
X100200D02*
X100500D01*
X99400D02*
X99650D01*
X98800D02*
X99000D01*
X98050D02*
X98400D01*
X97450D02*
X97700D01*
X97000D02*
X97200D01*
X96050D02*
X96300D01*
X95800D02*
X95850D01*
X94950D02*
X95200D01*
X94200D02*
X94400D01*
X93400D02*
X93600D01*
X92350D02*
X92550D01*
X91650D02*
X91850D01*
X109950Y23550D02*
X110150D01*
X109000D02*
X109250D01*
X108300D02*
X108600D01*
X107700D02*
X107950D01*
X107150D02*
X107300D01*
X106450D02*
X106700D01*
X105700D02*
X105900D01*
X104300D02*
X104500D01*
X103550D02*
X103800D01*
X102900D02*
X103200D01*
X102150D02*
X102450D01*
X101500D02*
X101750D01*
X100850D02*
X101150D01*
X100150D02*
X100450D01*
X99400D02*
X99750D01*
X98800D02*
X99000D01*
X98100D02*
X98350D01*
X97450D02*
X97700D01*
X97000D02*
X97200D01*
X96050D02*
X96250D01*
X95700D02*
X95850D01*
X95000D02*
X95250D01*
X94200D02*
X94400D01*
X93400D02*
X93600D01*
X92350D02*
X92550D01*
X91600D02*
X91850D01*
X109950Y23500D02*
X110150D01*
X109000D02*
X109250D01*
X107700D02*
X108600D01*
X106950D02*
X107300D01*
X106500D02*
X106900D01*
X105700D02*
X105900D01*
X104300D02*
X104500D01*
X103500D02*
X103750D01*
X102200D02*
X103150D01*
X100900D02*
X101750D01*
X99450D02*
X100400D01*
X98800D02*
X99000D01*
X98100D02*
X98350D01*
X97450D02*
X97700D01*
X97000D02*
X97250D01*
X96050D02*
X96250D01*
X95450D02*
X95850D01*
X95000D02*
X95400D01*
X94200D02*
X94400D01*
X92800D02*
X93600D01*
X92350D02*
X92550D01*
X91550D02*
X91800D01*
X109950Y23450D02*
X110150D01*
X109000D02*
X109250D01*
X107750D02*
X108550D01*
X106550D02*
X107300D01*
X105700D02*
X105900D01*
X104300D02*
X104500D01*
X103500D02*
X103750D01*
X102250D02*
X103100D01*
X100950D02*
X101750D01*
X99500D02*
X100350D01*
X98800D02*
X99000D01*
X98150D02*
X98350D01*
X97450D02*
X97700D01*
X97050D02*
X97250D01*
X96000D02*
X96250D01*
X95050D02*
X95850D01*
X94200D02*
X94400D01*
X92800D02*
X93600D01*
X92350D02*
X92550D01*
X91550D02*
X91750D01*
X109950Y23400D02*
X110150D01*
X109000D02*
X109250D01*
X107800D02*
X108450D01*
X106600D02*
X107300D01*
X105700D02*
X105900D01*
X104300D02*
X104500D01*
X103450D02*
X103700D01*
X102350D02*
X103000D01*
X101050D02*
X101750D01*
X99600D02*
X100300D01*
X98800D02*
X99000D01*
X98150D02*
X98300D01*
X97450D02*
X97700D01*
X97050D02*
X97250D01*
X96000D02*
X96200D01*
X95150D02*
X95850D01*
X94200D02*
X94400D01*
X92800D02*
X93600D01*
X92350D02*
X92550D01*
X91500D02*
X91750D01*
X109950Y23350D02*
X110100D01*
X109050D02*
X109200D01*
X107950D02*
X108350D01*
X106750D02*
X107150D01*
X105700D02*
X105850D01*
X104300D02*
X104500D01*
X103450D02*
X103650D01*
X102500D02*
X102900D01*
X101400D02*
X101650D01*
X101200D02*
X101350D01*
X99750D02*
X100150D01*
X98800D02*
X98950D01*
X97500D02*
X97650D01*
X97100D02*
X97250D01*
X96000D02*
X96200D01*
X95250D02*
X95700D01*
X94250D02*
X94400D01*
X93100D02*
X93550D01*
X92850D02*
X93050D01*
X92350D02*
X92550D01*
X91650D02*
X91700D01*
X91500D02*
X91600D01*
M02*
