G04*
G04 #@! TF.GenerationSoftware,Altium Limited,Altium Designer,20.0.2 (26)*
G04*
G04 Layer_Color=65535*
%FSLAX25Y25*%
%MOIN*%
G70*
G01*
G75*
%ADD10C,0.00787*%
%ADD11C,0.00984*%
%ADD12C,0.01181*%
%ADD13C,0.01000*%
%ADD14C,0.00600*%
%ADD15C,0.00591*%
%ADD16C,0.00394*%
%ADD17C,0.00472*%
G36*
X30132Y30234D02*
X29131D01*
Y28734D01*
X30132D01*
Y30234D01*
D02*
G37*
G36*
X60931Y53266D02*
X61932D01*
Y51766D01*
X60931D01*
Y53266D01*
D02*
G37*
D10*
X28201Y74685D02*
G03*
X28201Y74685I-394J0D01*
G01*
X35531Y55000D02*
G03*
X35531Y55000I-500J0D01*
G01*
X95657Y36811D02*
G03*
X95657Y36811I-394J0D01*
G01*
X42868Y10795D02*
X52021D01*
X43655Y22605D02*
X46903D01*
X30154Y74102D02*
X32909D01*
X30154Y61898D02*
X32909D01*
X30154D02*
Y74102D01*
X32909Y61898D02*
Y74102D01*
X65610Y57118D02*
X72008D01*
X65610Y46882D02*
X72008D01*
X65610D02*
Y48654D01*
Y55347D02*
Y57118D01*
X95657Y36417D02*
X97626D01*
X107468Y35433D02*
Y36417D01*
X95657Y24607D02*
Y25591D01*
Y24607D02*
X95658Y24606D01*
X96642D01*
X106484D02*
X107469D01*
X107468Y24606D02*
X107469Y24606D01*
X107468Y24606D02*
Y25591D01*
X95657Y35433D02*
Y36417D01*
X106484D02*
X107468D01*
X103055Y57882D02*
X109453D01*
X103055Y68118D02*
X109453D01*
Y66347D02*
Y68118D01*
Y57882D02*
Y59654D01*
D11*
X74024Y44508D02*
G03*
X74024Y44508I-492J0D01*
G01*
X102024Y70492D02*
G03*
X102024Y70492I-492J0D01*
G01*
D12*
X116800Y23300D02*
Y29100D01*
Y23300D02*
X118500Y25000D01*
X115000D02*
X116700Y23300D01*
X120900Y27300D02*
X122600Y29000D01*
Y29100D01*
X120800Y30800D02*
X120900D01*
X122600Y29100D01*
X120800Y30800D02*
X120900D01*
X116800Y29100D02*
X122600D01*
D13*
X81842Y13500D02*
X89342D01*
X75343Y5000D02*
Y11000D01*
X101720Y5000D02*
Y11000D01*
X78031Y2500D02*
X99032D01*
X95531Y-3500D02*
Y2488D01*
X89531Y-3500D02*
X95531D01*
X89531D02*
Y2488D01*
X64550Y24500D02*
X68150D01*
X64550Y19500D02*
Y24500D01*
Y19500D02*
X68150D01*
X72150D02*
X75750D01*
X72150Y24500D02*
X75750D01*
Y19500D02*
Y24500D01*
X25932Y1800D02*
Y5400D01*
Y1800D02*
X30931D01*
Y5400D01*
Y9400D02*
Y13000D01*
X25932Y9400D02*
Y13000D01*
X30931D01*
X66831Y39000D02*
X70832D01*
X71332Y33400D02*
Y37000D01*
X66331Y33400D02*
X71332D01*
X66331D02*
Y37000D01*
Y41000D02*
Y44600D01*
X71332D01*
Y41000D02*
Y44600D01*
X89531Y56500D02*
X93132D01*
Y61500D01*
X89531D02*
X93132D01*
X81932D02*
X85532D01*
X81932Y56500D02*
X85532D01*
X81932D02*
Y61500D01*
X58232Y16400D02*
X62231D01*
X62731Y10800D02*
Y14400D01*
X57731Y10800D02*
X62731D01*
X57731D02*
Y14400D01*
Y18400D02*
Y22000D01*
X62731D01*
Y18400D02*
Y22000D01*
X15631Y68500D02*
X19632D01*
X20132Y62900D02*
Y66500D01*
X15132Y62900D02*
X20132D01*
X15132D02*
Y66500D01*
Y70500D02*
Y74100D01*
X20132D01*
Y70500D02*
Y74100D01*
X47532Y69000D02*
Y73000D01*
X41932Y68500D02*
X45531D01*
X41932D02*
Y73500D01*
X45531D01*
X49531D02*
X53132D01*
Y68500D02*
Y73500D01*
X49531Y68500D02*
X53132D01*
X47532Y62000D02*
Y66000D01*
X49531Y66500D02*
X53132D01*
Y61500D02*
Y66500D01*
X49531Y61500D02*
X53132D01*
X41932D02*
X45531D01*
X41932D02*
Y66500D01*
X45531D01*
X81932Y69500D02*
X85532D01*
X81932Y64500D02*
Y69500D01*
Y64500D02*
X85532D01*
X89531D02*
X93132D01*
X89531Y69500D02*
X93132D01*
Y64500D02*
Y69500D01*
X18632Y9300D02*
Y12900D01*
Y9300D02*
X23631D01*
Y12900D01*
Y16900D02*
Y20500D01*
X18632Y16900D02*
Y20500D01*
X23631D01*
X16231Y21500D02*
X17031Y20700D01*
X16231Y21500D02*
Y22600D01*
X11631Y20700D02*
X12331Y21400D01*
Y22600D01*
X16231D01*
X11631Y20700D02*
X17031D01*
X11631Y16500D02*
Y20700D01*
Y9300D02*
Y13700D01*
Y9300D02*
X17031D01*
Y13500D01*
Y16500D02*
Y20700D01*
X63032Y61400D02*
Y65000D01*
Y61400D02*
X68032D01*
Y65000D01*
Y69000D02*
Y72600D01*
X63032D02*
X68032D01*
X63032Y69000D02*
Y72600D01*
X63532Y67000D02*
X67532D01*
X35131Y6400D02*
X38732D01*
X35131Y1400D02*
Y6400D01*
Y1400D02*
X38732D01*
X42731D02*
X46332D01*
Y6400D01*
X42731D02*
X46332D01*
X40731Y1900D02*
Y5900D01*
D14*
X37190Y54500D02*
X53873D01*
X37190Y27500D02*
X53873D01*
D15*
X90603Y37139D02*
Y40128D01*
X87060D02*
X90603D01*
X87060Y37139D02*
Y40128D01*
Y31072D02*
Y34139D01*
Y31072D02*
X90603D01*
Y34139D01*
X113071Y41228D02*
X116059D01*
Y44772D01*
X113071D02*
X116059D01*
X107004D02*
X110071D01*
X107004Y41228D02*
Y44772D01*
Y41228D02*
X110071D01*
X100071Y47228D02*
X103059D01*
Y50772D01*
X100071D02*
X103059D01*
X94004D02*
X97071D01*
X94004Y47228D02*
Y50772D01*
Y47228D02*
X97071D01*
X94004Y44772D02*
X96992D01*
X94004Y41228D02*
Y44772D01*
Y41228D02*
X96992D01*
X99992D02*
X103059D01*
Y44772D01*
X99992D02*
X103059D01*
X7760Y57061D02*
Y60128D01*
X11303D01*
Y57061D02*
Y60128D01*
Y51072D02*
Y54061D01*
X7760Y51072D02*
X11303D01*
X7760D02*
Y54061D01*
X8548Y55600D02*
X10516D01*
X11303Y37572D02*
Y40639D01*
X7760Y37572D02*
X11303D01*
X7760D02*
Y40639D01*
Y43639D02*
Y46628D01*
X11303D01*
Y43639D02*
Y46628D01*
X8546Y42100D02*
X10515D01*
D16*
X15413Y42794D02*
Y54606D01*
X25650Y42794D02*
Y54606D01*
X78166Y24460D02*
X80134D01*
Y23476D01*
X79806Y23148D01*
X79150D01*
X78822Y23476D01*
Y24460D01*
Y23804D02*
X78166Y23148D01*
Y22492D02*
Y21836D01*
Y22164D01*
X80134D01*
X79806Y22492D01*
X80134Y19540D02*
X79806Y20196D01*
X79150Y20852D01*
X78494D01*
X78166Y20524D01*
Y19868D01*
X78494Y19540D01*
X78822D01*
X79150Y19868D01*
Y20852D01*
X9204Y35256D02*
X8875Y35584D01*
X8220D01*
X7892Y35256D01*
Y33944D01*
X8220Y33616D01*
X8875D01*
X9204Y33944D01*
X9860Y35584D02*
X11171D01*
Y35256D01*
X9860Y33944D01*
Y33616D01*
X9204Y63756D02*
X8875Y64084D01*
X8220D01*
X7892Y63756D01*
Y62444D01*
X8220Y62116D01*
X8875D01*
X9204Y62444D01*
X11171Y64084D02*
X9860D01*
Y63100D01*
X10515Y63428D01*
X10843D01*
X11171Y63100D01*
Y62444D01*
X10843Y62116D01*
X10187D01*
X9860Y62444D01*
X53492Y9684D02*
Y8044D01*
X53820Y7716D01*
X54475D01*
X54804Y8044D01*
Y9684D01*
X56771D02*
X55459D01*
Y8700D01*
X56115Y9028D01*
X56443D01*
X56771Y8700D01*
Y8044D01*
X56443Y7716D01*
X55787D01*
X55459Y8044D01*
X67372Y4356D02*
X67044Y4684D01*
X66388D01*
X66060Y4356D01*
Y4028D01*
X66388Y3700D01*
X67044D01*
X67372Y3372D01*
Y3044D01*
X67044Y2716D01*
X66388D01*
X66060Y3044D01*
X68028Y4356D02*
X68356Y4684D01*
X69012D01*
X69340Y4356D01*
Y4028D01*
X69012Y3700D01*
X68684D01*
X69012D01*
X69340Y3372D01*
Y3044D01*
X69012Y2716D01*
X68356D01*
X68028Y3044D01*
X63084Y9306D02*
X62756Y9634D01*
X62100D01*
X61772Y9306D01*
Y7994D01*
X62100Y7666D01*
X62756D01*
X63084Y7994D01*
X63740Y7666D02*
X64395D01*
X64068D01*
Y9634D01*
X63740Y9306D01*
X66691Y9634D02*
X66035Y9306D01*
X65379Y8650D01*
Y7994D01*
X65707Y7666D01*
X66363D01*
X66691Y7994D01*
Y8322D01*
X66363Y8650D01*
X65379D01*
X15631Y60337D02*
Y60009D01*
X16287Y59353D01*
X16943Y60009D01*
Y60337D01*
X16287Y59353D02*
Y58369D01*
X17599D02*
X18255D01*
X17927D01*
Y60337D01*
X17599Y60009D01*
X24892Y77984D02*
Y76344D01*
X25220Y76016D01*
X25875D01*
X26204Y76344D01*
Y77984D01*
X27843Y76016D02*
Y77984D01*
X26860Y77000D01*
X28171D01*
X81548Y52360D02*
X83188D01*
X83515Y52688D01*
Y53344D01*
X83188Y53672D01*
X81548D01*
X81875Y54328D02*
X81548Y54656D01*
Y55312D01*
X81875Y55640D01*
X82204D01*
X82531Y55312D01*
Y54984D01*
Y55312D01*
X82859Y55640D01*
X83188D01*
X83515Y55312D01*
Y54656D01*
X83188Y54328D01*
X106892Y22984D02*
Y21344D01*
X107220Y21016D01*
X107876D01*
X108203Y21344D01*
Y22984D01*
X110171Y21016D02*
X108860D01*
X110171Y22328D01*
Y22656D01*
X109843Y22984D01*
X109187D01*
X108860Y22656D01*
X28220Y57984D02*
Y56344D01*
X28548Y56016D01*
X29204D01*
X29531Y56344D01*
Y57984D01*
X30187Y56016D02*
X30843D01*
X30515D01*
Y57984D01*
X30187Y57656D01*
X85072Y53016D02*
Y54984D01*
X86056D01*
X86384Y54656D01*
Y54000D01*
X86056Y53672D01*
X85072D01*
X85728D02*
X86384Y53016D01*
X87040D02*
X87695D01*
X87367D01*
Y54984D01*
X87040Y54656D01*
X88679D02*
X89007Y54984D01*
X89663D01*
X89991Y54656D01*
Y54328D01*
X89663Y54000D01*
X89335D01*
X89663D01*
X89991Y53672D01*
Y53344D01*
X89663Y53016D01*
X89007D01*
X88679Y53344D01*
X18531Y23400D02*
Y25368D01*
X19515D01*
X19843Y25040D01*
Y24384D01*
X19515Y24056D01*
X18531D01*
X19187D02*
X19843Y23400D01*
X20499D02*
X21155D01*
X20827D01*
Y25368D01*
X20499Y25040D01*
X23451Y23400D02*
X22139D01*
X23451Y24712D01*
Y25040D01*
X23123Y25368D01*
X22467D01*
X22139Y25040D01*
X81832Y72400D02*
Y74368D01*
X82815D01*
X83143Y74040D01*
Y73384D01*
X82815Y73056D01*
X81832D01*
X82487D02*
X83143Y72400D01*
X83799D02*
X84455D01*
X84127D01*
Y74368D01*
X83799Y74040D01*
X85439Y72400D02*
X86095D01*
X85767D01*
Y74368D01*
X85439Y74040D01*
X25831Y15900D02*
Y17868D01*
X26815D01*
X27143Y17540D01*
Y16884D01*
X26815Y16556D01*
X25831D01*
X26487D02*
X27143Y15900D01*
X27799D02*
X28455D01*
X28127D01*
Y17868D01*
X27799Y17540D01*
X99443Y74228D02*
Y75540D01*
X99115Y75868D01*
X98460D01*
X98132Y75540D01*
Y74228D01*
X98460Y73900D01*
X99115D01*
X98787Y74556D02*
X99443Y73900D01*
X99115D02*
X99443Y74228D01*
X100099Y73900D02*
X100755D01*
X100427D01*
Y75868D01*
X100099Y75540D01*
X11531Y27140D02*
X11859Y27468D01*
X12515D01*
X12843Y27140D01*
Y26812D01*
X12515Y26484D01*
X12187D01*
X12515D01*
X12843Y26156D01*
Y25828D01*
X12515Y25500D01*
X11859D01*
X11531Y25828D01*
X13499Y27468D02*
Y26156D01*
X14155Y25500D01*
X14811Y26156D01*
Y27468D01*
X15467Y27140D02*
X15795Y27468D01*
X16451D01*
X16779Y27140D01*
Y26812D01*
X16451Y26484D01*
X16123D01*
X16451D01*
X16779Y26156D01*
Y25828D01*
X16451Y25500D01*
X15795D01*
X15467Y25828D01*
X55384Y60656D02*
X55056Y60984D01*
X54400D01*
X54072Y60656D01*
Y59344D01*
X54400Y59016D01*
X55056D01*
X55384Y59344D01*
X56040Y59016D02*
X56695D01*
X56367D01*
Y60984D01*
X56040Y60656D01*
X58991Y60984D02*
X57679D01*
Y60000D01*
X58335Y60328D01*
X58663D01*
X58991Y60000D01*
Y59344D01*
X58663Y59016D01*
X58007D01*
X57679Y59344D01*
X55384Y76656D02*
X55056Y76984D01*
X54400D01*
X54072Y76656D01*
Y75344D01*
X54400Y75016D01*
X55056D01*
X55384Y75344D01*
X56040Y75016D02*
X56695D01*
X56367D01*
Y76984D01*
X56040Y76656D01*
X58663Y75016D02*
Y76984D01*
X57679Y76000D01*
X58991D01*
X16484Y77156D02*
X16156Y77484D01*
X15500D01*
X15172Y77156D01*
Y75844D01*
X15500Y75516D01*
X16156D01*
X16484Y75844D01*
X17140Y75516D02*
X17796D01*
X17468D01*
Y77484D01*
X17140Y77156D01*
X18779D02*
X19107Y77484D01*
X19763D01*
X20091Y77156D01*
Y76828D01*
X19763Y76500D01*
X19435D01*
X19763D01*
X20091Y76172D01*
Y75844D01*
X19763Y75516D01*
X19107D01*
X18779Y75844D01*
X36343Y10940D02*
X36015Y11268D01*
X35359D01*
X35032Y10940D01*
Y9628D01*
X35359Y9300D01*
X36015D01*
X36343Y9628D01*
X36999D02*
X37327Y9300D01*
X37983D01*
X38311Y9628D01*
Y10940D01*
X37983Y11268D01*
X37327D01*
X36999Y10940D01*
Y10612D01*
X37327Y10284D01*
X38311D01*
X64243Y77140D02*
X63915Y77468D01*
X63260D01*
X62932Y77140D01*
Y75828D01*
X63260Y75500D01*
X63915D01*
X64243Y75828D01*
X64899Y77140D02*
X65227Y77468D01*
X65883D01*
X66211Y77140D01*
Y76812D01*
X65883Y76484D01*
X66211Y76156D01*
Y75828D01*
X65883Y75500D01*
X65227D01*
X64899Y75828D01*
Y76156D01*
X65227Y76484D01*
X64899Y76812D01*
Y77140D01*
X65227Y76484D02*
X65883D01*
X73904Y32256D02*
X73576Y32584D01*
X72920D01*
X72592Y32256D01*
Y30944D01*
X72920Y30616D01*
X73576D01*
X73904Y30944D01*
X75871Y32584D02*
X75215Y32256D01*
X74559Y31600D01*
Y30944D01*
X74888Y30616D01*
X75543D01*
X75871Y30944D01*
Y31272D01*
X75543Y31600D01*
X74559D01*
X119203Y43656D02*
X118876Y43984D01*
X118220D01*
X117892Y43656D01*
Y42344D01*
X118220Y42016D01*
X118876D01*
X119203Y42344D01*
X120843Y42016D02*
Y43984D01*
X119860Y43000D01*
X121171D01*
X90203Y49656D02*
X89876Y49984D01*
X89220D01*
X88892Y49656D01*
Y48344D01*
X89220Y48016D01*
X89876D01*
X90203Y48344D01*
X90860Y49656D02*
X91188Y49984D01*
X91843D01*
X92171Y49656D01*
Y49328D01*
X91843Y49000D01*
X91515D01*
X91843D01*
X92171Y48672D01*
Y48344D01*
X91843Y48016D01*
X91188D01*
X90860Y48344D01*
X90203Y43656D02*
X89876Y43984D01*
X89220D01*
X88892Y43656D01*
Y42344D01*
X89220Y42016D01*
X89876D01*
X90203Y42344D01*
X92171Y42016D02*
X90860D01*
X92171Y43328D01*
Y43656D01*
X91843Y43984D01*
X91188D01*
X90860Y43656D01*
X89031Y29256D02*
X88704Y29584D01*
X88048D01*
X87720Y29256D01*
Y27944D01*
X88048Y27616D01*
X88704D01*
X89031Y27944D01*
X89688Y27616D02*
X90343D01*
X90015D01*
Y29584D01*
X89688Y29256D01*
D17*
X113672Y22334D02*
Y21940D01*
X114460Y21153D01*
X115247Y21940D01*
Y22334D01*
X114460Y21153D02*
Y19972D01*
X123372Y27534D02*
X124947Y25172D01*
Y27534D02*
X123372Y25172D01*
M02*
