G04*
G04 #@! TF.GenerationSoftware,Altium Limited,Altium Designer,20.0.2 (26)*
G04*
G04 Layer_Color=128*
%FSLAX25Y25*%
%MOIN*%
G70*
G01*
G75*
%ADD20R,0.03500X0.03500*%
%ADD21R,0.03500X0.03500*%
%ADD32R,0.03150X0.03150*%
%ADD48R,0.03150X0.06299*%
%ADD49R,0.07087X0.07874*%
%ADD50R,0.02992X0.05000*%
%ADD51R,0.03937X0.03740*%
%ADD52P,0.04950X4X360.0*%
%ADD53P,0.04950X4X90.0*%
%ADD54R,0.04488X0.03937*%
%ADD55R,0.03937X0.07874*%
%ADD56R,0.13386X0.03937*%
%ADD57R,0.14173X0.05906*%
D20*
X33582Y4000D02*
D03*
X27082D02*
D03*
X98325Y12992D02*
D03*
X104825D02*
D03*
Y47244D02*
D03*
X98325D02*
D03*
D21*
X59431Y49950D02*
D03*
Y43450D02*
D03*
X117532Y26750D02*
D03*
Y33250D02*
D03*
X85532D02*
D03*
Y26750D02*
D03*
X120531Y58750D02*
D03*
Y65250D02*
D03*
D32*
X59232Y26300D02*
D03*
Y20394D02*
D03*
D48*
X40710Y62300D02*
D03*
X45632D02*
D03*
X50553D02*
D03*
X55474D02*
D03*
D49*
X65966Y73324D02*
D03*
X30218D02*
D03*
D50*
X72956Y22000D02*
D03*
X67956D02*
D03*
X72956Y52800D02*
D03*
X67956D02*
D03*
D51*
X99831Y66000D02*
D03*
X93532D02*
D03*
Y58000D02*
D03*
X99831D02*
D03*
D52*
X90830Y14702D02*
D03*
X86233Y19298D02*
D03*
X112233Y45298D02*
D03*
X116830Y40702D02*
D03*
D53*
Y19298D02*
D03*
X112233Y14702D02*
D03*
X86233Y40702D02*
D03*
X90830Y45298D02*
D03*
D54*
X111531Y58653D02*
D03*
Y65346D02*
D03*
X82531Y58653D02*
D03*
Y65346D02*
D03*
D55*
X52970Y7100D02*
D03*
X70293D02*
D03*
D56*
X41028Y24227D02*
D03*
Y32101D02*
D03*
Y39975D02*
D03*
Y47849D02*
D03*
D57*
X12032Y13400D02*
D03*
Y58676D02*
D03*
M02*
