G04*
G04 #@! TF.GenerationSoftware,Altium Limited,Altium Designer,20.0.2 (26)*
G04*
G04 Layer_Physical_Order=1*
G04 Layer_Color=255*
%FSLAX25Y25*%
%MOIN*%
G70*
G01*
G75*
%ADD12C,0.01181*%
%ADD13C,0.01000*%
%ADD18R,0.02362X0.05906*%
%ADD19R,0.05512X0.03150*%
%ADD20R,0.03500X0.03500*%
%ADD21R,0.03500X0.03500*%
%ADD22R,0.03937X0.01772*%
%ADD23R,0.03543X0.02559*%
%ADD24R,0.05800X0.01400*%
%ADD25R,0.03740X0.03543*%
%ADD26R,0.03740X0.03543*%
%ADD27R,0.02000X0.02500*%
%ADD28R,0.02500X0.02000*%
%ADD29R,0.01181X0.03150*%
%ADD30R,0.03150X0.01181*%
%ADD31R,0.10630X0.05906*%
%ADD32R,0.03150X0.03150*%
%ADD34C,0.01968*%
%ADD35C,0.01575*%
%ADD36C,0.01500*%
%ADD37C,0.03000*%
%ADD38C,0.02756*%
%ADD39C,0.01400*%
%ADD40C,0.02362*%
%ADD41C,0.03937*%
%ADD42C,0.02000*%
%ADD43C,0.03150*%
%ADD44C,0.01968*%
%ADD45C,0.01500*%
%ADD46C,0.01575*%
%ADD47C,0.06299*%
G36*
X45039Y73953D02*
X45061Y73698D01*
X45099Y73473D01*
X45151Y73278D01*
X45219Y73113D01*
X45301Y72978D01*
X45399Y72873D01*
X45511Y72798D01*
X45639Y72753D01*
X45781Y72738D01*
X42781D01*
X42924Y72753D01*
X43051Y72798D01*
X43164Y72873D01*
X43262Y72978D01*
X43344Y73113D01*
X43411Y73278D01*
X43464Y73473D01*
X43501Y73698D01*
X43524Y73953D01*
X43532Y74238D01*
X45031D01*
X45039Y73953D01*
D02*
G37*
G36*
X42555Y69870D02*
X42540Y70013D01*
X42494Y70140D01*
X42418Y70253D01*
X42312Y70350D01*
X42176Y70433D01*
X42010Y70500D01*
X41813Y70553D01*
X41587Y70590D01*
X41330Y70613D01*
X41283Y70614D01*
X40875Y70590D01*
X40860Y70583D01*
Y72157D01*
X40875Y72150D01*
X40901Y72144D01*
X40938Y72138D01*
X41044Y72129D01*
X41237Y72124D01*
X41328Y72126D01*
X41809Y72176D01*
X42004Y72219D01*
X42169Y72275D01*
X42303Y72342D01*
X42408Y72423D01*
X42483Y72515D01*
X42529Y72621D01*
X42544Y72738D01*
X42555Y69870D01*
D02*
G37*
G36*
X38031Y72728D02*
X38076Y72600D01*
X38151Y72488D01*
X38256Y72390D01*
X38391Y72308D01*
X38556Y72240D01*
X38751Y72188D01*
X38976Y72150D01*
X39231Y72128D01*
X39261Y72127D01*
X39662Y72150D01*
X39678Y72157D01*
Y70583D01*
X39662Y70590D01*
X39636Y70596D01*
X39600Y70602D01*
X39494Y70611D01*
X39220Y70618D01*
X38151Y70548D01*
X38076Y70526D01*
X38031Y70501D01*
X38016Y70473D01*
Y72870D01*
X38031Y72728D01*
D02*
G37*
G36*
X25047Y70473D02*
X25027Y70524D01*
X24967Y70571D01*
X24867Y70612D01*
X24727Y70647D01*
X24547Y70677D01*
X24327Y70701D01*
X23767Y70734D01*
X23047Y70745D01*
Y72745D01*
X23427Y72748D01*
X24727Y72840D01*
X24867Y72874D01*
X24967Y72913D01*
X25027Y72958D01*
X25047Y73008D01*
Y70473D01*
D02*
G37*
G36*
X28582Y72860D02*
X28626Y72776D01*
X28701Y72702D01*
X28806Y72638D01*
X28940Y72584D01*
X29104Y72540D01*
X29298Y72505D01*
X29522Y72480D01*
X30060Y72461D01*
Y70461D01*
X28567Y70473D01*
Y72954D01*
X28582Y72860D01*
D02*
G37*
G36*
X19389Y73347D02*
X19450Y73221D01*
X19549Y73109D01*
X19690Y73013D01*
X19870Y72931D01*
X20089Y72864D01*
X20349Y72812D01*
X20650Y72775D01*
X20989Y72752D01*
X21370Y72745D01*
Y70745D01*
X20989Y70738D01*
X20349Y70679D01*
X20089Y70628D01*
X19870Y70562D01*
X19690Y70481D01*
X19549Y70386D01*
X19450Y70276D01*
X19389Y70151D01*
X19369Y70012D01*
Y73488D01*
X19389Y73347D01*
D02*
G37*
G36*
X15893Y70012D02*
X15870Y70010D01*
X15800Y70008D01*
X13557Y70000D01*
Y73000D01*
X14001Y73005D01*
X15053Y73078D01*
X15310Y73122D01*
X15520Y73176D01*
X15683Y73239D01*
X15800Y73312D01*
X15870Y73395D01*
X15893Y73488D01*
Y70012D01*
D02*
G37*
G36*
X52139Y69259D02*
X52012Y69213D01*
X51899Y69138D01*
X51802Y69032D01*
X51719Y68896D01*
X51652Y68730D01*
X51599Y68533D01*
X51561Y68306D01*
X51539Y68049D01*
X51531Y67762D01*
X50032D01*
X50024Y68049D01*
X50002Y68306D01*
X49964Y68533D01*
X49911Y68730D01*
X49844Y68896D01*
X49762Y69032D01*
X49664Y69138D01*
X49551Y69213D01*
X49424Y69259D01*
X49281Y69274D01*
X52281D01*
X52139Y69259D01*
D02*
G37*
G36*
X25047Y66733D02*
X25036Y66730D01*
X25000Y66728D01*
X23852Y66720D01*
Y68721D01*
X24081Y68722D01*
X24757Y68769D01*
X24866Y68791D01*
X24950Y68816D01*
X25011Y68846D01*
X25047Y68879D01*
X25059Y68916D01*
X25047Y66733D01*
D02*
G37*
G36*
X72411Y67581D02*
X72447Y67564D01*
X72488Y67549D01*
X72535Y67536D01*
X72588Y67525D01*
X72647Y67516D01*
X72782Y67504D01*
X72940Y67500D01*
Y66500D01*
X72858Y66499D01*
X72647Y66484D01*
X72588Y66475D01*
X72535Y66464D01*
X72488Y66451D01*
X72447Y66436D01*
X72411Y66419D01*
X72382Y66400D01*
Y67600D01*
X72411Y67581D01*
D02*
G37*
G36*
X51546Y66877D02*
X51561Y66694D01*
X51599Y66467D01*
X51652Y66270D01*
X51719Y66104D01*
X51802Y65968D01*
X51899Y65862D01*
X52012Y65786D01*
X52139Y65741D01*
X52281Y65726D01*
X51586D01*
X51617Y64835D01*
X49946D01*
X49962Y64875D01*
X49977Y64960D01*
X49990Y65090D01*
X50017Y65726D01*
X49281D01*
X49424Y65741D01*
X49551Y65786D01*
X49664Y65862D01*
X49762Y65968D01*
X49844Y66104D01*
X49911Y66270D01*
X49964Y66467D01*
X50002Y66694D01*
X50024Y66951D01*
X50031Y67219D01*
X50032Y67275D01*
X51531D01*
X51546Y66877D01*
D02*
G37*
G36*
X121399Y77502D02*
X122668Y77117D01*
X123838Y76492D01*
X124863Y75651D01*
X125705Y74625D01*
X126330Y73455D01*
X126715Y72186D01*
X126844Y70879D01*
X126841Y70866D01*
Y48700D01*
X97781Y48700D01*
Y50500D01*
X96099D01*
X96031Y50513D01*
X94832D01*
X94793Y50529D01*
X94793Y50529D01*
X94792Y50529D01*
X92824Y50525D01*
X92795Y50513D01*
X86327D01*
X80170Y56670D01*
X79679Y56998D01*
X79583Y57017D01*
X79100Y57113D01*
X79100Y57113D01*
X77823D01*
Y58012D01*
X76700D01*
X76700Y65980D01*
X82032D01*
Y64750D01*
X86532D01*
Y69250D01*
X82032D01*
Y68020D01*
X76700D01*
Y77628D01*
X120079D01*
X120092Y77631D01*
X121399Y77502D01*
D02*
G37*
G36*
X38031Y65404D02*
X38076Y65294D01*
X38151Y65197D01*
X38256Y65113D01*
X38391Y65042D01*
X38556Y64983D01*
X38751Y64938D01*
X38976Y64906D01*
X39231Y64886D01*
X39516Y64880D01*
Y63380D01*
X39231Y63376D01*
X38556Y63318D01*
X38391Y63283D01*
X38256Y63240D01*
X38151Y63190D01*
X38076Y63132D01*
X38031Y63066D01*
X38016Y62992D01*
Y65527D01*
X38031Y65404D01*
D02*
G37*
G36*
X42555Y62630D02*
X42540Y62772D01*
X42495Y62900D01*
X42419Y63012D01*
X42314Y63110D01*
X42178Y63192D01*
X42011Y63260D01*
X41815Y63312D01*
X41588Y63350D01*
X41331Y63372D01*
X41043Y63380D01*
Y64880D01*
X41331Y64887D01*
X41588Y64910D01*
X41815Y64947D01*
X42011Y65000D01*
X42178Y65067D01*
X42314Y65150D01*
X42419Y65247D01*
X42495Y65360D01*
X42540Y65487D01*
X42555Y65630D01*
Y62630D01*
D02*
G37*
G36*
X52543Y65632D02*
X52614Y65538D01*
X52732Y65454D01*
X52898Y65382D01*
X53110Y65320D01*
X53370Y65270D01*
X53677Y65231D01*
X54433Y65187D01*
X54882Y65181D01*
Y62819D01*
X54433Y62813D01*
X53370Y62730D01*
X53110Y62680D01*
X52898Y62618D01*
X52732Y62546D01*
X52614Y62463D01*
X52543Y62368D01*
X52520Y62262D01*
Y65738D01*
X52543Y65632D01*
D02*
G37*
G36*
X19389Y66848D02*
X19450Y66722D01*
X19549Y66612D01*
X19690Y66516D01*
X19870Y66435D01*
X20089Y66368D01*
X20349Y66316D01*
X20650Y66280D01*
X20989Y66257D01*
X21370Y66250D01*
Y64250D01*
X20989Y64243D01*
X20349Y64184D01*
X20089Y64132D01*
X19870Y64065D01*
X19690Y63984D01*
X19549Y63888D01*
X19450Y63778D01*
X19389Y63652D01*
X19369Y63512D01*
X19229Y63492D01*
X19104Y63432D01*
X18993Y63332D01*
X18897Y63192D01*
X18816Y63012D01*
X18750Y62792D01*
X18698Y62532D01*
X18661Y62232D01*
X18639Y61892D01*
X18632Y61512D01*
X16632D01*
X16624Y61892D01*
X16565Y62532D01*
X16513Y62792D01*
X16447Y63012D01*
X16366Y63192D01*
X16270Y63332D01*
X16159Y63432D01*
X16034Y63492D01*
X15893Y63512D01*
X19369D01*
Y66988D01*
X19389Y66848D01*
D02*
G37*
G36*
X67297Y65420D02*
X67380Y65358D01*
X67518Y65304D01*
X67711Y65258D01*
X67958Y65218D01*
X68620Y65160D01*
X69502Y65132D01*
X70025Y65128D01*
Y64001D01*
X71459Y64959D01*
X76100Y61700D01*
Y60300D01*
X74200Y58400D01*
X73500D01*
X72800Y59100D01*
X69531Y62369D01*
X69502Y62368D01*
X67711Y62242D01*
X67518Y62196D01*
X67380Y62142D01*
X67297Y62080D01*
X67269Y62012D01*
Y65488D01*
X67297Y65420D01*
D02*
G37*
G36*
X10518Y59005D02*
X10548Y58920D01*
X10599Y58845D01*
X10669Y58780D01*
X10761Y58725D01*
X10872Y58680D01*
X11003Y58645D01*
X11155Y58620D01*
X11327Y58605D01*
X11519Y58600D01*
Y57600D01*
X11327Y57595D01*
X11155Y57580D01*
X11003Y57555D01*
X10872Y57520D01*
X10761Y57475D01*
X10669Y57420D01*
X10599Y57355D01*
X10548Y57280D01*
X10518Y57195D01*
X10508Y57100D01*
Y59100D01*
X10518Y59005D01*
D02*
G37*
G36*
X8544Y57100D02*
X8534Y57195D01*
X8504Y57280D01*
X8454Y57355D01*
X8383Y57420D01*
X8293Y57475D01*
X8184Y57520D01*
X8054Y57555D01*
X7903Y57580D01*
X7734Y57595D01*
X7543Y57600D01*
Y58600D01*
X7734Y58605D01*
X7903Y58620D01*
X8054Y58645D01*
X8184Y58680D01*
X8293Y58725D01*
X8383Y58780D01*
X8454Y58845D01*
X8504Y58920D01*
X8534Y59005D01*
X8544Y59100D01*
Y57100D01*
D02*
G37*
G36*
X51172Y56259D02*
X51145Y56229D01*
X51121Y56194D01*
X51100Y56152D01*
X51082Y56105D01*
X51067Y56052D01*
X51054Y55994D01*
X51044Y55930D01*
X51033Y55784D01*
X51032Y55703D01*
X50032Y55610D01*
X50011Y56413D01*
X51172Y56259D01*
D02*
G37*
G36*
X41123Y56033D02*
X41109Y56012D01*
X41097Y55981D01*
X41086Y55940D01*
X41076Y55888D01*
X41068Y55827D01*
X41057Y55675D01*
X41050Y55370D01*
X39550Y55613D01*
X39577Y56160D01*
X41123Y56033D01*
D02*
G37*
G36*
X62350Y55616D02*
X62380Y55106D01*
X62387Y55091D01*
X60813D01*
X60820Y55106D01*
X60826Y55132D01*
X60832Y55169D01*
X60841Y55275D01*
X60850Y55616D01*
X60850Y55728D01*
X62350D01*
X62350Y55616D01*
D02*
G37*
G36*
X66692Y55354D02*
X66755Y54724D01*
X66810Y54468D01*
X66880Y54252D01*
X66966Y54075D01*
X67068Y53937D01*
X67186Y53838D01*
X67319Y53779D01*
X67468Y53760D01*
X63752D01*
X63935Y53779D01*
X64099Y53838D01*
X64244Y53937D01*
X64369Y54075D01*
X64475Y54252D01*
X64562Y54468D01*
X64629Y54724D01*
X64677Y55019D01*
X64706Y55354D01*
X64716Y55728D01*
X66684D01*
X66692Y55354D01*
D02*
G37*
G36*
X46382Y53633D02*
X46377Y53601D01*
X46380Y53565D01*
X46391Y53526D01*
X46410Y53483D01*
X46436Y53438D01*
X46470Y53388D01*
X46512Y53335D01*
X46562Y53279D01*
X46619Y53220D01*
X45792Y52632D01*
X45348Y53419D01*
X46395Y53662D01*
X46382Y53633D01*
D02*
G37*
G36*
X15240Y51919D02*
X15229Y52031D01*
X15193Y52131D01*
X15133Y52220D01*
X15050Y52297D01*
X14942Y52362D01*
X14811Y52415D01*
X14656Y52456D01*
X14477Y52486D01*
X14274Y52504D01*
X14047Y52509D01*
Y53690D01*
X14274Y53697D01*
X14477Y53714D01*
X14656Y53744D01*
X14811Y53785D01*
X14942Y53838D01*
X15050Y53903D01*
X15133Y53980D01*
X15193Y54068D01*
X15229Y54169D01*
X15240Y54281D01*
Y51919D01*
D02*
G37*
G36*
X10519Y54169D02*
X10555Y54068D01*
X10615Y53980D01*
X10698Y53903D01*
X10806Y53838D01*
X10937Y53785D01*
X11092Y53744D01*
X11271Y53714D01*
X11474Y53697D01*
X11701Y53690D01*
Y52509D01*
X11474Y52504D01*
X11271Y52486D01*
X11092Y52456D01*
X10937Y52415D01*
X10806Y52362D01*
X10698Y52297D01*
X10615Y52220D01*
X10555Y52131D01*
X10519Y52031D01*
X10508Y51919D01*
Y54281D01*
X10519Y54169D01*
D02*
G37*
G36*
X25846Y54100D02*
X25882Y53999D01*
X25941Y53911D01*
X26023Y53834D01*
X26130Y53769D01*
X26260Y53716D01*
X26413Y53674D01*
X26590Y53645D01*
X26791Y53627D01*
X27016Y53621D01*
Y52440D01*
X26791Y52434D01*
X26590Y52416D01*
X26413Y52387D01*
X26260Y52346D01*
X26130Y52293D01*
X26023Y52228D01*
X25941Y52151D01*
X25882Y52062D01*
X25846Y51962D01*
X25835Y51850D01*
Y54212D01*
X25846Y54100D01*
D02*
G37*
G36*
X54144Y51828D02*
X54133Y51863D01*
X54103Y51895D01*
X54053Y51924D01*
X53983Y51948D01*
X53894Y51969D01*
X53784Y51986D01*
X53504Y52008D01*
X53144Y52016D01*
Y53016D01*
X53333Y53018D01*
X53784Y53046D01*
X53894Y53063D01*
X53983Y53083D01*
X54053Y53108D01*
X54103Y53136D01*
X54133Y53168D01*
X54144Y53204D01*
Y51828D01*
D02*
G37*
G36*
X43912Y50820D02*
X43895Y50785D01*
X43880Y50744D01*
X43867Y50696D01*
X43856Y50644D01*
X43847Y50585D01*
X43835Y50450D01*
X43832Y50291D01*
X42832D01*
X42831Y50373D01*
X42816Y50585D01*
X42807Y50644D01*
X42796Y50696D01*
X42783Y50744D01*
X42768Y50785D01*
X42751Y50820D01*
X42732Y50850D01*
X43931D01*
X43912Y50820D01*
D02*
G37*
G36*
X54144Y49269D02*
X54133Y49304D01*
X54103Y49336D01*
X54053Y49365D01*
X53983Y49389D01*
X53894Y49410D01*
X53784Y49427D01*
X53504Y49449D01*
X53144Y49457D01*
Y50457D01*
X53333Y50459D01*
X53784Y50487D01*
X53894Y50504D01*
X53983Y50524D01*
X54053Y50549D01*
X54103Y50577D01*
X54133Y50609D01*
X54144Y50645D01*
Y49269D01*
D02*
G37*
G36*
X70295Y46779D02*
X70264Y46802D01*
X70228Y46822D01*
X70186Y46840D01*
X70139Y46855D01*
X70085Y46868D01*
X70026Y46879D01*
X69891Y46893D01*
X69815Y46896D01*
X69734Y46898D01*
X69822Y47898D01*
X69905Y47898D01*
X70173Y47915D01*
X70223Y47922D01*
X70267Y47931D01*
X70304Y47942D01*
X70334Y47953D01*
X70357Y47966D01*
X70295Y46779D01*
D02*
G37*
G36*
X59930Y48050D02*
X59960Y48018D01*
X60009Y47990D01*
X60079Y47965D01*
X60170Y47945D01*
X60280Y47928D01*
X60559Y47905D01*
X60919Y47898D01*
Y46898D01*
X60729Y46896D01*
X60280Y46867D01*
X60170Y46851D01*
X60079Y46830D01*
X60009Y46806D01*
X59960Y46777D01*
X59930Y46745D01*
X59920Y46710D01*
Y48086D01*
X59930Y48050D01*
D02*
G37*
G36*
X54144Y46710D02*
X54133Y46745D01*
X54103Y46777D01*
X54053Y46806D01*
X53983Y46830D01*
X53894Y46851D01*
X53784Y46867D01*
X53504Y46890D01*
X53144Y46898D01*
Y47898D01*
X53333Y47899D01*
X53784Y47928D01*
X53894Y47945D01*
X53983Y47965D01*
X54053Y47990D01*
X54103Y48018D01*
X54133Y48050D01*
X54144Y48086D01*
Y46710D01*
D02*
G37*
G36*
X31144Y46710D02*
X30537Y46698D01*
Y47879D01*
X31155Y47895D01*
X31144Y46710D01*
D02*
G37*
G36*
X77330Y49872D02*
X77390Y49740D01*
X77488Y49624D01*
X77626Y49523D01*
X77803Y49438D01*
X78019Y49368D01*
X78275Y49314D01*
X78571Y49275D01*
X78905Y49252D01*
X79279Y49244D01*
Y47276D01*
X78905Y47268D01*
X78275Y47206D01*
X78019Y47151D01*
X77803Y47082D01*
X77626Y46996D01*
X77488Y46896D01*
X77390Y46779D01*
X77330Y46648D01*
X77311Y46500D01*
Y50020D01*
X77330Y49872D01*
D02*
G37*
G36*
X102221Y47992D02*
X102178Y47933D01*
X102140Y47835D01*
X102107Y47697D01*
X102079Y47520D01*
X102039Y47047D01*
X102018Y46417D01*
X102016Y46044D01*
X100047D01*
X100045Y46417D01*
X99956Y47697D01*
X99923Y47835D01*
X99885Y47933D01*
X99842Y47992D01*
X99793Y48012D01*
X102269D01*
X102221Y47992D01*
D02*
G37*
G36*
X94793Y48012D02*
X97269D01*
X97221Y47992D01*
X97178Y47933D01*
X97140Y47835D01*
X97107Y47697D01*
X97079Y47520D01*
X97039Y47047D01*
X97018Y46417D01*
X97016Y46044D01*
X95047D01*
X95045Y46417D01*
X94956Y47697D01*
X94923Y47835D01*
X94885Y47933D01*
X94842Y47992D01*
X94793Y48012D01*
X92825Y48016D01*
Y49984D01*
X94793Y49988D01*
Y48012D01*
D02*
G37*
G36*
X59930Y45491D02*
X59960Y45459D01*
X60009Y45431D01*
X60079Y45406D01*
X60170Y45386D01*
X60280Y45369D01*
X60559Y45346D01*
X60919Y45339D01*
Y44339D01*
X60729Y44337D01*
X60280Y44309D01*
X60170Y44292D01*
X60079Y44271D01*
X60009Y44247D01*
X59960Y44218D01*
X59930Y44186D01*
X59920Y44151D01*
Y45527D01*
X59930Y45491D01*
D02*
G37*
G36*
X54144Y44151D02*
X54133Y44198D01*
X54103Y44240D01*
X54053Y44278D01*
X53983Y44310D01*
X53894Y44338D01*
X53784Y44360D01*
X53654Y44378D01*
X53333Y44398D01*
X53144Y44400D01*
Y45400D01*
X53333Y45401D01*
X53983Y45446D01*
X54053Y45462D01*
X54103Y45481D01*
X54133Y45502D01*
X54144Y45527D01*
Y44151D01*
D02*
G37*
G36*
X31144D02*
X30143Y44139D01*
Y45139D01*
X30334Y45142D01*
X30654Y45173D01*
X30784Y45201D01*
X30893Y45236D01*
X30983Y45278D01*
X31054Y45329D01*
X31104Y45387D01*
X31133Y45453D01*
X31144Y45527D01*
Y44151D01*
D02*
G37*
G36*
X102018Y45583D02*
X102107Y44303D01*
X102140Y44165D01*
X102178Y44067D01*
X102221Y44008D01*
X102269Y43988D01*
X99793D01*
X99842Y44008D01*
X99885Y44067D01*
X99923Y44165D01*
X99956Y44303D01*
X99984Y44480D01*
X100024Y44953D01*
X100045Y45583D01*
X100047Y45957D01*
X102016D01*
X102018Y45583D01*
D02*
G37*
G36*
X97018D02*
X97107Y44303D01*
X97140Y44165D01*
X97178Y44067D01*
X97221Y44008D01*
X97269Y43988D01*
X94793D01*
X94842Y44008D01*
X94885Y44067D01*
X94923Y44165D01*
X94956Y44303D01*
X94984Y44480D01*
X95024Y44953D01*
X95045Y45583D01*
X95047Y45957D01*
X97016D01*
X97018Y45583D01*
D02*
G37*
G36*
X15240Y43419D02*
X15229Y43531D01*
X15193Y43632D01*
X15133Y43720D01*
X15050Y43797D01*
X14942Y43862D01*
X14811Y43915D01*
X14656Y43956D01*
X14477Y43986D01*
X14274Y44003D01*
X14047Y44009D01*
Y45191D01*
X14274Y45197D01*
X14477Y45214D01*
X14656Y45244D01*
X14811Y45285D01*
X14942Y45338D01*
X15050Y45403D01*
X15133Y45480D01*
X15193Y45568D01*
X15229Y45669D01*
X15240Y45781D01*
Y43419D01*
D02*
G37*
G36*
X10531Y45669D02*
X10567Y45568D01*
X10626Y45480D01*
X10708Y45403D01*
X10815Y45338D01*
X10945Y45285D01*
X11098Y45244D01*
X11275Y45214D01*
X11476Y45197D01*
X11701Y45191D01*
Y44009D01*
X11476Y44003D01*
X11275Y43986D01*
X11098Y43956D01*
X10945Y43915D01*
X10815Y43862D01*
X10708Y43797D01*
X10626Y43720D01*
X10567Y43632D01*
X10531Y43531D01*
X10520Y43419D01*
Y45781D01*
X10531Y45669D01*
D02*
G37*
G36*
X25846Y45438D02*
X25882Y45338D01*
X25941Y45249D01*
X26023Y45172D01*
X26130Y45107D01*
X26260Y45054D01*
X26413Y45013D01*
X26590Y44984D01*
X26791Y44966D01*
X27016Y44960D01*
Y43779D01*
X26791Y43773D01*
X26590Y43755D01*
X26413Y43726D01*
X26260Y43684D01*
X26130Y43631D01*
X26023Y43566D01*
X25941Y43489D01*
X25882Y43401D01*
X25846Y43300D01*
X25835Y43188D01*
Y45550D01*
X25846Y45438D01*
D02*
G37*
G36*
X74650Y43117D02*
X74626Y43112D01*
X74596Y43099D01*
X74560Y43077D01*
X74517Y43048D01*
X74414Y42964D01*
X74286Y42848D01*
X74133Y42699D01*
X73226Y43913D01*
X73635Y44294D01*
X74650Y43117D01*
D02*
G37*
G36*
X107793Y42012D02*
X105825Y42016D01*
Y43984D01*
X107793Y43988D01*
Y42012D01*
D02*
G37*
G36*
X104238Y43984D02*
Y42016D01*
X102269Y42012D01*
Y43988D01*
X104238Y43984D01*
D02*
G37*
G36*
X114936Y42002D02*
X114851Y41972D01*
X114777Y41922D01*
X114711Y41852D01*
X114656Y41762D01*
X114611Y41652D01*
X114576Y41522D01*
X114551Y41372D01*
X114536Y41202D01*
X114532Y41012D01*
X113531D01*
X113526Y41202D01*
X113512Y41372D01*
X113487Y41522D01*
X113452Y41652D01*
X113407Y41762D01*
X113352Y41852D01*
X113286Y41922D01*
X113212Y41972D01*
X113127Y42002D01*
X113031Y42012D01*
X115032D01*
X114936Y42002D01*
D02*
G37*
G36*
X70573Y43816D02*
X70618Y43688D01*
X70694Y43576D01*
X70799Y43478D01*
X70935Y43396D01*
X71102Y43328D01*
X71298Y43276D01*
X71525Y43238D01*
X71782Y43216D01*
X72070Y43208D01*
Y41708D01*
X71782Y41701D01*
X71525Y41678D01*
X71298Y41641D01*
X71102Y41588D01*
X70935Y41521D01*
X70799Y41438D01*
X70694Y41341D01*
X70618Y41228D01*
X70573Y41101D01*
X70557Y40958D01*
Y43958D01*
X70573Y43816D01*
D02*
G37*
G36*
X102269Y42012D02*
X102248Y42000D01*
X102228Y41965D01*
X102210Y41906D01*
X102195Y41823D01*
X102182Y41717D01*
X102164Y41433D01*
X102154Y40831D01*
X100972D01*
X100967Y41057D01*
X100949Y41259D01*
X100919Y41438D01*
X100878Y41593D01*
X100825Y41724D01*
X100760Y41831D01*
X100683Y41915D01*
X100594Y41975D01*
X100494Y42011D01*
X100382Y42024D01*
X102269Y42012D01*
D02*
G37*
G36*
X67093Y40765D02*
X67079Y40907D01*
X67033Y41035D01*
X66958Y41147D01*
X66853Y41245D01*
X66719Y41327D01*
X66553Y41395D01*
X66359Y41447D01*
X66133Y41485D01*
X65878Y41507D01*
X65593Y41515D01*
Y43015D01*
X65878Y43022D01*
X66133Y43045D01*
X66359Y43082D01*
X66553Y43135D01*
X66719Y43202D01*
X66853Y43285D01*
X66958Y43382D01*
X67033Y43495D01*
X67079Y43622D01*
X67093Y43765D01*
Y40765D01*
D02*
G37*
G36*
X96753Y42313D02*
X96726Y42233D01*
X96701Y42125D01*
X96686Y42024D01*
X97213D01*
X97100Y42012D01*
X97000Y41976D01*
X96911Y41917D01*
X96835Y41833D01*
X96770Y41726D01*
X96716Y41594D01*
X96675Y41439D01*
X96646Y41260D01*
X96630Y41077D01*
X96624Y40899D01*
X96624Y40893D01*
X96622Y40592D01*
X95441D01*
X95439Y40893D01*
X95439Y40895D01*
X95416Y41271D01*
X95388Y41439D01*
X95346Y41594D01*
X95293Y41726D01*
X95228Y41833D01*
X95152Y41917D01*
X95063Y41976D01*
X94963Y42012D01*
X94850Y42024D01*
X95368D01*
X95362Y42125D01*
X95337Y42233D01*
X95310Y42313D01*
X95279Y42365D01*
X96784D01*
X96753Y42313D01*
D02*
G37*
G36*
X8556Y38600D02*
X8545Y38695D01*
X8515Y38780D01*
X8464Y38855D01*
X8394Y38920D01*
X8303Y38975D01*
X8191Y39020D01*
X8060Y39055D01*
X7908Y39080D01*
X7736Y39095D01*
X7543Y39100D01*
Y40100D01*
X7736Y40105D01*
X7908Y40120D01*
X8060Y40145D01*
X8191Y40180D01*
X8303Y40225D01*
X8394Y40280D01*
X8464Y40345D01*
X8515Y40420D01*
X8545Y40505D01*
X8556Y40600D01*
Y38600D01*
D02*
G37*
G36*
X87844Y36862D02*
X87828Y36948D01*
X87780Y37024D01*
X87702Y37092D01*
X87591Y37150D01*
X87450Y37200D01*
X87277Y37240D01*
X87072Y37272D01*
X86836Y37295D01*
X86269Y37313D01*
Y38887D01*
X86568Y38892D01*
X87072Y38928D01*
X87277Y38960D01*
X87450Y39000D01*
X87591Y39050D01*
X87702Y39108D01*
X87780Y39176D01*
X87828Y39252D01*
X87844Y39338D01*
Y36862D01*
D02*
G37*
G36*
X54144Y36473D02*
X54134Y36509D01*
X54106Y36541D01*
X54058Y36569D01*
X53991Y36594D01*
X53906Y36614D01*
X53801Y36631D01*
X53678Y36645D01*
X53373Y36660D01*
X53193Y36661D01*
Y37661D01*
X53373Y37663D01*
X53801Y37692D01*
X53906Y37708D01*
X53991Y37729D01*
X54058Y37753D01*
X54106Y37782D01*
X54134Y37814D01*
X54144Y37849D01*
Y36473D01*
D02*
G37*
G36*
X104108Y36896D02*
X104137Y36818D01*
X104185Y36749D01*
X104254Y36689D01*
X104341Y36639D01*
X104448Y36597D01*
X104574Y36565D01*
X104720Y36542D01*
X104885Y36528D01*
X105070Y36524D01*
Y35524D01*
X104885Y35519D01*
X104720Y35505D01*
X104574Y35482D01*
X104448Y35450D01*
X104341Y35409D01*
X104254Y35358D01*
X104185Y35298D01*
X104137Y35229D01*
X104108Y35151D01*
X104098Y35064D01*
Y36984D01*
X104108Y36896D01*
D02*
G37*
G36*
X99028Y34843D02*
X99016Y34955D01*
X98980Y35055D01*
X98921Y35144D01*
X98837Y35221D01*
X98730Y35285D01*
X98598Y35339D01*
X98443Y35380D01*
X98264Y35409D01*
X98062Y35427D01*
X97835Y35433D01*
Y36614D01*
X98062Y36620D01*
X98264Y36638D01*
X98443Y36667D01*
X98598Y36709D01*
X98730Y36762D01*
X98837Y36827D01*
X98921Y36904D01*
X98980Y36992D01*
X99016Y37093D01*
X99028Y37205D01*
Y34843D01*
D02*
G37*
G36*
X70572Y37017D02*
X70614Y36898D01*
X70685Y36793D01*
X70783Y36702D01*
X70911Y36625D01*
X71066Y36562D01*
X71249Y36513D01*
X71461Y36478D01*
X71701Y36457D01*
X71969Y36450D01*
Y35050D01*
X71701Y35043D01*
X71461Y35022D01*
X71249Y34987D01*
X71066Y34938D01*
X70911Y34875D01*
X70783Y34798D01*
X70685Y34707D01*
X70614Y34602D01*
X70572Y34483D01*
X70557Y34350D01*
Y37150D01*
X70572Y37017D01*
D02*
G37*
G36*
X67093Y34200D02*
X67080Y34333D01*
X67037Y34452D01*
X66967Y34557D01*
X66869Y34648D01*
X66743Y34725D01*
X66589Y34788D01*
X66408Y34837D01*
X66198Y34872D01*
X65960Y34893D01*
X65693Y34900D01*
Y36300D01*
X65960Y36307D01*
X66198Y36328D01*
X66408Y36363D01*
X66589Y36412D01*
X66743Y36475D01*
X66869Y36552D01*
X66967Y36643D01*
X67037Y36748D01*
X67080Y36867D01*
X67093Y37000D01*
Y34200D01*
D02*
G37*
G36*
X36930Y35255D02*
X36959Y35223D01*
X37010Y35195D01*
X37080Y35170D01*
X37170Y35149D01*
X37279Y35133D01*
X37560Y35110D01*
X37920Y35102D01*
Y34102D01*
X37729Y34100D01*
X37279Y34072D01*
X37170Y34055D01*
X37080Y34035D01*
X37010Y34010D01*
X36959Y33982D01*
X36930Y33950D01*
X36920Y33914D01*
Y35290D01*
X36930Y35255D01*
D02*
G37*
G36*
X59930Y35255D02*
X59960Y35223D01*
X60009Y35195D01*
X60079Y35170D01*
X60170Y35149D01*
X60280Y35132D01*
X60559Y35110D01*
X60919Y35102D01*
Y34102D01*
X60729Y34100D01*
X60280Y34072D01*
X60170Y34055D01*
X60079Y34035D01*
X60009Y34010D01*
X59960Y33982D01*
X59930Y33950D01*
X59920Y33914D01*
Y35290D01*
X59930Y35255D01*
D02*
G37*
G36*
X94488Y31902D02*
X94478Y31900D01*
X94448Y31898D01*
X94109Y31894D01*
X94110Y31890D01*
X94028Y31889D01*
X93882Y31878D01*
X93818Y31869D01*
X93759Y31857D01*
X93706Y31843D01*
X93658Y31826D01*
X93617Y31806D01*
X93581Y31784D01*
X93550Y31758D01*
X93537Y31890D01*
X93488Y31890D01*
Y32392D01*
X93436Y32932D01*
X93452Y32924D01*
X93477Y32917D01*
X93509Y32911D01*
X93548Y32905D01*
X93650Y32897D01*
X93724Y32895D01*
X94238Y32932D01*
X94328Y32951D01*
X94398Y32973D01*
X94448Y32998D01*
X94478Y33027D01*
X94488Y33059D01*
Y31902D01*
D02*
G37*
G36*
X36930Y32696D02*
X36959Y32664D01*
X37010Y32635D01*
X37080Y32611D01*
X37170Y32590D01*
X37279Y32573D01*
X37560Y32551D01*
X37920Y32543D01*
Y31543D01*
X37729Y31541D01*
X37279Y31513D01*
X37170Y31496D01*
X37080Y31476D01*
X37010Y31451D01*
X36959Y31423D01*
X36930Y31391D01*
X36920Y31355D01*
Y32731D01*
X36930Y32696D01*
D02*
G37*
G36*
X59930Y32696D02*
X59960Y32664D01*
X60009Y32635D01*
X60079Y32611D01*
X60170Y32590D01*
X60280Y32573D01*
X60559Y32551D01*
X60919Y32543D01*
Y31543D01*
X60729Y31541D01*
X60280Y31513D01*
X60170Y31496D01*
X60079Y31476D01*
X60009Y31451D01*
X59960Y31423D01*
X59930Y31391D01*
X59920Y31355D01*
Y32731D01*
X59930Y32696D01*
D02*
G37*
G36*
X94488Y29933D02*
X94478Y29948D01*
X94448Y29961D01*
X94398Y29973D01*
X94328Y29983D01*
X94128Y29999D01*
X93488Y30012D01*
Y31012D01*
X93678Y31013D01*
X94448Y31062D01*
X94478Y31075D01*
X94488Y31090D01*
Y29933D01*
D02*
G37*
G36*
X59930Y30136D02*
X59960Y30105D01*
X60009Y30076D01*
X60079Y30052D01*
X60170Y30031D01*
X60280Y30014D01*
X60559Y29992D01*
X60919Y29984D01*
Y28984D01*
X60729Y28982D01*
X60280Y28954D01*
X60170Y28937D01*
X60079Y28917D01*
X60009Y28892D01*
X59960Y28864D01*
X59930Y28832D01*
X59920Y28796D01*
Y30172D01*
X59930Y30136D01*
D02*
G37*
G36*
X94488Y27965D02*
X94478Y27990D01*
X94448Y28013D01*
X94398Y28034D01*
X94328Y28051D01*
X94238Y28066D01*
X94128Y28078D01*
X93678Y28099D01*
X93488Y28100D01*
Y29100D01*
X94488Y29122D01*
Y27965D01*
D02*
G37*
G36*
X108458Y33882D02*
X108465D01*
X108463Y33868D01*
X108460Y33826D01*
X108459Y33662D01*
X108465Y33047D01*
X108456D01*
X108453Y32480D01*
X108458Y31914D01*
X108465D01*
X108463Y31900D01*
X108460Y31858D01*
X108459Y31693D01*
X108465Y31078D01*
X108456D01*
X108453Y30512D01*
X108458Y29945D01*
X108465D01*
X108463Y29931D01*
X108460Y29889D01*
X108459Y29724D01*
X108465Y29110D01*
X108456D01*
X108453Y28543D01*
X108458Y27977D01*
X108465D01*
X108463Y27963D01*
X108460Y27921D01*
X108459Y27756D01*
X108465Y27141D01*
X108456D01*
X108453Y26575D01*
X106421D01*
X105697Y26114D01*
Y24213D01*
X105394Y24207D01*
X104883Y24158D01*
X104860Y24154D01*
Y24102D01*
X104823Y24123D01*
X104780Y24138D01*
X104675Y24116D01*
X104499Y24062D01*
X104355Y23996D01*
X104243Y23917D01*
X104163Y23827D01*
X104114Y23724D01*
X104098Y23610D01*
X104101Y24205D01*
X103917Y24212D01*
X103728Y24213D01*
Y26181D01*
X103917Y26182D01*
X104109Y26195D01*
X104109Y26243D01*
X103424Y26884D01*
X104547Y28545D01*
X104922Y28183D01*
X105609Y27608D01*
X105689Y27554D01*
X105685Y27977D01*
X105694D01*
X105697Y28543D01*
X105692Y29110D01*
X105685D01*
X105687Y29124D01*
X105689Y29166D01*
X105690Y29331D01*
X105685Y29945D01*
X105694D01*
X105697Y30512D01*
X105692Y31078D01*
X105685D01*
X105687Y31092D01*
X105689Y31134D01*
X105690Y31299D01*
X105685Y31914D01*
X105694D01*
X105697Y32480D01*
X105692Y33047D01*
X105685D01*
X105687Y33061D01*
X105689Y33103D01*
X105690Y33268D01*
X105685Y33882D01*
X105694D01*
X105697Y34449D01*
X108453D01*
X108458Y33882D01*
D02*
G37*
G36*
X28105Y27159D02*
X28089Y27118D01*
X28074Y27067D01*
X28061Y27007D01*
X28051Y26937D01*
X28035Y26767D01*
X28027Y26557D01*
X28026Y26438D01*
X27026D01*
X27025Y26555D01*
X27001Y26931D01*
X26990Y27001D01*
X26976Y27061D01*
X26961Y27112D01*
X26944Y27153D01*
X26925Y27184D01*
X28123Y27190D01*
X28105Y27159D01*
D02*
G37*
G36*
X52733Y26956D02*
X52746Y26811D01*
X52757Y26748D01*
X52771Y26691D01*
X52789Y26639D01*
X52809Y26594D01*
X52833Y26555D01*
X52860Y26521D01*
X52890Y26494D01*
X51765Y26243D01*
X51731Y26619D01*
X52732Y27037D01*
X52733Y26956D01*
D02*
G37*
G36*
X94488Y25996D02*
X94483Y25994D01*
X94466Y25992D01*
X94437Y25990D01*
X93915Y25984D01*
Y26984D01*
X94026Y26985D01*
X94406Y27011D01*
X94447Y27020D01*
X94477Y27031D01*
X94494Y27043D01*
X94500Y27057D01*
X94488Y25996D01*
D02*
G37*
G36*
X90181Y25600D02*
X90152Y25619D01*
X90116Y25636D01*
X90075Y25651D01*
X90028Y25664D01*
X89975Y25675D01*
X89916Y25684D01*
X89781Y25696D01*
X89622Y25700D01*
Y26700D01*
X89705Y26701D01*
X89916Y26716D01*
X89975Y26725D01*
X90028Y26736D01*
X90075Y26749D01*
X90116Y26764D01*
X90152Y26781D01*
X90181Y26800D01*
Y25600D01*
D02*
G37*
G36*
X24678Y25049D02*
X24691Y25018D01*
X24710Y24982D01*
X24734Y24944D01*
X24764Y24902D01*
X24841Y24807D01*
X24941Y24699D01*
X25000Y24639D01*
X24337Y23887D01*
X24279Y23944D01*
X24117Y24081D01*
X24068Y24116D01*
X24022Y24145D01*
X23978Y24168D01*
X23936Y24185D01*
X23897Y24197D01*
X23861Y24203D01*
X24671Y25077D01*
X24678Y25049D01*
D02*
G37*
G36*
X78250Y23217D02*
X78226Y23212D01*
X78196Y23199D01*
X78160Y23177D01*
X78117Y23148D01*
X78014Y23064D01*
X77886Y22948D01*
X77733Y22799D01*
X76826Y24013D01*
X77235Y24394D01*
X78250Y23217D01*
D02*
G37*
G36*
X76638Y22250D02*
X76351Y22242D01*
X76095Y22220D01*
X75869Y22183D01*
X75672Y22130D01*
X75506Y22062D01*
X75370Y21980D01*
X75264Y21882D01*
X75188Y21770D01*
X75142Y21643D01*
X75126Y21500D01*
X75138Y23738D01*
X75153Y23740D01*
X75198Y23742D01*
X76638Y23750D01*
Y22250D01*
D02*
G37*
G36*
X51050Y22220D02*
X51065Y22048D01*
X51090Y21896D01*
X51125Y21765D01*
X51170Y21653D01*
X51225Y21562D01*
X51290Y21492D01*
X51365Y21441D01*
X51450Y21410D01*
X51545Y21400D01*
X49545D01*
X49640Y21410D01*
X49725Y21441D01*
X49800Y21492D01*
X49865Y21562D01*
X49920Y21653D01*
X49965Y21765D01*
X50000Y21896D01*
X50025Y22048D01*
X50040Y22220D01*
X50045Y22412D01*
X51045D01*
X51050Y22220D01*
D02*
G37*
G36*
X65162Y20262D02*
X65147Y20283D01*
X65102Y20301D01*
X65027Y20318D01*
X64922Y20332D01*
X64622Y20354D01*
X63662Y20371D01*
Y21871D01*
X63949Y21879D01*
X64205Y21901D01*
X64432Y21939D01*
X64628Y21991D01*
X64794Y22059D01*
X64930Y22141D01*
X65036Y22239D01*
X65112Y22351D01*
X65158Y22479D01*
X65174Y22621D01*
X65162Y20262D01*
D02*
G37*
G36*
X15516Y21382D02*
X15608Y20059D01*
X15650Y19846D01*
X15700Y19681D01*
X15757Y19563D01*
X15822Y19492D01*
X15894Y19468D01*
X12769D01*
X12841Y19492D01*
X12906Y19563D01*
X12963Y19681D01*
X13013Y19846D01*
X13055Y20059D01*
X13089Y20319D01*
X13135Y20980D01*
X13150Y21831D01*
X15513D01*
X15516Y21382D01*
D02*
G37*
G36*
X58494Y18600D02*
X58478Y18743D01*
X58434Y18870D01*
X58359Y18982D01*
X58254Y19080D01*
X58118Y19162D01*
X57954Y19230D01*
X57758Y19283D01*
X57534Y19320D01*
X57279Y19342D01*
X56994Y19350D01*
Y20850D01*
X57279Y20855D01*
X57758Y20898D01*
X57954Y20936D01*
X58118Y20985D01*
X58254Y21044D01*
X58359Y21114D01*
X58434Y21194D01*
X58478Y21286D01*
X58494Y21388D01*
Y18600D01*
D02*
G37*
G36*
X52516Y18830D02*
X52561Y18809D01*
X52634Y18790D01*
X52738Y18774D01*
X53034Y18749D01*
X53699Y18731D01*
X53979Y18730D01*
Y17230D01*
X53699Y17228D01*
X52561Y17150D01*
X52516Y17129D01*
X52501Y17106D01*
Y18853D01*
X52516Y18830D01*
D02*
G37*
G36*
X37762Y17106D02*
X37752Y17177D01*
X37722Y17240D01*
X37672Y17296D01*
X37602Y17345D01*
X37512Y17386D01*
X37402Y17420D01*
X37272Y17446D01*
X37122Y17465D01*
X36952Y17476D01*
X36762Y17480D01*
Y18480D01*
X36952Y18483D01*
X37272Y18513D01*
X37402Y18539D01*
X37512Y18573D01*
X37602Y18614D01*
X37672Y18663D01*
X37722Y18719D01*
X37752Y18782D01*
X37762Y18853D01*
Y17106D01*
D02*
G37*
G36*
X69011Y16781D02*
X69047Y16764D01*
X69088Y16749D01*
X69135Y16736D01*
X69188Y16725D01*
X69247Y16716D01*
X69382Y16704D01*
X69541Y16700D01*
Y15700D01*
X69458Y15699D01*
X69247Y15684D01*
X69188Y15675D01*
X69135Y15664D01*
X69088Y15651D01*
X69047Y15636D01*
X69011Y15619D01*
X68982Y15600D01*
Y16800D01*
X69011Y16781D01*
D02*
G37*
G36*
X78516Y15200D02*
X78506Y15295D01*
X78476Y15380D01*
X78425Y15455D01*
X78354Y15520D01*
X78263Y15575D01*
X78152Y15620D01*
X78020Y15655D01*
X77868Y15680D01*
X77696Y15695D01*
X77504Y15700D01*
Y16700D01*
X77696Y16705D01*
X77868Y16720D01*
X78020Y16745D01*
X78152Y16780D01*
X78263Y16825D01*
X78354Y16880D01*
X78425Y16945D01*
X78476Y17020D01*
X78506Y17105D01*
X78516Y17200D01*
Y15200D01*
D02*
G37*
G36*
X52516Y16271D02*
X52558Y16250D01*
X52628Y16231D01*
X52727Y16215D01*
X52854Y16201D01*
X53404Y16175D01*
X53911Y16171D01*
Y14671D01*
X53643Y14669D01*
X52628Y14610D01*
X52558Y14591D01*
X52516Y14570D01*
X52501Y14547D01*
Y16294D01*
X52516Y16271D01*
D02*
G37*
G36*
X37762Y14547D02*
X37752Y14618D01*
X37722Y14681D01*
X37672Y14737D01*
X37602Y14786D01*
X37512Y14827D01*
X37402Y14861D01*
X37272Y14887D01*
X37122Y14906D01*
X36952Y14917D01*
X36762Y14920D01*
Y15921D01*
X36952Y15924D01*
X37272Y15954D01*
X37402Y15980D01*
X37512Y16014D01*
X37602Y16055D01*
X37672Y16104D01*
X37722Y16160D01*
X37752Y16223D01*
X37762Y16294D01*
Y14547D01*
D02*
G37*
G36*
X28495Y13611D02*
X28516Y13352D01*
X28553Y13124D01*
X28603Y12926D01*
X28668Y12759D01*
X28748Y12621D01*
X28842Y12515D01*
X28951Y12438D01*
X29074Y12392D01*
X29212Y12376D01*
X26693Y12388D01*
X26735Y12403D01*
X26772Y12449D01*
X26805Y12524D01*
X26834Y12630D01*
X26858Y12766D01*
X26877Y12932D01*
X26904Y13356D01*
X26913Y13900D01*
X28487D01*
X28495Y13611D01*
D02*
G37*
G36*
X48588Y12043D02*
X48580Y12104D01*
X48556Y12158D01*
X48515Y12206D01*
X48458Y12247D01*
X48384Y12282D01*
X48294Y12310D01*
X48187Y12333D01*
X48065Y12349D01*
X47926Y12358D01*
X47770Y12361D01*
Y13361D01*
X47926Y13365D01*
X48187Y13390D01*
X48294Y13412D01*
X48384Y13441D01*
X48458Y13476D01*
X48515Y13517D01*
X48556Y13565D01*
X48580Y13619D01*
X48588Y13680D01*
Y12043D01*
D02*
G37*
G36*
X92389Y12919D02*
X92304Y12889D01*
X92229Y12839D01*
X92164Y12768D01*
X92109Y12676D01*
X92064Y12565D01*
X92029Y12434D01*
X92004Y12282D01*
X91989Y12110D01*
X91984Y11918D01*
X90984D01*
X90979Y12110D01*
X90964Y12282D01*
X90939Y12434D01*
X90904Y12565D01*
X90859Y12676D01*
X90804Y12768D01*
X90739Y12839D01*
X90664Y12889D01*
X90579Y12919D01*
X90484Y12930D01*
X92484D01*
X92389Y12919D01*
D02*
G37*
G36*
X58494Y11900D02*
X58478Y12043D01*
X58434Y12170D01*
X58359Y12282D01*
X58254Y12380D01*
X58118Y12462D01*
X57954Y12530D01*
X57758Y12583D01*
X57534Y12620D01*
X57279Y12642D01*
X56994Y12650D01*
Y14150D01*
X57279Y14157D01*
X57534Y14179D01*
X57758Y14216D01*
X57954Y14268D01*
X58118Y14334D01*
X58254Y14416D01*
X58359Y14512D01*
X58434Y14622D01*
X58478Y14748D01*
X58494Y14888D01*
Y11900D01*
D02*
G37*
G36*
X61973Y14507D02*
X62018Y14380D01*
X62094Y14267D01*
X62199Y14170D01*
X62335Y14087D01*
X62502Y14020D01*
X62698Y13968D01*
X62925Y13930D01*
X63182Y13907D01*
X63469Y13900D01*
Y12400D01*
X63182Y12393D01*
X62925Y12370D01*
X62698Y12332D01*
X62502Y12280D01*
X62335Y12212D01*
X62199Y12130D01*
X62094Y12032D01*
X62018Y11920D01*
X61973Y11793D01*
X61958Y11650D01*
Y14650D01*
X61973Y14507D01*
D02*
G37*
G36*
X40888Y11988D02*
X40817Y11952D01*
X40755Y11893D01*
X40700Y11811D01*
X40654Y11705D01*
X40617Y11575D01*
X40588Y11422D01*
X40567Y11245D01*
X40554Y11044D01*
X40550Y10820D01*
X39050D01*
X39046Y11044D01*
X39012Y11422D01*
X38983Y11575D01*
X38946Y11705D01*
X38900Y11811D01*
X38846Y11893D01*
X38783Y11952D01*
X38712Y11988D01*
X38633Y12000D01*
X40967D01*
X40888Y11988D01*
D02*
G37*
G36*
X15909Y13183D02*
X15954Y13055D01*
X16029Y12943D01*
X16134Y12845D01*
X16269Y12763D01*
X16434Y12695D01*
X16629Y12642D01*
X16854Y12605D01*
X17109Y12583D01*
X17394Y12575D01*
Y11075D01*
X17109Y11069D01*
X16854Y11050D01*
X16629Y11018D01*
X16434Y10973D01*
X16269Y10916D01*
X16134Y10845D01*
X16029Y10763D01*
X15954Y10667D01*
X15909Y10558D01*
X15894Y10437D01*
Y13325D01*
X15909Y13183D01*
D02*
G37*
G36*
X19406Y10325D02*
X19390Y10468D01*
X19345Y10595D01*
X19269Y10707D01*
X19164Y10805D01*
X19027Y10887D01*
X18861Y10955D01*
X18665Y11007D01*
X18438Y11045D01*
X18181Y11067D01*
X17894Y11075D01*
Y12575D01*
X18181Y12583D01*
X18438Y12605D01*
X18665Y12642D01*
X18861Y12695D01*
X19027Y12763D01*
X19164Y12845D01*
X19269Y12943D01*
X19345Y13055D01*
X19390Y13183D01*
X19406Y13325D01*
Y10325D01*
D02*
G37*
G36*
X66142Y11620D02*
X66523Y11280D01*
X66539Y11275D01*
X65425Y10161D01*
X65420Y10177D01*
X65406Y10200D01*
X65384Y10230D01*
X65315Y10311D01*
X65080Y10558D01*
X65001Y10638D01*
X66062Y11699D01*
X66142Y11620D01*
D02*
G37*
G36*
X67090Y11008D02*
X67118Y10998D01*
X67157Y10989D01*
X67206Y10981D01*
X67336Y10970D01*
X67608Y10961D01*
X67720Y10960D01*
X67504Y9460D01*
X66945Y9481D01*
X67072Y11019D01*
X67090Y11008D01*
D02*
G37*
G36*
X30185Y11113D02*
X30233Y10979D01*
X30311Y10861D01*
X30422Y10758D01*
X30563Y10672D01*
X30736Y10601D01*
X30941Y10546D01*
X31177Y10506D01*
X31445Y10483D01*
X31744Y10475D01*
Y8900D01*
X30169Y8912D01*
Y11262D01*
X30185Y11113D01*
D02*
G37*
G36*
X37433Y8106D02*
X37669Y7897D01*
X37703Y7873D01*
X37733Y7854D01*
X37759Y7842D01*
X37781Y7835D01*
X36882Y7064D01*
X36878Y7103D01*
X36867Y7143D01*
X36851Y7186D01*
X36829Y7231D01*
X36801Y7279D01*
X36767Y7329D01*
X36728Y7380D01*
X36632Y7491D01*
X36575Y7549D01*
X37373Y8166D01*
X37433Y8106D01*
D02*
G37*
G36*
X44597Y6891D02*
X44653Y6189D01*
X44686Y6017D01*
X44726Y5877D01*
X44774Y5767D01*
X44829Y5689D01*
X44892Y5642D01*
X44962Y5626D01*
X42243Y5638D01*
X42241Y5654D01*
X42239Y5700D01*
X42232Y7187D01*
X44594D01*
X44597Y6891D01*
D02*
G37*
G36*
X38212Y6620D02*
X38195Y6585D01*
X38180Y6544D01*
X38167Y6497D01*
X38156Y6444D01*
X38147Y6385D01*
X38145Y6353D01*
X38151Y6274D01*
X38177Y6122D01*
X38212Y5990D01*
X38256Y5879D01*
X38311Y5788D01*
X38377Y5717D01*
X38451Y5666D01*
X38537Y5636D01*
X38631Y5626D01*
X36632D01*
X36726Y5636D01*
X36812Y5666D01*
X36887Y5717D01*
X36952Y5788D01*
X37007Y5879D01*
X37051Y5990D01*
X37086Y6122D01*
X37111Y6274D01*
X37118Y6349D01*
X37116Y6385D01*
X37107Y6444D01*
X37096Y6497D01*
X37083Y6544D01*
X37068Y6585D01*
X37051Y6620D01*
X37032Y6650D01*
X38231D01*
X38212Y6620D01*
D02*
G37*
G36*
X35756Y3150D02*
X35745Y3245D01*
X35715Y3330D01*
X35664Y3405D01*
X35594Y3470D01*
X35502Y3525D01*
X35391Y3570D01*
X35260Y3605D01*
X35108Y3630D01*
X34936Y3645D01*
X34743Y3650D01*
Y4650D01*
X34936Y4655D01*
X35108Y4670D01*
X35260Y4695D01*
X35391Y4730D01*
X35502Y4775D01*
X35594Y4830D01*
X35664Y4895D01*
X35715Y4970D01*
X35745Y5055D01*
X35756Y5150D01*
Y3150D01*
D02*
G37*
G36*
X30180Y5055D02*
X30209Y4970D01*
X30259Y4895D01*
X30329Y4830D01*
X30419Y4775D01*
X30529Y4730D01*
X30659Y4695D01*
X30810Y4670D01*
X30979Y4655D01*
X31170Y4650D01*
Y3650D01*
X30979Y3645D01*
X30810Y3630D01*
X30659Y3605D01*
X30529Y3570D01*
X30419Y3525D01*
X30329Y3470D01*
X30259Y3405D01*
X30209Y3330D01*
X30180Y3245D01*
X30169Y3150D01*
Y5150D01*
X30180Y5055D01*
D02*
G37*
G36*
X83136Y2523D02*
X83078Y2464D01*
X82939Y2304D01*
X82904Y2256D01*
X82874Y2211D01*
X82850Y2168D01*
X82832Y2129D01*
X82819Y2092D01*
X82811Y2057D01*
X81963Y2905D01*
X81997Y2913D01*
X82034Y2926D01*
X82074Y2944D01*
X82116Y2969D01*
X82161Y2998D01*
X82209Y3034D01*
X82314Y3121D01*
X82428Y3230D01*
X83136Y2523D01*
D02*
G37*
%LPC*%
G36*
X120079Y76516D02*
X119126Y76390D01*
X118238Y76023D01*
X117476Y75438D01*
X116891Y74675D01*
X116523Y73787D01*
X116398Y72835D01*
X116523Y71882D01*
X116891Y70994D01*
X117476Y70232D01*
X118238Y69647D01*
X119126Y69279D01*
X120079Y69154D01*
X121031Y69279D01*
X121919Y69647D01*
X122682Y70232D01*
X123267Y70994D01*
X123634Y71882D01*
X123760Y72835D01*
X123634Y73787D01*
X123267Y74675D01*
X122682Y75438D01*
X121919Y76023D01*
X121031Y76390D01*
X120079Y76516D01*
D02*
G37*
G36*
X93032Y69250D02*
X88532D01*
Y64750D01*
X89762D01*
Y61250D01*
X88532D01*
Y56750D01*
X93032D01*
Y61250D01*
X91801D01*
Y64750D01*
X93032D01*
Y65980D01*
X97240D01*
Y64468D01*
X101980D01*
Y69012D01*
X97240D01*
Y68020D01*
X93032D01*
Y69250D01*
D02*
G37*
G36*
X111823Y65272D02*
X107083D01*
Y60728D01*
X107414D01*
Y55626D01*
X107306Y55465D01*
X106826Y54985D01*
X106384Y54324D01*
X106364Y54224D01*
X106330Y54201D01*
X106054Y53788D01*
X105957Y53300D01*
X106054Y52812D01*
X106330Y52399D01*
X106744Y52122D01*
X106822Y52107D01*
X106826Y52101D01*
X107487Y51659D01*
X107605Y51636D01*
X107830Y51299D01*
X108244Y51022D01*
X108731Y50925D01*
X109219Y51022D01*
X109633Y51299D01*
X109909Y51712D01*
X110006Y52200D01*
X109973Y52365D01*
X110309Y52701D01*
X110419Y52723D01*
X110833Y52999D01*
X111109Y53412D01*
X111164Y53690D01*
X111337Y53948D01*
X111492Y54728D01*
Y60728D01*
X111823D01*
Y65272D01*
D02*
G37*
%LPD*%
D12*
X101031Y43000D02*
X101154D01*
X101563Y42591D01*
Y36024D02*
Y42591D01*
X97035Y34449D02*
Y35332D01*
X96051Y34449D02*
X97035D01*
Y35332D02*
X97727Y36024D01*
X99594D01*
X96723Y39900D02*
X98903D01*
X99594Y36024D02*
Y39208D01*
X98903Y39900D02*
X99594Y39208D01*
X96031Y40592D02*
Y43000D01*
Y40592D02*
X96723Y39900D01*
X88832Y33100D02*
Y33350D01*
X89241Y33759D01*
X89491D01*
X90180Y34449D01*
X96051D01*
X9532Y53100D02*
X20462D01*
X20531Y53031D01*
X9232Y44600D02*
X20301D01*
X20531Y44369D01*
X27618D01*
X30537Y47288D01*
X33922D01*
X34032Y47398D01*
X20531Y53031D02*
X27618D01*
X30583Y50066D01*
X33922D01*
X34032Y49957D01*
D13*
X71931Y67000D02*
X84281D01*
X12700Y57400D02*
X26000D01*
X30684Y52716D02*
X33832D01*
X34032Y52516D01*
X26000Y57400D02*
X30684Y52716D01*
X12000Y58100D02*
X12700Y57400D01*
X9532Y58100D02*
X12000D01*
X5900D02*
X9532D01*
X3200Y55400D02*
X5900Y58100D01*
X3200Y42200D02*
Y55400D01*
X5800Y39600D02*
X9532D01*
X3200Y42200D02*
X5800Y39600D01*
X38339Y34602D02*
X43332Y39595D01*
Y51300D01*
X95961Y32390D02*
X96051Y32480D01*
X93032Y32300D02*
X93122Y32390D01*
X95961D01*
X70734Y47398D02*
X70832Y47300D01*
X57032Y47398D02*
X70734D01*
X21632Y23200D02*
Y31100D01*
Y23200D02*
X37631Y7200D01*
X21632Y31100D02*
X26847Y36315D01*
X23932Y24950D02*
X23981D01*
X33511Y15420D01*
X39718D01*
X37631Y7100D02*
Y7200D01*
X27431Y25600D02*
X27526Y25695D01*
Y26967D01*
X27431Y25600D02*
X35052Y17979D01*
X39718D01*
X27526Y26967D02*
X27622Y27062D01*
X79331Y16200D02*
X79673Y15858D01*
X68532Y16200D02*
X79331D01*
X34032Y34602D02*
X38339D01*
X91484Y11579D02*
Y15858D01*
X82069Y2163D02*
X91484Y11579D01*
X37481Y3900D02*
X37631Y4050D01*
Y7100D01*
X28431Y4150D02*
X37231D01*
X37481Y3900D01*
X52232Y26000D02*
Y36200D01*
Y26000D02*
X52332Y25900D01*
X53193Y37161D02*
X57032D01*
X52232Y36200D02*
X53193Y37161D01*
X50545Y42613D02*
X52832Y44900D01*
X50545Y20539D02*
Y42613D01*
X52832Y44900D02*
X56970D01*
X26847Y36315D02*
Y41348D01*
X33832Y44639D02*
X34032Y44839D01*
X30137Y44639D02*
X33832D01*
X26847Y41348D02*
X30137Y44639D01*
X86221Y52756D02*
X96457D01*
X84281Y54695D02*
Y59000D01*
Y54695D02*
X86221Y52756D01*
X99606Y59256D02*
X99610Y59260D01*
X99606Y55905D02*
Y59256D01*
X96457Y52756D02*
X99606Y55905D01*
X92731Y23369D02*
Y25306D01*
X93323Y25892D02*
X93915Y26484D01*
X93317Y25892D02*
X93323D01*
X81269Y11906D02*
X92731Y23369D01*
X93915Y26484D02*
X95961D01*
X92731Y25306D02*
X93317Y25892D01*
X95961Y26484D02*
X96051Y26575D01*
X65153Y26200D02*
X90632D01*
X90781Y67000D02*
X99350D01*
X99610Y66740D01*
X90781Y59000D02*
Y67000D01*
X50532Y54600D02*
Y56300D01*
X45632Y53500D02*
X49175Y49957D01*
X57032D01*
X52616Y52516D02*
X57032D01*
X50532Y54600D02*
X52616Y52516D01*
X57032Y44839D02*
X64570D01*
X65131Y45400D01*
X43132Y11500D02*
Y30100D01*
Y11500D02*
X47132Y7500D01*
X76863D01*
X81269Y11906D01*
X41188Y32043D02*
X43132Y30100D01*
X45632Y15000D02*
Y41200D01*
Y15000D02*
X47770Y12861D01*
X45632Y41200D02*
X51829Y47398D01*
X114032Y40500D02*
Y43000D01*
X111432Y37900D02*
X114032Y40500D01*
X103532Y36024D02*
X105070D01*
X106946Y37900D01*
X111432D01*
X81269Y11906D02*
X81269D01*
X34032Y32043D02*
X41188D01*
X57032Y29484D02*
X61869D01*
X65153Y26200D01*
X65620Y30512D02*
X96051D01*
X61529Y34602D02*
X65620Y30512D01*
X64875Y28600D02*
X95995D01*
X61431Y32043D02*
X64875Y28600D01*
X95995D02*
X96051Y28543D01*
X57032Y32043D02*
X61431D01*
X57032Y34602D02*
X61529D01*
X47770Y12861D02*
X50545D01*
X51829Y47398D02*
X57032D01*
X56970Y44900D02*
X57032Y44839D01*
D18*
X97390Y15858D02*
D03*
X91484Y15858D02*
D03*
X79673Y15858D02*
D03*
D19*
X102902Y12921D02*
D03*
Y3079D02*
D03*
X74161D02*
D03*
Y12921D02*
D03*
D20*
X73400Y22000D02*
D03*
X66900D02*
D03*
X84281Y59000D02*
D03*
X90781D02*
D03*
X50782Y71000D02*
D03*
X44282D02*
D03*
Y64000D02*
D03*
X50782D02*
D03*
X90781Y67000D02*
D03*
X84281D02*
D03*
X43982Y3900D02*
D03*
X37481D02*
D03*
D21*
X28431Y10650D02*
D03*
Y4150D02*
D03*
X68831Y42250D02*
D03*
Y35750D02*
D03*
X60232Y19650D02*
D03*
Y13150D02*
D03*
X17631Y71750D02*
D03*
Y65250D02*
D03*
X21132Y18150D02*
D03*
Y11650D02*
D03*
X65531Y70250D02*
D03*
Y63750D02*
D03*
D22*
X39718Y12861D02*
D03*
Y15420D02*
D03*
Y17979D02*
D03*
Y20539D02*
D03*
X50545D02*
D03*
Y17979D02*
D03*
Y15420D02*
D03*
Y12861D02*
D03*
D23*
X26807Y71740D02*
D03*
Y68000D02*
D03*
Y64260D02*
D03*
X36256D02*
D03*
Y71740D02*
D03*
D24*
X57032Y52516D02*
D03*
Y49957D02*
D03*
Y47398D02*
D03*
Y44839D02*
D03*
Y42279D02*
D03*
Y39720D02*
D03*
Y37161D02*
D03*
Y34602D02*
D03*
Y32043D02*
D03*
Y29484D02*
D03*
X34032Y29484D02*
D03*
Y32043D02*
D03*
Y34602D02*
D03*
Y37161D02*
D03*
Y39720D02*
D03*
Y42279D02*
D03*
Y44839D02*
D03*
Y47398D02*
D03*
Y49957D02*
D03*
Y52516D02*
D03*
D25*
X65610Y52000D02*
D03*
X75453Y48260D02*
D03*
X109453Y63000D02*
D03*
X99610Y66740D02*
D03*
D26*
X75453Y55740D02*
D03*
X99610Y59260D02*
D03*
D27*
X88832Y33100D02*
D03*
Y38100D02*
D03*
X9532Y53100D02*
D03*
Y58100D02*
D03*
Y44600D02*
D03*
Y39600D02*
D03*
D28*
X109031Y43000D02*
D03*
X114032D02*
D03*
X96031Y49000D02*
D03*
X101031D02*
D03*
Y43000D02*
D03*
X96031D02*
D03*
D29*
X99594Y36024D02*
D03*
X101563D02*
D03*
X103532D02*
D03*
Y25000D02*
D03*
X101563D02*
D03*
X99594D02*
D03*
D30*
X107075Y34449D02*
D03*
Y32480D02*
D03*
Y30512D02*
D03*
Y28543D02*
D03*
Y26575D02*
D03*
X96051D02*
D03*
Y28543D02*
D03*
Y30512D02*
D03*
Y32480D02*
D03*
Y34449D02*
D03*
D31*
X20531Y44369D02*
D03*
Y53031D02*
D03*
D32*
X14332Y12000D02*
D03*
Y17906D02*
D03*
D34*
X75453Y48260D02*
X80060D01*
X103800Y27900D02*
X105697Y26003D01*
Y25197D02*
Y26003D01*
X104100Y28200D02*
Y29900D01*
X103800Y27900D02*
X104100Y28200D01*
X101154Y43000D02*
X109031D01*
X79800Y48300D02*
X80900Y49400D01*
X65700Y57267D02*
Y59200D01*
X66000Y59500D01*
X65700Y52110D02*
Y57267D01*
X65600Y52010D02*
X65700Y52110D01*
X65600Y52010D02*
X65610Y52000D01*
X79100Y48300D02*
X79800D01*
X101031Y43000D02*
Y49000D01*
X103728Y25197D02*
X105697D01*
X96031Y43000D02*
Y49000D01*
X85700D02*
X96031D01*
X79100Y55600D02*
X85700Y49000D01*
X75453Y55740D02*
X75593Y55600D01*
X79100D01*
D35*
X83502Y38598D02*
X84000Y38100D01*
X88832D01*
X80060Y42040D02*
X83502Y38598D01*
X80060Y42040D02*
Y48260D01*
X28431Y10650D02*
X29394Y9687D01*
X32106D01*
X32394Y9400D01*
X32500D01*
X27700Y11382D02*
X28431Y10650D01*
X27700Y11382D02*
Y13900D01*
X23500Y18100D02*
X27700Y13900D01*
X21181Y18100D02*
X23500D01*
X21132Y18150D02*
X21181Y18100D01*
D36*
X73400Y22000D02*
X74400Y23000D01*
X76873D01*
X78073Y24200D01*
X78200D01*
X63500Y21079D02*
Y21121D01*
X66021D02*
X66900Y22000D01*
X63500Y21121D02*
X66021D01*
X60782Y20200D02*
X62621D01*
X63500Y21079D01*
X60232Y19650D02*
X60782Y20200D01*
X59781Y20100D02*
X60232Y19650D01*
X56100Y20100D02*
X59781D01*
X50545Y17979D02*
X53979D01*
X56100Y20100D01*
X41400Y9200D02*
Y9220D01*
X39800Y10820D02*
X41400Y9220D01*
X39718Y12861D02*
X39800Y12779D01*
Y10820D02*
Y12779D01*
X66400Y10300D02*
X66490Y10210D01*
X67963D01*
X68373Y9800D01*
X68500D01*
X60232Y13150D02*
X63550D01*
X66400Y10300D01*
X68831Y42250D02*
X69040Y42458D01*
X72831D01*
X74473Y44100D01*
X74600D01*
X55300Y75700D02*
X61600Y69400D01*
Y54500D02*
Y69400D01*
X40300Y43500D02*
Y56600D01*
X40400Y56700D01*
X34032Y42279D02*
X34082Y42329D01*
X39129D01*
X40300Y43500D01*
X40269Y71370D02*
X43911D01*
X36626D02*
X40269D01*
X45160Y75700D02*
X55300D01*
X44282Y71000D02*
Y74821D01*
X45160Y75700D01*
X14332Y12000D02*
X14506Y11825D01*
X20956D01*
X21132Y11650D01*
X57032Y42279D02*
X57046Y42265D01*
X68817D01*
X68831Y42250D01*
X59982Y13400D02*
X60232Y13150D01*
X55932Y13400D02*
X59982D01*
X50545Y15420D02*
X53911D01*
X55932Y13400D01*
X50782Y64000D02*
Y71000D01*
X36256Y64260D02*
X36386Y64130D01*
X44152D01*
X44282Y64000D01*
X36256Y71740D02*
X36626Y71370D01*
X43911D02*
X44282Y71000D01*
D37*
X67481Y72200D02*
X71700D01*
X65531Y70250D02*
X67481Y72200D01*
X11700Y66300D02*
X12500Y65500D01*
X11700Y69643D02*
X13557Y71500D01*
X11700Y66300D02*
Y69643D01*
X13557Y71500D02*
X17381D01*
X17631Y71750D01*
X109453Y54728D02*
Y63000D01*
X108268Y53543D02*
X109453Y54728D01*
D38*
X71100Y63750D02*
X72300Y62550D01*
X65531Y63750D02*
X71100D01*
X105697Y25197D02*
X106287Y25787D01*
X106878D01*
X107075Y25984D01*
Y26575D01*
Y32480D02*
Y34449D01*
Y30512D02*
Y32480D01*
Y28543D02*
Y30512D01*
Y26575D02*
Y28543D01*
D39*
X74000Y38300D02*
X74033Y38333D01*
X75786D01*
X75953Y38500D01*
X76000D01*
X68831Y35750D02*
X72780D01*
X73967Y38267D02*
X74000Y38300D01*
X73967Y36937D02*
Y38267D01*
X72780Y35750D02*
X73967Y36937D01*
X60911Y39720D02*
X65031Y35600D01*
X68682D01*
X57032Y39720D02*
X60911D01*
D40*
X56800Y65384D02*
Y68400D01*
X43413Y4469D02*
Y7187D01*
X41400Y9200D02*
X43413Y7187D01*
Y4469D02*
X43982Y3900D01*
X14332Y17906D02*
Y24769D01*
X12000Y27100D02*
X14332Y24769D01*
X50782Y64000D02*
X55416D01*
X56800Y65384D01*
D41*
X17600Y60000D02*
X21700D01*
D42*
X17631Y60031D02*
Y65250D01*
X17600Y60000D02*
X17631Y60031D01*
X26807Y64260D02*
X27087Y64539D01*
X29171D01*
X31231Y66600D01*
X27087Y71461D02*
X30060D01*
X31231Y70289D01*
Y66600D02*
Y70289D01*
X26807Y71740D02*
X27087Y71461D01*
X26528Y67721D02*
X26807Y68000D01*
X23852Y67721D02*
X26528D01*
X21382Y65250D02*
X23852Y67721D01*
X17631Y65250D02*
X21382D01*
X17631Y71750D02*
X17636Y71745D01*
X26802D01*
X26807Y71740D01*
D43*
X94437Y8000D02*
D03*
X82626D02*
D03*
D44*
X68500Y9800D02*
D03*
X66400Y10300D02*
D03*
X78700Y5300D02*
D03*
X105300Y40600D02*
D03*
X104100Y29900D02*
D03*
X103800Y27900D02*
D03*
X104700Y42800D02*
D03*
X71400Y70000D02*
D03*
X73700Y72000D02*
D03*
X66000Y59500D02*
D03*
X65700Y57267D02*
D03*
X104800Y56600D02*
D03*
X106300Y58100D02*
D03*
X103100Y58000D02*
D03*
X80900Y49400D02*
D03*
X79100Y48300D02*
D03*
X106900Y76300D02*
D03*
X107000Y73000D02*
D03*
X103100Y76300D02*
D03*
X103150Y73000D02*
D03*
X99300Y76300D02*
D03*
X95450Y73000D02*
D03*
X95500Y76300D02*
D03*
X91700D02*
D03*
X99300Y73000D02*
D03*
X91600D02*
D03*
X78200Y24200D02*
D03*
X74600Y44100D02*
D03*
X61600Y54500D02*
D03*
X32500Y9400D02*
D03*
X40400Y56700D02*
D03*
X40269Y71370D02*
D03*
D45*
X71931Y67000D02*
D03*
X43332Y51300D02*
D03*
X27522Y27638D02*
D03*
X93032Y32300D02*
D03*
X70783Y47349D02*
D03*
X23932Y24950D02*
D03*
X68532Y16200D02*
D03*
X45753Y54050D02*
D03*
X82069Y2163D02*
D03*
X37631Y7100D02*
D03*
X52431Y25900D02*
D03*
X107231Y53300D02*
D03*
X109932Y53900D02*
D03*
X108731Y52200D02*
D03*
X108431Y54900D02*
D03*
X90632Y26200D02*
D03*
X50653Y56800D02*
D03*
X65131Y45400D02*
D03*
D46*
X74000Y59500D02*
D03*
X73662Y62938D02*
D03*
X72600Y61000D02*
D03*
X104800Y59100D02*
D03*
X76000Y38500D02*
D03*
X74000Y38300D02*
D03*
X41400Y9200D02*
D03*
X12000Y27100D02*
D03*
X56800Y68400D02*
D03*
X55100D02*
D03*
X23200Y59500D02*
D03*
X22600Y61500D02*
D03*
X21300Y59600D02*
D03*
X21000Y61500D02*
D03*
X47800Y31900D02*
D03*
X38300Y28400D02*
D03*
X47800Y33700D02*
D03*
X43600Y36300D02*
D03*
X42500Y34900D02*
D03*
X43700Y33600D02*
D03*
X47800Y36000D02*
D03*
X75000Y61400D02*
D03*
X73700Y70200D02*
D03*
X71700Y72200D02*
D03*
X12500Y65500D02*
D03*
X33100Y23900D02*
D03*
D47*
X5906Y5512D02*
D03*
X120079Y72835D02*
D03*
Y5512D02*
D03*
X5906Y72835D02*
D03*
M02*
