M48
;Layer_Color=9474304
;FILE_FORMAT=2:5
INCH,LZ
;TYPE=PLATED
T1F00S00C0.01000
T2F00S00C0.01181
T3F00S00C0.01378
T4F00S00C0.01496
T5F00S00C0.03150
T6F00S00C0.06102
%
T01
X0093032Y00323
X0107231Y00533
X0108731Y00522
X0109932Y00539
X0108431Y00549
X0070783Y0047349
X0065131Y00454
X0050653Y00568
X0045753Y005405
X0043332Y00513
X0052431Y00259
X0068532Y00162
X0082069Y0002163
X0090632Y00262
X0071931Y0067
X0027522Y0027638
X0023932Y002495
X0037631Y00071
T02
X01038Y00279
X01041Y00299
X01053Y00406
X01047Y00428
X01048Y00566
Y00591
X01063Y00581
X01031Y0058
X010315Y0073
X01031Y00763
X01069
X0107Y0073
X00993
Y00763
X00955
X009545Y0073
X00916
X00917Y00763
X00737Y0072
Y00702
X00714Y007
X00717Y00722
X0073662Y0062938
X0075Y00614
X00726Y0061
X0074Y00595
X0066
X00657Y0057267
X00568Y00684
X00551
X00226Y00615
X0021
X00213Y00596
X00232Y00595
X00125Y00655
X0012Y00271
X00331Y00239
X00383Y00284
X00437Y00336
X00425Y00349
X00436Y00363
X00478Y0036
Y00337
Y00319
X00414Y00092
X00664Y00103
X00685Y00098
X00787Y00053
X0076Y00385
X0074Y00383
X00791Y00483
X00809Y00494
T03
X00325Y00094
X00404Y00567
X00616Y00545
X00746Y00441
X00782Y00242
T04
X0040269Y007137
T05
X0094437Y0008
X0082626
T06
X0120079Y0005512
Y0072835
X0005906
Y0005512
M30
