G04*
G04 #@! TF.GenerationSoftware,Altium Limited,Altium Designer,20.0.2 (26)*
G04*
G04 Layer_Physical_Order=4*
G04 Layer_Color=16711680*
%FSLAX25Y25*%
%MOIN*%
G70*
G01*
G75*
%ADD13C,0.01000*%
%ADD20R,0.03500X0.03500*%
%ADD21R,0.03500X0.03500*%
%ADD32R,0.03150X0.03150*%
%ADD34C,0.01968*%
%ADD36C,0.01500*%
%ADD37C,0.03000*%
%ADD40C,0.02362*%
%ADD43C,0.03150*%
%ADD44C,0.01968*%
%ADD45C,0.01500*%
%ADD46C,0.01575*%
%ADD47C,0.06299*%
%ADD48R,0.03150X0.06299*%
%ADD49R,0.07087X0.07874*%
%ADD50R,0.02992X0.05000*%
%ADD51R,0.03937X0.03740*%
%ADD52P,0.04950X4X360.0*%
%ADD53P,0.04950X4X90.0*%
%ADD54R,0.04488X0.03937*%
%ADD55R,0.03937X0.07874*%
%ADD56R,0.13386X0.03937*%
%ADD57R,0.14173X0.05906*%
G36*
X41108Y70266D02*
X39608Y70050D01*
X39608Y70161D01*
X39583Y70567D01*
X39574Y70618D01*
X39564Y70659D01*
X39552Y70690D01*
X39538Y70710D01*
X41088Y70825D01*
X41108Y70266D01*
D02*
G37*
G36*
X71481Y66400D02*
X71452Y66419D01*
X71416Y66436D01*
X71375Y66451D01*
X71328Y66464D01*
X71275Y66475D01*
X71216Y66484D01*
X71081Y66496D01*
X70922Y66500D01*
Y67500D01*
X71005Y67501D01*
X71216Y67516D01*
X71275Y67525D01*
X71328Y67536D01*
X71375Y67549D01*
X71416Y67564D01*
X71452Y67581D01*
X71481Y67600D01*
Y66400D01*
D02*
G37*
G36*
X56659Y67351D02*
X56751Y66028D01*
X56792Y65816D01*
X56842Y65650D01*
X56899Y65532D01*
X56964Y65461D01*
X57037Y65438D01*
X53911D01*
X53984Y65461D01*
X54049Y65532D01*
X54106Y65650D01*
X54155Y65816D01*
X54198Y66028D01*
X54232Y66288D01*
X54278Y66949D01*
X54293Y67800D01*
X56655D01*
X56659Y67351D01*
D02*
G37*
G36*
X41116Y66653D02*
X41138Y66398D01*
X41176Y66173D01*
X41228Y65978D01*
X41296Y65813D01*
X41378Y65678D01*
X41476Y65573D01*
X41588Y65498D01*
X41716Y65453D01*
X41858Y65438D01*
X39147D01*
X39235Y65453D01*
X39313Y65498D01*
X39382Y65573D01*
X39442Y65678D01*
X39493Y65813D01*
X39535Y65978D01*
X39567Y66173D01*
X39590Y66398D01*
X39608Y66938D01*
X41108D01*
X41116Y66653D01*
D02*
G37*
G36*
X80299Y67303D02*
Y63601D01*
X80277Y63736D01*
X80211Y63858D01*
X80100Y63965D01*
X79945Y64058D01*
X79746Y64136D01*
X79502Y64201D01*
X79214Y64251D01*
X78882Y64286D01*
X78085Y64315D01*
Y67315D01*
X80299Y67303D01*
D02*
G37*
G36*
X51558Y59164D02*
X51473Y59134D01*
X51398Y59083D01*
X51333Y59013D01*
X51278Y58921D01*
X51233Y58810D01*
X51198Y58679D01*
X51173Y58527D01*
X51158Y58355D01*
X51153Y58162D01*
X50153D01*
X50148Y58355D01*
X50133Y58527D01*
X50108Y58679D01*
X50073Y58810D01*
X50028Y58921D01*
X49973Y59013D01*
X49908Y59083D01*
X49833Y59134D01*
X49748Y59164D01*
X49653Y59174D01*
X51653D01*
X51558Y59164D01*
D02*
G37*
G36*
X51154Y57727D02*
X51169Y57515D01*
X51178Y57456D01*
X51189Y57403D01*
X51202Y57356D01*
X51217Y57315D01*
X51234Y57280D01*
X51253Y57250D01*
X50053D01*
X50072Y57280D01*
X50089Y57315D01*
X50104Y57356D01*
X50117Y57403D01*
X50128Y57456D01*
X50137Y57515D01*
X50149Y57650D01*
X50153Y57809D01*
X51153D01*
X51154Y57727D01*
D02*
G37*
G36*
X41847Y59159D02*
X41720Y59113D01*
X41607Y59037D01*
X41510Y58931D01*
X41427Y58795D01*
X41360Y58629D01*
X41307Y58432D01*
X41270Y58206D01*
X41247Y57949D01*
X41240Y57662D01*
X41234D01*
X41219Y57245D01*
X39670Y57360D01*
X39683Y57380D01*
X39695Y57411D01*
X39705Y57452D01*
X39714Y57503D01*
X39728Y57635D01*
X39737Y57804D01*
X39734Y57947D01*
X39686Y58427D01*
X39645Y58622D01*
X39592Y58787D01*
X39526Y58922D01*
X39450Y59027D01*
X39361Y59102D01*
X39260Y59147D01*
X39147Y59162D01*
X41990Y59174D01*
X41847Y59159D01*
D02*
G37*
G36*
X80299Y60610D02*
Y56697D01*
X80269Y56873D01*
X80179Y57030D01*
X80029Y57169D01*
X79819Y57289D01*
X79549Y57391D01*
X79219Y57474D01*
X78829Y57539D01*
X78379Y57585D01*
X77299Y57622D01*
Y60622D01*
X80299Y60610D01*
D02*
G37*
G36*
X61739Y53526D02*
X61723Y53520D01*
X61700Y53506D01*
X61670Y53484D01*
X61589Y53415D01*
X61342Y53180D01*
X61262Y53101D01*
X61181Y53182D01*
X61169Y51688D01*
X58931Y51676D01*
X59074Y51692D01*
X59202Y51738D01*
X59314Y51814D01*
X59412Y51920D01*
X59494Y52056D01*
X59562Y52222D01*
X59614Y52419D01*
X59651Y52645D01*
X59674Y52901D01*
X59681Y53188D01*
X61176D01*
X60201Y54162D01*
X60280Y54242D01*
X60620Y54623D01*
X60625Y54639D01*
X61739Y53526D01*
D02*
G37*
G36*
X44398Y51660D02*
X44341Y51601D01*
X44202Y51441D01*
X44167Y51393D01*
X44137Y51348D01*
X44113Y51305D01*
X44094Y51266D01*
X44082Y51229D01*
X44074Y51194D01*
X43226Y52043D01*
X43260Y52050D01*
X43297Y52063D01*
X43337Y52082D01*
X43379Y52106D01*
X43424Y52135D01*
X43472Y52171D01*
X43576Y52258D01*
X43691Y52367D01*
X44398Y51660D01*
D02*
G37*
G36*
X73530Y50315D02*
X73457Y50287D01*
X73393Y50240D01*
X73338Y50174D01*
X73291Y50089D01*
X73252Y49986D01*
X73223Y49864D01*
X73201Y49724D01*
X73189Y49564D01*
X73184Y49386D01*
X72184D01*
X72180Y49564D01*
X72167Y49724D01*
X72146Y49864D01*
X72116Y49986D01*
X72078Y50089D01*
X72031Y50174D01*
X71975Y50240D01*
X71912Y50287D01*
X71839Y50315D01*
X71758Y50324D01*
X73611D01*
X73530Y50315D01*
D02*
G37*
G36*
X68937Y50314D02*
X68852Y50283D01*
X68777Y50233D01*
X68712Y50162D01*
X68656Y50071D01*
X68612Y49960D01*
X68577Y49828D01*
X68551Y49676D01*
X68537Y49504D01*
X68532Y49312D01*
X67532D01*
X67527Y49504D01*
X67511Y49676D01*
X67487Y49828D01*
X67452Y49960D01*
X67406Y50071D01*
X67352Y50162D01*
X67286Y50233D01*
X67212Y50283D01*
X67127Y50314D01*
X67032Y50324D01*
X69032D01*
X68937Y50314D01*
D02*
G37*
G36*
X71833Y47828D02*
X71777Y47769D01*
X71681Y47659D01*
X71642Y47606D01*
X71609Y47556D01*
X71582Y47508D01*
X71561Y47463D01*
X71545Y47419D01*
X71536Y47378D01*
X71533Y47338D01*
X70618Y48081D01*
X70635Y48087D01*
X70656Y48099D01*
X70682Y48117D01*
X70713Y48141D01*
X70835Y48249D01*
X71002Y48410D01*
X71833Y47828D01*
D02*
G37*
G36*
X47719Y48105D02*
X47749Y48020D01*
X47798Y47945D01*
X47868Y47880D01*
X47958Y47825D01*
X48068Y47780D01*
X48199Y47745D01*
X48349Y47720D01*
X48518Y47705D01*
X48709Y47700D01*
Y46700D01*
X48518Y46695D01*
X48349Y46680D01*
X48199Y46655D01*
X48068Y46620D01*
X47958Y46575D01*
X47868Y46520D01*
X47798Y46455D01*
X47749Y46380D01*
X47719Y46295D01*
X47708Y46200D01*
Y48200D01*
X47719Y48105D01*
D02*
G37*
G36*
X34359Y46200D02*
X34348Y46295D01*
X34318Y46380D01*
X34268Y46455D01*
X34197Y46520D01*
X34106Y46575D01*
X33994Y46620D01*
X33863Y46655D01*
X33711Y46680D01*
X33539Y46695D01*
X33347Y46700D01*
Y47700D01*
X33539Y47705D01*
X33711Y47720D01*
X33863Y47745D01*
X33994Y47780D01*
X34106Y47825D01*
X34197Y47880D01*
X34268Y47945D01*
X34318Y48020D01*
X34348Y48105D01*
X34359Y48200D01*
Y46200D01*
D02*
G37*
G36*
X66198Y45760D02*
X66141Y45701D01*
X66002Y45541D01*
X65967Y45493D01*
X65937Y45448D01*
X65913Y45405D01*
X65895Y45366D01*
X65882Y45329D01*
X65874Y45294D01*
X65026Y46143D01*
X65060Y46150D01*
X65097Y46163D01*
X65137Y46181D01*
X65179Y46206D01*
X65224Y46235D01*
X65272Y46271D01*
X65376Y46358D01*
X65491Y46467D01*
X66198Y45760D01*
D02*
G37*
G36*
X75580Y44223D02*
X75594Y44200D01*
X75616Y44170D01*
X75685Y44089D01*
X75920Y43842D01*
X75999Y43762D01*
X74938Y42701D01*
X74858Y42780D01*
X74477Y43120D01*
X74461Y43126D01*
X75574Y44239D01*
X75580Y44223D01*
D02*
G37*
G36*
X61180Y44355D02*
X61209Y44270D01*
X61260Y44195D01*
X61330Y44130D01*
X61419Y44075D01*
X61529Y44030D01*
X61659Y43995D01*
X61809Y43970D01*
X61980Y43955D01*
X62169Y43950D01*
Y42950D01*
X61980Y42945D01*
X61809Y42930D01*
X61659Y42905D01*
X61529Y42870D01*
X61419Y42825D01*
X61330Y42770D01*
X61260Y42705D01*
X61209Y42630D01*
X61180Y42545D01*
X61169Y42450D01*
Y44450D01*
X61180Y44355D01*
D02*
G37*
G36*
X34359Y38638D02*
X34348Y38733D01*
X34318Y38818D01*
X34268Y38893D01*
X34197Y38958D01*
X34106Y39013D01*
X33994Y39058D01*
X33863Y39093D01*
X33711Y39118D01*
X33539Y39133D01*
X33347Y39138D01*
Y40138D01*
X33539Y40143D01*
X33711Y40158D01*
X33863Y40183D01*
X33994Y40218D01*
X34106Y40263D01*
X34197Y40318D01*
X34268Y40383D01*
X34318Y40458D01*
X34348Y40543D01*
X34359Y40638D01*
Y38638D01*
D02*
G37*
G36*
X47719Y40105D02*
X47749Y40020D01*
X47798Y39945D01*
X47868Y39880D01*
X47958Y39825D01*
X48068Y39780D01*
X48199Y39745D01*
X48349Y39720D01*
X48518Y39705D01*
X48709Y39700D01*
Y38700D01*
X48518Y38695D01*
X48349Y38680D01*
X48199Y38655D01*
X48068Y38620D01*
X47958Y38575D01*
X47868Y38520D01*
X47798Y38455D01*
X47749Y38380D01*
X47719Y38295D01*
X47708Y38200D01*
Y40200D01*
X47719Y40105D01*
D02*
G37*
G36*
X28023Y28565D02*
X28038Y28353D01*
X28047Y28294D01*
X28058Y28241D01*
X28071Y28194D01*
X28086Y28153D01*
X28103Y28118D01*
X28122Y28088D01*
X26922D01*
X26941Y28118D01*
X26958Y28153D01*
X26973Y28194D01*
X26986Y28241D01*
X26997Y28294D01*
X27006Y28353D01*
X27018Y28488D01*
X27022Y28647D01*
X28022D01*
X28023Y28565D01*
D02*
G37*
G36*
X24482Y25910D02*
X24482Y25826D01*
X24498Y25558D01*
X24506Y25508D01*
X24515Y25465D01*
X24525Y25428D01*
X24537Y25398D01*
X24550Y25375D01*
X23363Y25439D01*
X23385Y25469D01*
X23405Y25506D01*
X23423Y25548D01*
X23439Y25595D01*
X23452Y25648D01*
X23462Y25707D01*
X23477Y25842D01*
X23480Y25918D01*
X23482Y26000D01*
X24482Y25910D01*
D02*
G37*
G36*
X78950Y25316D02*
X78980Y24806D01*
X78987Y24791D01*
X77413D01*
X77420Y24806D01*
X77426Y24832D01*
X77432Y24869D01*
X77441Y24975D01*
X77450Y25316D01*
X77450Y25428D01*
X78950D01*
X78950Y25316D01*
D02*
G37*
G36*
X68461Y25298D02*
X68476Y25128D01*
X68501Y24978D01*
X68536Y24848D01*
X68581Y24738D01*
X68636Y24648D01*
X68701Y24578D01*
X68776Y24528D01*
X68861Y24498D01*
X68956Y24488D01*
X66956D01*
X67051Y24498D01*
X67136Y24528D01*
X67211Y24578D01*
X67276Y24648D01*
X67331Y24738D01*
X67376Y24848D01*
X67411Y24978D01*
X67436Y25128D01*
X67451Y25298D01*
X67456Y25488D01*
X68456D01*
X68461Y25298D01*
D02*
G37*
G36*
X24512Y24470D02*
X24495Y24435D01*
X24480Y24394D01*
X24467Y24347D01*
X24456Y24294D01*
X24448Y24235D01*
X24435Y24100D01*
X24431Y23941D01*
X23431D01*
X23430Y24023D01*
X23415Y24235D01*
X23407Y24294D01*
X23396Y24347D01*
X23383Y24394D01*
X23368Y24435D01*
X23351Y24470D01*
X23332Y24500D01*
X24531D01*
X24512Y24470D01*
D02*
G37*
G36*
X33835Y37576D02*
Y37506D01*
X40863D01*
X51600Y37400D01*
X52290D01*
X60815Y28875D01*
X60608Y28375D01*
X57157D01*
Y24225D01*
X61306D01*
Y24880D01*
X61909D01*
X62412Y24378D01*
Y16000D01*
X62489Y15610D01*
X62600Y15445D01*
Y12600D01*
X31500D01*
X31400Y12700D01*
Y22010D01*
X31900Y22421D01*
X32200Y22361D01*
X33835D01*
Y21758D01*
X48221D01*
Y26695D01*
X33850D01*
X33828Y26728D01*
X33402Y27013D01*
X32900Y27113D01*
X32404Y27014D01*
X32328Y27128D01*
X31902Y27413D01*
X31400Y27513D01*
Y37245D01*
X31755Y37596D01*
X33835Y37576D01*
D02*
G37*
G36*
X73861Y19514D02*
X73776Y19484D01*
X73701Y19433D01*
X73636Y19362D01*
X73581Y19271D01*
X73536Y19160D01*
X73501Y19028D01*
X73476Y18876D01*
X73461Y18704D01*
X73456Y18512D01*
X72456D01*
X72451Y18704D01*
X72436Y18876D01*
X72411Y19028D01*
X72376Y19160D01*
X72331Y19271D01*
X72276Y19362D01*
X72211Y19433D01*
X72136Y19484D01*
X72051Y19514D01*
X71956Y19524D01*
X73956D01*
X73861Y19514D01*
D02*
G37*
G36*
X69088Y16709D02*
X69124Y16686D01*
X69165Y16666D01*
X69213Y16648D01*
X69266Y16634D01*
X69324Y16622D01*
X69389Y16612D01*
X69534Y16601D01*
X69616Y16600D01*
X69432Y15600D01*
X69346Y15600D01*
X68968Y15577D01*
X68945Y15572D01*
X68930Y15565D01*
X68532Y16069D01*
X68133Y15565D01*
X68118Y15572D01*
X68095Y15577D01*
X67717Y15600D01*
X67632Y15600D01*
X67447Y16600D01*
X67528Y16601D01*
X67674Y16612D01*
X67739Y16622D01*
X67797Y16634D01*
X67851Y16648D01*
X67898Y16666D01*
X67939Y16686D01*
X67975Y16709D01*
X68006Y16735D01*
X68532Y16069D01*
X69058Y16735D01*
X69088Y16709D01*
D02*
G37*
G36*
X38111Y7681D02*
X38147Y7664D01*
X38188Y7649D01*
X38235Y7636D01*
X38288Y7625D01*
X38347Y7616D01*
X38482Y7604D01*
X38640Y7600D01*
Y6600D01*
X38558Y6599D01*
X38347Y6584D01*
X38288Y6575D01*
X38235Y6564D01*
X38188Y6551D01*
X38147Y6536D01*
X38111Y6519D01*
X38082Y6500D01*
Y7700D01*
X38111Y7681D01*
D02*
G37*
G36*
X51026Y6100D02*
X51016Y6195D01*
X50985Y6280D01*
X50934Y6355D01*
X50864Y6420D01*
X50773Y6475D01*
X50661Y6520D01*
X50530Y6555D01*
X50378Y6580D01*
X50206Y6595D01*
X50014Y6600D01*
Y7600D01*
X50206Y7605D01*
X50378Y7620D01*
X50530Y7645D01*
X50661Y7680D01*
X50773Y7725D01*
X50864Y7780D01*
X50934Y7845D01*
X50985Y7920D01*
X51016Y8005D01*
X51026Y8100D01*
Y6100D01*
D02*
G37*
G36*
X72257Y8882D02*
X72317Y8714D01*
X72416Y8567D01*
X72554Y8439D01*
X72733Y8330D01*
X72950Y8242D01*
X73208Y8173D01*
X73505Y8124D01*
X73842Y8094D01*
X74218Y8084D01*
Y6116D01*
X73842Y6106D01*
X73505Y6076D01*
X73208Y6027D01*
X72950Y5958D01*
X72733Y5870D01*
X72554Y5761D01*
X72416Y5633D01*
X72317Y5486D01*
X72257Y5319D01*
X72237Y5131D01*
Y9069D01*
X72257Y8882D01*
D02*
G37*
G36*
X25355Y3388D02*
X25349Y3409D01*
X25330Y3428D01*
X25299Y3445D01*
X25256Y3460D01*
X25199Y3472D01*
X25131Y3482D01*
X24956Y3495D01*
X24732Y3500D01*
Y4500D01*
X24850Y4501D01*
X25199Y4528D01*
X25256Y4540D01*
X25299Y4555D01*
X25330Y4572D01*
X25349Y4591D01*
X25355Y4612D01*
Y3388D01*
D02*
G37*
G36*
X35318Y4905D02*
X35348Y4820D01*
X35399Y4745D01*
X35469Y4680D01*
X35561Y4625D01*
X35672Y4580D01*
X35803Y4545D01*
X35955Y4520D01*
X36127Y4505D01*
X36320Y4500D01*
Y3500D01*
X36127Y3495D01*
X35955Y3480D01*
X35803Y3455D01*
X35672Y3420D01*
X35561Y3375D01*
X35469Y3320D01*
X35399Y3255D01*
X35348Y3180D01*
X35318Y3095D01*
X35307Y3000D01*
Y5000D01*
X35318Y4905D01*
D02*
G37*
G36*
X91575Y64142D02*
X91545Y64086D01*
X91455Y64036D01*
X91305Y63991D01*
X91095Y63953D01*
X90825Y63920D01*
X90105Y63873D01*
X88575Y63846D01*
Y66847D01*
X89145Y66857D01*
X90105Y66938D01*
X90495Y67008D01*
X90825Y67099D01*
X91095Y67211D01*
X91305Y67342D01*
X91455Y67494D01*
X91545Y67666D01*
X91575Y67858D01*
Y64142D01*
D02*
G37*
G36*
X84794Y67216D02*
X84884Y67139D01*
X85034Y67070D01*
X85244Y67011D01*
X85514Y66961D01*
X85844Y66919D01*
X86684Y66865D01*
X87764Y66847D01*
Y63846D01*
X87194Y63842D01*
X85514Y63732D01*
X85244Y63682D01*
X85034Y63623D01*
X84884Y63554D01*
X84794Y63477D01*
X84764Y63390D01*
Y67303D01*
X84794Y67216D01*
D02*
G37*
G36*
X113794Y60532D02*
X113884Y60463D01*
X114034Y60402D01*
X114244Y60349D01*
X114514Y60304D01*
X114844Y60267D01*
X115684Y60218D01*
X116404Y60207D01*
X118524Y60342D01*
X118674Y60385D01*
X118763Y60434D01*
X118793Y60488D01*
Y57012D01*
X118763Y57048D01*
X118674Y57080D01*
X118524Y57109D01*
X118314Y57134D01*
X117713Y57171D01*
X116179Y57196D01*
X114514Y57076D01*
X114244Y57020D01*
X114034Y56954D01*
X113884Y56879D01*
X113794Y56793D01*
X113764Y56697D01*
Y60610D01*
X113794Y60532D01*
D02*
G37*
G36*
X84794Y60523D02*
X84884Y60446D01*
X85034Y60377D01*
X85244Y60318D01*
X85514Y60268D01*
X85844Y60227D01*
X86684Y60172D01*
X87764Y60154D01*
Y57153D01*
X87194Y57149D01*
X85514Y57039D01*
X85244Y56989D01*
X85034Y56930D01*
X84884Y56861D01*
X84794Y56784D01*
X84764Y56697D01*
Y60610D01*
X84794Y60523D01*
D02*
G37*
G36*
X109299Y56697D02*
X109269Y56660D01*
X109179Y56626D01*
X109029Y56597D01*
X108819Y56571D01*
X108219Y56532D01*
X106299Y56500D01*
Y59500D01*
X106869Y59511D01*
X107829Y59600D01*
X108219Y59678D01*
X108549Y59777D01*
X108819Y59900D01*
X109029Y60044D01*
X109179Y60210D01*
X109269Y60399D01*
X109299Y60610D01*
Y56697D01*
D02*
G37*
G36*
X101817Y59790D02*
X101907Y59729D01*
X102057Y59676D01*
X102267Y59629D01*
X102537Y59589D01*
X103257Y59532D01*
X104787Y59500D01*
Y56500D01*
X104217Y56496D01*
X102267Y56371D01*
X102057Y56324D01*
X101907Y56271D01*
X101817Y56210D01*
X101787Y56142D01*
Y59858D01*
X101817Y59790D01*
D02*
G37*
G36*
X91575Y59858D02*
Y56142D01*
X91545Y56334D01*
X91455Y56506D01*
X91305Y56658D01*
X91095Y56789D01*
X90825Y56901D01*
X90495Y56992D01*
X90105Y57063D01*
X89655Y57113D01*
X89145Y57143D01*
X88575Y57153D01*
Y60154D01*
X91575Y59858D01*
D02*
G37*
G36*
X96587Y45506D02*
X96557Y45551D01*
X96467Y45592D01*
X96317Y45627D01*
X96107Y45658D01*
X95507Y45706D01*
X94157Y45742D01*
X93587Y45744D01*
Y48744D01*
X94157Y48746D01*
X96467Y48896D01*
X96557Y48937D01*
X96587Y48982D01*
Y45506D01*
D02*
G37*
G36*
X89126Y48776D02*
X89934Y48071D01*
X90150Y47918D01*
X90340Y47804D01*
X90502Y47731D01*
X90638Y47699D01*
X90747Y47707D01*
X90830Y47756D01*
X88372Y45298D01*
X88353Y45313D01*
X88301Y45362D01*
X86682Y46971D01*
X88803Y49092D01*
X89126Y48776D01*
D02*
G37*
G36*
X108684Y48982D02*
X108470Y48760D01*
X108993Y48746D01*
X109563Y48744D01*
Y45744D01*
X108993Y45742D01*
X106683Y45592D01*
X106593Y45551D01*
X106563Y45506D01*
X106284Y45485D01*
X105990Y45421D01*
X105681Y45315D01*
X105356Y45167D01*
X105017Y44976D01*
X104661Y44742D01*
X104291Y44467D01*
X103503Y43788D01*
X103087Y43385D01*
X100965Y45506D01*
X101368Y45923D01*
X102047Y46710D01*
X102323Y47080D01*
X102557Y47436D01*
X102747Y47776D01*
X102896Y48100D01*
X103002Y48410D01*
X103066Y48704D01*
X103087Y48982D01*
X103365Y49003D01*
X103659Y49067D01*
X103969Y49173D01*
X104293Y49321D01*
X104633Y49512D01*
X104988Y49746D01*
X105359Y50021D01*
X106146Y50700D01*
X106563Y51103D01*
X108684Y48982D01*
D02*
G37*
G36*
X121366Y42866D02*
X119288Y40702D01*
X116830Y43160D01*
X116907Y43125D01*
X117020Y43139D01*
X117170Y43201D01*
X117357Y43311D01*
X117580Y43470D01*
X117840Y43677D01*
X118469Y44236D01*
X119244Y44988D01*
X121366Y42866D01*
D02*
G37*
G36*
X114509Y45086D02*
X114347Y44833D01*
X114203Y44540D01*
X114078Y44205D01*
X113973Y43830D01*
X113887Y43413D01*
X113820Y42956D01*
X113743Y41920D01*
X113733Y41340D01*
X110733D01*
X110724Y41920D01*
X110647Y42956D01*
X110580Y43413D01*
X110494Y43830D01*
X110389Y44205D01*
X110264Y44540D01*
X110120Y44833D01*
X109958Y45086D01*
X109775Y45298D01*
X114691D01*
X114509Y45086D01*
D02*
G37*
G36*
X86445Y42978D02*
X86698Y42815D01*
X86992Y42671D01*
X87327Y42547D01*
X87702Y42441D01*
X88118Y42355D01*
X88575Y42288D01*
X89612Y42211D01*
X90191Y42202D01*
Y39202D01*
X89612Y39192D01*
X88575Y39116D01*
X88118Y39049D01*
X87702Y38962D01*
X87327Y38857D01*
X87248Y38828D01*
X87166Y38361D01*
X87091Y37680D01*
X87064Y36947D01*
X87184Y35108D01*
X87224Y35018D01*
X87270Y34988D01*
X83793D01*
X83839Y35018D01*
X83879Y35108D01*
X83915Y35258D01*
X83946Y35468D01*
X83993Y36068D01*
X84004Y36461D01*
X83776Y40702D01*
X86233Y40624D01*
Y43160D01*
X86445Y42978D01*
D02*
G37*
G36*
X119239Y40623D02*
X119195Y40490D01*
X119157Y40301D01*
X119124Y40058D01*
X119072Y39407D01*
X119033Y37536D01*
X119034Y37418D01*
X119184Y35108D01*
X119224Y35018D01*
X119270Y34988D01*
X115794D01*
X115839Y35018D01*
X115879Y35108D01*
X115915Y35258D01*
X115946Y35468D01*
X115993Y36068D01*
X116016Y36916D01*
X115897Y38361D01*
X115793Y38950D01*
X115659Y39447D01*
X115495Y39852D01*
X115301Y40165D01*
X115077Y40385D01*
X114823Y40514D01*
X114540Y40551D01*
X119288Y40702D01*
X119239Y40623D01*
D02*
G37*
G36*
X93137Y31558D02*
X93103Y31550D01*
X93066Y31537D01*
X93026Y31519D01*
X92984Y31494D01*
X92939Y31465D01*
X92891Y31429D01*
X92787Y31342D01*
X92672Y31233D01*
X91965Y31940D01*
X92022Y31999D01*
X92161Y32159D01*
X92196Y32207D01*
X92226Y32252D01*
X92250Y32295D01*
X92269Y32334D01*
X92282Y32371D01*
X92289Y32406D01*
X93137Y31558D01*
D02*
G37*
G36*
X92034Y26332D02*
X91293Y25846D01*
X90937Y26885D01*
X90971Y26874D01*
X91008Y26871D01*
X91048Y26875D01*
X91090Y26887D01*
X91135Y26906D01*
X91184Y26933D01*
X91234Y26967D01*
X91288Y27009D01*
X91344Y27058D01*
X91404Y27115D01*
X92034Y26332D01*
D02*
G37*
G36*
X116210Y30206D02*
X116997Y29527D01*
X117368Y29252D01*
X117723Y29018D01*
X118063Y28827D01*
X118388Y28679D01*
X118697Y28573D01*
X118991Y28509D01*
X119270Y28488D01*
X115794Y25012D01*
X119270D01*
X119224Y24982D01*
X119184Y24892D01*
X119148Y24742D01*
X119117Y24532D01*
X119070Y23932D01*
X119059Y23539D01*
X119288Y19298D01*
X116830Y19376D01*
Y16840D01*
X116618Y17022D01*
X116365Y17185D01*
X116071Y17329D01*
X115736Y17453D01*
X115361Y17559D01*
X114945Y17645D01*
X114488Y17712D01*
X113451Y17788D01*
X112872Y17798D01*
Y20798D01*
X113451Y20808D01*
X114488Y20884D01*
X114945Y20951D01*
X115361Y21038D01*
X115736Y21143D01*
X115814Y21172D01*
X115897Y21639D01*
X115972Y22320D01*
X115999Y23053D01*
X115879Y24892D01*
X115839Y24982D01*
X115794Y25012D01*
X115772Y25291D01*
X115709Y25585D01*
X115603Y25894D01*
X115454Y26218D01*
X115263Y26558D01*
X115030Y26914D01*
X114754Y27284D01*
X114075Y28071D01*
X113672Y28488D01*
X115794Y30609D01*
X116210Y30206D01*
D02*
G37*
G36*
X84210D02*
X84997Y29527D01*
X85368Y29252D01*
X85723Y29018D01*
X86063Y28827D01*
X86388Y28679D01*
X86697Y28573D01*
X86991Y28509D01*
X87270Y28488D01*
X83793Y25012D01*
X87270D01*
X87224Y24982D01*
X87184Y24892D01*
X87148Y24742D01*
X87117Y24532D01*
X87070Y23932D01*
X87047Y23084D01*
X87166Y21639D01*
X87270Y21050D01*
X87404Y20553D01*
X87568Y20148D01*
X87762Y19835D01*
X87986Y19614D01*
X88240Y19486D01*
X88523Y19449D01*
X83776Y19298D01*
X88691D01*
X88509Y19086D01*
X88346Y18833D01*
X88203Y18540D01*
X88078Y18205D01*
X87973Y17830D01*
X87887Y17413D01*
X87820Y16956D01*
X87743Y15920D01*
X87733Y15340D01*
X84733D01*
X84724Y15920D01*
X84647Y16956D01*
X84580Y17413D01*
X84494Y17830D01*
X84389Y18205D01*
X84264Y18540D01*
X84120Y18833D01*
X83957Y19086D01*
X83776Y19298D01*
X83824Y19392D01*
X83868Y19570D01*
X83906Y19834D01*
X83968Y20615D01*
X84018Y22749D01*
X83879Y24892D01*
X83839Y24982D01*
X83793Y25012D01*
X83772Y25291D01*
X83709Y25585D01*
X83603Y25894D01*
X83454Y26218D01*
X83263Y26558D01*
X83030Y26914D01*
X82754Y27284D01*
X82075Y28071D01*
X81672Y28488D01*
X83793Y30609D01*
X84210Y30206D01*
D02*
G37*
G36*
X114706Y14690D02*
X114747Y14652D01*
X116022Y13389D01*
X113900Y11267D01*
X113646Y11516D01*
X113013Y12071D01*
X112844Y12193D01*
X112696Y12284D01*
X112569Y12342D01*
X112464Y12369D01*
X112380Y12364D01*
X112317Y12328D01*
X114691Y14702D01*
X114706Y14690D01*
D02*
G37*
G36*
X106593Y14685D02*
X106683Y14645D01*
X106833Y14609D01*
X107043Y14578D01*
X107643Y14530D01*
X108993Y14494D01*
X109563Y14492D01*
Y11492D01*
X108993Y11490D01*
X106683Y11340D01*
X106593Y11299D01*
X106563Y11254D01*
Y14730D01*
X106593Y14685D01*
D02*
G37*
G36*
X102184Y14730D02*
X101781Y14313D01*
X101102Y13526D01*
X100827Y13156D01*
X100593Y12800D01*
X100402Y12461D01*
X100254Y12136D01*
X100148Y11827D01*
X100084Y11533D01*
X100063Y11254D01*
X96587Y14730D01*
X96865Y14751D01*
X97159Y14815D01*
X97469Y14921D01*
X97793Y15069D01*
X98133Y15260D01*
X98488Y15494D01*
X98859Y15770D01*
X99646Y16448D01*
X100063Y16851D01*
X102184Y14730D01*
D02*
G37*
G36*
X96587Y11254D02*
X96557Y11299D01*
X96467Y11340D01*
X96317Y11376D01*
X96107Y11406D01*
X95507Y11454D01*
X94157Y11490D01*
X93587Y11492D01*
Y14492D01*
X94157Y14494D01*
X96467Y14645D01*
X96557Y14685D01*
X96587Y14730D01*
Y11254D01*
D02*
G37*
G36*
X106443Y11246D02*
X106366Y11187D01*
X106298Y11088D01*
X106239Y10951D01*
X106188Y10774D01*
X106148Y10557D01*
X106116Y10302D01*
X106079Y9673D01*
X106075Y9299D01*
X103075D01*
X103087Y11254D01*
X106530Y11266D01*
X106443Y11246D01*
D02*
G37*
G36*
X81618Y1563D02*
X81589Y1582D01*
X81553Y1599D01*
X81512Y1614D01*
X81465Y1627D01*
X81412Y1638D01*
X81353Y1647D01*
X81218Y1659D01*
X81059Y1663D01*
Y2663D01*
X81142Y2664D01*
X81353Y2679D01*
X81412Y2688D01*
X81465Y2699D01*
X81512Y2712D01*
X81553Y2727D01*
X81589Y2744D01*
X81618Y2763D01*
Y1563D01*
D02*
G37*
%LPC*%
G36*
X52431Y27174D02*
X51944Y27077D01*
X51530Y26801D01*
X51254Y26388D01*
X51157Y25900D01*
X51254Y25412D01*
X51412Y25176D01*
Y21600D01*
X51490Y21210D01*
X51710Y20879D01*
X53110Y19479D01*
X53441Y19258D01*
X53831Y19180D01*
X57157D01*
Y18320D01*
X61306D01*
Y22469D01*
X57157D01*
Y21220D01*
X54254D01*
X53451Y22022D01*
Y25176D01*
X53609Y25412D01*
X53706Y25900D01*
X53609Y26388D01*
X53333Y26801D01*
X52919Y27077D01*
X52431Y27174D01*
D02*
G37*
%LPD*%
D13*
X45632Y54307D02*
Y62300D01*
X45753Y54050D02*
Y54185D01*
X45632Y54307D02*
X45753Y54185D01*
X66031Y16100D02*
X71031D01*
X51932Y39200D02*
X64931Y26200D01*
X41327Y39200D02*
X51932D01*
X64931Y17200D02*
Y26200D01*
X62331Y25900D02*
X63432Y24800D01*
X59632Y25900D02*
X62331D01*
X63432Y16000D02*
Y24800D01*
X59232Y26300D02*
X59632Y25900D01*
X70531Y67000D02*
X71931D01*
X55831Y52300D02*
X70531Y67000D01*
X44331Y52300D02*
X55831D01*
X43332Y51300D02*
X44331Y52300D01*
X27522Y27638D02*
Y35438D01*
X92032Y31300D02*
X93032Y32300D01*
X70783Y47349D02*
Y47484D01*
X72684Y49386D01*
Y52528D02*
X72956Y52800D01*
X72684Y49386D02*
Y52528D01*
X23932Y4800D02*
Y24950D01*
Y4800D02*
X24732Y4000D01*
X27082D01*
X27522Y35438D02*
X31722Y39638D01*
X23981Y25000D02*
Y38950D01*
X23932Y24950D02*
X23981Y25000D01*
X41128Y39399D02*
X41327Y39200D01*
X23981Y38950D02*
X32232Y47200D01*
X41054D02*
X41128Y47273D01*
X32232Y47200D02*
X41054D01*
X41128Y47273D02*
X41201Y47200D01*
X48932D02*
X67956Y28176D01*
X41201Y47200D02*
X48932D01*
X50587Y2163D02*
X82069D01*
X48750Y4000D02*
X50587Y2163D01*
X33582Y4000D02*
X48750D01*
X37631Y7100D02*
X52970D01*
X37332D02*
X37631D01*
X65832Y13600D02*
X71631D01*
X76131Y18100D02*
Y31900D01*
X71631Y13600D02*
X76131Y18100D01*
X59431Y43450D02*
X64582D01*
X76131Y31900D01*
X63432Y16000D02*
X65832Y13600D01*
X71031Y16100D02*
X72956Y18024D01*
X64931Y17200D02*
X66031Y16100D01*
X59037Y20200D02*
X59232Y20394D01*
X53831Y20200D02*
X59037D01*
X52431Y21600D02*
Y25900D01*
Y21600D02*
X53831Y20200D01*
X67956Y22000D02*
Y28176D01*
X92032Y27036D02*
Y31300D01*
X90727Y26296D02*
X91291D01*
X92032Y27036D01*
X90632Y26200D02*
X90727Y26296D01*
X50653Y56800D02*
Y62200D01*
X50553Y62300D02*
X50653Y62200D01*
X72956Y18024D02*
Y22000D01*
X40691Y39638D02*
X41028Y39975D01*
X31722Y39638D02*
X40691D01*
X67956Y52800D02*
X68032Y52724D01*
X65131Y45400D02*
X68032Y48300D01*
Y52724D01*
D20*
X33582Y4000D02*
D03*
X27082D02*
D03*
X98325Y12992D02*
D03*
X104825D02*
D03*
Y47244D02*
D03*
X98325D02*
D03*
D21*
X59431Y49950D02*
D03*
Y43450D02*
D03*
X117532Y26750D02*
D03*
Y33250D02*
D03*
X85532D02*
D03*
Y26750D02*
D03*
X120531Y58750D02*
D03*
Y65250D02*
D03*
D32*
X59232Y26300D02*
D03*
Y20394D02*
D03*
D34*
X70293Y7100D02*
X76200D01*
X77900Y5400D01*
X104300Y28700D02*
X104800Y29200D01*
X105300Y29900D02*
Y40600D01*
X104700Y41200D02*
Y42800D01*
Y41200D02*
X105300Y40600D01*
D36*
X78200Y24200D02*
Y40500D01*
X74600Y44100D02*
X78200Y40500D01*
X60431Y53332D02*
X61600Y54500D01*
X60431Y50950D02*
Y53332D01*
X59431Y49950D02*
X60431Y50950D01*
X40490Y62079D02*
X40710Y62300D01*
X40490Y56790D02*
Y62079D01*
X40400Y56700D02*
X40490Y56790D01*
X40358Y62652D02*
X40710Y62300D01*
X40358Y62652D02*
Y71280D01*
X40269Y71370D02*
X40358Y71280D01*
D37*
X117532Y33250D02*
Y41154D01*
X99831Y66000D02*
X100484Y65346D01*
X73600Y61600D02*
X76078Y59122D01*
X82063D02*
X82531Y58653D01*
X76078Y59122D02*
X82063D01*
X73700Y70200D02*
X78085Y65815D01*
X82063D02*
X82531Y65346D01*
X78085Y65815D02*
X82063D01*
X32200Y24400D02*
X40854D01*
X41028Y24227D01*
X92913Y4331D02*
X96260D01*
X86233Y11011D02*
X92913Y4331D01*
X86233Y11011D02*
Y19298D01*
X96260Y4331D02*
X99016Y7087D01*
X86233Y19298D02*
Y19652D01*
X108431Y50851D02*
Y54000D01*
X104825Y47244D02*
X108431Y50851D01*
X99831Y58000D02*
X110602D01*
X111256Y58653D01*
X111531D01*
X104631Y19298D02*
X116830D01*
X98325Y12992D02*
X104631Y19298D01*
X112233Y32048D02*
Y45298D01*
Y32048D02*
X117532Y26750D01*
X86233Y40702D02*
X98283D01*
X104825Y47244D01*
X90476Y45298D02*
X90830D01*
X87743Y48031D02*
X90476Y45298D01*
X84252Y48031D02*
X87743D01*
X81102Y44882D02*
X84252Y48031D01*
X81102Y31179D02*
Y44882D01*
Y31179D02*
X85532Y26750D01*
X99016Y7087D02*
X102362D01*
X104575Y9299D01*
Y12742D02*
X104825Y12992D01*
X104575Y9299D02*
Y12742D01*
X117532Y33250D02*
X117781Y33000D01*
X119160D01*
X119511Y32649D01*
X120107D01*
X123228Y29528D01*
Y18110D02*
Y29528D01*
X112587Y14702D02*
X114961Y12328D01*
X117446D01*
X123228Y18110D01*
X112233Y14702D02*
X112587D01*
X111880D02*
X112233D01*
X117532Y41154D02*
X124409Y48031D01*
X120782Y65000D02*
X122652D01*
X124409Y63243D01*
Y48031D02*
Y63243D01*
X120531Y65250D02*
X120782Y65000D01*
X111531Y58653D02*
X111580Y58702D01*
X120483D01*
X120531Y58750D01*
X111531Y65346D02*
X111580Y65298D01*
X120483D01*
X120531Y65250D01*
X100484Y65346D02*
X111531D01*
X82531Y58653D02*
X92779D01*
X93433Y58000D01*
X93532D01*
X82531Y65346D02*
X92779D01*
X93433Y66000D01*
X93532D01*
X90830Y45298D02*
X90995D01*
X92940Y47244D01*
X98325D01*
X92893Y12992D02*
X98325D01*
X91183Y14702D02*
X92893Y12992D01*
X90830Y14702D02*
X91183D01*
X110170Y12992D02*
X111880Y14702D01*
X104825Y12992D02*
X110170D01*
X104825Y47244D02*
X110123D01*
X112068Y45298D01*
X112233D01*
X85532Y33250D02*
Y39646D01*
X86233Y40348D01*
Y40702D01*
X85532Y20354D02*
Y26750D01*
Y20354D02*
X86233Y19652D01*
X117532Y20354D02*
Y26750D01*
X116830Y19652D02*
X117532Y20354D01*
X116830Y19298D02*
Y19652D01*
D40*
X55474Y62300D02*
Y68026D01*
X55100Y68400D02*
X55474Y68026D01*
D43*
X94437Y8000D02*
D03*
X82626D02*
D03*
D44*
X68500Y9800D02*
D03*
X66400Y10300D02*
D03*
X78700Y5300D02*
D03*
X105300Y40600D02*
D03*
X104100Y29900D02*
D03*
X103800Y27900D02*
D03*
X104700Y42800D02*
D03*
X71400Y70000D02*
D03*
X73700Y72000D02*
D03*
X66000Y59500D02*
D03*
X65700Y57267D02*
D03*
X104800Y56600D02*
D03*
X106300Y58100D02*
D03*
X103100Y58000D02*
D03*
X80900Y49400D02*
D03*
X79100Y48300D02*
D03*
X106900Y76300D02*
D03*
X107000Y73000D02*
D03*
X103100Y76300D02*
D03*
X103150Y73000D02*
D03*
X99300Y76300D02*
D03*
X95450Y73000D02*
D03*
X95500Y76300D02*
D03*
X91700D02*
D03*
X99300Y73000D02*
D03*
X91600D02*
D03*
X78200Y24200D02*
D03*
X74600Y44100D02*
D03*
X61600Y54500D02*
D03*
X32500Y9400D02*
D03*
X40400Y56700D02*
D03*
X40269Y71370D02*
D03*
D45*
X71931Y67000D02*
D03*
X43332Y51300D02*
D03*
X27522Y27638D02*
D03*
X93032Y32300D02*
D03*
X70783Y47349D02*
D03*
X23932Y24950D02*
D03*
X68532Y16200D02*
D03*
X45753Y54050D02*
D03*
X82069Y2163D02*
D03*
X37631Y7100D02*
D03*
X52431Y25900D02*
D03*
X107231Y53300D02*
D03*
X109932Y53900D02*
D03*
X108731Y52200D02*
D03*
X108431Y54900D02*
D03*
X90632Y26200D02*
D03*
X50653Y56800D02*
D03*
X65131Y45400D02*
D03*
D46*
X74000Y59500D02*
D03*
X73662Y62938D02*
D03*
X72600Y61000D02*
D03*
X104800Y59100D02*
D03*
X76000Y38500D02*
D03*
X74000Y38300D02*
D03*
X41400Y9200D02*
D03*
X12000Y27100D02*
D03*
X56800Y68400D02*
D03*
X55100D02*
D03*
X23200Y59500D02*
D03*
X22600Y61500D02*
D03*
X21300Y59600D02*
D03*
X21000Y61500D02*
D03*
X47800Y31900D02*
D03*
X38300Y28400D02*
D03*
X47800Y33700D02*
D03*
X43600Y36300D02*
D03*
X42500Y34900D02*
D03*
X43700Y33600D02*
D03*
X47800Y36000D02*
D03*
X75000Y61400D02*
D03*
X73700Y70200D02*
D03*
X71700Y72200D02*
D03*
X12500Y65500D02*
D03*
X33100Y23900D02*
D03*
D47*
X5906Y5512D02*
D03*
X120079Y72835D02*
D03*
Y5512D02*
D03*
X5906Y72835D02*
D03*
D48*
X40710Y62300D02*
D03*
X45632D02*
D03*
X50553D02*
D03*
X55474D02*
D03*
D49*
X65966Y73324D02*
D03*
X30218D02*
D03*
D50*
X72956Y22000D02*
D03*
X67956D02*
D03*
X72956Y52800D02*
D03*
X67956D02*
D03*
D51*
X99831Y66000D02*
D03*
X93532D02*
D03*
Y58000D02*
D03*
X99831D02*
D03*
D52*
X90830Y14702D02*
D03*
X86233Y19298D02*
D03*
X112233Y45298D02*
D03*
X116830Y40702D02*
D03*
D53*
Y19298D02*
D03*
X112233Y14702D02*
D03*
X86233Y40702D02*
D03*
X90830Y45298D02*
D03*
D54*
X111531Y58653D02*
D03*
Y65346D02*
D03*
X82531Y58653D02*
D03*
Y65346D02*
D03*
D55*
X52970Y7100D02*
D03*
X70293D02*
D03*
D56*
X41028Y24227D02*
D03*
Y32101D02*
D03*
Y39975D02*
D03*
Y47849D02*
D03*
D57*
X12032Y13400D02*
D03*
Y58676D02*
D03*
M02*
