G04*
G04 #@! TF.GenerationSoftware,Altium Limited,Altium Designer,20.0.2 (26)*
G04*
G04 Layer_Color=32768*
%FSLAX25Y25*%
%MOIN*%
G70*
G01*
G75*
%ADD16C,0.00394*%
%ADD62C,0.00197*%
%ADD63C,0.00200*%
D16*
X96681Y64327D02*
Y67673D01*
X95008Y66000D02*
X98354D01*
X90579Y68854D02*
X102784D01*
X90579Y63146D02*
X102784D01*
Y68854D01*
X90579Y63146D02*
Y68854D01*
X45131Y14731D02*
Y18668D01*
X43163Y16700D02*
X47100D01*
X24642Y61504D02*
Y74496D01*
X38421Y61504D02*
Y74496D01*
X24642D02*
X38421D01*
X24642Y61504D02*
X38421D01*
X29563Y68000D02*
X33500D01*
X31532Y66031D02*
Y69968D01*
X96681Y56327D02*
Y59673D01*
X95008Y58000D02*
X98354D01*
X90579Y55146D02*
X102784D01*
X90579Y60854D02*
X102784D01*
X90579Y55146D02*
Y60854D01*
X102784Y55146D02*
Y60854D01*
D62*
X89909Y8000D02*
G03*
X89909Y8000I-1378J0D01*
G01*
X86563D02*
X90500D01*
X88532Y6032D02*
Y9968D01*
X36864Y23590D02*
X53399D01*
X36864Y9810D02*
X53399D01*
X36864D02*
Y23590D01*
X53399Y9810D02*
Y23590D01*
D63*
X59573Y42779D02*
Y43779D01*
X59073Y43279D02*
X59573D01*
X60073D01*
X26410Y3858D02*
X27410D01*
X26910D02*
Y4358D01*
Y3358D02*
Y3858D01*
X85659Y19672D02*
X86366Y18965D01*
X86012Y19319D02*
X86366Y19672D01*
X85659Y18965D02*
X86012Y19319D01*
X104496Y13134D02*
X105496D01*
X104996Y12634D02*
Y13134D01*
Y13634D01*
X111859Y14127D02*
X112566Y14834D01*
X111859D02*
X112213Y14481D01*
X112566Y14127D01*
X116697Y41035D02*
X117404Y40328D01*
X116697D02*
X117051Y40681D01*
X117404Y41035D01*
X117390Y32921D02*
Y33921D01*
Y33421D02*
X117890D01*
X116890D02*
X117390D01*
X90497Y45166D02*
X91204Y45873D01*
X90851Y45519D02*
X91204Y45166D01*
X90497Y45873D02*
X90851Y45519D01*
X85673Y26079D02*
Y27079D01*
X85173Y26579D02*
X85673D01*
X86173D01*
X66229Y22142D02*
X67229D01*
X66729Y21642D02*
Y22142D01*
Y22642D01*
X97654Y47102D02*
X98654D01*
X98154D02*
Y47602D01*
Y46602D02*
Y47102D01*
X28290Y3479D02*
Y4479D01*
Y3979D02*
X28790D01*
X27790D02*
X28290D01*
X68973Y42421D02*
X69473D01*
X68473D02*
X68973D01*
Y41921D02*
Y42921D01*
X90453Y58858D02*
X91453D01*
X90953D02*
Y59358D01*
Y58358D02*
Y58858D01*
X60373Y19821D02*
X60873D01*
X59873D02*
X60373D01*
Y19321D02*
Y20321D01*
X17773Y71921D02*
X18273D01*
X17273D02*
X17773D01*
Y71421D02*
Y72421D01*
X50953Y70358D02*
Y70858D01*
Y71358D01*
X50453Y70858D02*
X51453D01*
X44110Y64142D02*
Y64642D01*
Y63642D02*
Y64142D01*
X43610D02*
X44610D01*
X120673Y58579D02*
X121173D01*
X120173D02*
X120673D01*
Y58079D02*
Y59079D01*
X83610Y67142D02*
X84610D01*
X84110Y66642D02*
Y67142D01*
Y67642D01*
X20990Y10979D02*
Y11979D01*
Y11479D02*
X21490D01*
X20490D02*
X20990D01*
X65390Y63079D02*
Y64079D01*
Y63579D02*
X65890D01*
X64890D02*
X65390D01*
X36810Y4042D02*
X37810D01*
X37310Y3542D02*
Y4042D01*
Y4542D01*
M02*
