G04*
G04 #@! TF.GenerationSoftware,Altium Limited,Altium Designer,20.0.2 (26)*
G04*
G04 Layer_Color=2752767*
%FSLAX25Y25*%
%MOIN*%
G70*
G01*
G75*
%ADD63C,0.00200*%
%ADD64C,0.00267*%
D63*
X93637Y7200D02*
Y8800D01*
X95237D01*
Y7200D01*
X93637D01*
X81826D02*
Y8800D01*
X83426D01*
Y7200D01*
X81826D01*
X71931Y66200D02*
X71131Y67800D01*
X72732D01*
X71931Y66200D01*
X43332Y50500D02*
X42531Y52100D01*
X44131D01*
X43332Y50500D01*
X27522Y26838D02*
X26722Y28438D01*
X28322D01*
X27522Y26838D01*
X93032Y31500D02*
X92232Y33100D01*
X93831D01*
X93032Y31500D01*
X78200Y23400D02*
X78600Y23800D01*
X79000D01*
X78600Y24200D01*
X79000Y24600D01*
X78600D01*
X78200Y25000D01*
X77800Y24600D01*
X77400D01*
X77800Y24200D01*
X77400Y23800D01*
X77800D01*
X78200Y23400D01*
X74600Y43300D02*
X75000Y43700D01*
X75400D01*
X75000Y44100D01*
X75400Y44500D01*
X75000D01*
X74600Y44900D01*
X74200Y44500D01*
X73800D01*
X74200Y44100D01*
X73800Y43700D01*
X74200D01*
X74600Y43300D01*
X70783Y46549D02*
X69983Y48149D01*
X71583D01*
X70783Y46549D01*
X61600Y53700D02*
X62000Y54100D01*
X62400D01*
X62000Y54500D01*
X62400Y54900D01*
X62000D01*
X61600Y55300D01*
X61200Y54900D01*
X60800D01*
X61200Y54500D01*
X60800Y54100D01*
X61200D01*
X61600Y53700D01*
X32500Y8600D02*
X32900Y9000D01*
X33300D01*
X32900Y9400D01*
X33300Y9800D01*
X32900D01*
X32500Y10200D01*
X32100Y9800D01*
X31700D01*
X32100Y9400D01*
X31700Y9000D01*
X32100D01*
X32500Y8600D01*
X23932Y24150D02*
X23132Y25750D01*
X24732D01*
X23932Y24150D01*
X40400Y55900D02*
X40800Y56300D01*
X41200D01*
X40800Y56700D01*
X41200Y57100D01*
X40800D01*
X40400Y57500D01*
X40000Y57100D01*
X39600D01*
X40000Y56700D01*
X39600Y56300D01*
X40000D01*
X40400Y55900D01*
X39469Y70570D02*
X39869Y71370D01*
X39469Y72170D01*
X40269Y71770D01*
X41069Y72170D01*
X40669Y71370D01*
X41069Y70570D01*
X40269Y70970D01*
X39469Y70570D01*
X68532Y15400D02*
X67731Y17000D01*
X69332D01*
X68532Y15400D01*
X5505Y5112D02*
Y4712D01*
X6306D01*
Y5112D01*
X6706D01*
Y5912D01*
X6306D01*
Y6312D01*
X5505D01*
Y5912D01*
X5105D01*
Y5112D01*
X5505D01*
X45753Y53250D02*
X44953Y54850D01*
X46553D01*
X45753Y53250D01*
X119679Y72435D02*
Y72035D01*
X120479D01*
Y72435D01*
X120879D01*
Y73235D01*
X120479D01*
Y73635D01*
X119679D01*
Y73235D01*
X119279D01*
Y72435D01*
X119679D01*
Y5112D02*
Y4712D01*
X120479D01*
Y5112D01*
X120879D01*
Y5912D01*
X120479D01*
Y6312D01*
X119679D01*
Y5912D01*
X119279D01*
Y5112D01*
X119679D01*
X5505Y72435D02*
Y72035D01*
X6306D01*
Y72435D01*
X6706D01*
Y73235D01*
X6306D01*
Y73635D01*
X5505D01*
Y73235D01*
X5105D01*
Y72435D01*
X5505D01*
X82069Y1363D02*
X81269Y2963D01*
X82868D01*
X82069Y1363D01*
X37631Y6300D02*
X36832Y7900D01*
X38432D01*
X37631Y6300D01*
X52431Y25100D02*
X51631Y26700D01*
X53232D01*
X52431Y25100D01*
X107231Y52500D02*
X106431Y54100D01*
X108031D01*
X107231Y52500D01*
X109932Y53100D02*
X109132Y54700D01*
X110731D01*
X109932Y53100D01*
X108731Y51400D02*
X107931Y53000D01*
X109531D01*
X108731Y51400D01*
X108431Y54100D02*
X107632Y55700D01*
X109231D01*
X108431Y54100D01*
X90632Y25400D02*
X89832Y27000D01*
X91431D01*
X90632Y25400D01*
X50653Y56000D02*
X49853Y57600D01*
X51453D01*
X50653Y56000D01*
X65131Y44600D02*
X64332Y46200D01*
X65931D01*
X65131Y44600D01*
D64*
X69300Y9800D02*
G03*
X69300Y9800I-800J0D01*
G01*
X67200Y10300D02*
G03*
X67200Y10300I-800J0D01*
G01*
X79500Y5300D02*
G03*
X79500Y5300I-800J0D01*
G01*
X106100Y40600D02*
G03*
X106100Y40600I-800J0D01*
G01*
X104900Y29900D02*
G03*
X104900Y29900I-800J0D01*
G01*
X104600Y27900D02*
G03*
X104600Y27900I-800J0D01*
G01*
X105500Y42800D02*
G03*
X105500Y42800I-800J0D01*
G01*
X72200Y70000D02*
G03*
X72200Y70000I-800J0D01*
G01*
X74500Y72000D02*
G03*
X74500Y72000I-800J0D01*
G01*
X66800Y59500D02*
G03*
X66800Y59500I-800J0D01*
G01*
X66500Y57267D02*
G03*
X66500Y57267I-800J0D01*
G01*
X74800Y59500D02*
G03*
X74800Y59500I-800J0D01*
G01*
X74462Y62938D02*
G03*
X74462Y62938I-800J0D01*
G01*
X73400Y61000D02*
G03*
X73400Y61000I-800J0D01*
G01*
X105600Y59100D02*
G03*
X105600Y59100I-800J0D01*
G01*
Y56600D02*
G03*
X105600Y56600I-800J0D01*
G01*
X107100Y58100D02*
G03*
X107100Y58100I-800J0D01*
G01*
X103900Y58000D02*
G03*
X103900Y58000I-800J0D01*
G01*
X81700Y49400D02*
G03*
X81700Y49400I-800J0D01*
G01*
X79900Y48300D02*
G03*
X79900Y48300I-800J0D01*
G01*
X76800Y38500D02*
G03*
X76800Y38500I-800J0D01*
G01*
X74800Y38300D02*
G03*
X74800Y38300I-800J0D01*
G01*
X42200Y9200D02*
G03*
X42200Y9200I-800J0D01*
G01*
X12800Y27100D02*
G03*
X12800Y27100I-800J0D01*
G01*
X57600Y68400D02*
G03*
X57600Y68400I-800J0D01*
G01*
X55900D02*
G03*
X55900Y68400I-800J0D01*
G01*
X24000Y59500D02*
G03*
X24000Y59500I-800J0D01*
G01*
X23400Y61500D02*
G03*
X23400Y61500I-800J0D01*
G01*
X22100Y59600D02*
G03*
X22100Y59600I-800J0D01*
G01*
X21800Y61500D02*
G03*
X21800Y61500I-800J0D01*
G01*
X48600Y31900D02*
G03*
X48600Y31900I-800J0D01*
G01*
X39100Y28400D02*
G03*
X39100Y28400I-800J0D01*
G01*
X48600Y33700D02*
G03*
X48600Y33700I-800J0D01*
G01*
X44400Y36300D02*
G03*
X44400Y36300I-800J0D01*
G01*
X43300Y34900D02*
G03*
X43300Y34900I-800J0D01*
G01*
X44500Y33600D02*
G03*
X44500Y33600I-800J0D01*
G01*
X48600Y36000D02*
G03*
X48600Y36000I-800J0D01*
G01*
X75800Y61400D02*
G03*
X75800Y61400I-800J0D01*
G01*
X107700Y76300D02*
G03*
X107700Y76300I-800J0D01*
G01*
X107800Y73000D02*
G03*
X107800Y73000I-800J0D01*
G01*
X103900Y76300D02*
G03*
X103900Y76300I-800J0D01*
G01*
X103950Y73000D02*
G03*
X103950Y73000I-800J0D01*
G01*
X100100Y76300D02*
G03*
X100100Y76300I-800J0D01*
G01*
X96250Y73000D02*
G03*
X96250Y73000I-800J0D01*
G01*
X96300Y76300D02*
G03*
X96300Y76300I-800J0D01*
G01*
X92500D02*
G03*
X92500Y76300I-800J0D01*
G01*
X100100Y73000D02*
G03*
X100100Y73000I-800J0D01*
G01*
X92400D02*
G03*
X92400Y73000I-800J0D01*
G01*
X74500Y70200D02*
G03*
X74500Y70200I-800J0D01*
G01*
X72500Y72200D02*
G03*
X72500Y72200I-800J0D01*
G01*
X13300Y65500D02*
G03*
X13300Y65500I-800J0D01*
G01*
X33900Y23900D02*
G03*
X33900Y23900I-800J0D01*
G01*
M02*
