G04*
G04 #@! TF.GenerationSoftware,Altium Limited,Altium Designer,20.0.2 (26)*
G04*
G04 Layer_Color=255*
%FSLAX25Y25*%
%MOIN*%
G70*
G01*
G75*
%ADD18R,0.02362X0.05906*%
%ADD19R,0.05512X0.03150*%
%ADD20R,0.03500X0.03500*%
%ADD21R,0.03500X0.03500*%
%ADD22R,0.03937X0.01772*%
%ADD23R,0.03543X0.02559*%
%ADD24R,0.05800X0.01400*%
%ADD25R,0.03740X0.03543*%
%ADD26R,0.03740X0.03543*%
%ADD27R,0.02000X0.02500*%
%ADD28R,0.02500X0.02000*%
%ADD29R,0.01181X0.03150*%
%ADD30R,0.03150X0.01181*%
%ADD31R,0.10630X0.05906*%
%ADD32R,0.03150X0.03150*%
%ADD43C,0.03150*%
D18*
X97390Y15858D02*
D03*
X91484Y15858D02*
D03*
X79673Y15858D02*
D03*
D19*
X102902Y12921D02*
D03*
Y3079D02*
D03*
X74161D02*
D03*
Y12921D02*
D03*
D20*
X73400Y22000D02*
D03*
X66900D02*
D03*
X84281Y59000D02*
D03*
X90781D02*
D03*
X50782Y71000D02*
D03*
X44282D02*
D03*
Y64000D02*
D03*
X50782D02*
D03*
X90781Y67000D02*
D03*
X84281D02*
D03*
X43982Y3900D02*
D03*
X37481D02*
D03*
D21*
X28431Y10650D02*
D03*
Y4150D02*
D03*
X68831Y42250D02*
D03*
Y35750D02*
D03*
X60232Y19650D02*
D03*
Y13150D02*
D03*
X17631Y71750D02*
D03*
Y65250D02*
D03*
X21132Y18150D02*
D03*
Y11650D02*
D03*
X65531Y70250D02*
D03*
Y63750D02*
D03*
D22*
X39718Y12861D02*
D03*
Y15420D02*
D03*
Y17979D02*
D03*
Y20539D02*
D03*
X50545D02*
D03*
Y17979D02*
D03*
Y15420D02*
D03*
Y12861D02*
D03*
D23*
X26807Y71740D02*
D03*
Y68000D02*
D03*
Y64260D02*
D03*
X36256D02*
D03*
Y71740D02*
D03*
D24*
X57032Y52516D02*
D03*
Y49957D02*
D03*
Y47398D02*
D03*
Y44839D02*
D03*
Y42279D02*
D03*
Y39720D02*
D03*
Y37161D02*
D03*
Y34602D02*
D03*
Y32043D02*
D03*
Y29484D02*
D03*
X34032Y29484D02*
D03*
Y32043D02*
D03*
Y34602D02*
D03*
Y37161D02*
D03*
Y39720D02*
D03*
Y42279D02*
D03*
Y44839D02*
D03*
Y47398D02*
D03*
Y49957D02*
D03*
Y52516D02*
D03*
D25*
X65610Y52000D02*
D03*
X75453Y48260D02*
D03*
X109453Y63000D02*
D03*
X99610Y66740D02*
D03*
D26*
X75453Y55740D02*
D03*
X99610Y59260D02*
D03*
D27*
X88832Y33100D02*
D03*
Y38100D02*
D03*
X9532Y53100D02*
D03*
Y58100D02*
D03*
Y44600D02*
D03*
Y39600D02*
D03*
D28*
X109031Y43000D02*
D03*
X114032D02*
D03*
X96031Y49000D02*
D03*
X101031D02*
D03*
Y43000D02*
D03*
X96031D02*
D03*
D29*
X99594Y36024D02*
D03*
X101563D02*
D03*
X103532D02*
D03*
Y25000D02*
D03*
X101563D02*
D03*
X99594D02*
D03*
D30*
X107075Y34449D02*
D03*
Y32480D02*
D03*
Y30512D02*
D03*
Y28543D02*
D03*
Y26575D02*
D03*
X96051D02*
D03*
Y28543D02*
D03*
Y30512D02*
D03*
Y32480D02*
D03*
Y34449D02*
D03*
D31*
X20531Y44369D02*
D03*
Y53031D02*
D03*
D32*
X14332Y12000D02*
D03*
Y17906D02*
D03*
D43*
X94437Y8000D02*
D03*
X82626D02*
D03*
M02*
