G04*
G04 #@! TF.GenerationSoftware,Altium Limited,Altium Designer,20.0.13 (296)*
G04*
G04 Layer_Color=65535*
%FSLAX25Y25*%
%MOIN*%
G70*
G01*
G75*
%ADD10C,0.00984*%
%ADD11C,0.00787*%
%ADD12C,0.00591*%
%ADD13C,0.01000*%
%ADD14C,0.00598*%
G36*
X200790Y5732D02*
X200818Y5730D01*
X200852Y5727D01*
X200887Y5725D01*
X200925Y5717D01*
X201007Y5702D01*
X201091Y5676D01*
X201135Y5661D01*
X201175Y5643D01*
X201214Y5623D01*
X201249Y5597D01*
X201252Y5595D01*
X201257Y5592D01*
X201267Y5582D01*
X201280Y5571D01*
X201295Y5559D01*
X201311Y5541D01*
X201328Y5520D01*
X201349Y5498D01*
X201369Y5472D01*
X201390Y5444D01*
X201410Y5413D01*
X201428Y5378D01*
X201448Y5342D01*
X201464Y5304D01*
X201479Y5260D01*
X201489Y5217D01*
X201135Y5151D01*
Y5153D01*
X201132Y5156D01*
X201127Y5171D01*
X201117Y5194D01*
X201101Y5225D01*
X201084Y5258D01*
X201058Y5291D01*
X201027Y5324D01*
X200992Y5355D01*
X200987Y5357D01*
X200974Y5367D01*
X200951Y5380D01*
X200923Y5393D01*
X200885Y5408D01*
X200841Y5418D01*
X200793Y5429D01*
X200737Y5431D01*
X200714D01*
X200699Y5429D01*
X200678Y5426D01*
X200655Y5424D01*
X200630Y5418D01*
X200602Y5413D01*
X200543Y5396D01*
X200512Y5383D01*
X200482Y5367D01*
X200451Y5350D01*
X200421Y5332D01*
X200393Y5306D01*
X200364Y5281D01*
X200362Y5278D01*
X200359Y5273D01*
X200352Y5266D01*
X200344Y5253D01*
X200334Y5237D01*
X200321Y5220D01*
X200308Y5197D01*
X200298Y5171D01*
X200286Y5141D01*
X200273Y5107D01*
X200260Y5072D01*
X200250Y5034D01*
X200242Y4990D01*
X200235Y4942D01*
X200232Y4893D01*
X200229Y4840D01*
Y4837D01*
Y4827D01*
Y4809D01*
X200232Y4789D01*
X200235Y4761D01*
X200237Y4733D01*
X200242Y4697D01*
X200247Y4661D01*
X200262Y4585D01*
X200288Y4506D01*
X200303Y4467D01*
X200321Y4432D01*
X200344Y4396D01*
X200367Y4365D01*
X200370Y4363D01*
X200375Y4358D01*
X200382Y4350D01*
X200393Y4340D01*
X200408Y4330D01*
X200423Y4314D01*
X200444Y4302D01*
X200466Y4286D01*
X200492Y4271D01*
X200518Y4258D01*
X200581Y4233D01*
X200617Y4223D01*
X200653Y4215D01*
X200693Y4210D01*
X200734Y4207D01*
X200755D01*
X200775Y4210D01*
X200806Y4212D01*
X200839Y4217D01*
X200877Y4225D01*
X200918Y4235D01*
X200959Y4251D01*
X200961D01*
X200964Y4253D01*
X200976Y4258D01*
X200999Y4268D01*
X201025Y4281D01*
X201056Y4296D01*
X201089Y4314D01*
X201122Y4335D01*
X201152Y4358D01*
Y4585D01*
X200745D01*
Y4883D01*
X201512D01*
Y4174D01*
X201507Y4169D01*
X201499Y4164D01*
X201492Y4156D01*
X201479Y4146D01*
X201466Y4136D01*
X201430Y4110D01*
X201382Y4082D01*
X201326Y4049D01*
X201262Y4016D01*
X201186Y3985D01*
X201183D01*
X201175Y3983D01*
X201165Y3978D01*
X201150Y3973D01*
X201130Y3968D01*
X201107Y3960D01*
X201081Y3952D01*
X201053Y3945D01*
X200989Y3929D01*
X200915Y3917D01*
X200839Y3906D01*
X200757Y3904D01*
X200729D01*
X200711Y3906D01*
X200686D01*
X200658Y3909D01*
X200627Y3914D01*
X200591Y3919D01*
X200518Y3932D01*
X200436Y3952D01*
X200352Y3980D01*
X200313Y3998D01*
X200273Y4019D01*
X200270Y4021D01*
X200265Y4024D01*
X200252Y4031D01*
X200240Y4042D01*
X200222Y4052D01*
X200204Y4067D01*
X200181Y4085D01*
X200158Y4105D01*
X200107Y4151D01*
X200056Y4210D01*
X200008Y4276D01*
X199964Y4353D01*
Y4355D01*
X199959Y4363D01*
X199954Y4376D01*
X199949Y4391D01*
X199941Y4411D01*
X199931Y4434D01*
X199923Y4462D01*
X199913Y4493D01*
X199903Y4526D01*
X199895Y4564D01*
X199878Y4643D01*
X199867Y4730D01*
X199862Y4824D01*
Y4827D01*
Y4837D01*
Y4852D01*
X199865Y4870D01*
Y4896D01*
X199867Y4924D01*
X199872Y4954D01*
X199878Y4990D01*
X199890Y5064D01*
X199911Y5148D01*
X199939Y5232D01*
X199957Y5273D01*
X199977Y5314D01*
X199979Y5316D01*
X199982Y5324D01*
X199990Y5334D01*
X199997Y5350D01*
X200010Y5367D01*
X200025Y5388D01*
X200043Y5411D01*
X200061Y5436D01*
X200084Y5462D01*
X200110Y5490D01*
X200138Y5518D01*
X200168Y5546D01*
X200201Y5571D01*
X200235Y5600D01*
X200313Y5646D01*
X200316D01*
X200321Y5651D01*
X200331Y5653D01*
X200344Y5661D01*
X200362Y5666D01*
X200380Y5674D01*
X200405Y5681D01*
X200431Y5691D01*
X200459Y5699D01*
X200492Y5707D01*
X200528Y5714D01*
X200563Y5722D01*
X200645Y5732D01*
X200737Y5735D01*
X200767D01*
X200790Y5732D01*
D02*
G37*
G36*
X230456Y68724D02*
X230484Y68722D01*
X230517Y68719D01*
X230553Y68717D01*
X230591Y68709D01*
X230673Y68694D01*
X230757Y68668D01*
X230800Y68653D01*
X230841Y68635D01*
X230879Y68615D01*
X230915Y68589D01*
X230917Y68587D01*
X230922Y68584D01*
X230933Y68574D01*
X230945Y68564D01*
X230961Y68551D01*
X230976Y68533D01*
X230994Y68513D01*
X231014Y68490D01*
X231035Y68464D01*
X231055Y68436D01*
X231075Y68406D01*
X231093Y68370D01*
X231114Y68334D01*
X231129Y68296D01*
X231144Y68253D01*
X231154Y68209D01*
X230800Y68143D01*
Y68146D01*
X230797Y68148D01*
X230792Y68163D01*
X230782Y68186D01*
X230767Y68217D01*
X230749Y68250D01*
X230724Y68283D01*
X230693Y68316D01*
X230657Y68347D01*
X230652Y68349D01*
X230639Y68360D01*
X230616Y68372D01*
X230588Y68385D01*
X230550Y68401D01*
X230507Y68411D01*
X230458Y68421D01*
X230402Y68423D01*
X230379D01*
X230364Y68421D01*
X230344Y68418D01*
X230321Y68416D01*
X230295Y68411D01*
X230267Y68406D01*
X230208Y68388D01*
X230178Y68375D01*
X230147Y68360D01*
X230117Y68342D01*
X230086Y68324D01*
X230058Y68299D01*
X230030Y68273D01*
X230027Y68270D01*
X230025Y68265D01*
X230017Y68258D01*
X230010Y68245D01*
X229999Y68230D01*
X229987Y68212D01*
X229974Y68189D01*
X229964Y68163D01*
X229951Y68133D01*
X229938Y68100D01*
X229925Y68064D01*
X229915Y68026D01*
X229907Y67982D01*
X229900Y67934D01*
X229897Y67885D01*
X229895Y67832D01*
Y67829D01*
Y67819D01*
Y67801D01*
X229897Y67781D01*
X229900Y67753D01*
X229902Y67725D01*
X229907Y67689D01*
X229913Y67653D01*
X229928Y67577D01*
X229953Y67498D01*
X229969Y67459D01*
X229987Y67424D01*
X230010Y67388D01*
X230032Y67357D01*
X230035Y67355D01*
X230040Y67350D01*
X230048Y67342D01*
X230058Y67332D01*
X230073Y67322D01*
X230088Y67307D01*
X230109Y67294D01*
X230132Y67278D01*
X230157Y67263D01*
X230183Y67250D01*
X230247Y67225D01*
X230282Y67215D01*
X230318Y67207D01*
X230359Y67202D01*
X230400Y67199D01*
X230420D01*
X230440Y67202D01*
X230471Y67204D01*
X230504Y67210D01*
X230542Y67217D01*
X230583Y67228D01*
X230624Y67243D01*
X230627D01*
X230629Y67245D01*
X230642Y67250D01*
X230665Y67261D01*
X230690Y67273D01*
X230721Y67289D01*
X230754Y67307D01*
X230787Y67327D01*
X230818Y67350D01*
Y67577D01*
X230410D01*
Y67875D01*
X231177D01*
Y67166D01*
X231172Y67161D01*
X231165Y67156D01*
X231157Y67148D01*
X231144Y67138D01*
X231132Y67128D01*
X231096Y67102D01*
X231047Y67075D01*
X230991Y67041D01*
X230927Y67008D01*
X230851Y66978D01*
X230849D01*
X230841Y66975D01*
X230831Y66970D01*
X230815Y66965D01*
X230795Y66960D01*
X230772Y66952D01*
X230747Y66944D01*
X230718Y66937D01*
X230655Y66922D01*
X230581Y66909D01*
X230504Y66899D01*
X230423Y66896D01*
X230395D01*
X230377Y66899D01*
X230351D01*
X230323Y66901D01*
X230293Y66906D01*
X230257Y66911D01*
X230183Y66924D01*
X230101Y66944D01*
X230017Y66973D01*
X229979Y66990D01*
X229938Y67011D01*
X229936Y67013D01*
X229930Y67016D01*
X229918Y67023D01*
X229905Y67034D01*
X229887Y67044D01*
X229869Y67059D01*
X229846Y67077D01*
X229823Y67097D01*
X229772Y67143D01*
X229721Y67202D01*
X229673Y67268D01*
X229630Y67345D01*
Y67347D01*
X229624Y67355D01*
X229619Y67368D01*
X229614Y67383D01*
X229607Y67403D01*
X229596Y67426D01*
X229589Y67454D01*
X229578Y67485D01*
X229568Y67518D01*
X229561Y67556D01*
X229543Y67636D01*
X229533Y67722D01*
X229528Y67817D01*
Y67819D01*
Y67829D01*
Y67845D01*
X229530Y67862D01*
Y67888D01*
X229533Y67916D01*
X229538Y67947D01*
X229543Y67982D01*
X229556Y68056D01*
X229576Y68140D01*
X229604Y68225D01*
X229622Y68265D01*
X229642Y68306D01*
X229645Y68309D01*
X229647Y68316D01*
X229655Y68326D01*
X229663Y68342D01*
X229676Y68360D01*
X229691Y68380D01*
X229709Y68403D01*
X229727Y68428D01*
X229749Y68454D01*
X229775Y68482D01*
X229803Y68510D01*
X229834Y68538D01*
X229867Y68564D01*
X229900Y68592D01*
X229979Y68638D01*
X229981D01*
X229987Y68643D01*
X229997Y68645D01*
X230010Y68653D01*
X230027Y68658D01*
X230045Y68666D01*
X230071Y68673D01*
X230096Y68683D01*
X230124Y68691D01*
X230157Y68699D01*
X230193Y68707D01*
X230229Y68714D01*
X230310Y68724D01*
X230402Y68727D01*
X230433D01*
X230456Y68724D01*
D02*
G37*
G36*
X199917Y66929D02*
X199532D01*
X198900Y68694D01*
X199285D01*
X199734Y67388D01*
X200165Y68694D01*
X200545D01*
X199917Y66929D01*
D02*
G37*
G36*
X198747Y68355D02*
X198107D01*
X198053Y68054D01*
X198056D01*
X198058Y68056D01*
X198074Y68064D01*
X198097Y68072D01*
X198125Y68084D01*
X198161Y68094D01*
X198199Y68102D01*
X198242Y68110D01*
X198285Y68112D01*
X198308D01*
X198324Y68110D01*
X198342Y68107D01*
X198364Y68105D01*
X198390Y68100D01*
X198418Y68092D01*
X198477Y68072D01*
X198510Y68059D01*
X198540Y68044D01*
X198574Y68023D01*
X198607Y68000D01*
X198637Y67975D01*
X198668Y67947D01*
X198670Y67944D01*
X198676Y67939D01*
X198683Y67929D01*
X198694Y67916D01*
X198704Y67901D01*
X198719Y67880D01*
X198732Y67857D01*
X198747Y67832D01*
X198762Y67804D01*
X198775Y67771D01*
X198790Y67735D01*
X198801Y67699D01*
X198811Y67658D01*
X198818Y67615D01*
X198823Y67569D01*
X198826Y67521D01*
Y67518D01*
Y67510D01*
Y67500D01*
X198823Y67485D01*
Y67465D01*
X198818Y67442D01*
X198816Y67416D01*
X198811Y67391D01*
X198795Y67330D01*
X198773Y67263D01*
X198757Y67228D01*
X198742Y67194D01*
X198722Y67161D01*
X198699Y67128D01*
X198696Y67125D01*
X198691Y67118D01*
X198681Y67108D01*
X198668Y67092D01*
X198650Y67075D01*
X198627Y67054D01*
X198602Y67034D01*
X198574Y67013D01*
X198540Y66990D01*
X198505Y66970D01*
X198467Y66949D01*
X198423Y66932D01*
X198377Y66916D01*
X198329Y66906D01*
X198275Y66899D01*
X198219Y66896D01*
X198196D01*
X198178Y66899D01*
X198158Y66901D01*
X198133Y66904D01*
X198107Y66906D01*
X198076Y66911D01*
X198015Y66927D01*
X197946Y66952D01*
X197913Y66965D01*
X197880Y66983D01*
X197849Y67003D01*
X197819Y67026D01*
X197816Y67029D01*
X197811Y67031D01*
X197803Y67039D01*
X197793Y67049D01*
X197783Y67064D01*
X197768Y67080D01*
X197755Y67097D01*
X197740Y67118D01*
X197722Y67143D01*
X197707Y67169D01*
X197679Y67230D01*
X197653Y67299D01*
X197645Y67337D01*
X197638Y67378D01*
X197974Y67414D01*
Y67409D01*
X197977Y67396D01*
X197982Y67373D01*
X197990Y67347D01*
X198000Y67319D01*
X198015Y67289D01*
X198036Y67261D01*
X198058Y67233D01*
X198061Y67230D01*
X198071Y67222D01*
X198087Y67212D01*
X198107Y67199D01*
X198130Y67187D01*
X198158Y67177D01*
X198191Y67169D01*
X198224Y67166D01*
X198229D01*
X198242Y67169D01*
X198263Y67171D01*
X198288Y67177D01*
X198316Y67187D01*
X198347Y67202D01*
X198377Y67225D01*
X198405Y67253D01*
X198408Y67258D01*
X198418Y67268D01*
X198428Y67289D01*
X198444Y67319D01*
X198456Y67355D01*
X198469Y67398D01*
X198477Y67452D01*
X198479Y67513D01*
Y67516D01*
Y67521D01*
Y67528D01*
Y67541D01*
X198477Y67569D01*
X198469Y67605D01*
X198461Y67646D01*
X198449Y67686D01*
X198431Y67725D01*
X198405Y67758D01*
X198403Y67760D01*
X198393Y67771D01*
X198375Y67783D01*
X198354Y67801D01*
X198326Y67817D01*
X198293Y67829D01*
X198255Y67839D01*
X198214Y67842D01*
X198199D01*
X198189Y67839D01*
X198163Y67834D01*
X198127Y67827D01*
X198087Y67811D01*
X198043Y67788D01*
X198020Y67773D01*
X197997Y67755D01*
X197974Y67735D01*
X197951Y67712D01*
X197679Y67750D01*
X197852Y68671D01*
X198747D01*
Y68355D01*
D02*
G37*
G36*
X206628Y50662D02*
Y50660D01*
X206623Y50655D01*
X206618Y50647D01*
X206612Y50634D01*
X206595Y50604D01*
X206572Y50568D01*
X206546Y50527D01*
X206521Y50486D01*
X206495Y50451D01*
X206472Y50420D01*
X206470Y50418D01*
X206462Y50407D01*
X206452Y50395D01*
X206436Y50379D01*
X206416Y50362D01*
X206393Y50344D01*
X206368Y50326D01*
X206340Y50308D01*
X206337Y50305D01*
X206327Y50303D01*
X206309Y50295D01*
X206286Y50288D01*
X206258Y50280D01*
X206227Y50275D01*
X206192Y50270D01*
X206151Y50267D01*
X206131D01*
X206110Y50270D01*
X206080Y50272D01*
X206044Y50277D01*
X206000Y50285D01*
X205955Y50295D01*
X205906Y50308D01*
X205934Y50566D01*
X205937D01*
X205944Y50563D01*
X205957Y50560D01*
X205972Y50555D01*
X205990Y50553D01*
X206011Y50548D01*
X206054Y50545D01*
X206062D01*
X206069Y50548D01*
X206080Y50550D01*
X206110Y50558D01*
X206128Y50566D01*
X206146Y50576D01*
X206166Y50589D01*
X206187Y50604D01*
X206210Y50624D01*
X206233Y50647D01*
X206253Y50675D01*
X206276Y50708D01*
X206296Y50744D01*
X206317Y50787D01*
X206095Y52068D01*
X206439D01*
X206523Y51427D01*
Y51425D01*
X206526Y51417D01*
Y51405D01*
X206528Y51387D01*
X206531Y51369D01*
X206533Y51346D01*
X206541Y51292D01*
X206546Y51236D01*
X206554Y51180D01*
X206559Y51129D01*
X206561Y51106D01*
Y51088D01*
X206564Y51093D01*
X206569Y51106D01*
X206574Y51119D01*
X206582Y51137D01*
X206590Y51160D01*
X206600Y51183D01*
X206610Y51211D01*
X206638Y51272D01*
X206669Y51341D01*
X206707Y51417D01*
X206748Y51496D01*
X207054Y52068D01*
X207418D01*
X206628Y50662D01*
D02*
G37*
G36*
X203233Y41658D02*
X203557Y41043D01*
X203190D01*
X203004Y41398D01*
X202688Y41043D01*
X202264D01*
X202851Y41696D01*
X202527Y42323D01*
X202894D01*
X203080Y41959D01*
X203407Y42323D01*
X203828D01*
X203233Y41658D01*
D02*
G37*
G36*
X110239Y5732D02*
X110267Y5730D01*
X110300Y5727D01*
X110336Y5725D01*
X110374Y5717D01*
X110456Y5702D01*
X110540Y5676D01*
X110583Y5661D01*
X110624Y5643D01*
X110662Y5623D01*
X110698Y5597D01*
X110701Y5595D01*
X110706Y5592D01*
X110716Y5582D01*
X110729Y5571D01*
X110744Y5559D01*
X110759Y5541D01*
X110777Y5520D01*
X110798Y5498D01*
X110818Y5472D01*
X110838Y5444D01*
X110859Y5413D01*
X110877Y5378D01*
X110897Y5342D01*
X110912Y5304D01*
X110928Y5260D01*
X110938Y5217D01*
X110583Y5151D01*
Y5153D01*
X110581Y5156D01*
X110576Y5171D01*
X110566Y5194D01*
X110550Y5225D01*
X110532Y5258D01*
X110507Y5291D01*
X110476Y5324D01*
X110441Y5355D01*
X110436Y5357D01*
X110423Y5367D01*
X110400Y5380D01*
X110372Y5393D01*
X110334Y5408D01*
X110290Y5418D01*
X110242Y5429D01*
X110186Y5431D01*
X110163D01*
X110147Y5429D01*
X110127Y5426D01*
X110104Y5424D01*
X110079Y5418D01*
X110050Y5413D01*
X109992Y5396D01*
X109961Y5383D01*
X109931Y5367D01*
X109900Y5350D01*
X109870Y5332D01*
X109841Y5306D01*
X109813Y5281D01*
X109811Y5278D01*
X109808Y5273D01*
X109801Y5266D01*
X109793Y5253D01*
X109783Y5237D01*
X109770Y5220D01*
X109757Y5197D01*
X109747Y5171D01*
X109734Y5141D01*
X109722Y5107D01*
X109709Y5072D01*
X109699Y5034D01*
X109691Y4990D01*
X109683Y4942D01*
X109681Y4893D01*
X109678Y4840D01*
Y4837D01*
Y4827D01*
Y4809D01*
X109681Y4789D01*
X109683Y4761D01*
X109686Y4733D01*
X109691Y4697D01*
X109696Y4661D01*
X109711Y4585D01*
X109737Y4506D01*
X109752Y4467D01*
X109770Y4432D01*
X109793Y4396D01*
X109816Y4365D01*
X109818Y4363D01*
X109824Y4358D01*
X109831Y4350D01*
X109841Y4340D01*
X109857Y4330D01*
X109872Y4314D01*
X109892Y4302D01*
X109915Y4286D01*
X109941Y4271D01*
X109966Y4258D01*
X110030Y4233D01*
X110066Y4223D01*
X110101Y4215D01*
X110142Y4210D01*
X110183Y4207D01*
X110204D01*
X110224Y4210D01*
X110255Y4212D01*
X110288Y4217D01*
X110326Y4225D01*
X110367Y4235D01*
X110407Y4251D01*
X110410D01*
X110413Y4253D01*
X110425Y4258D01*
X110448Y4268D01*
X110474Y4281D01*
X110504Y4296D01*
X110538Y4314D01*
X110571Y4335D01*
X110601Y4358D01*
Y4585D01*
X110193D01*
Y4883D01*
X110961D01*
Y4174D01*
X110956Y4169D01*
X110948Y4164D01*
X110941Y4156D01*
X110928Y4146D01*
X110915Y4136D01*
X110879Y4110D01*
X110831Y4082D01*
X110775Y4049D01*
X110711Y4016D01*
X110635Y3985D01*
X110632D01*
X110624Y3983D01*
X110614Y3978D01*
X110599Y3973D01*
X110578Y3968D01*
X110555Y3960D01*
X110530Y3952D01*
X110502Y3945D01*
X110438Y3929D01*
X110364Y3917D01*
X110288Y3906D01*
X110206Y3904D01*
X110178D01*
X110160Y3906D01*
X110135D01*
X110107Y3909D01*
X110076Y3914D01*
X110040Y3919D01*
X109966Y3932D01*
X109885Y3952D01*
X109801Y3980D01*
X109762Y3998D01*
X109722Y4019D01*
X109719Y4021D01*
X109714Y4024D01*
X109701Y4031D01*
X109688Y4042D01*
X109671Y4052D01*
X109653Y4067D01*
X109630Y4085D01*
X109607Y4105D01*
X109556Y4151D01*
X109505Y4210D01*
X109456Y4276D01*
X109413Y4353D01*
Y4355D01*
X109408Y4363D01*
X109403Y4376D01*
X109398Y4391D01*
X109390Y4411D01*
X109380Y4434D01*
X109372Y4462D01*
X109362Y4493D01*
X109352Y4526D01*
X109344Y4564D01*
X109326Y4643D01*
X109316Y4730D01*
X109311Y4824D01*
Y4827D01*
Y4837D01*
Y4852D01*
X109314Y4870D01*
Y4896D01*
X109316Y4924D01*
X109321Y4954D01*
X109326Y4990D01*
X109339Y5064D01*
X109360Y5148D01*
X109388Y5232D01*
X109405Y5273D01*
X109426Y5314D01*
X109428Y5316D01*
X109431Y5324D01*
X109439Y5334D01*
X109446Y5350D01*
X109459Y5367D01*
X109474Y5388D01*
X109492Y5411D01*
X109510Y5436D01*
X109533Y5462D01*
X109558Y5490D01*
X109586Y5518D01*
X109617Y5546D01*
X109650Y5571D01*
X109683Y5600D01*
X109762Y5646D01*
X109765D01*
X109770Y5651D01*
X109780Y5653D01*
X109793Y5661D01*
X109811Y5666D01*
X109829Y5674D01*
X109854Y5681D01*
X109880Y5691D01*
X109908Y5699D01*
X109941Y5707D01*
X109977Y5714D01*
X110012Y5722D01*
X110094Y5732D01*
X110186Y5735D01*
X110216D01*
X110239Y5732D01*
D02*
G37*
G36*
X139905Y68724D02*
X139933Y68722D01*
X139966Y68719D01*
X140001Y68717D01*
X140040Y68709D01*
X140121Y68694D01*
X140206Y68668D01*
X140249Y68653D01*
X140290Y68635D01*
X140328Y68615D01*
X140364Y68589D01*
X140366Y68587D01*
X140371Y68584D01*
X140381Y68574D01*
X140394Y68564D01*
X140410Y68551D01*
X140425Y68533D01*
X140443Y68513D01*
X140463Y68490D01*
X140483Y68464D01*
X140504Y68436D01*
X140524Y68406D01*
X140542Y68370D01*
X140562Y68334D01*
X140578Y68296D01*
X140593Y68253D01*
X140603Y68209D01*
X140249Y68143D01*
Y68146D01*
X140246Y68148D01*
X140241Y68163D01*
X140231Y68186D01*
X140216Y68217D01*
X140198Y68250D01*
X140172Y68283D01*
X140142Y68316D01*
X140106Y68347D01*
X140101Y68349D01*
X140088Y68360D01*
X140065Y68372D01*
X140037Y68385D01*
X139999Y68401D01*
X139956Y68411D01*
X139907Y68421D01*
X139851Y68423D01*
X139828D01*
X139813Y68421D01*
X139792Y68418D01*
X139769Y68416D01*
X139744Y68411D01*
X139716Y68406D01*
X139657Y68388D01*
X139627Y68375D01*
X139596Y68360D01*
X139565Y68342D01*
X139535Y68324D01*
X139507Y68299D01*
X139479Y68273D01*
X139476Y68270D01*
X139474Y68265D01*
X139466Y68258D01*
X139458Y68245D01*
X139448Y68230D01*
X139435Y68212D01*
X139423Y68189D01*
X139412Y68163D01*
X139400Y68133D01*
X139387Y68100D01*
X139374Y68064D01*
X139364Y68026D01*
X139356Y67982D01*
X139349Y67934D01*
X139346Y67885D01*
X139344Y67832D01*
Y67829D01*
Y67819D01*
Y67801D01*
X139346Y67781D01*
X139349Y67753D01*
X139351Y67725D01*
X139356Y67689D01*
X139361Y67653D01*
X139377Y67577D01*
X139402Y67498D01*
X139418Y67459D01*
X139435Y67424D01*
X139458Y67388D01*
X139481Y67357D01*
X139484Y67355D01*
X139489Y67350D01*
X139497Y67342D01*
X139507Y67332D01*
X139522Y67322D01*
X139537Y67307D01*
X139558Y67294D01*
X139581Y67278D01*
X139606Y67263D01*
X139632Y67250D01*
X139696Y67225D01*
X139731Y67215D01*
X139767Y67207D01*
X139808Y67202D01*
X139848Y67199D01*
X139869D01*
X139889Y67202D01*
X139920Y67204D01*
X139953Y67210D01*
X139991Y67217D01*
X140032Y67228D01*
X140073Y67243D01*
X140075D01*
X140078Y67245D01*
X140091Y67250D01*
X140114Y67261D01*
X140139Y67273D01*
X140170Y67289D01*
X140203Y67307D01*
X140236Y67327D01*
X140267Y67350D01*
Y67577D01*
X139859D01*
Y67875D01*
X140626D01*
Y67166D01*
X140621Y67161D01*
X140613Y67156D01*
X140606Y67148D01*
X140593Y67138D01*
X140580Y67128D01*
X140545Y67102D01*
X140496Y67075D01*
X140440Y67041D01*
X140376Y67008D01*
X140300Y66978D01*
X140297D01*
X140290Y66975D01*
X140279Y66970D01*
X140264Y66965D01*
X140244Y66960D01*
X140221Y66952D01*
X140195Y66944D01*
X140167Y66937D01*
X140103Y66922D01*
X140030Y66909D01*
X139953Y66899D01*
X139871Y66896D01*
X139843D01*
X139825Y66899D01*
X139800D01*
X139772Y66901D01*
X139741Y66906D01*
X139706Y66911D01*
X139632Y66924D01*
X139550Y66944D01*
X139466Y66973D01*
X139428Y66990D01*
X139387Y67011D01*
X139384Y67013D01*
X139379Y67016D01*
X139366Y67023D01*
X139354Y67034D01*
X139336Y67044D01*
X139318Y67059D01*
X139295Y67077D01*
X139272Y67097D01*
X139221Y67143D01*
X139170Y67202D01*
X139122Y67268D01*
X139078Y67345D01*
Y67347D01*
X139073Y67355D01*
X139068Y67368D01*
X139063Y67383D01*
X139055Y67403D01*
X139045Y67426D01*
X139038Y67454D01*
X139027Y67485D01*
X139017Y67518D01*
X139009Y67556D01*
X138992Y67636D01*
X138981Y67722D01*
X138976Y67817D01*
Y67819D01*
Y67829D01*
Y67845D01*
X138979Y67862D01*
Y67888D01*
X138981Y67916D01*
X138987Y67947D01*
X138992Y67982D01*
X139004Y68056D01*
X139025Y68140D01*
X139053Y68225D01*
X139071Y68265D01*
X139091Y68306D01*
X139094Y68309D01*
X139096Y68316D01*
X139104Y68326D01*
X139111Y68342D01*
X139124Y68360D01*
X139140Y68380D01*
X139157Y68403D01*
X139175Y68428D01*
X139198Y68454D01*
X139224Y68482D01*
X139252Y68510D01*
X139282Y68538D01*
X139315Y68564D01*
X139349Y68592D01*
X139428Y68638D01*
X139430D01*
X139435Y68643D01*
X139446Y68645D01*
X139458Y68653D01*
X139476Y68658D01*
X139494Y68666D01*
X139520Y68673D01*
X139545Y68683D01*
X139573Y68691D01*
X139606Y68699D01*
X139642Y68707D01*
X139678Y68714D01*
X139759Y68724D01*
X139851Y68727D01*
X139882D01*
X139905Y68724D01*
D02*
G37*
G36*
X109366Y66929D02*
X108981D01*
X108349Y68694D01*
X108734D01*
X109183Y67388D01*
X109614Y68694D01*
X109994D01*
X109366Y66929D01*
D02*
G37*
G36*
X108196Y68355D02*
X107556D01*
X107502Y68054D01*
X107505D01*
X107507Y68056D01*
X107523Y68064D01*
X107546Y68072D01*
X107574Y68084D01*
X107609Y68094D01*
X107648Y68102D01*
X107691Y68110D01*
X107734Y68112D01*
X107757D01*
X107773Y68110D01*
X107790Y68107D01*
X107813Y68105D01*
X107839Y68100D01*
X107867Y68092D01*
X107925Y68072D01*
X107959Y68059D01*
X107989Y68044D01*
X108022Y68023D01*
X108056Y68000D01*
X108086Y67975D01*
X108117Y67947D01*
X108119Y67944D01*
X108124Y67939D01*
X108132Y67929D01*
X108142Y67916D01*
X108152Y67901D01*
X108168Y67880D01*
X108180Y67857D01*
X108196Y67832D01*
X108211Y67804D01*
X108224Y67771D01*
X108239Y67735D01*
X108249Y67699D01*
X108260Y67658D01*
X108267Y67615D01*
X108272Y67569D01*
X108275Y67521D01*
Y67518D01*
Y67510D01*
Y67500D01*
X108272Y67485D01*
Y67465D01*
X108267Y67442D01*
X108265Y67416D01*
X108260Y67391D01*
X108244Y67330D01*
X108221Y67263D01*
X108206Y67228D01*
X108191Y67194D01*
X108170Y67161D01*
X108147Y67128D01*
X108145Y67125D01*
X108140Y67118D01*
X108130Y67108D01*
X108117Y67092D01*
X108099Y67075D01*
X108076Y67054D01*
X108051Y67034D01*
X108022Y67013D01*
X107989Y66990D01*
X107954Y66970D01*
X107915Y66949D01*
X107872Y66932D01*
X107826Y66916D01*
X107778Y66906D01*
X107724Y66899D01*
X107668Y66896D01*
X107645D01*
X107627Y66899D01*
X107607Y66901D01*
X107581Y66904D01*
X107556Y66906D01*
X107525Y66911D01*
X107464Y66927D01*
X107395Y66952D01*
X107362Y66965D01*
X107329Y66983D01*
X107298Y67003D01*
X107268Y67026D01*
X107265Y67029D01*
X107260Y67031D01*
X107252Y67039D01*
X107242Y67049D01*
X107232Y67064D01*
X107217Y67080D01*
X107204Y67097D01*
X107189Y67118D01*
X107171Y67143D01*
X107155Y67169D01*
X107127Y67230D01*
X107102Y67299D01*
X107094Y67337D01*
X107087Y67378D01*
X107423Y67414D01*
Y67409D01*
X107426Y67396D01*
X107431Y67373D01*
X107439Y67347D01*
X107449Y67319D01*
X107464Y67289D01*
X107484Y67261D01*
X107507Y67233D01*
X107510Y67230D01*
X107520Y67222D01*
X107535Y67212D01*
X107556Y67199D01*
X107579Y67187D01*
X107607Y67177D01*
X107640Y67169D01*
X107673Y67166D01*
X107678D01*
X107691Y67169D01*
X107711Y67171D01*
X107737Y67177D01*
X107765Y67187D01*
X107796Y67202D01*
X107826Y67225D01*
X107854Y67253D01*
X107857Y67258D01*
X107867Y67268D01*
X107877Y67289D01*
X107892Y67319D01*
X107905Y67355D01*
X107918Y67398D01*
X107925Y67452D01*
X107928Y67513D01*
Y67516D01*
Y67521D01*
Y67528D01*
Y67541D01*
X107925Y67569D01*
X107918Y67605D01*
X107910Y67646D01*
X107897Y67686D01*
X107880Y67725D01*
X107854Y67758D01*
X107852Y67760D01*
X107841Y67771D01*
X107824Y67783D01*
X107803Y67801D01*
X107775Y67817D01*
X107742Y67829D01*
X107704Y67839D01*
X107663Y67842D01*
X107648D01*
X107637Y67839D01*
X107612Y67834D01*
X107576Y67827D01*
X107535Y67811D01*
X107492Y67788D01*
X107469Y67773D01*
X107446Y67755D01*
X107423Y67735D01*
X107400Y67712D01*
X107127Y67750D01*
X107301Y68671D01*
X108196D01*
Y68355D01*
D02*
G37*
G36*
X116077Y50662D02*
Y50660D01*
X116071Y50655D01*
X116066Y50647D01*
X116061Y50634D01*
X116043Y50604D01*
X116021Y50568D01*
X115995Y50527D01*
X115970Y50486D01*
X115944Y50451D01*
X115921Y50420D01*
X115919Y50418D01*
X115911Y50407D01*
X115901Y50395D01*
X115885Y50379D01*
X115865Y50362D01*
X115842Y50344D01*
X115816Y50326D01*
X115788Y50308D01*
X115786Y50305D01*
X115776Y50303D01*
X115758Y50295D01*
X115735Y50288D01*
X115707Y50280D01*
X115676Y50275D01*
X115640Y50270D01*
X115600Y50267D01*
X115579D01*
X115559Y50270D01*
X115528Y50272D01*
X115493Y50277D01*
X115449Y50285D01*
X115403Y50295D01*
X115355Y50308D01*
X115383Y50566D01*
X115385D01*
X115393Y50563D01*
X115406Y50560D01*
X115421Y50555D01*
X115439Y50553D01*
X115460Y50548D01*
X115503Y50545D01*
X115510D01*
X115518Y50548D01*
X115528Y50550D01*
X115559Y50558D01*
X115577Y50566D01*
X115595Y50576D01*
X115615Y50589D01*
X115635Y50604D01*
X115658Y50624D01*
X115681Y50647D01*
X115702Y50675D01*
X115725Y50708D01*
X115745Y50744D01*
X115766Y50787D01*
X115544Y52068D01*
X115888D01*
X115972Y51427D01*
Y51425D01*
X115975Y51417D01*
Y51405D01*
X115977Y51387D01*
X115980Y51369D01*
X115982Y51346D01*
X115990Y51292D01*
X115995Y51236D01*
X116003Y51180D01*
X116008Y51129D01*
X116010Y51106D01*
Y51088D01*
X116013Y51093D01*
X116018Y51106D01*
X116023Y51119D01*
X116031Y51137D01*
X116038Y51160D01*
X116049Y51183D01*
X116059Y51211D01*
X116087Y51272D01*
X116117Y51341D01*
X116156Y51417D01*
X116196Y51496D01*
X116502Y52068D01*
X116867D01*
X116077Y50662D01*
D02*
G37*
G36*
X112682Y41658D02*
X113006Y41043D01*
X112639D01*
X112453Y41398D01*
X112136Y41043D01*
X111713D01*
X112300Y41696D01*
X111976Y42323D01*
X112343D01*
X112529Y41959D01*
X112856Y42323D01*
X113276D01*
X112682Y41658D01*
D02*
G37*
G36*
X19688Y5732D02*
X19716Y5730D01*
X19749Y5727D01*
X19785Y5725D01*
X19823Y5717D01*
X19905Y5702D01*
X19989Y5676D01*
X20032Y5661D01*
X20073Y5643D01*
X20111Y5623D01*
X20147Y5597D01*
X20150Y5595D01*
X20155Y5592D01*
X20165Y5582D01*
X20178Y5571D01*
X20193Y5559D01*
X20208Y5541D01*
X20226Y5520D01*
X20246Y5498D01*
X20267Y5472D01*
X20287Y5444D01*
X20308Y5413D01*
X20325Y5378D01*
X20346Y5342D01*
X20361Y5304D01*
X20377Y5260D01*
X20387Y5217D01*
X20032Y5151D01*
Y5153D01*
X20030Y5156D01*
X20025Y5171D01*
X20014Y5194D01*
X19999Y5225D01*
X19981Y5258D01*
X19956Y5291D01*
X19925Y5324D01*
X19890Y5355D01*
X19884Y5357D01*
X19872Y5367D01*
X19849Y5380D01*
X19821Y5393D01*
X19782Y5408D01*
X19739Y5418D01*
X19691Y5429D01*
X19635Y5431D01*
X19612D01*
X19596Y5429D01*
X19576Y5426D01*
X19553Y5424D01*
X19527Y5418D01*
X19499Y5413D01*
X19441Y5396D01*
X19410Y5383D01*
X19379Y5367D01*
X19349Y5350D01*
X19318Y5332D01*
X19290Y5306D01*
X19262Y5281D01*
X19260Y5278D01*
X19257Y5273D01*
X19249Y5266D01*
X19242Y5253D01*
X19232Y5237D01*
X19219Y5220D01*
X19206Y5197D01*
X19196Y5171D01*
X19183Y5141D01*
X19170Y5107D01*
X19158Y5072D01*
X19147Y5034D01*
X19140Y4990D01*
X19132Y4942D01*
X19130Y4893D01*
X19127Y4840D01*
Y4837D01*
Y4827D01*
Y4809D01*
X19130Y4789D01*
X19132Y4761D01*
X19135Y4733D01*
X19140Y4697D01*
X19145Y4661D01*
X19160Y4585D01*
X19186Y4506D01*
X19201Y4467D01*
X19219Y4432D01*
X19242Y4396D01*
X19265Y4365D01*
X19267Y4363D01*
X19272Y4358D01*
X19280Y4350D01*
X19290Y4340D01*
X19306Y4330D01*
X19321Y4314D01*
X19341Y4302D01*
X19364Y4286D01*
X19390Y4271D01*
X19415Y4258D01*
X19479Y4233D01*
X19515Y4223D01*
X19550Y4215D01*
X19591Y4210D01*
X19632Y4207D01*
X19652D01*
X19673Y4210D01*
X19703Y4212D01*
X19737Y4217D01*
X19775Y4225D01*
X19816Y4235D01*
X19856Y4251D01*
X19859D01*
X19861Y4253D01*
X19874Y4258D01*
X19897Y4268D01*
X19923Y4281D01*
X19953Y4296D01*
X19986Y4314D01*
X20019Y4335D01*
X20050Y4358D01*
Y4585D01*
X19642D01*
Y4883D01*
X20410D01*
Y4174D01*
X20405Y4169D01*
X20397Y4164D01*
X20389Y4156D01*
X20377Y4146D01*
X20364Y4136D01*
X20328Y4110D01*
X20280Y4082D01*
X20223Y4049D01*
X20160Y4016D01*
X20083Y3985D01*
X20081D01*
X20073Y3983D01*
X20063Y3978D01*
X20048Y3973D01*
X20027Y3968D01*
X20004Y3960D01*
X19979Y3952D01*
X19951Y3945D01*
X19887Y3929D01*
X19813Y3917D01*
X19737Y3906D01*
X19655Y3904D01*
X19627D01*
X19609Y3906D01*
X19583D01*
X19555Y3909D01*
X19525Y3914D01*
X19489Y3919D01*
X19415Y3932D01*
X19334Y3952D01*
X19249Y3980D01*
X19211Y3998D01*
X19170Y4019D01*
X19168Y4021D01*
X19163Y4024D01*
X19150Y4031D01*
X19137Y4042D01*
X19119Y4052D01*
X19102Y4067D01*
X19079Y4085D01*
X19056Y4105D01*
X19005Y4151D01*
X18954Y4210D01*
X18905Y4276D01*
X18862Y4353D01*
Y4355D01*
X18857Y4363D01*
X18852Y4376D01*
X18846Y4391D01*
X18839Y4411D01*
X18829Y4434D01*
X18821Y4462D01*
X18811Y4493D01*
X18801Y4526D01*
X18793Y4564D01*
X18775Y4643D01*
X18765Y4730D01*
X18760Y4824D01*
Y4827D01*
Y4837D01*
Y4852D01*
X18762Y4870D01*
Y4896D01*
X18765Y4924D01*
X18770Y4954D01*
X18775Y4990D01*
X18788Y5064D01*
X18808Y5148D01*
X18836Y5232D01*
X18854Y5273D01*
X18875Y5314D01*
X18877Y5316D01*
X18880Y5324D01*
X18887Y5334D01*
X18895Y5350D01*
X18908Y5367D01*
X18923Y5388D01*
X18941Y5411D01*
X18959Y5436D01*
X18982Y5462D01*
X19007Y5490D01*
X19035Y5518D01*
X19066Y5546D01*
X19099Y5571D01*
X19132Y5600D01*
X19211Y5646D01*
X19214D01*
X19219Y5651D01*
X19229Y5653D01*
X19242Y5661D01*
X19260Y5666D01*
X19277Y5674D01*
X19303Y5681D01*
X19329Y5691D01*
X19356Y5699D01*
X19390Y5707D01*
X19425Y5714D01*
X19461Y5722D01*
X19543Y5732D01*
X19635Y5735D01*
X19665D01*
X19688Y5732D01*
D02*
G37*
G36*
X49353Y68724D02*
X49381Y68722D01*
X49415Y68719D01*
X49450Y68717D01*
X49488Y68709D01*
X49570Y68694D01*
X49654Y68668D01*
X49698Y68653D01*
X49738Y68635D01*
X49777Y68615D01*
X49812Y68589D01*
X49815Y68587D01*
X49820Y68584D01*
X49830Y68574D01*
X49843Y68564D01*
X49858Y68551D01*
X49874Y68533D01*
X49891Y68513D01*
X49912Y68490D01*
X49932Y68464D01*
X49953Y68436D01*
X49973Y68406D01*
X49991Y68370D01*
X50011Y68334D01*
X50027Y68296D01*
X50042Y68253D01*
X50052Y68209D01*
X49698Y68143D01*
Y68146D01*
X49695Y68148D01*
X49690Y68163D01*
X49680Y68186D01*
X49665Y68217D01*
X49647Y68250D01*
X49621Y68283D01*
X49591Y68316D01*
X49555Y68347D01*
X49550Y68349D01*
X49537Y68360D01*
X49514Y68372D01*
X49486Y68385D01*
X49448Y68401D01*
X49404Y68411D01*
X49356Y68421D01*
X49300Y68423D01*
X49277D01*
X49262Y68421D01*
X49241Y68418D01*
X49218Y68416D01*
X49193Y68411D01*
X49165Y68406D01*
X49106Y68388D01*
X49075Y68375D01*
X49045Y68360D01*
X49014Y68342D01*
X48984Y68324D01*
X48956Y68299D01*
X48928Y68273D01*
X48925Y68270D01*
X48922Y68265D01*
X48915Y68258D01*
X48907Y68245D01*
X48897Y68230D01*
X48884Y68212D01*
X48871Y68189D01*
X48861Y68163D01*
X48849Y68133D01*
X48836Y68100D01*
X48823Y68064D01*
X48813Y68026D01*
X48805Y67982D01*
X48798Y67934D01*
X48795Y67885D01*
X48792Y67832D01*
Y67829D01*
Y67819D01*
Y67801D01*
X48795Y67781D01*
X48798Y67753D01*
X48800Y67725D01*
X48805Y67689D01*
X48810Y67653D01*
X48825Y67577D01*
X48851Y67498D01*
X48866Y67459D01*
X48884Y67424D01*
X48907Y67388D01*
X48930Y67357D01*
X48933Y67355D01*
X48938Y67350D01*
X48945Y67342D01*
X48956Y67332D01*
X48971Y67322D01*
X48986Y67307D01*
X49007Y67294D01*
X49029Y67278D01*
X49055Y67263D01*
X49081Y67250D01*
X49144Y67225D01*
X49180Y67215D01*
X49216Y67207D01*
X49257Y67202D01*
X49297Y67199D01*
X49318D01*
X49338Y67202D01*
X49369Y67204D01*
X49402Y67210D01*
X49440Y67217D01*
X49481Y67228D01*
X49522Y67243D01*
X49524D01*
X49527Y67245D01*
X49540Y67250D01*
X49562Y67261D01*
X49588Y67273D01*
X49619Y67289D01*
X49652Y67307D01*
X49685Y67327D01*
X49716Y67350D01*
Y67577D01*
X49308D01*
Y67875D01*
X50075D01*
Y67166D01*
X50070Y67161D01*
X50062Y67156D01*
X50055Y67148D01*
X50042Y67138D01*
X50029Y67128D01*
X49993Y67102D01*
X49945Y67075D01*
X49889Y67041D01*
X49825Y67008D01*
X49749Y66978D01*
X49746D01*
X49738Y66975D01*
X49728Y66970D01*
X49713Y66965D01*
X49692Y66960D01*
X49670Y66952D01*
X49644Y66944D01*
X49616Y66937D01*
X49552Y66922D01*
X49478Y66909D01*
X49402Y66899D01*
X49320Y66896D01*
X49292D01*
X49274Y66899D01*
X49249D01*
X49221Y66901D01*
X49190Y66906D01*
X49154Y66911D01*
X49081Y66924D01*
X48999Y66944D01*
X48915Y66973D01*
X48877Y66990D01*
X48836Y67011D01*
X48833Y67013D01*
X48828Y67016D01*
X48815Y67023D01*
X48803Y67034D01*
X48785Y67044D01*
X48767Y67059D01*
X48744Y67077D01*
X48721Y67097D01*
X48670Y67143D01*
X48619Y67202D01*
X48570Y67268D01*
X48527Y67345D01*
Y67347D01*
X48522Y67355D01*
X48517Y67368D01*
X48512Y67383D01*
X48504Y67403D01*
X48494Y67426D01*
X48486Y67454D01*
X48476Y67485D01*
X48466Y67518D01*
X48458Y67556D01*
X48441Y67636D01*
X48430Y67722D01*
X48425Y67817D01*
Y67819D01*
Y67829D01*
Y67845D01*
X48428Y67862D01*
Y67888D01*
X48430Y67916D01*
X48435Y67947D01*
X48441Y67982D01*
X48453Y68056D01*
X48474Y68140D01*
X48502Y68225D01*
X48520Y68265D01*
X48540Y68306D01*
X48542Y68309D01*
X48545Y68316D01*
X48553Y68326D01*
X48560Y68342D01*
X48573Y68360D01*
X48588Y68380D01*
X48606Y68403D01*
X48624Y68428D01*
X48647Y68454D01*
X48673Y68482D01*
X48701Y68510D01*
X48731Y68538D01*
X48764Y68564D01*
X48798Y68592D01*
X48877Y68638D01*
X48879D01*
X48884Y68643D01*
X48894Y68645D01*
X48907Y68653D01*
X48925Y68658D01*
X48943Y68666D01*
X48968Y68673D01*
X48994Y68683D01*
X49022Y68691D01*
X49055Y68699D01*
X49091Y68707D01*
X49126Y68714D01*
X49208Y68724D01*
X49300Y68727D01*
X49330D01*
X49353Y68724D01*
D02*
G37*
G36*
X18815Y66929D02*
X18430D01*
X17798Y68694D01*
X18183D01*
X18632Y67388D01*
X19062Y68694D01*
X19442D01*
X18815Y66929D01*
D02*
G37*
G36*
X17645Y68355D02*
X17005D01*
X16951Y68054D01*
X16954D01*
X16956Y68056D01*
X16972Y68064D01*
X16994Y68072D01*
X17022Y68084D01*
X17058Y68094D01*
X17096Y68102D01*
X17140Y68110D01*
X17183Y68112D01*
X17206D01*
X17221Y68110D01*
X17239Y68107D01*
X17262Y68105D01*
X17288Y68100D01*
X17316Y68092D01*
X17374Y68072D01*
X17408Y68059D01*
X17438Y68044D01*
X17471Y68023D01*
X17504Y68000D01*
X17535Y67975D01*
X17566Y67947D01*
X17568Y67944D01*
X17573Y67939D01*
X17581Y67929D01*
X17591Y67916D01*
X17601Y67901D01*
X17617Y67880D01*
X17629Y67857D01*
X17645Y67832D01*
X17660Y67804D01*
X17673Y67771D01*
X17688Y67735D01*
X17698Y67699D01*
X17708Y67658D01*
X17716Y67615D01*
X17721Y67569D01*
X17724Y67521D01*
Y67518D01*
Y67510D01*
Y67500D01*
X17721Y67485D01*
Y67465D01*
X17716Y67442D01*
X17714Y67416D01*
X17708Y67391D01*
X17693Y67330D01*
X17670Y67263D01*
X17655Y67228D01*
X17640Y67194D01*
X17619Y67161D01*
X17596Y67128D01*
X17594Y67125D01*
X17589Y67118D01*
X17578Y67108D01*
X17566Y67092D01*
X17548Y67075D01*
X17525Y67054D01*
X17499Y67034D01*
X17471Y67013D01*
X17438Y66990D01*
X17402Y66970D01*
X17364Y66949D01*
X17321Y66932D01*
X17275Y66916D01*
X17226Y66906D01*
X17173Y66899D01*
X17117Y66896D01*
X17094D01*
X17076Y66899D01*
X17056Y66901D01*
X17030Y66904D01*
X17005Y66906D01*
X16974Y66911D01*
X16913Y66927D01*
X16844Y66952D01*
X16811Y66965D01*
X16778Y66983D01*
X16747Y67003D01*
X16716Y67026D01*
X16714Y67029D01*
X16709Y67031D01*
X16701Y67039D01*
X16691Y67049D01*
X16681Y67064D01*
X16666Y67080D01*
X16653Y67097D01*
X16637Y67118D01*
X16620Y67143D01*
X16604Y67169D01*
X16576Y67230D01*
X16551Y67299D01*
X16543Y67337D01*
X16535Y67378D01*
X16872Y67414D01*
Y67409D01*
X16875Y67396D01*
X16880Y67373D01*
X16887Y67347D01*
X16897Y67319D01*
X16913Y67289D01*
X16933Y67261D01*
X16956Y67233D01*
X16959Y67230D01*
X16969Y67222D01*
X16984Y67212D01*
X17005Y67199D01*
X17028Y67187D01*
X17056Y67177D01*
X17089Y67169D01*
X17122Y67166D01*
X17127D01*
X17140Y67169D01*
X17160Y67171D01*
X17186Y67177D01*
X17214Y67187D01*
X17244Y67202D01*
X17275Y67225D01*
X17303Y67253D01*
X17305Y67258D01*
X17316Y67268D01*
X17326Y67289D01*
X17341Y67319D01*
X17354Y67355D01*
X17367Y67398D01*
X17374Y67452D01*
X17377Y67513D01*
Y67516D01*
Y67521D01*
Y67528D01*
Y67541D01*
X17374Y67569D01*
X17367Y67605D01*
X17359Y67646D01*
X17346Y67686D01*
X17328Y67725D01*
X17303Y67758D01*
X17300Y67760D01*
X17290Y67771D01*
X17272Y67783D01*
X17252Y67801D01*
X17224Y67817D01*
X17191Y67829D01*
X17153Y67839D01*
X17112Y67842D01*
X17096D01*
X17086Y67839D01*
X17061Y67834D01*
X17025Y67827D01*
X16984Y67811D01*
X16941Y67788D01*
X16918Y67773D01*
X16895Y67755D01*
X16872Y67735D01*
X16849Y67712D01*
X16576Y67750D01*
X16750Y68671D01*
X17645D01*
Y68355D01*
D02*
G37*
G36*
X25525Y50662D02*
Y50660D01*
X25520Y50655D01*
X25515Y50647D01*
X25510Y50634D01*
X25492Y50604D01*
X25469Y50568D01*
X25444Y50527D01*
X25418Y50486D01*
X25393Y50451D01*
X25370Y50420D01*
X25367Y50418D01*
X25360Y50407D01*
X25349Y50395D01*
X25334Y50379D01*
X25314Y50362D01*
X25291Y50344D01*
X25265Y50326D01*
X25237Y50308D01*
X25235Y50305D01*
X25225Y50303D01*
X25207Y50295D01*
X25184Y50288D01*
X25156Y50280D01*
X25125Y50275D01*
X25089Y50270D01*
X25049Y50267D01*
X25028D01*
X25008Y50270D01*
X24977Y50272D01*
X24941Y50277D01*
X24898Y50285D01*
X24852Y50295D01*
X24804Y50308D01*
X24832Y50566D01*
X24834D01*
X24842Y50563D01*
X24855Y50560D01*
X24870Y50555D01*
X24888Y50553D01*
X24908Y50548D01*
X24952Y50545D01*
X24959D01*
X24967Y50548D01*
X24977Y50550D01*
X25008Y50558D01*
X25026Y50566D01*
X25043Y50576D01*
X25064Y50589D01*
X25084Y50604D01*
X25107Y50624D01*
X25130Y50647D01*
X25151Y50675D01*
X25174Y50708D01*
X25194Y50744D01*
X25214Y50787D01*
X24992Y52068D01*
X25337D01*
X25421Y51427D01*
Y51425D01*
X25423Y51417D01*
Y51405D01*
X25426Y51387D01*
X25429Y51369D01*
X25431Y51346D01*
X25439Y51292D01*
X25444Y51236D01*
X25451Y51180D01*
X25457Y51129D01*
X25459Y51106D01*
Y51088D01*
X25462Y51093D01*
X25467Y51106D01*
X25472Y51119D01*
X25480Y51137D01*
X25487Y51160D01*
X25497Y51183D01*
X25508Y51211D01*
X25536Y51272D01*
X25566Y51341D01*
X25605Y51417D01*
X25645Y51496D01*
X25951Y52068D01*
X26316D01*
X25525Y50662D01*
D02*
G37*
G36*
X22131Y41658D02*
X22455Y41043D01*
X22088D01*
X21902Y41398D01*
X21585Y41043D01*
X21162D01*
X21748Y41696D01*
X21425Y42323D01*
X21792D01*
X21978Y41959D01*
X22304Y42323D01*
X22725D01*
X22131Y41658D01*
D02*
G37*
G36*
X200290Y103732D02*
X200318Y103730D01*
X200352Y103727D01*
X200387Y103725D01*
X200426Y103717D01*
X200507Y103702D01*
X200591Y103676D01*
X200635Y103661D01*
X200675Y103643D01*
X200714Y103622D01*
X200749Y103597D01*
X200752Y103595D01*
X200757Y103592D01*
X200767Y103582D01*
X200780Y103571D01*
X200795Y103559D01*
X200811Y103541D01*
X200828Y103521D01*
X200849Y103498D01*
X200869Y103472D01*
X200890Y103444D01*
X200910Y103413D01*
X200928Y103378D01*
X200948Y103342D01*
X200964Y103304D01*
X200979Y103260D01*
X200989Y103217D01*
X200635Y103151D01*
Y103153D01*
X200632Y103156D01*
X200627Y103171D01*
X200617Y103194D01*
X200602Y103225D01*
X200584Y103258D01*
X200558Y103291D01*
X200528Y103324D01*
X200492Y103355D01*
X200487Y103357D01*
X200474Y103367D01*
X200451Y103380D01*
X200423Y103393D01*
X200385Y103408D01*
X200341Y103419D01*
X200293Y103429D01*
X200237Y103431D01*
X200214D01*
X200199Y103429D01*
X200178Y103426D01*
X200155Y103424D01*
X200130Y103419D01*
X200102Y103413D01*
X200043Y103396D01*
X200012Y103383D01*
X199982Y103367D01*
X199951Y103350D01*
X199921Y103332D01*
X199893Y103306D01*
X199864Y103281D01*
X199862Y103278D01*
X199859Y103273D01*
X199852Y103266D01*
X199844Y103253D01*
X199834Y103237D01*
X199821Y103220D01*
X199808Y103197D01*
X199798Y103171D01*
X199785Y103141D01*
X199773Y103107D01*
X199760Y103072D01*
X199750Y103033D01*
X199742Y102990D01*
X199734Y102942D01*
X199732Y102893D01*
X199729Y102840D01*
Y102837D01*
Y102827D01*
Y102809D01*
X199732Y102789D01*
X199734Y102761D01*
X199737Y102733D01*
X199742Y102697D01*
X199747Y102661D01*
X199762Y102585D01*
X199788Y102506D01*
X199803Y102467D01*
X199821Y102432D01*
X199844Y102396D01*
X199867Y102365D01*
X199870Y102363D01*
X199875Y102358D01*
X199882Y102350D01*
X199893Y102340D01*
X199908Y102330D01*
X199923Y102314D01*
X199944Y102302D01*
X199967Y102286D01*
X199992Y102271D01*
X200017Y102258D01*
X200081Y102233D01*
X200117Y102223D01*
X200153Y102215D01*
X200194Y102210D01*
X200234Y102207D01*
X200255D01*
X200275Y102210D01*
X200306Y102212D01*
X200339Y102217D01*
X200377Y102225D01*
X200418Y102235D01*
X200459Y102251D01*
X200461D01*
X200464Y102253D01*
X200477Y102258D01*
X200500Y102269D01*
X200525Y102281D01*
X200556Y102296D01*
X200589Y102314D01*
X200622Y102335D01*
X200653Y102358D01*
Y102585D01*
X200244D01*
Y102883D01*
X201012D01*
Y102174D01*
X201007Y102169D01*
X200999Y102164D01*
X200992Y102156D01*
X200979Y102146D01*
X200966Y102136D01*
X200930Y102110D01*
X200882Y102082D01*
X200826Y102049D01*
X200762Y102016D01*
X200686Y101985D01*
X200683D01*
X200675Y101983D01*
X200665Y101978D01*
X200650Y101973D01*
X200629Y101968D01*
X200607Y101960D01*
X200581Y101952D01*
X200553Y101945D01*
X200489Y101929D01*
X200415Y101917D01*
X200339Y101906D01*
X200257Y101904D01*
X200229D01*
X200211Y101906D01*
X200186D01*
X200158Y101909D01*
X200127Y101914D01*
X200092Y101919D01*
X200017Y101932D01*
X199936Y101952D01*
X199852Y101980D01*
X199813Y101998D01*
X199773Y102019D01*
X199770Y102021D01*
X199765Y102024D01*
X199752Y102031D01*
X199740Y102041D01*
X199722Y102052D01*
X199704Y102067D01*
X199681Y102085D01*
X199658Y102105D01*
X199607Y102151D01*
X199556Y102210D01*
X199507Y102276D01*
X199464Y102353D01*
Y102355D01*
X199459Y102363D01*
X199454Y102376D01*
X199449Y102391D01*
X199441Y102411D01*
X199431Y102434D01*
X199423Y102462D01*
X199413Y102493D01*
X199403Y102526D01*
X199395Y102564D01*
X199378Y102643D01*
X199367Y102730D01*
X199362Y102824D01*
Y102827D01*
Y102837D01*
Y102852D01*
X199365Y102870D01*
Y102896D01*
X199367Y102924D01*
X199372Y102954D01*
X199378Y102990D01*
X199390Y103064D01*
X199411Y103148D01*
X199439Y103232D01*
X199457Y103273D01*
X199477Y103314D01*
X199479Y103316D01*
X199482Y103324D01*
X199490Y103334D01*
X199497Y103350D01*
X199510Y103367D01*
X199525Y103388D01*
X199543Y103411D01*
X199561Y103436D01*
X199584Y103462D01*
X199609Y103490D01*
X199638Y103518D01*
X199668Y103546D01*
X199701Y103571D01*
X199734Y103600D01*
X199813Y103646D01*
X199816D01*
X199821Y103651D01*
X199831Y103653D01*
X199844Y103661D01*
X199862Y103666D01*
X199880Y103674D01*
X199905Y103681D01*
X199931Y103691D01*
X199959Y103699D01*
X199992Y103707D01*
X200028Y103714D01*
X200063Y103722D01*
X200145Y103732D01*
X200237Y103735D01*
X200267D01*
X200290Y103732D01*
D02*
G37*
G36*
X229956Y166724D02*
X229984Y166722D01*
X230017Y166719D01*
X230053Y166717D01*
X230091Y166709D01*
X230172Y166694D01*
X230257Y166668D01*
X230300Y166653D01*
X230341Y166635D01*
X230379Y166615D01*
X230415Y166589D01*
X230417Y166587D01*
X230422Y166584D01*
X230433Y166574D01*
X230445Y166564D01*
X230461Y166551D01*
X230476Y166533D01*
X230494Y166513D01*
X230514Y166490D01*
X230535Y166464D01*
X230555Y166436D01*
X230575Y166406D01*
X230593Y166370D01*
X230614Y166334D01*
X230629Y166296D01*
X230644Y166253D01*
X230654Y166209D01*
X230300Y166143D01*
Y166146D01*
X230297Y166148D01*
X230292Y166163D01*
X230282Y166186D01*
X230267Y166217D01*
X230249Y166250D01*
X230223Y166283D01*
X230193Y166316D01*
X230157Y166347D01*
X230152Y166349D01*
X230139Y166360D01*
X230116Y166372D01*
X230088Y166385D01*
X230050Y166401D01*
X230007Y166411D01*
X229958Y166421D01*
X229902Y166423D01*
X229879D01*
X229864Y166421D01*
X229844Y166418D01*
X229821Y166416D01*
X229795Y166411D01*
X229767Y166406D01*
X229708Y166388D01*
X229678Y166375D01*
X229647Y166360D01*
X229617Y166342D01*
X229586Y166324D01*
X229558Y166298D01*
X229530Y166273D01*
X229527Y166270D01*
X229525Y166265D01*
X229517Y166258D01*
X229509Y166245D01*
X229499Y166230D01*
X229486Y166212D01*
X229474Y166189D01*
X229464Y166163D01*
X229451Y166133D01*
X229438Y166100D01*
X229425Y166064D01*
X229415Y166026D01*
X229408Y165982D01*
X229400Y165934D01*
X229397Y165885D01*
X229395Y165832D01*
Y165829D01*
Y165819D01*
Y165801D01*
X229397Y165781D01*
X229400Y165753D01*
X229402Y165725D01*
X229408Y165689D01*
X229413Y165653D01*
X229428Y165577D01*
X229453Y165498D01*
X229469Y165460D01*
X229486Y165424D01*
X229509Y165388D01*
X229533Y165357D01*
X229535Y165355D01*
X229540Y165350D01*
X229548Y165342D01*
X229558Y165332D01*
X229573Y165322D01*
X229589Y165306D01*
X229609Y165294D01*
X229632Y165278D01*
X229657Y165263D01*
X229683Y165250D01*
X229747Y165225D01*
X229782Y165215D01*
X229818Y165207D01*
X229859Y165202D01*
X229900Y165199D01*
X229920D01*
X229941Y165202D01*
X229971Y165205D01*
X230004Y165210D01*
X230043Y165217D01*
X230083Y165227D01*
X230124Y165243D01*
X230127D01*
X230129Y165245D01*
X230142Y165250D01*
X230165Y165261D01*
X230190Y165273D01*
X230221Y165289D01*
X230254Y165306D01*
X230287Y165327D01*
X230318Y165350D01*
Y165577D01*
X229910D01*
Y165875D01*
X230677D01*
Y165166D01*
X230672Y165161D01*
X230665Y165156D01*
X230657Y165148D01*
X230644Y165138D01*
X230631Y165128D01*
X230596Y165103D01*
X230547Y165075D01*
X230491Y165041D01*
X230428Y165008D01*
X230351Y164978D01*
X230348D01*
X230341Y164975D01*
X230331Y164970D01*
X230315Y164965D01*
X230295Y164960D01*
X230272Y164952D01*
X230246Y164944D01*
X230218Y164937D01*
X230155Y164921D01*
X230081Y164909D01*
X230004Y164899D01*
X229923Y164896D01*
X229894D01*
X229877Y164899D01*
X229851D01*
X229823Y164901D01*
X229792Y164906D01*
X229757Y164911D01*
X229683Y164924D01*
X229601Y164944D01*
X229517Y164972D01*
X229479Y164990D01*
X229438Y165011D01*
X229436Y165013D01*
X229431Y165016D01*
X229418Y165024D01*
X229405Y165034D01*
X229387Y165044D01*
X229369Y165059D01*
X229346Y165077D01*
X229323Y165097D01*
X229272Y165143D01*
X229221Y165202D01*
X229173Y165268D01*
X229130Y165345D01*
Y165347D01*
X229124Y165355D01*
X229119Y165368D01*
X229114Y165383D01*
X229107Y165403D01*
X229096Y165426D01*
X229089Y165454D01*
X229079Y165485D01*
X229068Y165518D01*
X229061Y165556D01*
X229043Y165636D01*
X229033Y165722D01*
X229028Y165816D01*
Y165819D01*
Y165829D01*
Y165845D01*
X229030Y165862D01*
Y165888D01*
X229033Y165916D01*
X229038Y165947D01*
X229043Y165982D01*
X229056Y166056D01*
X229076Y166140D01*
X229104Y166225D01*
X229122Y166265D01*
X229142Y166306D01*
X229145Y166309D01*
X229147Y166316D01*
X229155Y166326D01*
X229163Y166342D01*
X229175Y166360D01*
X229191Y166380D01*
X229209Y166403D01*
X229226Y166428D01*
X229249Y166454D01*
X229275Y166482D01*
X229303Y166510D01*
X229334Y166538D01*
X229367Y166564D01*
X229400Y166592D01*
X229479Y166638D01*
X229481D01*
X229486Y166643D01*
X229497Y166645D01*
X229509Y166653D01*
X229527Y166658D01*
X229545Y166666D01*
X229571Y166673D01*
X229596Y166683D01*
X229624Y166691D01*
X229657Y166699D01*
X229693Y166707D01*
X229729Y166714D01*
X229810Y166724D01*
X229902Y166727D01*
X229933D01*
X229956Y166724D01*
D02*
G37*
G36*
X199417Y164929D02*
X199032D01*
X198400Y166694D01*
X198785D01*
X199234Y165388D01*
X199665Y166694D01*
X200045D01*
X199417Y164929D01*
D02*
G37*
G36*
X198247Y166355D02*
X197607D01*
X197553Y166054D01*
X197556D01*
X197558Y166056D01*
X197574Y166064D01*
X197597Y166071D01*
X197625Y166084D01*
X197661Y166095D01*
X197699Y166102D01*
X197742Y166110D01*
X197785Y166112D01*
X197808D01*
X197824Y166110D01*
X197842Y166107D01*
X197864Y166105D01*
X197890Y166100D01*
X197918Y166092D01*
X197977Y166071D01*
X198010Y166059D01*
X198040Y166043D01*
X198074Y166023D01*
X198107Y166000D01*
X198137Y165975D01*
X198168Y165947D01*
X198170Y165944D01*
X198176Y165939D01*
X198183Y165929D01*
X198194Y165916D01*
X198204Y165901D01*
X198219Y165880D01*
X198232Y165857D01*
X198247Y165832D01*
X198262Y165804D01*
X198275Y165771D01*
X198290Y165735D01*
X198301Y165699D01*
X198311Y165658D01*
X198318Y165615D01*
X198324Y165569D01*
X198326Y165521D01*
Y165518D01*
Y165510D01*
Y165500D01*
X198324Y165485D01*
Y165465D01*
X198318Y165442D01*
X198316Y165416D01*
X198311Y165391D01*
X198295Y165330D01*
X198273Y165263D01*
X198257Y165227D01*
X198242Y165194D01*
X198222Y165161D01*
X198199Y165128D01*
X198196Y165126D01*
X198191Y165118D01*
X198181Y165108D01*
X198168Y165092D01*
X198150Y165075D01*
X198127Y165054D01*
X198102Y165034D01*
X198074Y165013D01*
X198040Y164990D01*
X198005Y164970D01*
X197967Y164950D01*
X197923Y164932D01*
X197877Y164916D01*
X197829Y164906D01*
X197775Y164899D01*
X197719Y164896D01*
X197696D01*
X197678Y164899D01*
X197658Y164901D01*
X197633Y164904D01*
X197607Y164906D01*
X197576Y164911D01*
X197515Y164927D01*
X197446Y164952D01*
X197413Y164965D01*
X197380Y164983D01*
X197349Y165003D01*
X197319Y165026D01*
X197316Y165029D01*
X197311Y165031D01*
X197303Y165039D01*
X197293Y165049D01*
X197283Y165064D01*
X197268Y165080D01*
X197255Y165097D01*
X197240Y165118D01*
X197222Y165143D01*
X197207Y165169D01*
X197179Y165230D01*
X197153Y165299D01*
X197145Y165337D01*
X197138Y165378D01*
X197474Y165414D01*
Y165409D01*
X197477Y165396D01*
X197482Y165373D01*
X197490Y165347D01*
X197500Y165319D01*
X197515Y165289D01*
X197536Y165261D01*
X197558Y165233D01*
X197561Y165230D01*
X197571Y165222D01*
X197587Y165212D01*
X197607Y165199D01*
X197630Y165187D01*
X197658Y165176D01*
X197691Y165169D01*
X197724Y165166D01*
X197729D01*
X197742Y165169D01*
X197763Y165171D01*
X197788Y165176D01*
X197816Y165187D01*
X197847Y165202D01*
X197877Y165225D01*
X197905Y165253D01*
X197908Y165258D01*
X197918Y165268D01*
X197928Y165289D01*
X197944Y165319D01*
X197956Y165355D01*
X197969Y165398D01*
X197977Y165452D01*
X197979Y165513D01*
Y165516D01*
Y165521D01*
Y165528D01*
Y165541D01*
X197977Y165569D01*
X197969Y165605D01*
X197961Y165646D01*
X197949Y165687D01*
X197931Y165725D01*
X197905Y165758D01*
X197903Y165760D01*
X197893Y165771D01*
X197875Y165783D01*
X197854Y165801D01*
X197826Y165816D01*
X197793Y165829D01*
X197755Y165840D01*
X197714Y165842D01*
X197699D01*
X197689Y165840D01*
X197663Y165834D01*
X197627Y165827D01*
X197587Y165811D01*
X197543Y165788D01*
X197520Y165773D01*
X197497Y165755D01*
X197474Y165735D01*
X197451Y165712D01*
X197179Y165750D01*
X197352Y166671D01*
X198247D01*
Y166355D01*
D02*
G37*
G36*
X206128Y148662D02*
Y148660D01*
X206123Y148655D01*
X206118Y148647D01*
X206113Y148634D01*
X206095Y148604D01*
X206072Y148568D01*
X206046Y148527D01*
X206021Y148486D01*
X205995Y148451D01*
X205972Y148420D01*
X205970Y148418D01*
X205962Y148407D01*
X205952Y148395D01*
X205937Y148379D01*
X205916Y148362D01*
X205893Y148344D01*
X205868Y148326D01*
X205840Y148308D01*
X205837Y148305D01*
X205827Y148303D01*
X205809Y148295D01*
X205786Y148288D01*
X205758Y148280D01*
X205727Y148275D01*
X205692Y148270D01*
X205651Y148267D01*
X205630D01*
X205610Y148270D01*
X205579Y148272D01*
X205544Y148277D01*
X205501Y148285D01*
X205455Y148295D01*
X205406Y148308D01*
X205434Y148566D01*
X205437D01*
X205444Y148563D01*
X205457Y148560D01*
X205472Y148555D01*
X205490Y148553D01*
X205511Y148548D01*
X205554Y148545D01*
X205562D01*
X205569Y148548D01*
X205579Y148550D01*
X205610Y148558D01*
X205628Y148566D01*
X205646Y148576D01*
X205666Y148589D01*
X205687Y148604D01*
X205710Y148624D01*
X205732Y148647D01*
X205753Y148675D01*
X205776Y148708D01*
X205796Y148744D01*
X205817Y148787D01*
X205595Y150067D01*
X205939D01*
X206023Y149427D01*
Y149425D01*
X206026Y149417D01*
Y149405D01*
X206028Y149387D01*
X206031Y149369D01*
X206033Y149346D01*
X206041Y149292D01*
X206046Y149236D01*
X206054Y149180D01*
X206059Y149129D01*
X206062Y149106D01*
Y149088D01*
X206064Y149093D01*
X206069Y149106D01*
X206074Y149119D01*
X206082Y149137D01*
X206089Y149160D01*
X206100Y149183D01*
X206110Y149211D01*
X206138Y149272D01*
X206169Y149341D01*
X206207Y149417D01*
X206248Y149496D01*
X206554Y150067D01*
X206918D01*
X206128Y148662D01*
D02*
G37*
G36*
X202733Y139658D02*
X203057Y139043D01*
X202690D01*
X202504Y139398D01*
X202188Y139043D01*
X201764D01*
X202351Y139696D01*
X202027Y140323D01*
X202394D01*
X202580Y139959D01*
X202907Y140323D01*
X203327D01*
X202733Y139658D01*
D02*
G37*
G36*
X109739Y103732D02*
X109767Y103730D01*
X109800Y103727D01*
X109836Y103725D01*
X109874Y103717D01*
X109956Y103702D01*
X110040Y103676D01*
X110083Y103661D01*
X110124Y103643D01*
X110162Y103622D01*
X110198Y103597D01*
X110201Y103595D01*
X110206Y103592D01*
X110216Y103582D01*
X110229Y103571D01*
X110244Y103559D01*
X110259Y103541D01*
X110277Y103521D01*
X110298Y103498D01*
X110318Y103472D01*
X110338Y103444D01*
X110359Y103413D01*
X110377Y103378D01*
X110397Y103342D01*
X110412Y103304D01*
X110428Y103260D01*
X110438Y103217D01*
X110083Y103151D01*
Y103153D01*
X110081Y103156D01*
X110076Y103171D01*
X110066Y103194D01*
X110050Y103225D01*
X110032Y103258D01*
X110007Y103291D01*
X109976Y103324D01*
X109941Y103355D01*
X109936Y103357D01*
X109923Y103367D01*
X109900Y103380D01*
X109872Y103393D01*
X109834Y103408D01*
X109790Y103419D01*
X109742Y103429D01*
X109686Y103431D01*
X109663D01*
X109647Y103429D01*
X109627Y103426D01*
X109604Y103424D01*
X109579Y103419D01*
X109550Y103413D01*
X109492Y103396D01*
X109461Y103383D01*
X109431Y103367D01*
X109400Y103350D01*
X109370Y103332D01*
X109341Y103306D01*
X109313Y103281D01*
X109311Y103278D01*
X109308Y103273D01*
X109301Y103266D01*
X109293Y103253D01*
X109283Y103237D01*
X109270Y103220D01*
X109257Y103197D01*
X109247Y103171D01*
X109234Y103141D01*
X109222Y103107D01*
X109209Y103072D01*
X109199Y103033D01*
X109191Y102990D01*
X109183Y102942D01*
X109181Y102893D01*
X109178Y102840D01*
Y102837D01*
Y102827D01*
Y102809D01*
X109181Y102789D01*
X109183Y102761D01*
X109186Y102733D01*
X109191Y102697D01*
X109196Y102661D01*
X109211Y102585D01*
X109237Y102506D01*
X109252Y102467D01*
X109270Y102432D01*
X109293Y102396D01*
X109316Y102365D01*
X109318Y102363D01*
X109324Y102358D01*
X109331Y102350D01*
X109341Y102340D01*
X109357Y102330D01*
X109372Y102314D01*
X109392Y102302D01*
X109415Y102286D01*
X109441Y102271D01*
X109466Y102258D01*
X109530Y102233D01*
X109566Y102223D01*
X109601Y102215D01*
X109642Y102210D01*
X109683Y102207D01*
X109704D01*
X109724Y102210D01*
X109755Y102212D01*
X109788Y102217D01*
X109826Y102225D01*
X109867Y102235D01*
X109907Y102251D01*
X109910D01*
X109913Y102253D01*
X109925Y102258D01*
X109948Y102269D01*
X109974Y102281D01*
X110004Y102296D01*
X110038Y102314D01*
X110071Y102335D01*
X110101Y102358D01*
Y102585D01*
X109693D01*
Y102883D01*
X110461D01*
Y102174D01*
X110456Y102169D01*
X110448Y102164D01*
X110441Y102156D01*
X110428Y102146D01*
X110415Y102136D01*
X110379Y102110D01*
X110331Y102082D01*
X110275Y102049D01*
X110211Y102016D01*
X110134Y101985D01*
X110132D01*
X110124Y101983D01*
X110114Y101978D01*
X110099Y101973D01*
X110078Y101968D01*
X110055Y101960D01*
X110030Y101952D01*
X110002Y101945D01*
X109938Y101929D01*
X109864Y101917D01*
X109788Y101906D01*
X109706Y101904D01*
X109678D01*
X109660Y101906D01*
X109635D01*
X109607Y101909D01*
X109576Y101914D01*
X109540Y101919D01*
X109466Y101932D01*
X109385Y101952D01*
X109301Y101980D01*
X109262Y101998D01*
X109222Y102019D01*
X109219Y102021D01*
X109214Y102024D01*
X109201Y102031D01*
X109188Y102041D01*
X109171Y102052D01*
X109153Y102067D01*
X109130Y102085D01*
X109107Y102105D01*
X109056Y102151D01*
X109005Y102210D01*
X108956Y102276D01*
X108913Y102353D01*
Y102355D01*
X108908Y102363D01*
X108903Y102376D01*
X108898Y102391D01*
X108890Y102411D01*
X108880Y102434D01*
X108872Y102462D01*
X108862Y102493D01*
X108852Y102526D01*
X108844Y102564D01*
X108826Y102643D01*
X108816Y102730D01*
X108811Y102824D01*
Y102827D01*
Y102837D01*
Y102852D01*
X108814Y102870D01*
Y102896D01*
X108816Y102924D01*
X108821Y102954D01*
X108826Y102990D01*
X108839Y103064D01*
X108860Y103148D01*
X108888Y103232D01*
X108905Y103273D01*
X108926Y103314D01*
X108928Y103316D01*
X108931Y103324D01*
X108939Y103334D01*
X108946Y103350D01*
X108959Y103367D01*
X108974Y103388D01*
X108992Y103411D01*
X109010Y103436D01*
X109033Y103462D01*
X109058Y103490D01*
X109086Y103518D01*
X109117Y103546D01*
X109150Y103571D01*
X109183Y103600D01*
X109262Y103646D01*
X109265D01*
X109270Y103651D01*
X109280Y103653D01*
X109293Y103661D01*
X109311Y103666D01*
X109329Y103674D01*
X109354Y103681D01*
X109380Y103691D01*
X109408Y103699D01*
X109441Y103707D01*
X109477Y103714D01*
X109512Y103722D01*
X109594Y103732D01*
X109686Y103735D01*
X109716D01*
X109739Y103732D01*
D02*
G37*
G36*
X139405Y166724D02*
X139433Y166722D01*
X139466Y166719D01*
X139502Y166717D01*
X139540Y166709D01*
X139621Y166694D01*
X139706Y166668D01*
X139749Y166653D01*
X139790Y166635D01*
X139828Y166615D01*
X139864Y166589D01*
X139866Y166587D01*
X139871Y166584D01*
X139881Y166574D01*
X139894Y166564D01*
X139910Y166551D01*
X139925Y166533D01*
X139943Y166513D01*
X139963Y166490D01*
X139983Y166464D01*
X140004Y166436D01*
X140024Y166406D01*
X140042Y166370D01*
X140062Y166334D01*
X140078Y166296D01*
X140093Y166253D01*
X140103Y166209D01*
X139749Y166143D01*
Y166146D01*
X139746Y166148D01*
X139741Y166163D01*
X139731Y166186D01*
X139716Y166217D01*
X139698Y166250D01*
X139672Y166283D01*
X139642Y166316D01*
X139606Y166347D01*
X139601Y166349D01*
X139588Y166360D01*
X139565Y166372D01*
X139537Y166385D01*
X139499Y166401D01*
X139456Y166411D01*
X139407Y166421D01*
X139351Y166423D01*
X139328D01*
X139313Y166421D01*
X139292Y166418D01*
X139269Y166416D01*
X139244Y166411D01*
X139216Y166406D01*
X139157Y166388D01*
X139127Y166375D01*
X139096Y166360D01*
X139065Y166342D01*
X139035Y166324D01*
X139007Y166298D01*
X138979Y166273D01*
X138976Y166270D01*
X138974Y166265D01*
X138966Y166258D01*
X138958Y166245D01*
X138948Y166230D01*
X138935Y166212D01*
X138923Y166189D01*
X138912Y166163D01*
X138900Y166133D01*
X138887Y166100D01*
X138874Y166064D01*
X138864Y166026D01*
X138856Y165982D01*
X138849Y165934D01*
X138846Y165885D01*
X138844Y165832D01*
Y165829D01*
Y165819D01*
Y165801D01*
X138846Y165781D01*
X138849Y165753D01*
X138851Y165725D01*
X138856Y165689D01*
X138861Y165653D01*
X138877Y165577D01*
X138902Y165498D01*
X138918Y165460D01*
X138935Y165424D01*
X138958Y165388D01*
X138981Y165357D01*
X138984Y165355D01*
X138989Y165350D01*
X138997Y165342D01*
X139007Y165332D01*
X139022Y165322D01*
X139037Y165306D01*
X139058Y165294D01*
X139081Y165278D01*
X139106Y165263D01*
X139132Y165250D01*
X139196Y165225D01*
X139231Y165215D01*
X139267Y165207D01*
X139308Y165202D01*
X139348Y165199D01*
X139369D01*
X139389Y165202D01*
X139420Y165205D01*
X139453Y165210D01*
X139491Y165217D01*
X139532Y165227D01*
X139573Y165243D01*
X139575D01*
X139578Y165245D01*
X139591Y165250D01*
X139614Y165261D01*
X139639Y165273D01*
X139670Y165289D01*
X139703Y165306D01*
X139736Y165327D01*
X139767Y165350D01*
Y165577D01*
X139359D01*
Y165875D01*
X140126D01*
Y165166D01*
X140121Y165161D01*
X140113Y165156D01*
X140106Y165148D01*
X140093Y165138D01*
X140080Y165128D01*
X140045Y165103D01*
X139996Y165075D01*
X139940Y165041D01*
X139876Y165008D01*
X139800Y164978D01*
X139797D01*
X139790Y164975D01*
X139779Y164970D01*
X139764Y164965D01*
X139744Y164960D01*
X139721Y164952D01*
X139695Y164944D01*
X139667Y164937D01*
X139603Y164921D01*
X139530Y164909D01*
X139453Y164899D01*
X139371Y164896D01*
X139343D01*
X139325Y164899D01*
X139300D01*
X139272Y164901D01*
X139241Y164906D01*
X139206Y164911D01*
X139132Y164924D01*
X139050Y164944D01*
X138966Y164972D01*
X138928Y164990D01*
X138887Y165011D01*
X138884Y165013D01*
X138879Y165016D01*
X138866Y165024D01*
X138854Y165034D01*
X138836Y165044D01*
X138818Y165059D01*
X138795Y165077D01*
X138772Y165097D01*
X138721Y165143D01*
X138670Y165202D01*
X138622Y165268D01*
X138578Y165345D01*
Y165347D01*
X138573Y165355D01*
X138568Y165368D01*
X138563Y165383D01*
X138555Y165403D01*
X138545Y165426D01*
X138538Y165454D01*
X138527Y165485D01*
X138517Y165518D01*
X138510Y165556D01*
X138492Y165636D01*
X138481Y165722D01*
X138476Y165816D01*
Y165819D01*
Y165829D01*
Y165845D01*
X138479Y165862D01*
Y165888D01*
X138481Y165916D01*
X138487Y165947D01*
X138492Y165982D01*
X138504Y166056D01*
X138525Y166140D01*
X138553Y166225D01*
X138571Y166265D01*
X138591Y166306D01*
X138594Y166309D01*
X138596Y166316D01*
X138604Y166326D01*
X138611Y166342D01*
X138624Y166360D01*
X138640Y166380D01*
X138657Y166403D01*
X138675Y166428D01*
X138698Y166454D01*
X138724Y166482D01*
X138752Y166510D01*
X138782Y166538D01*
X138815Y166564D01*
X138849Y166592D01*
X138928Y166638D01*
X138930D01*
X138935Y166643D01*
X138946Y166645D01*
X138958Y166653D01*
X138976Y166658D01*
X138994Y166666D01*
X139020Y166673D01*
X139045Y166683D01*
X139073Y166691D01*
X139106Y166699D01*
X139142Y166707D01*
X139178Y166714D01*
X139259Y166724D01*
X139351Y166727D01*
X139382D01*
X139405Y166724D01*
D02*
G37*
G36*
X108866Y164929D02*
X108481D01*
X107849Y166694D01*
X108234D01*
X108683Y165388D01*
X109114Y166694D01*
X109494D01*
X108866Y164929D01*
D02*
G37*
G36*
X107696Y166355D02*
X107056D01*
X107002Y166054D01*
X107005D01*
X107007Y166056D01*
X107023Y166064D01*
X107046Y166071D01*
X107074Y166084D01*
X107109Y166095D01*
X107148Y166102D01*
X107191Y166110D01*
X107234Y166112D01*
X107257D01*
X107273Y166110D01*
X107290Y166107D01*
X107313Y166105D01*
X107339Y166100D01*
X107367Y166092D01*
X107425Y166071D01*
X107459Y166059D01*
X107489Y166043D01*
X107522Y166023D01*
X107556Y166000D01*
X107586Y165975D01*
X107617Y165947D01*
X107619Y165944D01*
X107624Y165939D01*
X107632Y165929D01*
X107642Y165916D01*
X107652Y165901D01*
X107668Y165880D01*
X107680Y165857D01*
X107696Y165832D01*
X107711Y165804D01*
X107724Y165771D01*
X107739Y165735D01*
X107749Y165699D01*
X107760Y165658D01*
X107767Y165615D01*
X107772Y165569D01*
X107775Y165521D01*
Y165518D01*
Y165510D01*
Y165500D01*
X107772Y165485D01*
Y165465D01*
X107767Y165442D01*
X107765Y165416D01*
X107760Y165391D01*
X107744Y165330D01*
X107721Y165263D01*
X107706Y165227D01*
X107691Y165194D01*
X107670Y165161D01*
X107647Y165128D01*
X107645Y165126D01*
X107640Y165118D01*
X107630Y165108D01*
X107617Y165092D01*
X107599Y165075D01*
X107576Y165054D01*
X107551Y165034D01*
X107522Y165013D01*
X107489Y164990D01*
X107454Y164970D01*
X107415Y164950D01*
X107372Y164932D01*
X107326Y164916D01*
X107278Y164906D01*
X107224Y164899D01*
X107168Y164896D01*
X107145D01*
X107127Y164899D01*
X107107Y164901D01*
X107081Y164904D01*
X107056Y164906D01*
X107025Y164911D01*
X106964Y164927D01*
X106895Y164952D01*
X106862Y164965D01*
X106829Y164983D01*
X106798Y165003D01*
X106768Y165026D01*
X106765Y165029D01*
X106760Y165031D01*
X106752Y165039D01*
X106742Y165049D01*
X106732Y165064D01*
X106717Y165080D01*
X106704Y165097D01*
X106689Y165118D01*
X106671Y165143D01*
X106655Y165169D01*
X106627Y165230D01*
X106602Y165299D01*
X106594Y165337D01*
X106587Y165378D01*
X106923Y165414D01*
Y165409D01*
X106926Y165396D01*
X106931Y165373D01*
X106939Y165347D01*
X106949Y165319D01*
X106964Y165289D01*
X106984Y165261D01*
X107007Y165233D01*
X107010Y165230D01*
X107020Y165222D01*
X107035Y165212D01*
X107056Y165199D01*
X107079Y165187D01*
X107107Y165176D01*
X107140Y165169D01*
X107173Y165166D01*
X107178D01*
X107191Y165169D01*
X107211Y165171D01*
X107237Y165176D01*
X107265Y165187D01*
X107296Y165202D01*
X107326Y165225D01*
X107354Y165253D01*
X107357Y165258D01*
X107367Y165268D01*
X107377Y165289D01*
X107392Y165319D01*
X107405Y165355D01*
X107418Y165398D01*
X107425Y165452D01*
X107428Y165513D01*
Y165516D01*
Y165521D01*
Y165528D01*
Y165541D01*
X107425Y165569D01*
X107418Y165605D01*
X107410Y165646D01*
X107397Y165687D01*
X107380Y165725D01*
X107354Y165758D01*
X107352Y165760D01*
X107341Y165771D01*
X107324Y165783D01*
X107303Y165801D01*
X107275Y165816D01*
X107242Y165829D01*
X107204Y165840D01*
X107163Y165842D01*
X107148D01*
X107137Y165840D01*
X107112Y165834D01*
X107076Y165827D01*
X107035Y165811D01*
X106992Y165788D01*
X106969Y165773D01*
X106946Y165755D01*
X106923Y165735D01*
X106900Y165712D01*
X106627Y165750D01*
X106801Y166671D01*
X107696D01*
Y166355D01*
D02*
G37*
G36*
X115577Y148662D02*
Y148660D01*
X115571Y148655D01*
X115566Y148647D01*
X115561Y148634D01*
X115543Y148604D01*
X115521Y148568D01*
X115495Y148527D01*
X115470Y148486D01*
X115444Y148451D01*
X115421Y148420D01*
X115419Y148418D01*
X115411Y148407D01*
X115401Y148395D01*
X115385Y148379D01*
X115365Y148362D01*
X115342Y148344D01*
X115316Y148326D01*
X115288Y148308D01*
X115286Y148305D01*
X115276Y148303D01*
X115258Y148295D01*
X115235Y148288D01*
X115207Y148280D01*
X115176Y148275D01*
X115140Y148270D01*
X115100Y148267D01*
X115079D01*
X115059Y148270D01*
X115028Y148272D01*
X114993Y148277D01*
X114949Y148285D01*
X114903Y148295D01*
X114855Y148308D01*
X114883Y148566D01*
X114885D01*
X114893Y148563D01*
X114906Y148560D01*
X114921Y148555D01*
X114939Y148553D01*
X114960Y148548D01*
X115003Y148545D01*
X115010D01*
X115018Y148548D01*
X115028Y148550D01*
X115059Y148558D01*
X115077Y148566D01*
X115095Y148576D01*
X115115Y148589D01*
X115135Y148604D01*
X115158Y148624D01*
X115181Y148647D01*
X115202Y148675D01*
X115225Y148708D01*
X115245Y148744D01*
X115266Y148787D01*
X115044Y150067D01*
X115388D01*
X115472Y149427D01*
Y149425D01*
X115475Y149417D01*
Y149405D01*
X115477Y149387D01*
X115480Y149369D01*
X115482Y149346D01*
X115490Y149292D01*
X115495Y149236D01*
X115503Y149180D01*
X115508Y149129D01*
X115510Y149106D01*
Y149088D01*
X115513Y149093D01*
X115518Y149106D01*
X115523Y149119D01*
X115531Y149137D01*
X115538Y149160D01*
X115549Y149183D01*
X115559Y149211D01*
X115587Y149272D01*
X115617Y149341D01*
X115656Y149417D01*
X115696Y149496D01*
X116002Y150067D01*
X116367D01*
X115577Y148662D01*
D02*
G37*
G36*
X112182Y139658D02*
X112506Y139043D01*
X112139D01*
X111953Y139398D01*
X111636Y139043D01*
X111213D01*
X111800Y139696D01*
X111476Y140323D01*
X111843D01*
X112029Y139959D01*
X112356Y140323D01*
X112776D01*
X112182Y139658D01*
D02*
G37*
G36*
X19188Y103732D02*
X19216Y103730D01*
X19249Y103727D01*
X19285Y103725D01*
X19323Y103717D01*
X19405Y103702D01*
X19489Y103676D01*
X19532Y103661D01*
X19573Y103643D01*
X19611Y103622D01*
X19647Y103597D01*
X19650Y103595D01*
X19655Y103592D01*
X19665Y103582D01*
X19678Y103571D01*
X19693Y103559D01*
X19708Y103541D01*
X19726Y103521D01*
X19747Y103498D01*
X19767Y103472D01*
X19787Y103444D01*
X19808Y103413D01*
X19826Y103378D01*
X19846Y103342D01*
X19861Y103304D01*
X19876Y103260D01*
X19887Y103217D01*
X19532Y103151D01*
Y103153D01*
X19530Y103156D01*
X19525Y103171D01*
X19514Y103194D01*
X19499Y103225D01*
X19481Y103258D01*
X19456Y103291D01*
X19425Y103324D01*
X19389Y103355D01*
X19384Y103357D01*
X19372Y103367D01*
X19349Y103380D01*
X19321Y103393D01*
X19282Y103408D01*
X19239Y103419D01*
X19191Y103429D01*
X19135Y103431D01*
X19112D01*
X19096Y103429D01*
X19076Y103426D01*
X19053Y103424D01*
X19027Y103419D01*
X18999Y103413D01*
X18941Y103396D01*
X18910Y103383D01*
X18880Y103367D01*
X18849Y103350D01*
X18818Y103332D01*
X18790Y103306D01*
X18762Y103281D01*
X18760Y103278D01*
X18757Y103273D01*
X18749Y103266D01*
X18742Y103253D01*
X18732Y103237D01*
X18719Y103220D01*
X18706Y103197D01*
X18696Y103171D01*
X18683Y103141D01*
X18670Y103107D01*
X18658Y103072D01*
X18647Y103033D01*
X18640Y102990D01*
X18632Y102942D01*
X18630Y102893D01*
X18627Y102840D01*
Y102837D01*
Y102827D01*
Y102809D01*
X18630Y102789D01*
X18632Y102761D01*
X18635Y102733D01*
X18640Y102697D01*
X18645Y102661D01*
X18660Y102585D01*
X18686Y102506D01*
X18701Y102467D01*
X18719Y102432D01*
X18742Y102396D01*
X18765Y102365D01*
X18767Y102363D01*
X18772Y102358D01*
X18780Y102350D01*
X18790Y102340D01*
X18805Y102330D01*
X18821Y102314D01*
X18841Y102302D01*
X18864Y102286D01*
X18890Y102271D01*
X18915Y102258D01*
X18979Y102233D01*
X19015Y102223D01*
X19050Y102215D01*
X19091Y102210D01*
X19132Y102207D01*
X19152D01*
X19173Y102210D01*
X19203Y102212D01*
X19237Y102217D01*
X19275Y102225D01*
X19316Y102235D01*
X19356Y102251D01*
X19359D01*
X19361Y102253D01*
X19374Y102258D01*
X19397Y102269D01*
X19423Y102281D01*
X19453Y102296D01*
X19486Y102314D01*
X19520Y102335D01*
X19550Y102358D01*
Y102585D01*
X19142D01*
Y102883D01*
X19910D01*
Y102174D01*
X19905Y102169D01*
X19897Y102164D01*
X19889Y102156D01*
X19876Y102146D01*
X19864Y102136D01*
X19828Y102110D01*
X19780Y102082D01*
X19724Y102049D01*
X19660Y102016D01*
X19583Y101985D01*
X19581D01*
X19573Y101983D01*
X19563Y101978D01*
X19548Y101973D01*
X19527Y101968D01*
X19504Y101960D01*
X19479Y101952D01*
X19451Y101945D01*
X19387Y101929D01*
X19313Y101917D01*
X19237Y101906D01*
X19155Y101904D01*
X19127D01*
X19109Y101906D01*
X19083D01*
X19055Y101909D01*
X19025Y101914D01*
X18989Y101919D01*
X18915Y101932D01*
X18834Y101952D01*
X18749Y101980D01*
X18711Y101998D01*
X18670Y102019D01*
X18668Y102021D01*
X18663Y102024D01*
X18650Y102031D01*
X18637Y102041D01*
X18619Y102052D01*
X18601Y102067D01*
X18579Y102085D01*
X18556Y102105D01*
X18505Y102151D01*
X18454Y102210D01*
X18405Y102276D01*
X18362Y102353D01*
Y102355D01*
X18357Y102363D01*
X18352Y102376D01*
X18347Y102391D01*
X18339Y102411D01*
X18329Y102434D01*
X18321Y102462D01*
X18311Y102493D01*
X18301Y102526D01*
X18293Y102564D01*
X18275Y102643D01*
X18265Y102730D01*
X18260Y102824D01*
Y102827D01*
Y102837D01*
Y102852D01*
X18262Y102870D01*
Y102896D01*
X18265Y102924D01*
X18270Y102954D01*
X18275Y102990D01*
X18288Y103064D01*
X18308Y103148D01*
X18336Y103232D01*
X18354Y103273D01*
X18375Y103314D01*
X18377Y103316D01*
X18380Y103324D01*
X18387Y103334D01*
X18395Y103350D01*
X18408Y103367D01*
X18423Y103388D01*
X18441Y103411D01*
X18459Y103436D01*
X18482Y103462D01*
X18507Y103490D01*
X18535Y103518D01*
X18566Y103546D01*
X18599Y103571D01*
X18632Y103600D01*
X18711Y103646D01*
X18714D01*
X18719Y103651D01*
X18729Y103653D01*
X18742Y103661D01*
X18760Y103666D01*
X18778Y103674D01*
X18803Y103681D01*
X18828Y103691D01*
X18857Y103699D01*
X18890Y103707D01*
X18925Y103714D01*
X18961Y103722D01*
X19043Y103732D01*
X19135Y103735D01*
X19165D01*
X19188Y103732D01*
D02*
G37*
G36*
X48853Y166724D02*
X48881Y166722D01*
X48915Y166719D01*
X48950Y166717D01*
X48989Y166709D01*
X49070Y166694D01*
X49154Y166668D01*
X49198Y166653D01*
X49238Y166635D01*
X49277Y166615D01*
X49312Y166589D01*
X49315Y166587D01*
X49320Y166584D01*
X49330Y166574D01*
X49343Y166564D01*
X49358Y166551D01*
X49374Y166533D01*
X49391Y166513D01*
X49412Y166490D01*
X49432Y166464D01*
X49453Y166436D01*
X49473Y166406D01*
X49491Y166370D01*
X49511Y166334D01*
X49527Y166296D01*
X49542Y166253D01*
X49552Y166209D01*
X49198Y166143D01*
Y166146D01*
X49195Y166148D01*
X49190Y166163D01*
X49180Y166186D01*
X49165Y166217D01*
X49147Y166250D01*
X49121Y166283D01*
X49090Y166316D01*
X49055Y166347D01*
X49050Y166349D01*
X49037Y166360D01*
X49014Y166372D01*
X48986Y166385D01*
X48948Y166401D01*
X48904Y166411D01*
X48856Y166421D01*
X48800Y166423D01*
X48777D01*
X48762Y166421D01*
X48741Y166418D01*
X48718Y166416D01*
X48693Y166411D01*
X48665Y166406D01*
X48606Y166388D01*
X48575Y166375D01*
X48545Y166360D01*
X48514Y166342D01*
X48484Y166324D01*
X48456Y166298D01*
X48428Y166273D01*
X48425Y166270D01*
X48422Y166265D01*
X48415Y166258D01*
X48407Y166245D01*
X48397Y166230D01*
X48384Y166212D01*
X48371Y166189D01*
X48361Y166163D01*
X48349Y166133D01*
X48336Y166100D01*
X48323Y166064D01*
X48313Y166026D01*
X48305Y165982D01*
X48298Y165934D01*
X48295Y165885D01*
X48292Y165832D01*
Y165829D01*
Y165819D01*
Y165801D01*
X48295Y165781D01*
X48298Y165753D01*
X48300Y165725D01*
X48305Y165689D01*
X48310Y165653D01*
X48325Y165577D01*
X48351Y165498D01*
X48366Y165460D01*
X48384Y165424D01*
X48407Y165388D01*
X48430Y165357D01*
X48433Y165355D01*
X48438Y165350D01*
X48445Y165342D01*
X48456Y165332D01*
X48471Y165322D01*
X48486Y165306D01*
X48507Y165294D01*
X48529Y165278D01*
X48555Y165263D01*
X48581Y165250D01*
X48644Y165225D01*
X48680Y165215D01*
X48716Y165207D01*
X48757Y165202D01*
X48797Y165199D01*
X48818D01*
X48838Y165202D01*
X48869Y165205D01*
X48902Y165210D01*
X48940Y165217D01*
X48981Y165227D01*
X49022Y165243D01*
X49024D01*
X49027Y165245D01*
X49040Y165250D01*
X49062Y165261D01*
X49088Y165273D01*
X49119Y165289D01*
X49152Y165306D01*
X49185Y165327D01*
X49215Y165350D01*
Y165577D01*
X48807D01*
Y165875D01*
X49575D01*
Y165166D01*
X49570Y165161D01*
X49562Y165156D01*
X49555Y165148D01*
X49542Y165138D01*
X49529Y165128D01*
X49493Y165103D01*
X49445Y165075D01*
X49389Y165041D01*
X49325Y165008D01*
X49249Y164978D01*
X49246D01*
X49238Y164975D01*
X49228Y164970D01*
X49213Y164965D01*
X49193Y164960D01*
X49170Y164952D01*
X49144Y164944D01*
X49116Y164937D01*
X49052Y164921D01*
X48978Y164909D01*
X48902Y164899D01*
X48820Y164896D01*
X48792D01*
X48774Y164899D01*
X48749D01*
X48721Y164901D01*
X48690Y164906D01*
X48654Y164911D01*
X48581Y164924D01*
X48499Y164944D01*
X48415Y164972D01*
X48377Y164990D01*
X48336Y165011D01*
X48333Y165013D01*
X48328Y165016D01*
X48315Y165024D01*
X48303Y165034D01*
X48285Y165044D01*
X48267Y165059D01*
X48244Y165077D01*
X48221Y165097D01*
X48170Y165143D01*
X48119Y165202D01*
X48070Y165268D01*
X48027Y165345D01*
Y165347D01*
X48022Y165355D01*
X48017Y165368D01*
X48012Y165383D01*
X48004Y165403D01*
X47994Y165426D01*
X47986Y165454D01*
X47976Y165485D01*
X47966Y165518D01*
X47958Y165556D01*
X47940Y165636D01*
X47930Y165722D01*
X47925Y165816D01*
Y165819D01*
Y165829D01*
Y165845D01*
X47928Y165862D01*
Y165888D01*
X47930Y165916D01*
X47935Y165947D01*
X47940Y165982D01*
X47953Y166056D01*
X47974Y166140D01*
X48002Y166225D01*
X48019Y166265D01*
X48040Y166306D01*
X48043Y166309D01*
X48045Y166316D01*
X48053Y166326D01*
X48060Y166342D01*
X48073Y166360D01*
X48088Y166380D01*
X48106Y166403D01*
X48124Y166428D01*
X48147Y166454D01*
X48173Y166482D01*
X48201Y166510D01*
X48231Y166538D01*
X48264Y166564D01*
X48298Y166592D01*
X48377Y166638D01*
X48379D01*
X48384Y166643D01*
X48394Y166645D01*
X48407Y166653D01*
X48425Y166658D01*
X48443Y166666D01*
X48468Y166673D01*
X48494Y166683D01*
X48522Y166691D01*
X48555Y166699D01*
X48591Y166707D01*
X48626Y166714D01*
X48708Y166724D01*
X48800Y166727D01*
X48830D01*
X48853Y166724D01*
D02*
G37*
G36*
X18315Y164929D02*
X17930D01*
X17298Y166694D01*
X17683D01*
X18132Y165388D01*
X18563Y166694D01*
X18942D01*
X18315Y164929D01*
D02*
G37*
G36*
X17145Y166355D02*
X16505D01*
X16451Y166054D01*
X16454D01*
X16456Y166056D01*
X16472Y166064D01*
X16494Y166071D01*
X16522Y166084D01*
X16558Y166095D01*
X16596Y166102D01*
X16640Y166110D01*
X16683Y166112D01*
X16706D01*
X16721Y166110D01*
X16739Y166107D01*
X16762Y166105D01*
X16788Y166100D01*
X16816Y166092D01*
X16874Y166071D01*
X16907Y166059D01*
X16938Y166043D01*
X16971Y166023D01*
X17004Y166000D01*
X17035Y165975D01*
X17066Y165947D01*
X17068Y165944D01*
X17073Y165939D01*
X17081Y165929D01*
X17091Y165916D01*
X17101Y165901D01*
X17117Y165880D01*
X17129Y165857D01*
X17145Y165832D01*
X17160Y165804D01*
X17173Y165771D01*
X17188Y165735D01*
X17198Y165699D01*
X17208Y165658D01*
X17216Y165615D01*
X17221Y165569D01*
X17224Y165521D01*
Y165518D01*
Y165510D01*
Y165500D01*
X17221Y165485D01*
Y165465D01*
X17216Y165442D01*
X17213Y165416D01*
X17208Y165391D01*
X17193Y165330D01*
X17170Y165263D01*
X17155Y165227D01*
X17140Y165194D01*
X17119Y165161D01*
X17096Y165128D01*
X17094Y165126D01*
X17089Y165118D01*
X17078Y165108D01*
X17066Y165092D01*
X17048Y165075D01*
X17025Y165054D01*
X16999Y165034D01*
X16971Y165013D01*
X16938Y164990D01*
X16902Y164970D01*
X16864Y164950D01*
X16821Y164932D01*
X16775Y164916D01*
X16726Y164906D01*
X16673Y164899D01*
X16617Y164896D01*
X16594D01*
X16576Y164899D01*
X16556Y164901D01*
X16530Y164904D01*
X16505Y164906D01*
X16474Y164911D01*
X16413Y164927D01*
X16344Y164952D01*
X16311Y164965D01*
X16278Y164983D01*
X16247Y165003D01*
X16217Y165026D01*
X16214Y165029D01*
X16209Y165031D01*
X16201Y165039D01*
X16191Y165049D01*
X16181Y165064D01*
X16165Y165080D01*
X16153Y165097D01*
X16137Y165118D01*
X16120Y165143D01*
X16104Y165169D01*
X16076Y165230D01*
X16051Y165299D01*
X16043Y165337D01*
X16035Y165378D01*
X16372Y165414D01*
Y165409D01*
X16375Y165396D01*
X16380Y165373D01*
X16387Y165347D01*
X16398Y165319D01*
X16413Y165289D01*
X16433Y165261D01*
X16456Y165233D01*
X16459Y165230D01*
X16469Y165222D01*
X16484Y165212D01*
X16505Y165199D01*
X16528Y165187D01*
X16556Y165176D01*
X16589Y165169D01*
X16622Y165166D01*
X16627D01*
X16640Y165169D01*
X16660Y165171D01*
X16686Y165176D01*
X16714Y165187D01*
X16744Y165202D01*
X16775Y165225D01*
X16803Y165253D01*
X16805Y165258D01*
X16816Y165268D01*
X16826Y165289D01*
X16841Y165319D01*
X16854Y165355D01*
X16867Y165398D01*
X16874Y165452D01*
X16877Y165513D01*
Y165516D01*
Y165521D01*
Y165528D01*
Y165541D01*
X16874Y165569D01*
X16867Y165605D01*
X16859Y165646D01*
X16846Y165687D01*
X16828Y165725D01*
X16803Y165758D01*
X16800Y165760D01*
X16790Y165771D01*
X16772Y165783D01*
X16752Y165801D01*
X16724Y165816D01*
X16691Y165829D01*
X16653Y165840D01*
X16612Y165842D01*
X16596D01*
X16586Y165840D01*
X16561Y165834D01*
X16525Y165827D01*
X16484Y165811D01*
X16441Y165788D01*
X16418Y165773D01*
X16395Y165755D01*
X16372Y165735D01*
X16349Y165712D01*
X16076Y165750D01*
X16250Y166671D01*
X17145D01*
Y166355D01*
D02*
G37*
G36*
X25025Y148662D02*
Y148660D01*
X25020Y148655D01*
X25015Y148647D01*
X25010Y148634D01*
X24992Y148604D01*
X24969Y148568D01*
X24944Y148527D01*
X24918Y148486D01*
X24893Y148451D01*
X24870Y148420D01*
X24867Y148418D01*
X24860Y148407D01*
X24849Y148395D01*
X24834Y148379D01*
X24814Y148362D01*
X24791Y148344D01*
X24765Y148326D01*
X24737Y148308D01*
X24735Y148305D01*
X24724Y148303D01*
X24707Y148295D01*
X24684Y148288D01*
X24656Y148280D01*
X24625Y148275D01*
X24589Y148270D01*
X24549Y148267D01*
X24528D01*
X24508Y148270D01*
X24477Y148272D01*
X24442Y148277D01*
X24398Y148285D01*
X24352Y148295D01*
X24304Y148308D01*
X24332Y148566D01*
X24334D01*
X24342Y148563D01*
X24355Y148560D01*
X24370Y148555D01*
X24388Y148553D01*
X24408Y148548D01*
X24452Y148545D01*
X24459D01*
X24467Y148548D01*
X24477Y148550D01*
X24508Y148558D01*
X24526Y148566D01*
X24543Y148576D01*
X24564Y148589D01*
X24584Y148604D01*
X24607Y148624D01*
X24630Y148647D01*
X24651Y148675D01*
X24674Y148708D01*
X24694Y148744D01*
X24714Y148787D01*
X24492Y150067D01*
X24837D01*
X24921Y149427D01*
Y149425D01*
X24923Y149417D01*
Y149405D01*
X24926Y149387D01*
X24928Y149369D01*
X24931Y149346D01*
X24939Y149292D01*
X24944Y149236D01*
X24951Y149180D01*
X24957Y149129D01*
X24959Y149106D01*
Y149088D01*
X24962Y149093D01*
X24967Y149106D01*
X24972Y149119D01*
X24980Y149137D01*
X24987Y149160D01*
X24997Y149183D01*
X25008Y149211D01*
X25036Y149272D01*
X25066Y149341D01*
X25104Y149417D01*
X25145Y149496D01*
X25451Y150067D01*
X25816D01*
X25025Y148662D01*
D02*
G37*
G36*
X21631Y139658D02*
X21955Y139043D01*
X21588D01*
X21402Y139398D01*
X21085Y139043D01*
X20662D01*
X21249Y139696D01*
X20925Y140323D01*
X21292D01*
X21478Y139959D01*
X21804Y140323D01*
X22225D01*
X21631Y139658D01*
D02*
G37*
G54D10*
X251021Y38433D02*
X250282Y38859D01*
Y38007D01*
X251021Y38433D01*
X196961Y38779D02*
X196222Y39206D01*
Y38353D01*
X196961Y38779D01*
X160469Y38433D02*
X159731Y38859D01*
Y38007D01*
X160469Y38433D01*
X106409Y38779D02*
X105671Y39206D01*
Y38353D01*
X106409Y38779D01*
X69918Y38433D02*
X69180Y38859D01*
Y38007D01*
X69918Y38433D01*
X15858Y38779D02*
X15120Y39206D01*
Y38353D01*
X15858Y38779D01*
X250520Y136433D02*
X249782Y136859D01*
Y136007D01*
X250520Y136433D01*
X196461Y136779D02*
X195722Y137206D01*
Y136353D01*
X196461Y136779D01*
X159969Y136433D02*
X159231Y136859D01*
Y136007D01*
X159969Y136433D01*
X105909Y136779D02*
X105171Y137206D01*
Y136353D01*
X105909Y136779D01*
X69418Y136433D02*
X68680Y136859D01*
Y136007D01*
X69418Y136433D01*
X15358Y136779D02*
X14620Y137206D01*
Y136353D01*
X15358Y136779D01*
G54D11*
X210532Y16489D02*
X209745D01*
X210532D01*
X223918Y46949D02*
X223130D01*
X223918D01*
X119981Y16489D02*
X119193D01*
X119981D01*
X133367Y46949D02*
X132579D01*
X133367D01*
X29430Y16489D02*
X28642D01*
X29430D01*
X42816Y46949D02*
X42028D01*
X42816D01*
X210032Y114489D02*
X209245D01*
X210032D01*
X223418Y144949D02*
X222631D01*
X223418D01*
X119481Y114489D02*
X118693D01*
X119481D01*
X132867Y144949D02*
X132079D01*
X132867D01*
X28930Y114489D02*
X28142D01*
X28930D01*
X42316Y144949D02*
X41528D01*
X42316D01*
X237918Y30512D02*
X239690D01*
X246383D02*
X248154D01*
Y36909D01*
X237918Y30512D02*
Y36909D01*
X210532Y16883D02*
Y18851D01*
Y28694D02*
X211516D01*
X221359Y16883D02*
X222343D01*
X222343Y16883D01*
Y17867D01*
Y27710D02*
Y28694D01*
X222343Y28694D02*
X222343Y28694D01*
X221359Y28694D02*
X222343D01*
X210532Y16883D02*
X211516D01*
X210532Y27710D02*
Y28694D01*
X211319Y47343D02*
X212304D01*
X223130D02*
Y48327D01*
X211319Y58169D02*
Y59153D01*
X211319Y59153D02*
X211319Y59153D01*
X211319Y59153D02*
X212304D01*
X222146D02*
X223130D01*
X223130Y59153D01*
Y58169D02*
Y59153D01*
X211319Y47343D02*
Y48327D01*
X221162Y47343D02*
X223130D01*
X183858Y30858D02*
X185630D01*
X192323D02*
X194095D01*
Y37256D01*
X183858Y30858D02*
Y37256D01*
X204331Y66339D02*
Y71457D01*
Y66339D02*
X228740D01*
Y71457D01*
X204331D02*
X228740D01*
Y3346D02*
Y8465D01*
X204331D02*
X228740D01*
X204331Y3346D02*
Y8465D01*
Y3346D02*
X228740D01*
X200690Y41043D02*
X201871Y42224D01*
X226871Y48031D02*
Y48031D01*
X208170Y50886D02*
X209351Y49705D01*
X200000Y39862D02*
Y48524D01*
X200690Y49705D02*
X209351D01*
X147367Y30512D02*
X149139D01*
X155832D02*
X157603D01*
Y36909D01*
X147367Y30512D02*
Y36909D01*
X119981Y16883D02*
Y18851D01*
Y28694D02*
X120965D01*
X130808Y16883D02*
X131791D01*
X131792Y16883D01*
Y17867D01*
Y27710D02*
Y28694D01*
X131792Y28694D02*
X131792Y28694D01*
X130808Y28694D02*
X131792D01*
X119981Y16883D02*
X120965D01*
X119981Y27710D02*
Y28694D01*
X120768Y47343D02*
X121753D01*
X132579D02*
Y48327D01*
X120768Y58169D02*
Y59153D01*
X120768Y59153D02*
X120768Y59153D01*
X120768Y59153D02*
X121753D01*
X131595D02*
X132579D01*
X132579Y59153D01*
Y58169D02*
Y59153D01*
X120768Y47343D02*
Y48327D01*
X130611Y47343D02*
X132579D01*
X93307Y30858D02*
X95079D01*
X101772D02*
X103543D01*
Y37256D01*
X93307Y30858D02*
Y37256D01*
X113779Y66339D02*
Y71457D01*
Y66339D02*
X138189D01*
Y71457D01*
X113779D02*
X138189D01*
Y3346D02*
Y8465D01*
X113779D02*
X138189D01*
X113779Y3346D02*
Y8465D01*
Y3346D02*
X138189D01*
X110138Y41043D02*
X111319Y42224D01*
X136319Y48031D02*
Y48031D01*
X117619Y50886D02*
X118800Y49705D01*
X109449Y39862D02*
Y48524D01*
X110138Y49705D02*
X118800D01*
X56816Y30512D02*
X58587D01*
X65280D02*
X67052D01*
Y36909D01*
X56816Y30512D02*
Y36909D01*
X29430Y16883D02*
Y18851D01*
Y28694D02*
X30414D01*
X40257Y16883D02*
X41240D01*
X41241Y16883D01*
Y17867D01*
Y27710D02*
Y28694D01*
X41241Y28694D02*
X41241Y28694D01*
X40257Y28694D02*
X41241D01*
X29430Y16883D02*
X30414D01*
X29430Y27710D02*
Y28694D01*
X30217Y47343D02*
X31201D01*
X42028D02*
Y48327D01*
X30217Y58169D02*
Y59153D01*
X30217Y59153D02*
X30217Y59153D01*
X30217Y59153D02*
X31201D01*
X41044D02*
X42028D01*
X42028Y59153D01*
Y58169D02*
Y59153D01*
X30217Y47343D02*
Y48327D01*
X40060Y47343D02*
X42028D01*
X2756Y30858D02*
X4528D01*
X11220D02*
X12992D01*
Y37256D01*
X2756Y30858D02*
Y37256D01*
X23228Y66339D02*
Y71457D01*
Y66339D02*
X47638D01*
Y71457D01*
X23228D02*
X47638D01*
Y3346D02*
Y8465D01*
X23228D02*
X47638D01*
X23228Y3346D02*
Y8465D01*
Y3346D02*
X47638D01*
X19587Y41043D02*
X20768Y42224D01*
X45768Y48031D02*
Y48031D01*
X27068Y50886D02*
X28249Y49705D01*
X18898Y39862D02*
Y48524D01*
X19587Y49705D02*
X28249D01*
X237418Y128512D02*
X239190D01*
X245883D02*
X247654D01*
Y134909D01*
X237418Y128512D02*
Y134909D01*
X210032Y114883D02*
Y116851D01*
Y126694D02*
X211016D01*
X220859Y114883D02*
X221843D01*
X221843Y114883D01*
Y115867D01*
Y125710D02*
Y126694D01*
X221843Y126694D02*
X221843Y126694D01*
X220859Y126694D02*
X221843D01*
X210032Y114883D02*
X211016D01*
X210032Y125710D02*
Y126694D01*
X210820Y145343D02*
X211804D01*
X222631D02*
Y146327D01*
X210820Y156169D02*
Y157153D01*
X210820Y157153D02*
X210820Y157153D01*
X210820Y157153D02*
X211804D01*
X221646D02*
X222630D01*
X222631Y157153D01*
Y156169D02*
Y157153D01*
X210820Y145343D02*
Y146327D01*
X220662Y145343D02*
X222631D01*
X183358Y128858D02*
X185130D01*
X191823D02*
X193595D01*
Y135256D01*
X183358Y128858D02*
Y135256D01*
X203831Y164339D02*
Y169457D01*
Y164339D02*
X228240D01*
Y169457D01*
X203831D02*
X228240D01*
Y101346D02*
Y106465D01*
X203831D02*
X228240D01*
X203831Y101346D02*
Y106465D01*
Y101346D02*
X228240D01*
X200190Y139043D02*
X201371Y140224D01*
X226371Y146031D02*
Y146031D01*
X207670Y148886D02*
X208851Y147705D01*
X199500Y137862D02*
Y146524D01*
X200190Y147705D02*
X208851D01*
X146867Y128512D02*
X148639D01*
X155332D02*
X157103D01*
Y134909D01*
X146867Y128512D02*
Y134909D01*
X119481Y114883D02*
Y116851D01*
Y126694D02*
X120465D01*
X130308Y114883D02*
X131291D01*
X131292Y114883D01*
Y115867D01*
Y125710D02*
Y126694D01*
X131292Y126694D02*
X131292Y126694D01*
X130308Y126694D02*
X131292D01*
X119481Y114883D02*
X120465D01*
X119481Y125710D02*
Y126694D01*
X120268Y145343D02*
X121253D01*
X132079D02*
Y146327D01*
X120268Y156169D02*
Y157153D01*
X120268Y157153D02*
X120268Y157153D01*
X120268Y157153D02*
X121253D01*
X131095D02*
X132079D01*
X132079Y157153D01*
Y156169D02*
Y157153D01*
X120268Y145343D02*
Y146327D01*
X130111Y145343D02*
X132079D01*
X92807Y128858D02*
X94579D01*
X101272D02*
X103043D01*
Y135256D01*
X92807Y128858D02*
Y135256D01*
X113279Y164339D02*
Y169457D01*
Y164339D02*
X137689D01*
Y169457D01*
X113279D02*
X137689D01*
Y101346D02*
Y106465D01*
X113279D02*
X137689D01*
X113279Y101346D02*
Y106465D01*
Y101346D02*
X137689D01*
X109638Y139043D02*
X110819Y140224D01*
X135819Y146031D02*
Y146031D01*
X117119Y148886D02*
X118300Y147705D01*
X108949Y137862D02*
Y146524D01*
X109638Y147705D02*
X118300D01*
X56316Y128512D02*
X58087D01*
X64780D02*
X66552D01*
Y134909D01*
X56316Y128512D02*
Y134909D01*
X28930Y114883D02*
Y116851D01*
Y126694D02*
X29914D01*
X39757Y114883D02*
X40740D01*
X40741Y114883D01*
Y115867D01*
Y125710D02*
Y126694D01*
X40741Y126694D02*
X40741Y126694D01*
X39757Y126694D02*
X40741D01*
X28930Y114883D02*
X29914D01*
X28930Y125710D02*
Y126694D01*
X29717Y145343D02*
X30701D01*
X41528D02*
Y146327D01*
X29717Y156169D02*
Y157153D01*
X29717Y157153D02*
X29717Y157153D01*
X29717Y157153D02*
X30701D01*
X40544D02*
X41528D01*
X41528Y157153D01*
Y156169D02*
Y157153D01*
X29717Y145343D02*
Y146327D01*
X39560Y145343D02*
X41528D01*
X2256Y128858D02*
X4028D01*
X10721D02*
X12492D01*
Y135256D01*
X2256Y128858D02*
Y135256D01*
X22728Y164339D02*
Y169457D01*
Y164339D02*
X47138D01*
Y169457D01*
X22728D02*
X47138D01*
Y101346D02*
Y106465D01*
X22728D02*
X47138D01*
X22728Y101346D02*
Y106465D01*
Y101346D02*
X47138D01*
X19087Y139043D02*
X20268Y140224D01*
X45268Y146031D02*
Y146031D01*
X26568Y148886D02*
X27749Y147705D01*
X18398Y137862D02*
Y146524D01*
X19087Y147705D02*
X27749D01*
G54D12*
X232644Y43045D02*
X235632D01*
Y46588D01*
X232644D02*
X235632D01*
X226577D02*
X229644D01*
X226577Y43045D02*
Y46588D01*
Y43045D02*
X229644D01*
X232682Y38929D02*
X235670D01*
Y42472D01*
X232682D02*
X235670D01*
X226615D02*
X229682D01*
X226615Y38929D02*
Y42472D01*
Y38929D02*
X229682D01*
X242446Y23430D02*
Y26497D01*
X245989D01*
Y23430D02*
Y26497D01*
Y17442D02*
Y20430D01*
X242446Y17442D02*
X245989D01*
X242446D02*
Y20430D01*
X243234Y21969D02*
X245202D01*
X194488Y44291D02*
Y47358D01*
X190945Y44291D02*
X194488D01*
X190945D02*
Y47358D01*
Y50358D02*
Y53347D01*
X194488D01*
Y50358D02*
Y53347D01*
X183465Y50073D02*
Y53140D01*
X187008D01*
Y50073D02*
Y53140D01*
Y44085D02*
Y47073D01*
X183465Y44085D02*
X187008D01*
X183465D02*
Y47073D01*
X227876Y55161D02*
Y58228D01*
X231420D01*
Y55161D02*
Y58228D01*
Y49173D02*
Y52161D01*
X227876Y49173D02*
X231420D01*
X227876D02*
Y52161D01*
X228664Y53700D02*
X230633D01*
X182953Y19987D02*
Y23054D01*
X186496D01*
Y19987D02*
Y23054D01*
Y13999D02*
Y16987D01*
X182953Y13999D02*
X186496D01*
X182953D02*
Y16987D01*
X183741Y18526D02*
X185709D01*
X203542Y17414D02*
Y20482D01*
X199999Y17414D02*
X203542D01*
X199999D02*
Y20482D01*
Y23482D02*
Y26470D01*
X203542D01*
Y23482D02*
Y26470D01*
X200785Y21942D02*
X202754D01*
X204500Y23403D02*
Y26470D01*
X208043D01*
Y23403D02*
Y26470D01*
Y17414D02*
Y20403D01*
X204500Y17414D02*
X208043D01*
X204500D02*
Y20403D01*
X205288Y21942D02*
X207256D01*
X244167Y47047D02*
X247234D01*
Y43504D02*
Y47047D01*
X244167Y43504D02*
X247234D01*
X238179D02*
X241167D01*
X238179D02*
Y47047D01*
X241167D01*
X242706Y44291D02*
Y46259D01*
X206902Y59940D02*
Y61909D01*
X202375Y62697D02*
X205363D01*
X202375Y59153D02*
Y62697D01*
Y59153D02*
X205363D01*
X208363D02*
X211430D01*
Y62697D01*
X208363D02*
X211430D01*
X236054Y55240D02*
Y58228D01*
X232510D02*
X236054D01*
X232510Y55240D02*
Y58228D01*
Y49173D02*
Y52240D01*
Y49173D02*
X236054D01*
Y52240D01*
X189626Y58169D02*
Y60137D01*
X185098Y60925D02*
X188087D01*
X185098Y57382D02*
Y60925D01*
Y57382D02*
X188087D01*
X191087D02*
X194153D01*
Y60925D01*
X191087D02*
X194153D01*
X218745Y43584D02*
X221812D01*
Y40041D02*
Y43584D01*
X218745Y40041D02*
X221812D01*
X212756D02*
X215745D01*
X212756D02*
Y43584D01*
X215745D01*
X217284Y40828D02*
Y42796D01*
X142093Y43045D02*
X145081D01*
Y46588D01*
X142093D02*
X145081D01*
X136026D02*
X139093D01*
X136026Y43045D02*
Y46588D01*
Y43045D02*
X139093D01*
X142130Y38929D02*
X145119D01*
Y42472D01*
X142130D02*
X145119D01*
X136064D02*
X139130D01*
X136064Y38929D02*
Y42472D01*
Y38929D02*
X139130D01*
X151895Y23430D02*
Y26497D01*
X155438D01*
Y23430D02*
Y26497D01*
Y17442D02*
Y20430D01*
X151895Y17442D02*
X155438D01*
X151895D02*
Y20430D01*
X152683Y21969D02*
X154651D01*
X103937Y44291D02*
Y47358D01*
X100394Y44291D02*
X103937D01*
X100394D02*
Y47358D01*
Y50358D02*
Y53347D01*
X103937D01*
Y50358D02*
Y53347D01*
X92913Y50073D02*
Y53140D01*
X96457D01*
Y50073D02*
Y53140D01*
Y44085D02*
Y47073D01*
X92913Y44085D02*
X96457D01*
X92913D02*
Y47073D01*
X137325Y55161D02*
Y58228D01*
X140868D01*
Y55161D02*
Y58228D01*
Y49173D02*
Y52161D01*
X137325Y49173D02*
X140868D01*
X137325D02*
Y52161D01*
X138113Y53700D02*
X140082D01*
X92402Y19987D02*
Y23054D01*
X95945D01*
Y19987D02*
Y23054D01*
Y13999D02*
Y16987D01*
X92402Y13999D02*
X95945D01*
X92402D02*
Y16987D01*
X93190Y18526D02*
X95158D01*
X112991Y17414D02*
Y20482D01*
X109448Y17414D02*
X112991D01*
X109448D02*
Y20482D01*
Y23482D02*
Y26470D01*
X112991D01*
Y23482D02*
Y26470D01*
X110234Y21942D02*
X112203D01*
X113948Y23403D02*
Y26470D01*
X117492D01*
Y23403D02*
Y26470D01*
Y17414D02*
Y20403D01*
X113948Y17414D02*
X117492D01*
X113948D02*
Y20403D01*
X114736Y21942D02*
X116705D01*
X153616Y47047D02*
X156683D01*
Y43504D02*
Y47047D01*
X153616Y43504D02*
X156683D01*
X147628D02*
X150616D01*
X147628D02*
Y47047D01*
X150616D01*
X152155Y44291D02*
Y46259D01*
X116351Y59940D02*
Y61909D01*
X111824Y62697D02*
X114812D01*
X111824Y59153D02*
Y62697D01*
Y59153D02*
X114812D01*
X117812D02*
X120879D01*
Y62697D01*
X117812D02*
X120879D01*
X145503Y55240D02*
Y58228D01*
X141959D02*
X145503D01*
X141959Y55240D02*
Y58228D01*
Y49173D02*
Y52240D01*
Y49173D02*
X145503D01*
Y52240D01*
X99074Y58169D02*
Y60137D01*
X94547Y60925D02*
X97535D01*
X94547Y57382D02*
Y60925D01*
Y57382D02*
X97535D01*
X100535D02*
X103602D01*
Y60925D01*
X100535D02*
X103602D01*
X128193Y43584D02*
X131261D01*
Y40041D02*
Y43584D01*
X128193Y40041D02*
X131261D01*
X122205D02*
X125194D01*
X122205D02*
Y43584D01*
X125194D01*
X126733Y40828D02*
Y42796D01*
X51542Y43045D02*
X54530D01*
Y46588D01*
X51542D02*
X54530D01*
X45475D02*
X48542D01*
X45475Y43045D02*
Y46588D01*
Y43045D02*
X48542D01*
X51579Y38929D02*
X54568D01*
Y42472D01*
X51579D02*
X54568D01*
X45512D02*
X48579D01*
X45512Y38929D02*
Y42472D01*
Y38929D02*
X48579D01*
X61343Y23430D02*
Y26497D01*
X64887D01*
Y23430D02*
Y26497D01*
Y17442D02*
Y20430D01*
X61343Y17442D02*
X64887D01*
X61343D02*
Y20430D01*
X62131Y21969D02*
X64100D01*
X13386Y44291D02*
Y47358D01*
X9843Y44291D02*
X13386D01*
X9843D02*
Y47358D01*
Y50358D02*
Y53347D01*
X13386D01*
Y50358D02*
Y53347D01*
X2362Y50073D02*
Y53140D01*
X5906D01*
Y50073D02*
Y53140D01*
Y44085D02*
Y47073D01*
X2362Y44085D02*
X5906D01*
X2362D02*
Y47073D01*
X46774Y55161D02*
Y58228D01*
X50317D01*
Y55161D02*
Y58228D01*
Y49173D02*
Y52161D01*
X46774Y49173D02*
X50317D01*
X46774D02*
Y52161D01*
X47562Y53700D02*
X49531D01*
X1850Y19987D02*
Y23054D01*
X5394D01*
Y19987D02*
Y23054D01*
Y13999D02*
Y16987D01*
X1850Y13999D02*
X5394D01*
X1850D02*
Y16987D01*
X2638Y18526D02*
X4607D01*
X22440Y17414D02*
Y20482D01*
X18896Y17414D02*
X22440D01*
X18896D02*
Y20482D01*
Y23482D02*
Y26470D01*
X22440D01*
Y23482D02*
Y26470D01*
X19683Y21942D02*
X21652D01*
X23397Y23403D02*
Y26470D01*
X26941D01*
Y23403D02*
Y26470D01*
Y17414D02*
Y20403D01*
X23397Y17414D02*
X26941D01*
X23397D02*
Y20403D01*
X24185Y21942D02*
X26154D01*
X63065Y47047D02*
X66132D01*
Y43504D02*
Y47047D01*
X63065Y43504D02*
X66132D01*
X57077D02*
X60065D01*
X57077D02*
Y47047D01*
X60065D01*
X61604Y44291D02*
Y46259D01*
X25800Y59940D02*
Y61909D01*
X21272Y62697D02*
X24261D01*
X21272Y59153D02*
Y62697D01*
Y59153D02*
X24261D01*
X27261D02*
X30327D01*
Y62697D01*
X27261D02*
X30327D01*
X54951Y55240D02*
Y58228D01*
X51408D02*
X54951D01*
X51408Y55240D02*
Y58228D01*
Y49173D02*
Y52240D01*
Y49173D02*
X54951D01*
Y52240D01*
X8523Y58169D02*
Y60137D01*
X3996Y60925D02*
X6984D01*
X3996Y57382D02*
Y60925D01*
Y57382D02*
X6984D01*
X9984D02*
X13051D01*
Y60925D01*
X9984D02*
X13051D01*
X37642Y43584D02*
X40709D01*
Y40041D02*
Y43584D01*
X37642Y40041D02*
X40709D01*
X31654D02*
X34642D01*
X31654D02*
Y43584D01*
X34642D01*
X36181Y40828D02*
Y42796D01*
X232144Y141045D02*
X235133D01*
Y144588D01*
X232144D02*
X235133D01*
X226077D02*
X229144D01*
X226077Y141045D02*
Y144588D01*
Y141045D02*
X229144D01*
X232182Y136929D02*
X235170D01*
Y140472D01*
X232182D02*
X235170D01*
X226115D02*
X229182D01*
X226115Y136929D02*
Y140472D01*
Y136929D02*
X229182D01*
X241946Y121430D02*
Y124497D01*
X245489D01*
Y121430D02*
Y124497D01*
Y115442D02*
Y118430D01*
X241946Y115442D02*
X245489D01*
X241946D02*
Y118430D01*
X242734Y119969D02*
X244702D01*
X193988Y142291D02*
Y145358D01*
X190445Y142291D02*
X193988D01*
X190445D02*
Y145358D01*
Y148358D02*
Y151347D01*
X193988D01*
Y148358D02*
Y151347D01*
X182965Y148073D02*
Y151140D01*
X186508D01*
Y148073D02*
Y151140D01*
Y142085D02*
Y145073D01*
X182965Y142085D02*
X186508D01*
X182965D02*
Y145073D01*
X227376Y153161D02*
Y156228D01*
X230920D01*
Y153161D02*
Y156228D01*
Y147173D02*
Y150161D01*
X227376Y147173D02*
X230920D01*
X227376D02*
Y150161D01*
X228164Y151700D02*
X230133D01*
X182453Y117987D02*
Y121054D01*
X185996D01*
Y117987D02*
Y121054D01*
Y111999D02*
Y114987D01*
X182453Y111999D02*
X185996D01*
X182453D02*
Y114987D01*
X183241Y116526D02*
X185209D01*
X203042Y115415D02*
Y118481D01*
X199499Y115415D02*
X203042D01*
X199499D02*
Y118481D01*
Y121481D02*
Y124470D01*
X203042D01*
Y121481D02*
Y124470D01*
X200285Y119942D02*
X202254D01*
X204000Y121403D02*
Y124470D01*
X207543D01*
Y121403D02*
Y124470D01*
Y115415D02*
Y118403D01*
X204000Y115415D02*
X207543D01*
X204000D02*
Y118403D01*
X204788Y119942D02*
X206756D01*
X243667Y145047D02*
X246734D01*
Y141504D02*
Y145047D01*
X243667Y141504D02*
X246734D01*
X237679D02*
X240667D01*
X237679D02*
Y145047D01*
X240667D01*
X242206Y142291D02*
Y144259D01*
X206402Y157940D02*
Y159909D01*
X201875Y160697D02*
X204863D01*
X201875Y157153D02*
Y160697D01*
Y157153D02*
X204863D01*
X207863D02*
X210930D01*
Y160697D01*
X207863D02*
X210930D01*
X235554Y153240D02*
Y156228D01*
X232010D02*
X235554D01*
X232010Y153240D02*
Y156228D01*
Y147173D02*
Y150240D01*
Y147173D02*
X235554D01*
Y150240D01*
X189126Y156168D02*
Y158137D01*
X184598Y158925D02*
X187587D01*
X184598Y155382D02*
Y158925D01*
Y155382D02*
X187587D01*
X190587D02*
X193654D01*
Y158925D01*
X190587D02*
X193654D01*
X218245Y141584D02*
X221312D01*
Y138041D02*
Y141584D01*
X218245Y138041D02*
X221312D01*
X212257D02*
X215245D01*
X212257D02*
Y141584D01*
X215245D01*
X216784Y138828D02*
Y140796D01*
X141593Y141045D02*
X144581D01*
Y144588D01*
X141593D02*
X144581D01*
X135526D02*
X138593D01*
X135526Y141045D02*
Y144588D01*
Y141045D02*
X138593D01*
X141630Y136929D02*
X144619D01*
Y140472D01*
X141630D02*
X144619D01*
X135564D02*
X138630D01*
X135564Y136929D02*
Y140472D01*
Y136929D02*
X138630D01*
X151395Y121430D02*
Y124497D01*
X154938D01*
Y121430D02*
Y124497D01*
Y115442D02*
Y118430D01*
X151395Y115442D02*
X154938D01*
X151395D02*
Y118430D01*
X152183Y119969D02*
X154151D01*
X103437Y142291D02*
Y145358D01*
X99894Y142291D02*
X103437D01*
X99894D02*
Y145358D01*
Y148358D02*
Y151347D01*
X103437D01*
Y148358D02*
Y151347D01*
X92413Y148073D02*
Y151140D01*
X95957D01*
Y148073D02*
Y151140D01*
Y142085D02*
Y145073D01*
X92413Y142085D02*
X95957D01*
X92413D02*
Y145073D01*
X136825Y153161D02*
Y156228D01*
X140368D01*
Y153161D02*
Y156228D01*
Y147173D02*
Y150161D01*
X136825Y147173D02*
X140368D01*
X136825D02*
Y150161D01*
X137613Y151700D02*
X139582D01*
X91902Y117987D02*
Y121054D01*
X95445D01*
Y117987D02*
Y121054D01*
Y111999D02*
Y114987D01*
X91902Y111999D02*
X95445D01*
X91902D02*
Y114987D01*
X92690Y116526D02*
X94658D01*
X112491Y115415D02*
Y118481D01*
X108948Y115415D02*
X112491D01*
X108948D02*
Y118481D01*
Y121481D02*
Y124470D01*
X112491D01*
Y121481D02*
Y124470D01*
X109734Y119942D02*
X111703D01*
X113448Y121403D02*
Y124470D01*
X116992D01*
Y121403D02*
Y124470D01*
Y115415D02*
Y118403D01*
X113448Y115415D02*
X116992D01*
X113448D02*
Y118403D01*
X114236Y119942D02*
X116205D01*
X153116Y145047D02*
X156183D01*
Y141504D02*
Y145047D01*
X153116Y141504D02*
X156183D01*
X147128D02*
X150116D01*
X147128D02*
Y145047D01*
X150116D01*
X151655Y142291D02*
Y144259D01*
X115851Y157940D02*
Y159909D01*
X111324Y160697D02*
X114312D01*
X111324Y157153D02*
Y160697D01*
Y157153D02*
X114312D01*
X117312D02*
X120379D01*
Y160697D01*
X117312D02*
X120379D01*
X145003Y153240D02*
Y156228D01*
X141459D02*
X145003D01*
X141459Y153240D02*
Y156228D01*
Y147173D02*
Y150240D01*
Y147173D02*
X145003D01*
Y150240D01*
X98574Y156168D02*
Y158137D01*
X94047Y158925D02*
X97035D01*
X94047Y155382D02*
Y158925D01*
Y155382D02*
X97035D01*
X100035D02*
X103102D01*
Y158925D01*
X100035D02*
X103102D01*
X127693Y141584D02*
X130761D01*
Y138041D02*
Y141584D01*
X127693Y138041D02*
X130761D01*
X121705D02*
X124694D01*
X121705D02*
Y141584D01*
X124694D01*
X126233Y138828D02*
Y140796D01*
X51042Y141045D02*
X54030D01*
Y144588D01*
X51042D02*
X54030D01*
X44975D02*
X48042D01*
X44975Y141045D02*
Y144588D01*
Y141045D02*
X48042D01*
X51079Y136929D02*
X54068D01*
Y140472D01*
X51079D02*
X54068D01*
X45012D02*
X48079D01*
X45012Y136929D02*
Y140472D01*
Y136929D02*
X48079D01*
X60843Y121430D02*
Y124497D01*
X64387D01*
Y121430D02*
Y124497D01*
Y115442D02*
Y118430D01*
X60843Y115442D02*
X64387D01*
X60843D02*
Y118430D01*
X61631Y119969D02*
X63600D01*
X12886Y142291D02*
Y145358D01*
X9342Y142291D02*
X12886D01*
X9342D02*
Y145358D01*
Y148358D02*
Y151347D01*
X12886D01*
Y148358D02*
Y151347D01*
X1862Y148073D02*
Y151140D01*
X5406D01*
Y148073D02*
Y151140D01*
Y142085D02*
Y145073D01*
X1862Y142085D02*
X5406D01*
X1862D02*
Y145073D01*
X46274Y153161D02*
Y156228D01*
X49817D01*
Y153161D02*
Y156228D01*
Y147173D02*
Y150161D01*
X46274Y147173D02*
X49817D01*
X46274D02*
Y150161D01*
X47062Y151700D02*
X49031D01*
X1350Y117987D02*
Y121054D01*
X4894D01*
Y117987D02*
Y121054D01*
Y111999D02*
Y114987D01*
X1350Y111999D02*
X4894D01*
X1350D02*
Y114987D01*
X2138Y116526D02*
X4107D01*
X21940Y115415D02*
Y118481D01*
X18396Y115415D02*
X21940D01*
X18396D02*
Y118481D01*
Y121481D02*
Y124470D01*
X21940D01*
Y121481D02*
Y124470D01*
X19183Y119942D02*
X21152D01*
X22897Y121403D02*
Y124470D01*
X26441D01*
Y121403D02*
Y124470D01*
Y115415D02*
Y118403D01*
X22897Y115415D02*
X26441D01*
X22897D02*
Y118403D01*
X23685Y119942D02*
X25654D01*
X62565Y145047D02*
X65632D01*
Y141504D02*
Y145047D01*
X62565Y141504D02*
X65632D01*
X56577D02*
X59565D01*
X56577D02*
Y145047D01*
X59565D01*
X61104Y142291D02*
Y144259D01*
X25300Y157940D02*
Y159909D01*
X20772Y160697D02*
X23761D01*
X20772Y157153D02*
Y160697D01*
Y157153D02*
X23761D01*
X26761D02*
X29827D01*
Y160697D01*
X26761D02*
X29827D01*
X54451Y153240D02*
Y156228D01*
X50908D02*
X54451D01*
X50908Y153240D02*
Y156228D01*
Y147173D02*
Y150240D01*
Y147173D02*
X54451D01*
Y150240D01*
X8023Y156168D02*
Y158137D01*
X3496Y158925D02*
X6484D01*
X3496Y155382D02*
Y158925D01*
Y155382D02*
X6484D01*
X9484D02*
X12551D01*
Y158925D01*
X9484D02*
X12551D01*
X37142Y141584D02*
X40209D01*
Y138041D02*
Y141584D01*
X37142Y138041D02*
X40209D01*
X31154D02*
X34142D01*
X31154D02*
Y141584D01*
X34142D01*
X35681Y138828D02*
Y140796D01*
X206100Y64901D02*
X205771Y65229D01*
X205116D01*
X204788Y64901D01*
Y63589D01*
X205116Y63261D01*
X205771D01*
X206100Y63589D01*
X206755D02*
X207083Y63261D01*
X207739D01*
X208067Y63589D01*
Y64901D01*
X207739Y65229D01*
X207083D01*
X206755Y64901D01*
Y64573D01*
X207083Y64245D01*
X208067D01*
X232215Y59606D02*
Y61574D01*
X233199D01*
X233527Y61246D01*
Y60590D01*
X233199Y60262D01*
X232215D01*
X232871D02*
X233527Y59606D01*
X234183D02*
X234839D01*
X234511D01*
Y61574D01*
X234183Y61246D01*
X235823Y59606D02*
X236479D01*
X236151D01*
Y61574D01*
X235823Y61246D01*
X115548Y64901D02*
X115220Y65229D01*
X114564D01*
X114236Y64901D01*
Y63589D01*
X114564Y63261D01*
X115220D01*
X115548Y63589D01*
X116204D02*
X116532Y63261D01*
X117188D01*
X117516Y63589D01*
Y64901D01*
X117188Y65229D01*
X116532D01*
X116204Y64901D01*
Y64573D01*
X116532Y64245D01*
X117516D01*
X141664Y59606D02*
Y61574D01*
X142648D01*
X142976Y61246D01*
Y60590D01*
X142648Y60262D01*
X141664D01*
X142320D02*
X142976Y59606D01*
X143632D02*
X144288D01*
X143960D01*
Y61574D01*
X143632Y61246D01*
X145272Y59606D02*
X145928D01*
X145600D01*
Y61574D01*
X145272Y61246D01*
X24997Y64901D02*
X24669Y65229D01*
X24013D01*
X23685Y64901D01*
Y63589D01*
X24013Y63261D01*
X24669D01*
X24997Y63589D01*
X25653D02*
X25981Y63261D01*
X26637D01*
X26965Y63589D01*
Y64901D01*
X26637Y65229D01*
X25981D01*
X25653Y64901D01*
Y64573D01*
X25981Y64245D01*
X26965D01*
X51113Y59606D02*
Y61574D01*
X52097D01*
X52425Y61246D01*
Y60590D01*
X52097Y60262D01*
X51113D01*
X51769D02*
X52425Y59606D01*
X53081D02*
X53737D01*
X53409D01*
Y61574D01*
X53081Y61246D01*
X54721Y59606D02*
X55376D01*
X55049D01*
Y61574D01*
X54721Y61246D01*
X205599Y162901D02*
X205272Y163229D01*
X204616D01*
X204288Y162901D01*
Y161589D01*
X204616Y161261D01*
X205272D01*
X205599Y161589D01*
X206255D02*
X206583Y161261D01*
X207239D01*
X207567Y161589D01*
Y162901D01*
X207239Y163229D01*
X206583D01*
X206255Y162901D01*
Y162573D01*
X206583Y162245D01*
X207567D01*
X231715Y157606D02*
Y159574D01*
X232699D01*
X233027Y159246D01*
Y158590D01*
X232699Y158262D01*
X231715D01*
X232371D02*
X233027Y157606D01*
X233683D02*
X234339D01*
X234011D01*
Y159574D01*
X233683Y159246D01*
X235323Y157606D02*
X235979D01*
X235651D01*
Y159574D01*
X235323Y159246D01*
X115048Y162901D02*
X114720Y163229D01*
X114064D01*
X113736Y162901D01*
Y161589D01*
X114064Y161261D01*
X114720D01*
X115048Y161589D01*
X115704D02*
X116032Y161261D01*
X116688D01*
X117016Y161589D01*
Y162901D01*
X116688Y163229D01*
X116032D01*
X115704Y162901D01*
Y162573D01*
X116032Y162245D01*
X117016D01*
X141164Y157606D02*
Y159574D01*
X142148D01*
X142476Y159246D01*
Y158590D01*
X142148Y158262D01*
X141164D01*
X141820D02*
X142476Y157606D01*
X143132D02*
X143788D01*
X143460D01*
Y159574D01*
X143132Y159246D01*
X144772Y157606D02*
X145428D01*
X145100D01*
Y159574D01*
X144772Y159246D01*
X24497Y162901D02*
X24169Y163229D01*
X23513D01*
X23185Y162901D01*
Y161589D01*
X23513Y161261D01*
X24169D01*
X24497Y161589D01*
X25153D02*
X25481Y161261D01*
X26137D01*
X26465Y161589D01*
Y162901D01*
X26137Y163229D01*
X25481D01*
X25153Y162901D01*
Y162573D01*
X25481Y162245D01*
X26465D01*
X50613Y157606D02*
Y159574D01*
X51597D01*
X51925Y159246D01*
Y158590D01*
X51597Y158262D01*
X50613D01*
X51269D02*
X51925Y157606D01*
X52581D02*
X53237D01*
X52909D01*
Y159574D01*
X52581Y159246D01*
X54221Y157606D02*
X54877D01*
X54549D01*
Y159574D01*
X54221Y159246D01*
G54D13*
X205893Y9227D02*
Y14227D01*
X202293D02*
X205893D01*
X202293Y9227D02*
X205893D01*
X194693D02*
X198293D01*
X194693D02*
Y14227D01*
X198293D01*
X222255Y31312D02*
Y36312D01*
Y31312D02*
X225855D01*
X222255Y36312D02*
X225855D01*
X229855D02*
X233455D01*
Y31312D02*
Y36312D01*
X229855Y31312D02*
X233455D01*
X234416Y27347D02*
X239416D01*
X234416Y23747D02*
Y27347D01*
X239416Y23747D02*
Y27347D01*
Y16147D02*
Y19747D01*
X234416Y16147D02*
X239416D01*
X234416D02*
Y19747D01*
X237543Y8875D02*
Y13875D01*
X233943D02*
X237543D01*
X233943Y8875D02*
X237543D01*
X226343D02*
X229943D01*
X226343D02*
Y13875D01*
X229943D01*
X191807Y15620D02*
X196807D01*
Y19220D01*
X191807Y15620D02*
Y19220D01*
Y23220D02*
Y26820D01*
X196807D01*
Y23220D02*
Y26820D01*
X199420Y31312D02*
Y36312D01*
Y31312D02*
X203020D01*
X199420Y36312D02*
X203020D01*
X207020D02*
X210620D01*
Y31312D02*
Y36312D01*
X207020Y31312D02*
X210620D01*
X115342Y9227D02*
Y14227D01*
X111742D02*
X115342D01*
X111742Y9227D02*
X115342D01*
X104142D02*
X107742D01*
X104142D02*
Y14227D01*
X107742D01*
X131704Y31312D02*
Y36312D01*
Y31312D02*
X135304D01*
X131704Y36312D02*
X135304D01*
X139304D02*
X142904D01*
Y31312D02*
Y36312D01*
X139304Y31312D02*
X142904D01*
X143864Y27347D02*
X148864D01*
X143864Y23747D02*
Y27347D01*
X148864Y23747D02*
Y27347D01*
Y16147D02*
Y19747D01*
X143864Y16147D02*
X148864D01*
X143864D02*
Y19747D01*
X146992Y8875D02*
Y13875D01*
X143392D02*
X146992D01*
X143392Y8875D02*
X146992D01*
X135792D02*
X139392D01*
X135792D02*
Y13875D01*
X139392D01*
X101256Y15620D02*
X106256D01*
Y19220D01*
X101256Y15620D02*
Y19220D01*
Y23220D02*
Y26820D01*
X106256D01*
Y23220D02*
Y26820D01*
X108869Y31312D02*
Y36312D01*
Y31312D02*
X112469D01*
X108869Y36312D02*
X112469D01*
X116469D02*
X120069D01*
Y31312D02*
Y36312D01*
X116469Y31312D02*
X120069D01*
X24791Y9227D02*
Y14227D01*
X21191D02*
X24791D01*
X21191Y9227D02*
X24791D01*
X13591D02*
X17191D01*
X13591D02*
Y14227D01*
X17191D01*
X41153Y31312D02*
Y36312D01*
Y31312D02*
X44753D01*
X41153Y36312D02*
X44753D01*
X48753D02*
X52353D01*
Y31312D02*
Y36312D01*
X48753Y31312D02*
X52353D01*
X53313Y27347D02*
X58313D01*
X53313Y23747D02*
Y27347D01*
X58313Y23747D02*
Y27347D01*
Y16147D02*
Y19747D01*
X53313Y16147D02*
X58313D01*
X53313D02*
Y19747D01*
X56441Y8875D02*
Y13875D01*
X52841D02*
X56441D01*
X52841Y8875D02*
X56441D01*
X45241D02*
X48841D01*
X45241D02*
Y13875D01*
X48841D01*
X10705Y15620D02*
X15705D01*
Y19220D01*
X10705Y15620D02*
Y19220D01*
Y23220D02*
Y26820D01*
X15705D01*
Y23220D02*
Y26820D01*
X18318Y31312D02*
Y36312D01*
Y31312D02*
X21918D01*
X18318Y36312D02*
X21918D01*
X25918D02*
X29518D01*
Y31312D02*
Y36312D01*
X25918Y31312D02*
X29518D01*
X205393Y107227D02*
Y112227D01*
X201793D02*
X205393D01*
X201793Y107227D02*
X205393D01*
X194193D02*
X197793D01*
X194193D02*
Y112227D01*
X197793D01*
X221755Y129312D02*
Y134312D01*
Y129312D02*
X225355D01*
X221755Y134312D02*
X225355D01*
X229355D02*
X232955D01*
Y129312D02*
Y134312D01*
X229355Y129312D02*
X232955D01*
X233916Y125347D02*
X238916D01*
X233916Y121747D02*
Y125347D01*
X238916Y121747D02*
Y125347D01*
Y114147D02*
Y117747D01*
X233916Y114147D02*
X238916D01*
X233916D02*
Y117747D01*
X237043Y106875D02*
Y111875D01*
X233443D02*
X237043D01*
X233443Y106875D02*
X237043D01*
X225843D02*
X229443D01*
X225843D02*
Y111875D01*
X229443D01*
X191307Y113620D02*
X196307D01*
Y117220D01*
X191307Y113620D02*
Y117220D01*
Y121220D02*
Y124820D01*
X196307D01*
Y121220D02*
Y124820D01*
X198920Y129312D02*
Y134312D01*
Y129312D02*
X202520D01*
X198920Y134312D02*
X202520D01*
X206520D02*
X210120D01*
Y129312D02*
Y134312D01*
X206520Y129312D02*
X210120D01*
X114842Y107227D02*
Y112227D01*
X111242D02*
X114842D01*
X111242Y107227D02*
X114842D01*
X103642D02*
X107242D01*
X103642D02*
Y112227D01*
X107242D01*
X131204Y129312D02*
Y134312D01*
Y129312D02*
X134804D01*
X131204Y134312D02*
X134804D01*
X138804D02*
X142404D01*
Y129312D02*
Y134312D01*
X138804Y129312D02*
X142404D01*
X143364Y125347D02*
X148364D01*
X143364Y121747D02*
Y125347D01*
X148364Y121747D02*
Y125347D01*
Y114147D02*
Y117747D01*
X143364Y114147D02*
X148364D01*
X143364D02*
Y117747D01*
X146492Y106875D02*
Y111875D01*
X142892D02*
X146492D01*
X142892Y106875D02*
X146492D01*
X135292D02*
X138892D01*
X135292D02*
Y111875D01*
X138892D01*
X100756Y113620D02*
X105756D01*
Y117220D01*
X100756Y113620D02*
Y117220D01*
Y121220D02*
Y124820D01*
X105756D01*
Y121220D02*
Y124820D01*
X108369Y129312D02*
Y134312D01*
Y129312D02*
X111969D01*
X108369Y134312D02*
X111969D01*
X115969D02*
X119569D01*
Y129312D02*
Y134312D01*
X115969Y129312D02*
X119569D01*
X24291Y107227D02*
Y112227D01*
X20691D02*
X24291D01*
X20691Y107227D02*
X24291D01*
X13091D02*
X16691D01*
X13091D02*
Y112227D01*
X16691D01*
X40653Y129312D02*
Y134312D01*
Y129312D02*
X44253D01*
X40653Y134312D02*
X44253D01*
X48253D02*
X51853D01*
Y129312D02*
Y134312D01*
X48253Y129312D02*
X51853D01*
X52813Y125347D02*
X57813D01*
X52813Y121747D02*
Y125347D01*
X57813Y121747D02*
Y125347D01*
Y114147D02*
Y117747D01*
X52813Y114147D02*
X57813D01*
X52813D02*
Y117747D01*
X55941Y106875D02*
Y111875D01*
X52341D02*
X55941D01*
X52341Y106875D02*
X55941D01*
X44741D02*
X48341D01*
X44741D02*
Y111875D01*
X48341D01*
X10205Y113620D02*
X15205D01*
Y117220D01*
X10205Y113620D02*
Y117220D01*
Y121220D02*
Y124820D01*
X15205D01*
Y121220D02*
Y124820D01*
X17818Y129312D02*
Y134312D01*
Y129312D02*
X21418D01*
X17818Y134312D02*
X21418D01*
X25418D02*
X29018D01*
Y129312D02*
Y134312D01*
X25418Y129312D02*
X29018D01*
G54D14*
X225192Y42594D02*
X223224D01*
Y43578D01*
X223552Y43906D01*
X224208D01*
X224536Y43578D01*
Y42594D01*
Y43250D02*
X225192Y43906D01*
Y44562D02*
Y45218D01*
Y44890D01*
X223224D01*
X223552Y44562D01*
Y46202D02*
X223224Y46530D01*
Y47186D01*
X223552Y47514D01*
X224864D01*
X225192Y47186D01*
Y46530D01*
X224864Y46202D01*
X223552D01*
X225456Y37992D02*
X223488D01*
Y38976D01*
X223816Y39304D01*
X224472D01*
X224800Y38976D01*
Y37992D01*
Y38648D02*
X225456Y39304D01*
X225128Y39960D02*
X225456Y40288D01*
Y40944D01*
X225128Y41272D01*
X223816D01*
X223488Y40944D01*
Y40288D01*
X223816Y39960D01*
X224144D01*
X224472Y40288D01*
Y41272D01*
X234282Y30564D02*
Y28924D01*
X234610Y28596D01*
X235266D01*
X235594Y28924D01*
Y30564D01*
X236250Y30236D02*
X236578Y30564D01*
X237234D01*
X237562Y30236D01*
Y29908D01*
X237234Y29580D01*
X236906D01*
X237234D01*
X237562Y29252D01*
Y28924D01*
X237234Y28596D01*
X236578D01*
X236250Y28924D01*
X248483Y22100D02*
X248155Y21772D01*
Y21116D01*
X248483Y20789D01*
X249795D01*
X250123Y21116D01*
Y21772D01*
X249795Y22100D01*
X248155Y22756D02*
Y24068D01*
X248483D01*
X249795Y22756D01*
X250123D01*
X197043Y5906D02*
Y7873D01*
X198027D01*
X198355Y7545D01*
Y6889D01*
X198027Y6561D01*
X197043D01*
X197699D02*
X198355Y5906D01*
X200323Y7873D02*
X199667Y7545D01*
X199011Y6889D01*
Y6233D01*
X199339Y5906D01*
X199995D01*
X200323Y6233D01*
Y6561D01*
X199995Y6889D01*
X199011D01*
X220965Y32997D02*
X218997D01*
Y33981D01*
X219325Y34308D01*
X219981D01*
X220309Y33981D01*
Y32997D01*
Y33652D02*
X220965Y34308D01*
X218997Y36276D02*
Y34964D01*
X219981D01*
X219653Y35620D01*
Y35948D01*
X219981Y36276D01*
X220637D01*
X220965Y35948D01*
Y35292D01*
X220637Y34964D01*
X223118Y17945D02*
Y16305D01*
X223446Y15977D01*
X224102D01*
X224430Y16305D01*
Y17945D01*
X225086Y15977D02*
X225742D01*
X225414D01*
Y17945D01*
X225086Y17617D01*
X216744Y64484D02*
Y62844D01*
X217072Y62516D01*
X217728D01*
X218056Y62844D01*
Y64484D01*
X220024Y62516D02*
X218712D01*
X220024Y63828D01*
Y64156D01*
X219696Y64484D01*
X219040D01*
X218712Y64156D01*
X190847Y54431D02*
Y56399D01*
X191830D01*
X192158Y56071D01*
Y55415D01*
X191830Y55087D01*
X190847D01*
X191502D02*
X192158Y54431D01*
X192814Y56071D02*
X193142Y56399D01*
X193798D01*
X194126Y56071D01*
Y55743D01*
X193798Y55415D01*
X194126Y55087D01*
Y54760D01*
X193798Y54431D01*
X193142D01*
X192814Y54760D01*
Y55087D01*
X193142Y55415D01*
X192814Y55743D01*
Y56071D01*
X193142Y55415D02*
X193798D01*
X183858Y54028D02*
Y55996D01*
X184842D01*
X185170Y55668D01*
Y55012D01*
X184842Y54684D01*
X183858D01*
X184514D02*
X185170Y54028D01*
X185826Y55996D02*
X187138D01*
Y55668D01*
X185826Y54356D01*
Y54028D01*
X232851Y20730D02*
X230883D01*
Y21713D01*
X231211Y22041D01*
X231867D01*
X232195Y21713D01*
Y20730D01*
Y21385D02*
X232851Y22041D01*
Y23681D02*
X230883D01*
X231867Y22697D01*
Y24009D01*
X227086Y15275D02*
Y17243D01*
X228070D01*
X228398Y16915D01*
Y16259D01*
X228070Y15931D01*
X227086D01*
X227742D02*
X228398Y15275D01*
X229053Y16915D02*
X229381Y17243D01*
X230037D01*
X230365Y16915D01*
Y16587D01*
X230037Y16259D01*
X229710D01*
X230037D01*
X230365Y15931D01*
Y15603D01*
X230037Y15275D01*
X229381D01*
X229053Y15603D01*
X192854Y27139D02*
Y29107D01*
X193838D01*
X194166Y28779D01*
Y28123D01*
X193838Y27795D01*
X192854D01*
X193510D02*
X194166Y27139D01*
X196134D02*
X194822D01*
X196134Y28451D01*
Y28779D01*
X195806Y29107D01*
X195150D01*
X194822Y28779D01*
X198425Y33046D02*
X196458D01*
Y34030D01*
X196786Y34358D01*
X197442D01*
X197770Y34030D01*
Y33046D01*
Y33702D02*
X198425Y34358D01*
Y35014D02*
Y35670D01*
Y35342D01*
X196458D01*
X196786Y35014D01*
X184330Y27467D02*
Y28779D01*
X184002Y29107D01*
X183346D01*
X183019Y28779D01*
Y27467D01*
X183346Y27139D01*
X184002D01*
X183674Y27795D02*
X184330Y27139D01*
X184002D02*
X184330Y27467D01*
X184986Y27139D02*
X185642D01*
X185314D01*
Y29107D01*
X184986Y28779D01*
X231105Y67976D02*
Y69944D01*
X232089D01*
X232417Y69616D01*
Y68960D01*
X232089Y68632D01*
X231105D01*
X234385Y67976D02*
X233073D01*
X234385Y69288D01*
Y69616D01*
X234057Y69944D01*
X233401D01*
X233073Y69616D01*
X230130Y1003D02*
Y2971D01*
X231114D01*
X231442Y2643D01*
Y1987D01*
X231114Y1660D01*
X230130D01*
X232098Y1003D02*
X232754D01*
X232426D01*
Y2971D01*
X232098Y2643D01*
X228828Y61320D02*
X228500Y61648D01*
X227843D01*
X227516Y61320D01*
Y60008D01*
X227843Y59680D01*
X228500D01*
X228828Y60008D01*
X230795Y61648D02*
X230139Y61320D01*
X229483Y60664D01*
Y60008D01*
X229811Y59680D01*
X230467D01*
X230795Y60008D01*
Y60336D01*
X230467Y60664D01*
X229483D01*
X185101Y13398D02*
X184773Y13726D01*
X184117D01*
X183789Y13398D01*
Y12086D01*
X184117Y11758D01*
X184773D01*
X185101Y12086D01*
X186741Y11758D02*
Y13726D01*
X185757Y12742D01*
X187069D01*
X203312Y29390D02*
X203640Y29718D01*
Y30374D01*
X203312Y30702D01*
X202000D01*
X201672Y30374D01*
Y29718D01*
X202000Y29390D01*
X203312Y28734D02*
X203640Y28406D01*
Y27750D01*
X203312Y27422D01*
X202984D01*
X202656Y27750D01*
Y28078D01*
Y27750D01*
X202328Y27422D01*
X202000D01*
X201672Y27750D01*
Y28406D01*
X202000Y28734D01*
X207813Y29488D02*
X208141Y29816D01*
Y30472D01*
X207813Y30800D01*
X206501D01*
X206173Y30472D01*
Y29816D01*
X206501Y29488D01*
X206173Y27521D02*
Y28833D01*
X207485Y27521D01*
X207813D01*
X208141Y27849D01*
Y28504D01*
X207813Y28833D01*
X243242Y49608D02*
X242914Y49936D01*
X242258D01*
X241930Y49608D01*
Y48296D01*
X242258Y47968D01*
X242914D01*
X243242Y48296D01*
X243898Y47968D02*
X244554D01*
X244226D01*
Y49936D01*
X243898Y49608D01*
X192257Y63492D02*
X191929Y63820D01*
X191273D01*
X190945Y63492D01*
Y62180D01*
X191273Y61852D01*
X191929D01*
X192257Y62180D01*
X192913Y63492D02*
X193241Y63820D01*
X193897D01*
X194225Y63492D01*
Y63164D01*
X193897Y62836D01*
X194225Y62508D01*
Y62180D01*
X193897Y61852D01*
X193241D01*
X192913Y62180D01*
Y62508D01*
X193241Y62836D01*
X192913Y63164D01*
Y63492D01*
X193241Y62836D02*
X193897D01*
X216724Y39041D02*
X216396Y39369D01*
X215740D01*
X215412Y39041D01*
Y37729D01*
X215740Y37402D01*
X216396D01*
X216724Y37729D01*
X218692Y39369D02*
X217380D01*
Y38385D01*
X218036Y38713D01*
X218364D01*
X218692Y38385D01*
Y37729D01*
X218364Y37402D01*
X217708D01*
X217380Y37729D01*
X134641Y42594D02*
X132673D01*
Y43578D01*
X133001Y43906D01*
X133657D01*
X133985Y43578D01*
Y42594D01*
Y43250D02*
X134641Y43906D01*
Y44562D02*
Y45218D01*
Y44890D01*
X132673D01*
X133001Y44562D01*
Y46202D02*
X132673Y46530D01*
Y47186D01*
X133001Y47514D01*
X134313D01*
X134641Y47186D01*
Y46530D01*
X134313Y46202D01*
X133001D01*
X134905Y37992D02*
X132937D01*
Y38976D01*
X133265Y39304D01*
X133921D01*
X134249Y38976D01*
Y37992D01*
Y38648D02*
X134905Y39304D01*
X134577Y39960D02*
X134905Y40288D01*
Y40944D01*
X134577Y41272D01*
X133265D01*
X132937Y40944D01*
Y40288D01*
X133265Y39960D01*
X133593D01*
X133921Y40288D01*
Y41272D01*
X143731Y30564D02*
Y28924D01*
X144059Y28596D01*
X144715D01*
X145043Y28924D01*
Y30564D01*
X145699Y30236D02*
X146027Y30564D01*
X146683D01*
X147011Y30236D01*
Y29908D01*
X146683Y29580D01*
X146355D01*
X146683D01*
X147011Y29252D01*
Y28924D01*
X146683Y28596D01*
X146027D01*
X145699Y28924D01*
X157932Y22100D02*
X157604Y21772D01*
Y21116D01*
X157932Y20789D01*
X159244D01*
X159572Y21116D01*
Y21772D01*
X159244Y22100D01*
X157604Y22756D02*
Y24068D01*
X157932D01*
X159244Y22756D01*
X159572D01*
X106492Y5906D02*
Y7873D01*
X107476D01*
X107804Y7545D01*
Y6889D01*
X107476Y6561D01*
X106492D01*
X107148D02*
X107804Y5906D01*
X109772Y7873D02*
X109116Y7545D01*
X108460Y6889D01*
Y6233D01*
X108788Y5906D01*
X109444D01*
X109772Y6233D01*
Y6561D01*
X109444Y6889D01*
X108460D01*
X130414Y32997D02*
X128446D01*
Y33981D01*
X128774Y34308D01*
X129430D01*
X129758Y33981D01*
Y32997D01*
Y33652D02*
X130414Y34308D01*
X128446Y36276D02*
Y34964D01*
X129430D01*
X129102Y35620D01*
Y35948D01*
X129430Y36276D01*
X130086D01*
X130414Y35948D01*
Y35292D01*
X130086Y34964D01*
X132567Y17945D02*
Y16305D01*
X132895Y15977D01*
X133551D01*
X133879Y16305D01*
Y17945D01*
X134535Y15977D02*
X135191D01*
X134863D01*
Y17945D01*
X134535Y17617D01*
X126193Y64484D02*
Y62844D01*
X126521Y62516D01*
X127177D01*
X127505Y62844D01*
Y64484D01*
X129473Y62516D02*
X128161D01*
X129473Y63828D01*
Y64156D01*
X129145Y64484D01*
X128489D01*
X128161Y64156D01*
X100295Y54431D02*
Y56399D01*
X101279D01*
X101607Y56071D01*
Y55415D01*
X101279Y55087D01*
X100295D01*
X100951D02*
X101607Y54431D01*
X102263Y56071D02*
X102591Y56399D01*
X103247D01*
X103575Y56071D01*
Y55743D01*
X103247Y55415D01*
X103575Y55087D01*
Y54760D01*
X103247Y54431D01*
X102591D01*
X102263Y54760D01*
Y55087D01*
X102591Y55415D01*
X102263Y55743D01*
Y56071D01*
X102591Y55415D02*
X103247D01*
X93307Y54028D02*
Y55996D01*
X94291D01*
X94619Y55668D01*
Y55012D01*
X94291Y54684D01*
X93307D01*
X93963D02*
X94619Y54028D01*
X95275Y55996D02*
X96587D01*
Y55668D01*
X95275Y54356D01*
Y54028D01*
X142300Y20730D02*
X140332D01*
Y21713D01*
X140660Y22041D01*
X141316D01*
X141644Y21713D01*
Y20730D01*
Y21385D02*
X142300Y22041D01*
Y23681D02*
X140332D01*
X141316Y22697D01*
Y24009D01*
X136535Y15275D02*
Y17243D01*
X137518D01*
X137846Y16915D01*
Y16259D01*
X137518Y15931D01*
X136535D01*
X137190D02*
X137846Y15275D01*
X138502Y16915D02*
X138830Y17243D01*
X139486D01*
X139814Y16915D01*
Y16587D01*
X139486Y16259D01*
X139158D01*
X139486D01*
X139814Y15931D01*
Y15603D01*
X139486Y15275D01*
X138830D01*
X138502Y15603D01*
X102303Y27139D02*
Y29107D01*
X103287D01*
X103615Y28779D01*
Y28123D01*
X103287Y27795D01*
X102303D01*
X102959D02*
X103615Y27139D01*
X105583D02*
X104271D01*
X105583Y28451D01*
Y28779D01*
X105255Y29107D01*
X104599D01*
X104271Y28779D01*
X107874Y33046D02*
X105906D01*
Y34030D01*
X106235Y34358D01*
X106890D01*
X107218Y34030D01*
Y33046D01*
Y33702D02*
X107874Y34358D01*
Y35014D02*
Y35670D01*
Y35342D01*
X105906D01*
X106235Y35014D01*
X93779Y27467D02*
Y28779D01*
X93451Y29107D01*
X92795D01*
X92467Y28779D01*
Y27467D01*
X92795Y27139D01*
X93451D01*
X93123Y27795D02*
X93779Y27139D01*
X93451D02*
X93779Y27467D01*
X94435Y27139D02*
X95091D01*
X94763D01*
Y29107D01*
X94435Y28779D01*
X140554Y67976D02*
Y69944D01*
X141538D01*
X141866Y69616D01*
Y68960D01*
X141538Y68632D01*
X140554D01*
X143833Y67976D02*
X142522D01*
X143833Y69288D01*
Y69616D01*
X143506Y69944D01*
X142850D01*
X142522Y69616D01*
X139579Y1003D02*
Y2971D01*
X140563D01*
X140891Y2643D01*
Y1987D01*
X140563Y1660D01*
X139579D01*
X141547Y1003D02*
X142203D01*
X141875D01*
Y2971D01*
X141547Y2643D01*
X138276Y61320D02*
X137948Y61648D01*
X137292D01*
X136964Y61320D01*
Y60008D01*
X137292Y59680D01*
X137948D01*
X138276Y60008D01*
X140244Y61648D02*
X139588Y61320D01*
X138932Y60664D01*
Y60008D01*
X139260Y59680D01*
X139916D01*
X140244Y60008D01*
Y60336D01*
X139916Y60664D01*
X138932D01*
X94550Y13398D02*
X94222Y13726D01*
X93566D01*
X93238Y13398D01*
Y12086D01*
X93566Y11758D01*
X94222D01*
X94550Y12086D01*
X96190Y11758D02*
Y13726D01*
X95206Y12742D01*
X96518D01*
X112761Y29390D02*
X113089Y29718D01*
Y30374D01*
X112761Y30702D01*
X111449D01*
X111121Y30374D01*
Y29718D01*
X111449Y29390D01*
X112761Y28734D02*
X113089Y28406D01*
Y27750D01*
X112761Y27422D01*
X112433D01*
X112105Y27750D01*
Y28078D01*
Y27750D01*
X111777Y27422D01*
X111449D01*
X111121Y27750D01*
Y28406D01*
X111449Y28734D01*
X117262Y29488D02*
X117589Y29816D01*
Y30472D01*
X117262Y30800D01*
X115950D01*
X115622Y30472D01*
Y29816D01*
X115950Y29488D01*
X115622Y27521D02*
Y28833D01*
X116934Y27521D01*
X117262D01*
X117589Y27849D01*
Y28504D01*
X117262Y28833D01*
X152691Y49608D02*
X152363Y49936D01*
X151707D01*
X151379Y49608D01*
Y48296D01*
X151707Y47968D01*
X152363D01*
X152691Y48296D01*
X153347Y47968D02*
X154003D01*
X153675D01*
Y49936D01*
X153347Y49608D01*
X101706Y63492D02*
X101377Y63820D01*
X100722D01*
X100394Y63492D01*
Y62180D01*
X100722Y61852D01*
X101377D01*
X101706Y62180D01*
X102362Y63492D02*
X102690Y63820D01*
X103345D01*
X103673Y63492D01*
Y63164D01*
X103345Y62836D01*
X103673Y62508D01*
Y62180D01*
X103345Y61852D01*
X102690D01*
X102362Y62180D01*
Y62508D01*
X102690Y62836D01*
X102362Y63164D01*
Y63492D01*
X102690Y62836D02*
X103345D01*
X126172Y39041D02*
X125845Y39369D01*
X125189D01*
X124861Y39041D01*
Y37729D01*
X125189Y37402D01*
X125845D01*
X126172Y37729D01*
X128140Y39369D02*
X126829D01*
Y38385D01*
X127484Y38713D01*
X127812D01*
X128140Y38385D01*
Y37729D01*
X127812Y37402D01*
X127156D01*
X126829Y37729D01*
X44090Y42594D02*
X42122D01*
Y43578D01*
X42450Y43906D01*
X43106D01*
X43434Y43578D01*
Y42594D01*
Y43250D02*
X44090Y43906D01*
Y44562D02*
Y45218D01*
Y44890D01*
X42122D01*
X42450Y44562D01*
Y46202D02*
X42122Y46530D01*
Y47186D01*
X42450Y47514D01*
X43762D01*
X44090Y47186D01*
Y46530D01*
X43762Y46202D01*
X42450D01*
X44354Y37992D02*
X42386D01*
Y38976D01*
X42714Y39304D01*
X43370D01*
X43698Y38976D01*
Y37992D01*
Y38648D02*
X44354Y39304D01*
X44026Y39960D02*
X44354Y40288D01*
Y40944D01*
X44026Y41272D01*
X42714D01*
X42386Y40944D01*
Y40288D01*
X42714Y39960D01*
X43042D01*
X43370Y40288D01*
Y41272D01*
X53180Y30564D02*
Y28924D01*
X53508Y28596D01*
X54164D01*
X54492Y28924D01*
Y30564D01*
X55148Y30236D02*
X55476Y30564D01*
X56132D01*
X56459Y30236D01*
Y29908D01*
X56132Y29580D01*
X55804D01*
X56132D01*
X56459Y29252D01*
Y28924D01*
X56132Y28596D01*
X55476D01*
X55148Y28924D01*
X67381Y22100D02*
X67053Y21772D01*
Y21116D01*
X67381Y20789D01*
X68693D01*
X69020Y21116D01*
Y21772D01*
X68693Y22100D01*
X67053Y22756D02*
Y24068D01*
X67381D01*
X68693Y22756D01*
X69020D01*
X15941Y5906D02*
Y7873D01*
X16925D01*
X17253Y7545D01*
Y6889D01*
X16925Y6561D01*
X15941D01*
X16597D02*
X17253Y5906D01*
X19221Y7873D02*
X18565Y7545D01*
X17909Y6889D01*
Y6233D01*
X18237Y5906D01*
X18893D01*
X19221Y6233D01*
Y6561D01*
X18893Y6889D01*
X17909D01*
X39863Y32997D02*
X37895D01*
Y33981D01*
X38223Y34308D01*
X38879D01*
X39207Y33981D01*
Y32997D01*
Y33652D02*
X39863Y34308D01*
X37895Y36276D02*
Y34964D01*
X38879D01*
X38551Y35620D01*
Y35948D01*
X38879Y36276D01*
X39535D01*
X39863Y35948D01*
Y35292D01*
X39535Y34964D01*
X42016Y17945D02*
Y16305D01*
X42344Y15977D01*
X43000D01*
X43328Y16305D01*
Y17945D01*
X43984Y15977D02*
X44640D01*
X44311D01*
Y17945D01*
X43984Y17617D01*
X35642Y64484D02*
Y62844D01*
X35970Y62516D01*
X36626D01*
X36954Y62844D01*
Y64484D01*
X38922Y62516D02*
X37610D01*
X38922Y63828D01*
Y64156D01*
X38594Y64484D01*
X37938D01*
X37610Y64156D01*
X9744Y54431D02*
Y56399D01*
X10728D01*
X11056Y56071D01*
Y55415D01*
X10728Y55087D01*
X9744D01*
X10400D02*
X11056Y54431D01*
X11712Y56071D02*
X12040Y56399D01*
X12696D01*
X13024Y56071D01*
Y55743D01*
X12696Y55415D01*
X13024Y55087D01*
Y54760D01*
X12696Y54431D01*
X12040D01*
X11712Y54760D01*
Y55087D01*
X12040Y55415D01*
X11712Y55743D01*
Y56071D01*
X12040Y55415D02*
X12696D01*
X2756Y54028D02*
Y55996D01*
X3740D01*
X4068Y55668D01*
Y55012D01*
X3740Y54684D01*
X2756D01*
X3412D02*
X4068Y54028D01*
X4724Y55996D02*
X6036D01*
Y55668D01*
X4724Y54356D01*
Y54028D01*
X51749Y20730D02*
X49781D01*
Y21713D01*
X50109Y22041D01*
X50765D01*
X51093Y21713D01*
Y20730D01*
Y21385D02*
X51749Y22041D01*
Y23681D02*
X49781D01*
X50765Y22697D01*
Y24009D01*
X45983Y15275D02*
Y17243D01*
X46967D01*
X47295Y16915D01*
Y16259D01*
X46967Y15931D01*
X45983D01*
X46639D02*
X47295Y15275D01*
X47951Y16915D02*
X48279Y17243D01*
X48935D01*
X49263Y16915D01*
Y16587D01*
X48935Y16259D01*
X48607D01*
X48935D01*
X49263Y15931D01*
Y15603D01*
X48935Y15275D01*
X48279D01*
X47951Y15603D01*
X11752Y27139D02*
Y29107D01*
X12736D01*
X13064Y28779D01*
Y28123D01*
X12736Y27795D01*
X11752D01*
X12408D02*
X13064Y27139D01*
X15032D02*
X13720D01*
X15032Y28451D01*
Y28779D01*
X14704Y29107D01*
X14048D01*
X13720Y28779D01*
X17323Y33046D02*
X15355D01*
Y34030D01*
X15683Y34358D01*
X16339D01*
X16667Y34030D01*
Y33046D01*
Y33702D02*
X17323Y34358D01*
Y35014D02*
Y35670D01*
Y35342D01*
X15355D01*
X15683Y35014D01*
X3228Y27467D02*
Y28779D01*
X2900Y29107D01*
X2244D01*
X1916Y28779D01*
Y27467D01*
X2244Y27139D01*
X2900D01*
X2572Y27795D02*
X3228Y27139D01*
X2900D02*
X3228Y27467D01*
X3884Y27139D02*
X4540D01*
X4212D01*
Y29107D01*
X3884Y28779D01*
X50003Y67976D02*
Y69944D01*
X50986D01*
X51315Y69616D01*
Y68960D01*
X50986Y68632D01*
X50003D01*
X53282Y67976D02*
X51970D01*
X53282Y69288D01*
Y69616D01*
X52954Y69944D01*
X52298D01*
X51970Y69616D01*
X49028Y1003D02*
Y2971D01*
X50011D01*
X50340Y2643D01*
Y1987D01*
X50011Y1660D01*
X49028D01*
X50995Y1003D02*
X51651D01*
X51323D01*
Y2971D01*
X50995Y2643D01*
X47725Y61320D02*
X47397Y61648D01*
X46741D01*
X46413Y61320D01*
Y60008D01*
X46741Y59680D01*
X47397D01*
X47725Y60008D01*
X49693Y61648D02*
X49037Y61320D01*
X48381Y60664D01*
Y60008D01*
X48709Y59680D01*
X49365D01*
X49693Y60008D01*
Y60336D01*
X49365Y60664D01*
X48381D01*
X3999Y13398D02*
X3671Y13726D01*
X3015D01*
X2687Y13398D01*
Y12086D01*
X3015Y11758D01*
X3671D01*
X3999Y12086D01*
X5638Y11758D02*
Y13726D01*
X4655Y12742D01*
X5966D01*
X22209Y29390D02*
X22537Y29718D01*
Y30374D01*
X22209Y30702D01*
X20898D01*
X20570Y30374D01*
Y29718D01*
X20898Y29390D01*
X22209Y28734D02*
X22537Y28406D01*
Y27750D01*
X22209Y27422D01*
X21881D01*
X21553Y27750D01*
Y28078D01*
Y27750D01*
X21226Y27422D01*
X20898D01*
X20570Y27750D01*
Y28406D01*
X20898Y28734D01*
X26710Y29488D02*
X27038Y29816D01*
Y30472D01*
X26710Y30800D01*
X25398D01*
X25070Y30472D01*
Y29816D01*
X25398Y29488D01*
X25070Y27521D02*
Y28833D01*
X26382Y27521D01*
X26710D01*
X27038Y27849D01*
Y28504D01*
X26710Y28833D01*
X62139Y49608D02*
X61812Y49936D01*
X61156D01*
X60828Y49608D01*
Y48296D01*
X61156Y47968D01*
X61812D01*
X62139Y48296D01*
X62796Y47968D02*
X63451D01*
X63124D01*
Y49936D01*
X62796Y49608D01*
X11154Y63492D02*
X10826Y63820D01*
X10170D01*
X9842Y63492D01*
Y62180D01*
X10170Y61852D01*
X10826D01*
X11154Y62180D01*
X11810Y63492D02*
X12138Y63820D01*
X12794D01*
X13122Y63492D01*
Y63164D01*
X12794Y62836D01*
X13122Y62508D01*
Y62180D01*
X12794Y61852D01*
X12138D01*
X11810Y62180D01*
Y62508D01*
X12138Y62836D01*
X11810Y63164D01*
Y63492D01*
X12138Y62836D02*
X12794D01*
X35621Y39041D02*
X35293Y39369D01*
X34637D01*
X34309Y39041D01*
Y37729D01*
X34637Y37402D01*
X35293D01*
X35621Y37729D01*
X37589Y39369D02*
X36277D01*
Y38385D01*
X36933Y38713D01*
X37261D01*
X37589Y38385D01*
Y37729D01*
X37261Y37402D01*
X36605D01*
X36277Y37729D01*
X224692Y140594D02*
X222724D01*
Y141578D01*
X223052Y141906D01*
X223708D01*
X224036Y141578D01*
Y140594D01*
Y141250D02*
X224692Y141906D01*
Y142562D02*
Y143218D01*
Y142890D01*
X222724D01*
X223052Y142562D01*
Y144202D02*
X222724Y144530D01*
Y145186D01*
X223052Y145514D01*
X224364D01*
X224692Y145186D01*
Y144530D01*
X224364Y144202D01*
X223052D01*
X224956Y135992D02*
X222988D01*
Y136976D01*
X223316Y137304D01*
X223972D01*
X224300Y136976D01*
Y135992D01*
Y136648D02*
X224956Y137304D01*
X224628Y137960D02*
X224956Y138288D01*
Y138944D01*
X224628Y139272D01*
X223316D01*
X222988Y138944D01*
Y138288D01*
X223316Y137960D01*
X223644D01*
X223972Y138288D01*
Y139272D01*
X233782Y128564D02*
Y126924D01*
X234110Y126596D01*
X234766D01*
X235094Y126924D01*
Y128564D01*
X235750Y128236D02*
X236078Y128564D01*
X236734D01*
X237062Y128236D01*
Y127908D01*
X236734Y127580D01*
X236406D01*
X236734D01*
X237062Y127252D01*
Y126924D01*
X236734Y126596D01*
X236078D01*
X235750Y126924D01*
X247983Y120100D02*
X247655Y119773D01*
Y119116D01*
X247983Y118789D01*
X249295D01*
X249623Y119116D01*
Y119773D01*
X249295Y120100D01*
X247655Y120756D02*
Y122068D01*
X247983D01*
X249295Y120756D01*
X249623D01*
X196543Y103905D02*
Y105873D01*
X197527D01*
X197855Y105545D01*
Y104889D01*
X197527Y104561D01*
X196543D01*
X197199D02*
X197855Y103905D01*
X199823Y105873D02*
X199167Y105545D01*
X198511Y104889D01*
Y104234D01*
X198839Y103905D01*
X199495D01*
X199823Y104234D01*
Y104561D01*
X199495Y104889D01*
X198511D01*
X220465Y130997D02*
X218497D01*
Y131981D01*
X218825Y132308D01*
X219481D01*
X219809Y131981D01*
Y130997D01*
Y131652D02*
X220465Y132308D01*
X218497Y134276D02*
Y132964D01*
X219481D01*
X219153Y133620D01*
Y133948D01*
X219481Y134276D01*
X220137D01*
X220465Y133948D01*
Y133292D01*
X220137Y132964D01*
X222618Y115945D02*
Y114305D01*
X222946Y113977D01*
X223602D01*
X223930Y114305D01*
Y115945D01*
X224586Y113977D02*
X225242D01*
X224914D01*
Y115945D01*
X224586Y115617D01*
X216244Y162484D02*
Y160844D01*
X216572Y160516D01*
X217228D01*
X217556Y160844D01*
Y162484D01*
X219524Y160516D02*
X218212D01*
X219524Y161828D01*
Y162156D01*
X219196Y162484D01*
X218540D01*
X218212Y162156D01*
X190347Y152431D02*
Y154399D01*
X191330D01*
X191658Y154071D01*
Y153415D01*
X191330Y153087D01*
X190347D01*
X191002D02*
X191658Y152431D01*
X192314Y154071D02*
X192642Y154399D01*
X193298D01*
X193626Y154071D01*
Y153743D01*
X193298Y153415D01*
X193626Y153087D01*
Y152760D01*
X193298Y152431D01*
X192642D01*
X192314Y152760D01*
Y153087D01*
X192642Y153415D01*
X192314Y153743D01*
Y154071D01*
X192642Y153415D02*
X193298D01*
X183358Y152028D02*
Y153996D01*
X184342D01*
X184670Y153668D01*
Y153012D01*
X184342Y152684D01*
X183358D01*
X184014D02*
X184670Y152028D01*
X185326Y153996D02*
X186638D01*
Y153668D01*
X185326Y152356D01*
Y152028D01*
X232351Y118729D02*
X230383D01*
Y119713D01*
X230711Y120041D01*
X231367D01*
X231695Y119713D01*
Y118729D01*
Y119385D02*
X232351Y120041D01*
Y121681D02*
X230383D01*
X231367Y120697D01*
Y122009D01*
X226586Y113275D02*
Y115243D01*
X227570D01*
X227898Y114915D01*
Y114259D01*
X227570Y113931D01*
X226586D01*
X227242D02*
X227898Y113275D01*
X228554Y114915D02*
X228882Y115243D01*
X229537D01*
X229865Y114915D01*
Y114587D01*
X229537Y114259D01*
X229209D01*
X229537D01*
X229865Y113931D01*
Y113603D01*
X229537Y113275D01*
X228882D01*
X228554Y113603D01*
X192354Y125139D02*
Y127107D01*
X193338D01*
X193666Y126779D01*
Y126123D01*
X193338Y125795D01*
X192354D01*
X193010D02*
X193666Y125139D01*
X195634D02*
X194322D01*
X195634Y126451D01*
Y126779D01*
X195306Y127107D01*
X194650D01*
X194322Y126779D01*
X197925Y131046D02*
X195958D01*
Y132030D01*
X196286Y132358D01*
X196942D01*
X197270Y132030D01*
Y131046D01*
Y131702D02*
X197925Y132358D01*
Y133014D02*
Y133670D01*
Y133342D01*
X195958D01*
X196286Y133014D01*
X183830Y125467D02*
Y126779D01*
X183502Y127107D01*
X182846D01*
X182518Y126779D01*
Y125467D01*
X182846Y125139D01*
X183502D01*
X183174Y125795D02*
X183830Y125139D01*
X183502D02*
X183830Y125467D01*
X184486Y125139D02*
X185142D01*
X184814D01*
Y127107D01*
X184486Y126779D01*
X230605Y165976D02*
Y167944D01*
X231589D01*
X231917Y167616D01*
Y166960D01*
X231589Y166632D01*
X230605D01*
X233885Y165976D02*
X232573D01*
X233885Y167288D01*
Y167616D01*
X233557Y167944D01*
X232901D01*
X232573Y167616D01*
X229630Y99003D02*
Y100971D01*
X230614D01*
X230942Y100643D01*
Y99988D01*
X230614Y99660D01*
X229630D01*
X231598Y99003D02*
X232254D01*
X231926D01*
Y100971D01*
X231598Y100643D01*
X228327Y159320D02*
X227999Y159648D01*
X227344D01*
X227015Y159320D01*
Y158008D01*
X227344Y157680D01*
X227999D01*
X228327Y158008D01*
X230295Y159648D02*
X229639Y159320D01*
X228983Y158664D01*
Y158008D01*
X229311Y157680D01*
X229967D01*
X230295Y158008D01*
Y158336D01*
X229967Y158664D01*
X228983D01*
X184601Y111398D02*
X184273Y111726D01*
X183617D01*
X183289Y111398D01*
Y110086D01*
X183617Y109758D01*
X184273D01*
X184601Y110086D01*
X186241Y109758D02*
Y111726D01*
X185257Y110742D01*
X186569D01*
X202812Y127390D02*
X203140Y127718D01*
Y128374D01*
X202812Y128702D01*
X201500D01*
X201172Y128374D01*
Y127718D01*
X201500Y127390D01*
X202812Y126734D02*
X203140Y126406D01*
Y125750D01*
X202812Y125422D01*
X202484D01*
X202156Y125750D01*
Y126078D01*
Y125750D01*
X201828Y125422D01*
X201500D01*
X201172Y125750D01*
Y126406D01*
X201500Y126734D01*
X207313Y127488D02*
X207641Y127816D01*
Y128472D01*
X207313Y128800D01*
X206001D01*
X205673Y128472D01*
Y127816D01*
X206001Y127488D01*
X205673Y125521D02*
Y126832D01*
X206985Y125521D01*
X207313D01*
X207641Y125849D01*
Y126505D01*
X207313Y126832D01*
X242742Y147608D02*
X242414Y147936D01*
X241758D01*
X241430Y147608D01*
Y146296D01*
X241758Y145968D01*
X242414D01*
X242742Y146296D01*
X243398Y145968D02*
X244054D01*
X243726D01*
Y147936D01*
X243398Y147608D01*
X191757Y161492D02*
X191429Y161820D01*
X190773D01*
X190445Y161492D01*
Y160180D01*
X190773Y159852D01*
X191429D01*
X191757Y160180D01*
X192413Y161492D02*
X192741Y161820D01*
X193397D01*
X193725Y161492D01*
Y161164D01*
X193397Y160836D01*
X193725Y160508D01*
Y160180D01*
X193397Y159852D01*
X192741D01*
X192413Y160180D01*
Y160508D01*
X192741Y160836D01*
X192413Y161164D01*
Y161492D01*
X192741Y160836D02*
X193397D01*
X216224Y137041D02*
X215896Y137369D01*
X215240D01*
X214912Y137041D01*
Y135730D01*
X215240Y135402D01*
X215896D01*
X216224Y135730D01*
X218192Y137369D02*
X216880D01*
Y136386D01*
X217536Y136714D01*
X217864D01*
X218192Y136386D01*
Y135730D01*
X217864Y135402D01*
X217208D01*
X216880Y135730D01*
X134141Y140594D02*
X132173D01*
Y141578D01*
X132501Y141906D01*
X133157D01*
X133485Y141578D01*
Y140594D01*
Y141250D02*
X134141Y141906D01*
Y142562D02*
Y143218D01*
Y142890D01*
X132173D01*
X132501Y142562D01*
Y144202D02*
X132173Y144530D01*
Y145186D01*
X132501Y145514D01*
X133813D01*
X134141Y145186D01*
Y144530D01*
X133813Y144202D01*
X132501D01*
X134405Y135992D02*
X132437D01*
Y136976D01*
X132765Y137304D01*
X133421D01*
X133749Y136976D01*
Y135992D01*
Y136648D02*
X134405Y137304D01*
X134077Y137960D02*
X134405Y138288D01*
Y138944D01*
X134077Y139272D01*
X132765D01*
X132437Y138944D01*
Y138288D01*
X132765Y137960D01*
X133093D01*
X133421Y138288D01*
Y139272D01*
X143231Y128564D02*
Y126924D01*
X143559Y126596D01*
X144215D01*
X144543Y126924D01*
Y128564D01*
X145199Y128236D02*
X145527Y128564D01*
X146183D01*
X146511Y128236D01*
Y127908D01*
X146183Y127580D01*
X145855D01*
X146183D01*
X146511Y127252D01*
Y126924D01*
X146183Y126596D01*
X145527D01*
X145199Y126924D01*
X157432Y120100D02*
X157104Y119773D01*
Y119116D01*
X157432Y118789D01*
X158744D01*
X159072Y119116D01*
Y119773D01*
X158744Y120100D01*
X157104Y120756D02*
Y122068D01*
X157432D01*
X158744Y120756D01*
X159072D01*
X105992Y103905D02*
Y105873D01*
X106976D01*
X107304Y105545D01*
Y104889D01*
X106976Y104561D01*
X105992D01*
X106648D02*
X107304Y103905D01*
X109272Y105873D02*
X108616Y105545D01*
X107960Y104889D01*
Y104234D01*
X108288Y103905D01*
X108944D01*
X109272Y104234D01*
Y104561D01*
X108944Y104889D01*
X107960D01*
X129914Y130997D02*
X127946D01*
Y131981D01*
X128274Y132308D01*
X128930D01*
X129258Y131981D01*
Y130997D01*
Y131652D02*
X129914Y132308D01*
X127946Y134276D02*
Y132964D01*
X128930D01*
X128602Y133620D01*
Y133948D01*
X128930Y134276D01*
X129586D01*
X129914Y133948D01*
Y133292D01*
X129586Y132964D01*
X132067Y115945D02*
Y114305D01*
X132395Y113977D01*
X133051D01*
X133379Y114305D01*
Y115945D01*
X134035Y113977D02*
X134691D01*
X134363D01*
Y115945D01*
X134035Y115617D01*
X125693Y162484D02*
Y160844D01*
X126021Y160516D01*
X126677D01*
X127005Y160844D01*
Y162484D01*
X128973Y160516D02*
X127661D01*
X128973Y161828D01*
Y162156D01*
X128645Y162484D01*
X127989D01*
X127661Y162156D01*
X99795Y152431D02*
Y154399D01*
X100779D01*
X101107Y154071D01*
Y153415D01*
X100779Y153087D01*
X99795D01*
X100451D02*
X101107Y152431D01*
X101763Y154071D02*
X102091Y154399D01*
X102747D01*
X103075Y154071D01*
Y153743D01*
X102747Y153415D01*
X103075Y153087D01*
Y152760D01*
X102747Y152431D01*
X102091D01*
X101763Y152760D01*
Y153087D01*
X102091Y153415D01*
X101763Y153743D01*
Y154071D01*
X102091Y153415D02*
X102747D01*
X92807Y152028D02*
Y153996D01*
X93791D01*
X94119Y153668D01*
Y153012D01*
X93791Y152684D01*
X92807D01*
X93463D02*
X94119Y152028D01*
X94775Y153996D02*
X96087D01*
Y153668D01*
X94775Y152356D01*
Y152028D01*
X141800Y118729D02*
X139832D01*
Y119713D01*
X140160Y120041D01*
X140816D01*
X141144Y119713D01*
Y118729D01*
Y119385D02*
X141800Y120041D01*
Y121681D02*
X139832D01*
X140816Y120697D01*
Y122009D01*
X136035Y113275D02*
Y115243D01*
X137018D01*
X137346Y114915D01*
Y114259D01*
X137018Y113931D01*
X136035D01*
X136690D02*
X137346Y113275D01*
X138002Y114915D02*
X138330Y115243D01*
X138986D01*
X139314Y114915D01*
Y114587D01*
X138986Y114259D01*
X138658D01*
X138986D01*
X139314Y113931D01*
Y113603D01*
X138986Y113275D01*
X138330D01*
X138002Y113603D01*
X101803Y125139D02*
Y127107D01*
X102787D01*
X103115Y126779D01*
Y126123D01*
X102787Y125795D01*
X101803D01*
X102459D02*
X103115Y125139D01*
X105083D02*
X103771D01*
X105083Y126451D01*
Y126779D01*
X104755Y127107D01*
X104099D01*
X103771Y126779D01*
X107374Y131046D02*
X105406D01*
Y132030D01*
X105735Y132358D01*
X106390D01*
X106718Y132030D01*
Y131046D01*
Y131702D02*
X107374Y132358D01*
Y133014D02*
Y133670D01*
Y133342D01*
X105406D01*
X105735Y133014D01*
X93279Y125467D02*
Y126779D01*
X92951Y127107D01*
X92295D01*
X91967Y126779D01*
Y125467D01*
X92295Y125139D01*
X92951D01*
X92623Y125795D02*
X93279Y125139D01*
X92951D02*
X93279Y125467D01*
X93935Y125139D02*
X94591D01*
X94263D01*
Y127107D01*
X93935Y126779D01*
X140054Y165976D02*
Y167944D01*
X141038D01*
X141366Y167616D01*
Y166960D01*
X141038Y166632D01*
X140054D01*
X143333Y165976D02*
X142022D01*
X143333Y167288D01*
Y167616D01*
X143006Y167944D01*
X142350D01*
X142022Y167616D01*
X139079Y99003D02*
Y100971D01*
X140063D01*
X140391Y100643D01*
Y99988D01*
X140063Y99660D01*
X139079D01*
X141047Y99003D02*
X141703D01*
X141375D01*
Y100971D01*
X141047Y100643D01*
X137776Y159320D02*
X137448Y159648D01*
X136792D01*
X136464Y159320D01*
Y158008D01*
X136792Y157680D01*
X137448D01*
X137776Y158008D01*
X139744Y159648D02*
X139088Y159320D01*
X138432Y158664D01*
Y158008D01*
X138760Y157680D01*
X139416D01*
X139744Y158008D01*
Y158336D01*
X139416Y158664D01*
X138432D01*
X94050Y111398D02*
X93722Y111726D01*
X93066D01*
X92738Y111398D01*
Y110086D01*
X93066Y109758D01*
X93722D01*
X94050Y110086D01*
X95690Y109758D02*
Y111726D01*
X94706Y110742D01*
X96018D01*
X112261Y127390D02*
X112589Y127718D01*
Y128374D01*
X112261Y128702D01*
X110949D01*
X110621Y128374D01*
Y127718D01*
X110949Y127390D01*
X112261Y126734D02*
X112589Y126406D01*
Y125750D01*
X112261Y125422D01*
X111933D01*
X111605Y125750D01*
Y126078D01*
Y125750D01*
X111277Y125422D01*
X110949D01*
X110621Y125750D01*
Y126406D01*
X110949Y126734D01*
X116762Y127488D02*
X117089Y127816D01*
Y128472D01*
X116762Y128800D01*
X115450D01*
X115122Y128472D01*
Y127816D01*
X115450Y127488D01*
X115122Y125521D02*
Y126832D01*
X116434Y125521D01*
X116762D01*
X117089Y125849D01*
Y126505D01*
X116762Y126832D01*
X152191Y147608D02*
X151863Y147936D01*
X151207D01*
X150879Y147608D01*
Y146296D01*
X151207Y145968D01*
X151863D01*
X152191Y146296D01*
X152847Y145968D02*
X153503D01*
X153175D01*
Y147936D01*
X152847Y147608D01*
X101206Y161492D02*
X100877Y161820D01*
X100222D01*
X99894Y161492D01*
Y160180D01*
X100222Y159852D01*
X100877D01*
X101206Y160180D01*
X101862Y161492D02*
X102189Y161820D01*
X102845D01*
X103173Y161492D01*
Y161164D01*
X102845Y160836D01*
X103173Y160508D01*
Y160180D01*
X102845Y159852D01*
X102189D01*
X101862Y160180D01*
Y160508D01*
X102189Y160836D01*
X101862Y161164D01*
Y161492D01*
X102189Y160836D02*
X102845D01*
X125672Y137041D02*
X125345Y137369D01*
X124689D01*
X124361Y137041D01*
Y135730D01*
X124689Y135402D01*
X125345D01*
X125672Y135730D01*
X127640Y137369D02*
X126329D01*
Y136386D01*
X126984Y136714D01*
X127312D01*
X127640Y136386D01*
Y135730D01*
X127312Y135402D01*
X126656D01*
X126329Y135730D01*
X43590Y140594D02*
X41622D01*
Y141578D01*
X41950Y141906D01*
X42606D01*
X42934Y141578D01*
Y140594D01*
Y141250D02*
X43590Y141906D01*
Y142562D02*
Y143218D01*
Y142890D01*
X41622D01*
X41950Y142562D01*
Y144202D02*
X41622Y144530D01*
Y145186D01*
X41950Y145514D01*
X43262D01*
X43590Y145186D01*
Y144530D01*
X43262Y144202D01*
X41950D01*
X43854Y135992D02*
X41886D01*
Y136976D01*
X42214Y137304D01*
X42870D01*
X43198Y136976D01*
Y135992D01*
Y136648D02*
X43854Y137304D01*
X43526Y137960D02*
X43854Y138288D01*
Y138944D01*
X43526Y139272D01*
X42214D01*
X41886Y138944D01*
Y138288D01*
X42214Y137960D01*
X42542D01*
X42870Y138288D01*
Y139272D01*
X52680Y128564D02*
Y126924D01*
X53008Y126596D01*
X53664D01*
X53992Y126924D01*
Y128564D01*
X54648Y128236D02*
X54976Y128564D01*
X55632D01*
X55959Y128236D01*
Y127908D01*
X55632Y127580D01*
X55304D01*
X55632D01*
X55959Y127252D01*
Y126924D01*
X55632Y126596D01*
X54976D01*
X54648Y126924D01*
X66881Y120100D02*
X66553Y119773D01*
Y119116D01*
X66881Y118789D01*
X68193D01*
X68520Y119116D01*
Y119773D01*
X68193Y120100D01*
X66553Y120756D02*
Y122068D01*
X66881D01*
X68193Y120756D01*
X68520D01*
X15441Y103905D02*
Y105873D01*
X16425D01*
X16753Y105545D01*
Y104889D01*
X16425Y104561D01*
X15441D01*
X16097D02*
X16753Y103905D01*
X18721Y105873D02*
X18065Y105545D01*
X17409Y104889D01*
Y104234D01*
X17737Y103905D01*
X18393D01*
X18721Y104234D01*
Y104561D01*
X18393Y104889D01*
X17409D01*
X39363Y130997D02*
X37395D01*
Y131981D01*
X37723Y132308D01*
X38379D01*
X38707Y131981D01*
Y130997D01*
Y131652D02*
X39363Y132308D01*
X37395Y134276D02*
Y132964D01*
X38379D01*
X38051Y133620D01*
Y133948D01*
X38379Y134276D01*
X39035D01*
X39363Y133948D01*
Y133292D01*
X39035Y132964D01*
X41516Y115945D02*
Y114305D01*
X41844Y113977D01*
X42500D01*
X42828Y114305D01*
Y115945D01*
X43484Y113977D02*
X44140D01*
X43812D01*
Y115945D01*
X43484Y115617D01*
X35142Y162484D02*
Y160844D01*
X35470Y160516D01*
X36126D01*
X36454Y160844D01*
Y162484D01*
X38422Y160516D02*
X37110D01*
X38422Y161828D01*
Y162156D01*
X38094Y162484D01*
X37438D01*
X37110Y162156D01*
X9244Y152431D02*
Y154399D01*
X10228D01*
X10556Y154071D01*
Y153415D01*
X10228Y153087D01*
X9244D01*
X9900D02*
X10556Y152431D01*
X11212Y154071D02*
X11540Y154399D01*
X12196D01*
X12524Y154071D01*
Y153743D01*
X12196Y153415D01*
X12524Y153087D01*
Y152760D01*
X12196Y152431D01*
X11540D01*
X11212Y152760D01*
Y153087D01*
X11540Y153415D01*
X11212Y153743D01*
Y154071D01*
X11540Y153415D02*
X12196D01*
X2256Y152028D02*
Y153996D01*
X3240D01*
X3568Y153668D01*
Y153012D01*
X3240Y152684D01*
X2256D01*
X2912D02*
X3568Y152028D01*
X4224Y153996D02*
X5536D01*
Y153668D01*
X4224Y152356D01*
Y152028D01*
X51249Y118729D02*
X49281D01*
Y119713D01*
X49609Y120041D01*
X50265D01*
X50593Y119713D01*
Y118729D01*
Y119385D02*
X51249Y120041D01*
Y121681D02*
X49281D01*
X50265Y120697D01*
Y122009D01*
X45483Y113275D02*
Y115243D01*
X46467D01*
X46795Y114915D01*
Y114259D01*
X46467Y113931D01*
X45483D01*
X46139D02*
X46795Y113275D01*
X47451Y114915D02*
X47779Y115243D01*
X48435D01*
X48763Y114915D01*
Y114587D01*
X48435Y114259D01*
X48107D01*
X48435D01*
X48763Y113931D01*
Y113603D01*
X48435Y113275D01*
X47779D01*
X47451Y113603D01*
X11252Y125139D02*
Y127107D01*
X12236D01*
X12564Y126779D01*
Y126123D01*
X12236Y125795D01*
X11252D01*
X11908D02*
X12564Y125139D01*
X14532D02*
X13220D01*
X14532Y126451D01*
Y126779D01*
X14204Y127107D01*
X13548D01*
X13220Y126779D01*
X16823Y131046D02*
X14855D01*
Y132030D01*
X15183Y132358D01*
X15839D01*
X16167Y132030D01*
Y131046D01*
Y131702D02*
X16823Y132358D01*
Y133014D02*
Y133670D01*
Y133342D01*
X14855D01*
X15183Y133014D01*
X2728Y125467D02*
Y126779D01*
X2400Y127107D01*
X1744D01*
X1416Y126779D01*
Y125467D01*
X1744Y125139D01*
X2400D01*
X2072Y125795D02*
X2728Y125139D01*
X2400D02*
X2728Y125467D01*
X3384Y125139D02*
X4040D01*
X3712D01*
Y127107D01*
X3384Y126779D01*
X49503Y165976D02*
Y167944D01*
X50486D01*
X50814Y167616D01*
Y166960D01*
X50486Y166632D01*
X49503D01*
X52782Y165976D02*
X51470D01*
X52782Y167288D01*
Y167616D01*
X52454Y167944D01*
X51798D01*
X51470Y167616D01*
X48528Y99003D02*
Y100971D01*
X49512D01*
X49839Y100643D01*
Y99988D01*
X49512Y99660D01*
X48528D01*
X50495Y99003D02*
X51151D01*
X50823D01*
Y100971D01*
X50495Y100643D01*
X47225Y159320D02*
X46897Y159648D01*
X46241D01*
X45913Y159320D01*
Y158008D01*
X46241Y157680D01*
X46897D01*
X47225Y158008D01*
X49193Y159648D02*
X48537Y159320D01*
X47881Y158664D01*
Y158008D01*
X48209Y157680D01*
X48865D01*
X49193Y158008D01*
Y158336D01*
X48865Y158664D01*
X47881D01*
X3499Y111398D02*
X3171Y111726D01*
X2515D01*
X2187Y111398D01*
Y110086D01*
X2515Y109758D01*
X3171D01*
X3499Y110086D01*
X5139Y109758D02*
Y111726D01*
X4155Y110742D01*
X5466D01*
X21709Y127390D02*
X22037Y127718D01*
Y128374D01*
X21709Y128702D01*
X20398D01*
X20069Y128374D01*
Y127718D01*
X20398Y127390D01*
X21709Y126734D02*
X22037Y126406D01*
Y125750D01*
X21709Y125422D01*
X21381D01*
X21053Y125750D01*
Y126078D01*
Y125750D01*
X20726Y125422D01*
X20398D01*
X20069Y125750D01*
Y126406D01*
X20398Y126734D01*
X26210Y127488D02*
X26538Y127816D01*
Y128472D01*
X26210Y128800D01*
X24898D01*
X24570Y128472D01*
Y127816D01*
X24898Y127488D01*
X24570Y125521D02*
Y126832D01*
X25882Y125521D01*
X26210D01*
X26538Y125849D01*
Y126505D01*
X26210Y126832D01*
X61639Y147608D02*
X61312Y147936D01*
X60656D01*
X60328Y147608D01*
Y146296D01*
X60656Y145968D01*
X61312D01*
X61639Y146296D01*
X62296Y145968D02*
X62951D01*
X62624D01*
Y147936D01*
X62296Y147608D01*
X10654Y161492D02*
X10326Y161820D01*
X9670D01*
X9342Y161492D01*
Y160180D01*
X9670Y159852D01*
X10326D01*
X10654Y160180D01*
X11310Y161492D02*
X11638Y161820D01*
X12294D01*
X12622Y161492D01*
Y161164D01*
X12294Y160836D01*
X12622Y160508D01*
Y160180D01*
X12294Y159852D01*
X11638D01*
X11310Y160180D01*
Y160508D01*
X11638Y160836D01*
X11310Y161164D01*
Y161492D01*
X11638Y160836D02*
X12294D01*
X35121Y137041D02*
X34793Y137369D01*
X34137D01*
X33809Y137041D01*
Y135730D01*
X34137Y135402D01*
X34793D01*
X35121Y135730D01*
X37089Y137369D02*
X35777D01*
Y136386D01*
X36433Y136714D01*
X36761D01*
X37089Y136386D01*
Y135730D01*
X36761Y135402D01*
X36105D01*
X35777Y135730D01*
M02*
