G04*
G04 #@! TF.GenerationSoftware,Altium Limited,Altium Designer,20.0.13 (296)*
G04*
G04 Layer_Color=32768*
%FSLAX25Y25*%
%MOIN*%
G70*
G01*
G75*
%ADD49C,0.00200*%
G54D49*
X196872Y11869D02*
Y12369D01*
Y11369D02*
Y11869D01*
X196372D02*
X197372D01*
X231276Y33170D02*
Y33670D01*
Y34170D01*
X230776Y33670D02*
X231776D01*
X236274Y18326D02*
X236774D01*
X237274D01*
X236774Y17826D02*
Y18826D01*
X228522Y11517D02*
Y12017D01*
Y11017D02*
Y11517D01*
X228022D02*
X229022D01*
X194449Y24641D02*
X194949D01*
X193949D02*
X194449D01*
Y24141D02*
Y25141D01*
X208442Y33170D02*
Y33670D01*
Y34170D01*
X207942Y33670D02*
X208942D01*
X106321Y11869D02*
Y12369D01*
Y11369D02*
Y11869D01*
X105821D02*
X106821D01*
X140725Y33170D02*
Y33670D01*
Y34170D01*
X140225Y33670D02*
X141225D01*
X145723Y18326D02*
X146223D01*
X146723D01*
X146223Y17826D02*
Y18826D01*
X137971Y11517D02*
Y12017D01*
Y11017D02*
Y11517D01*
X137471D02*
X138471D01*
X103898Y24641D02*
X104398D01*
X103398D02*
X103898D01*
Y24141D02*
Y25141D01*
X117890Y33170D02*
Y33670D01*
Y34170D01*
X117390Y33670D02*
X118390D01*
X15770Y11869D02*
Y12369D01*
Y11369D02*
Y11869D01*
X15270D02*
X16270D01*
X50174Y33170D02*
Y33670D01*
Y34170D01*
X49674Y33670D02*
X50674D01*
X55172Y18326D02*
X55672D01*
X56172D01*
X55672Y17826D02*
Y18826D01*
X47420Y11517D02*
Y12017D01*
Y11017D02*
Y11517D01*
X46920D02*
X47920D01*
X13346Y24641D02*
X13846D01*
X12846D02*
X13346D01*
Y24141D02*
Y25141D01*
X27339Y33170D02*
Y33670D01*
Y34170D01*
X26839Y33670D02*
X27839D01*
X196372Y109869D02*
Y110369D01*
Y109369D02*
Y109869D01*
X195872D02*
X196872D01*
X230776Y131170D02*
Y131670D01*
Y132170D01*
X230276Y131670D02*
X231276D01*
X235774Y116326D02*
X236274D01*
X236774D01*
X236274Y115826D02*
Y116826D01*
X228022Y109517D02*
Y110017D01*
Y109017D02*
Y109517D01*
X227522D02*
X228522D01*
X193949Y122641D02*
X194449D01*
X193449D02*
X193949D01*
Y122141D02*
Y123141D01*
X207942Y131170D02*
Y131670D01*
Y132170D01*
X207442Y131670D02*
X208442D01*
X105821Y109869D02*
Y110369D01*
Y109369D02*
Y109869D01*
X105321D02*
X106321D01*
X140225Y131170D02*
Y131670D01*
Y132170D01*
X139725Y131670D02*
X140725D01*
X145223Y116326D02*
X145723D01*
X146223D01*
X145723Y115826D02*
Y116826D01*
X137471Y109517D02*
Y110017D01*
Y109017D02*
Y109517D01*
X136971D02*
X137971D01*
X103398Y122641D02*
X103898D01*
X102898D02*
X103398D01*
Y122141D02*
Y123141D01*
X117390Y131170D02*
Y131670D01*
Y132170D01*
X116890Y131670D02*
X117890D01*
X15270Y109869D02*
Y110369D01*
Y109369D02*
Y109869D01*
X14770D02*
X15770D01*
X49674Y131170D02*
Y131670D01*
Y132170D01*
X49174Y131670D02*
X50174D01*
X54672Y116326D02*
X55172D01*
X55672D01*
X55172Y115826D02*
Y116826D01*
X46920Y109517D02*
Y110017D01*
Y109017D02*
Y109517D01*
X46420D02*
X47420D01*
X12846Y122641D02*
X13346D01*
X12347D02*
X12846D01*
Y122141D02*
Y123141D01*
X26839Y131170D02*
Y131670D01*
Y132170D01*
X26339Y131670D02*
X27339D01*
M02*
