G04*
G04 #@! TF.GenerationSoftware,Altium Limited,Altium Designer,20.0.13 (296)*
G04*
G04 Layer_Color=2752767*
%FSLAX25Y25*%
%MOIN*%
G70*
G01*
G75*
%ADD10C,0.00787*%
%ADD11C,0.00200*%
%ADD12C,0.00267*%
G54D10*
X181102Y0D02*
X251969D01*
Y66929D01*
Y68898D01*
X246063Y74803D02*
X251969Y68898D01*
X90551Y0D02*
X161417D01*
Y66929D02*
Y68898D01*
X155512Y74803D02*
X161417Y68898D01*
X0Y0D02*
X70866D01*
Y66929D02*
Y68898D01*
X64961Y74803D02*
X70866Y68898D01*
X0Y0D02*
Y74803D01*
X14754D01*
X59342D02*
X64961D01*
X149106D02*
X155512D01*
X89984D02*
X104724D01*
X240051D02*
X246063D01*
X180535Y75024D02*
X195476Y75094D01*
X251468Y98000D02*
Y164929D01*
Y166898D01*
X245563Y172803D02*
X251468Y166898D01*
X198811Y172803D02*
X231291D01*
X180602D02*
X198811D01*
X231291D02*
X245563D01*
X155012D02*
X160917Y166898D01*
X108260Y172803D02*
X140740D01*
X90051D02*
X108260D01*
X140740D02*
X155012D01*
X70366Y164929D02*
Y166898D01*
X64461Y172803D02*
X70366Y166898D01*
X17709Y172803D02*
X50189D01*
X-500Y98000D02*
Y172803D01*
X17709D01*
X50189D02*
X64461D01*
G54D11*
X205893Y68098D02*
Y69698D01*
X207493D01*
Y68098D01*
X205893D01*
X209830D02*
Y69698D01*
X211430D01*
Y68098D01*
X209830D01*
X213767D02*
Y69698D01*
X215367D01*
Y68098D01*
X213767D01*
X217704D02*
Y69698D01*
X219304D01*
Y68098D01*
X217704D01*
X221641D02*
Y69698D01*
X223241D01*
Y68098D01*
X221641D01*
X225578D02*
Y69698D01*
X227178D01*
Y68098D01*
X225578D01*
Y5105D02*
Y6706D01*
X227178D01*
Y5105D01*
X225578D01*
X221641D02*
Y6706D01*
X223241D01*
Y5105D01*
X221641D01*
X217704D02*
Y6706D01*
X219304D01*
Y5105D01*
X217704D01*
X213767D02*
Y6706D01*
X215367D01*
Y5105D01*
X213767D01*
X209830D02*
Y6706D01*
X211430D01*
Y5105D01*
X209830D01*
X205893D02*
Y6706D01*
X207493D01*
Y5105D01*
X205893D01*
X115342Y68098D02*
Y69698D01*
X116942D01*
Y68098D01*
X115342D01*
X119279D02*
Y69698D01*
X120879D01*
Y68098D01*
X119279D01*
X123216D02*
Y69698D01*
X124816D01*
Y68098D01*
X123216D01*
X127153D02*
Y69698D01*
X128753D01*
Y68098D01*
X127153D01*
X131090D02*
Y69698D01*
X132690D01*
Y68098D01*
X131090D01*
X135027D02*
Y69698D01*
X136627D01*
Y68098D01*
X135027D01*
Y5105D02*
Y6706D01*
X136627D01*
Y5105D01*
X135027D01*
X131090D02*
Y6706D01*
X132690D01*
Y5105D01*
X131090D01*
X127153D02*
Y6706D01*
X128753D01*
Y5105D01*
X127153D01*
X123216D02*
Y6706D01*
X124816D01*
Y5105D01*
X123216D01*
X119279D02*
Y6706D01*
X120879D01*
Y5105D01*
X119279D01*
X115342D02*
Y6706D01*
X116942D01*
Y5105D01*
X115342D01*
X24791Y68098D02*
Y69698D01*
X26390D01*
Y68098D01*
X24791D01*
X28728D02*
Y69698D01*
X30328D01*
Y68098D01*
X28728D01*
X32665D02*
Y69698D01*
X34265D01*
Y68098D01*
X32665D01*
X36602D02*
Y69698D01*
X38202D01*
Y68098D01*
X36602D01*
X40539D02*
Y69698D01*
X42139D01*
Y68098D01*
X40539D01*
X44476D02*
Y69698D01*
X46076D01*
Y68098D01*
X44476D01*
Y5105D02*
Y6706D01*
X46076D01*
Y5105D01*
X44476D01*
X40539D02*
Y6706D01*
X42139D01*
Y5105D01*
X40539D01*
X36602D02*
Y6706D01*
X38202D01*
Y5105D01*
X36602D01*
X32665D02*
Y6706D01*
X34265D01*
Y5105D01*
X32665D01*
X28728D02*
Y6706D01*
X30328D01*
Y5105D01*
X28728D01*
X24791D02*
Y6706D01*
X26390D01*
Y5105D01*
X24791D01*
X205393Y166098D02*
Y167698D01*
X206993D01*
Y166098D01*
X205393D01*
X209330D02*
Y167698D01*
X210930D01*
Y166098D01*
X209330D01*
X213267D02*
Y167698D01*
X214867D01*
Y166098D01*
X213267D01*
X217204D02*
Y167698D01*
X218804D01*
Y166098D01*
X217204D01*
X221141D02*
Y167698D01*
X222741D01*
Y166098D01*
X221141D01*
X225078D02*
Y167698D01*
X226678D01*
Y166098D01*
X225078D01*
Y103105D02*
Y104706D01*
X226678D01*
Y103105D01*
X225078D01*
X221141D02*
Y104706D01*
X222741D01*
Y103105D01*
X221141D01*
X217204D02*
Y104706D01*
X218804D01*
Y103105D01*
X217204D01*
X213267D02*
Y104706D01*
X214867D01*
Y103105D01*
X213267D01*
X209330D02*
Y104706D01*
X210930D01*
Y103105D01*
X209330D01*
X205393D02*
Y104706D01*
X206993D01*
Y103105D01*
X205393D01*
X114842Y166098D02*
Y167698D01*
X116442D01*
Y166098D01*
X114842D01*
X118779D02*
Y167698D01*
X120379D01*
Y166098D01*
X118779D01*
X122716D02*
Y167698D01*
X124316D01*
Y166098D01*
X122716D01*
X126653D02*
Y167698D01*
X128253D01*
Y166098D01*
X126653D01*
X130590D02*
Y167698D01*
X132190D01*
Y166098D01*
X130590D01*
X134527D02*
Y167698D01*
X136127D01*
Y166098D01*
X134527D01*
Y103105D02*
Y104706D01*
X136127D01*
Y103105D01*
X134527D01*
X130590D02*
Y104706D01*
X132190D01*
Y103105D01*
X130590D01*
X126653D02*
Y104706D01*
X128253D01*
Y103105D01*
X126653D01*
X122716D02*
Y104706D01*
X124316D01*
Y103105D01*
X122716D01*
X118779D02*
Y104706D01*
X120379D01*
Y103105D01*
X118779D01*
X114842D02*
Y104706D01*
X116442D01*
Y103105D01*
X114842D01*
X24291Y166098D02*
Y167698D01*
X25890D01*
Y166098D01*
X24291D01*
X28228D02*
Y167698D01*
X29828D01*
Y166098D01*
X28228D01*
X32165D02*
Y167698D01*
X33765D01*
Y166098D01*
X32165D01*
X36102D02*
Y167698D01*
X37702D01*
Y166098D01*
X36102D01*
X40039D02*
Y167698D01*
X41639D01*
Y166098D01*
X40039D01*
X43976D02*
Y167698D01*
X45576D01*
Y166098D01*
X43976D01*
Y103105D02*
Y104706D01*
X45576D01*
Y103105D01*
X43976D01*
X40039D02*
Y104706D01*
X41639D01*
Y103105D01*
X40039D01*
X36102D02*
Y104706D01*
X37702D01*
Y103105D01*
X36102D01*
X32165D02*
Y104706D01*
X33765D01*
Y103105D01*
X32165D01*
X28228D02*
Y104706D01*
X29828D01*
Y103105D01*
X28228D01*
X24291D02*
Y104706D01*
X25890D01*
Y103105D01*
X24291D01*
X219981Y49594D02*
X219181Y51194D01*
X220781D01*
X219981Y49594D01*
X207777Y53632D02*
X206977Y55232D01*
X208577D01*
X207777Y53632D01*
X218406Y10617D02*
X218806Y11017D01*
X219205D01*
X218806Y11417D01*
X219205Y11817D01*
X218806D01*
X218406Y12217D01*
X218005Y11817D01*
X217605D01*
X218005Y11417D01*
X217605Y11017D01*
X218005D01*
X218406Y10617D01*
X189665Y63767D02*
X190065Y64167D01*
X190465D01*
X190065Y64567D01*
X190465Y64967D01*
X190065D01*
X189665Y65367D01*
X189265Y64967D01*
X188865D01*
X189265Y64567D01*
X188865Y64167D01*
X189265D01*
X189665Y63767D01*
X210032Y42361D02*
X210432Y42761D01*
X210832D01*
X210432Y43161D01*
X210832Y43561D01*
X210432D01*
X210032Y43961D01*
X209632Y43561D01*
X209232D01*
X209632Y43161D01*
X209232Y42761D01*
X209632D01*
X210032Y42361D01*
X238170Y5105D02*
X238570Y5505D01*
X238970D01*
X238570Y5906D01*
X238970Y6306D01*
X238570D01*
X238170Y6706D01*
X237770Y6306D01*
X237370D01*
X237770Y5906D01*
X237370Y5505D01*
X237770D01*
X238170Y5105D01*
X245082D02*
X245482Y5505D01*
X245882D01*
X245482Y5906D01*
X245882Y6306D01*
X245482D01*
X245082Y6706D01*
X244682Y6306D01*
X244282D01*
X244682Y5906D01*
X244282Y5505D01*
X244682D01*
X245082Y5105D01*
X240207Y2796D02*
X240607Y3196D01*
X241007D01*
X240607Y3596D01*
X241007Y3997D01*
X240607D01*
X240207Y4397D01*
X239807Y3997D01*
X239407D01*
X239807Y3596D01*
X239407Y3196D01*
X239807D01*
X240207Y2796D01*
X197216Y2796D02*
X197616Y3196D01*
X198016D01*
X197616Y3596D01*
X198016Y3997D01*
X197616D01*
X197216Y4397D01*
X196816Y3997D01*
X196416D01*
X196816Y3596D01*
X196416Y3196D01*
X196816D01*
X197216Y2796D01*
X236482Y70066D02*
X236882Y70466D01*
X237282D01*
X236882Y70866D01*
X237282Y71266D01*
X236882D01*
X236482Y71666D01*
X236082Y71266D01*
X235682D01*
X236082Y70866D01*
X235682Y70466D01*
X236082D01*
X236482Y70066D01*
X245244Y65145D02*
X245644Y65545D01*
X246044D01*
X245644Y65945D01*
X246044Y66345D01*
X245644D01*
X245244Y66745D01*
X244844Y66345D01*
X244444D01*
X244844Y65945D01*
X244444Y65545D01*
X244844D01*
X245244Y65145D01*
X247047Y56763D02*
X247447Y57163D01*
X247847D01*
X247447Y57563D01*
X247847Y57963D01*
X247447D01*
X247047Y58363D01*
X246647Y57963D01*
X246247D01*
X246647Y57563D01*
X246247Y57163D01*
X246647D01*
X247047Y56763D01*
X235696Y63060D02*
X236096Y63460D01*
X236496D01*
X236096Y63860D01*
X236496Y64260D01*
X236096D01*
X235696Y64660D01*
X235296Y64260D01*
X234896D01*
X235296Y63860D01*
X234896Y63460D01*
X235296D01*
X235696Y63060D01*
X214835Y54431D02*
X214035Y56030D01*
X215635D01*
X214835Y54431D01*
X209745Y28691D02*
X210145Y29091D01*
X210545D01*
X210145Y29491D01*
X210545Y29891D01*
X210145D01*
X209745Y30291D01*
X209345Y29891D01*
X208945D01*
X209345Y29491D01*
X208945Y29091D01*
X209345D01*
X209745Y28691D01*
X224706Y45592D02*
X225106Y45992D01*
X225506D01*
X225106Y46392D01*
X225506Y46792D01*
X225106D01*
X224706Y47192D01*
X224306Y46792D01*
X223906D01*
X224306Y46392D01*
X223906Y45992D01*
X224306D01*
X224706Y45592D01*
X209030Y16181D02*
X209430Y16581D01*
X209830D01*
X209430Y16981D01*
X209830Y17381D01*
X209430D01*
X209030Y17781D01*
X208630Y17381D01*
X208230D01*
X208630Y16981D01*
X208230Y16581D01*
X208630D01*
X209030Y16181D01*
X215985Y22030D02*
X216385Y22830D01*
X215985Y23630D01*
X216785Y23230D01*
X217585Y23630D01*
X217185Y22830D01*
X217585Y22030D01*
X216785Y22430D01*
X215985Y22030D01*
X214032Y10927D02*
X214432Y11327D01*
X214832D01*
X214432Y11727D01*
X214832Y12127D01*
X214432D01*
X214032Y12527D01*
X213632Y12127D01*
X213232D01*
X213632Y11727D01*
X213232Y11327D01*
X213632D01*
X214032Y10927D01*
X185340Y3780D02*
X185740Y4180D01*
X186140D01*
X185740Y4580D01*
X186140Y4980D01*
X185740D01*
X185340Y5380D01*
X184940Y4980D01*
X184540D01*
X184940Y4580D01*
X184540Y4180D01*
X184940D01*
X185340Y3780D01*
X191126Y2796D02*
X191526Y3196D01*
X191926D01*
X191526Y3596D01*
X191926Y3997D01*
X191526D01*
X191126Y4397D01*
X190726Y3997D01*
X190326D01*
X190726Y3596D01*
X190326Y3196D01*
X190726D01*
X191126Y2796D01*
X242421Y61653D02*
X242821Y62053D01*
X243221D01*
X242821Y62453D01*
X243221Y62853D01*
X242821D01*
X242421Y63253D01*
X242021Y62853D01*
X241621D01*
X242021Y62453D01*
X241621Y62053D01*
X242021D01*
X242421Y61653D01*
Y67598D02*
X242821Y67998D01*
X243221D01*
X242821Y68398D01*
X243221Y68798D01*
X242821D01*
X242421Y69198D01*
X242021Y68798D01*
X241621D01*
X242021Y68398D01*
X241621Y67998D01*
X242021D01*
X242421Y67598D01*
X192854Y68098D02*
X193254Y68498D01*
X193654D01*
X193254Y68898D01*
X193654Y69298D01*
X193254D01*
X192854Y69698D01*
X192454Y69298D01*
X192054D01*
X192454Y68898D01*
X192054Y68498D01*
X192454D01*
X192854Y68098D01*
X187126Y67598D02*
X187526Y67998D01*
X187926D01*
X187526Y68398D01*
X187926Y68798D01*
X187526D01*
X187126Y69198D01*
X186726Y68798D01*
X186326D01*
X186726Y68398D01*
X186326Y67998D01*
X186726D01*
X187126Y67598D01*
X204527Y45468D02*
X204928Y45868D01*
X205328D01*
X204928Y46268D01*
X205328Y46668D01*
X204928D01*
X204527Y47068D01*
X204128Y46668D01*
X203728D01*
X204128Y46268D01*
X203728Y45868D01*
X204128D01*
X204527Y45468D01*
X204788Y41655D02*
X205188Y42055D01*
X205588D01*
X205188Y42455D01*
X205588Y42855D01*
X205188D01*
X204788Y43255D01*
X204388Y42855D01*
X203988D01*
X204388Y42455D01*
X203988Y42055D01*
X204388D01*
X204788Y41655D01*
X184724Y25632D02*
X185124Y26032D01*
X185524D01*
X185124Y26432D01*
X185524Y26832D01*
X185124D01*
X184724Y27232D01*
X184324Y26832D01*
X183924D01*
X184324Y26432D01*
X183924Y26032D01*
X184324D01*
X184724Y25632D01*
X241313Y52556D02*
X241713Y52956D01*
X242113D01*
X241713Y53356D01*
X242113Y53756D01*
X241713D01*
X241313Y54156D01*
X240913Y53756D01*
X240513D01*
X240913Y53356D01*
X240513Y52956D01*
X240913D01*
X241313Y52556D01*
X247047Y49245D02*
X247447Y49645D01*
X247847D01*
X247447Y50045D01*
X247847Y50445D01*
X247447D01*
X247047Y50845D01*
X246647Y50445D01*
X246247D01*
X246647Y50045D01*
X246247Y49645D01*
X246647D01*
X247047Y49245D01*
X239567Y48788D02*
X239967Y49188D01*
X240367D01*
X239967Y49588D01*
X240367Y49988D01*
X239967D01*
X239567Y50388D01*
X239167Y49988D01*
X238767D01*
X239167Y49588D01*
X238767Y49188D01*
X239167D01*
X239567Y48788D01*
X245647Y10107D02*
X246047Y10507D01*
X246447D01*
X246047Y10907D01*
X246447Y11307D01*
X246047D01*
X245647Y11707D01*
X245247Y11307D01*
X244847D01*
X245247Y10907D01*
X244847Y10507D01*
X245247D01*
X245647Y10107D01*
X233823Y5105D02*
X234223Y5505D01*
X234623D01*
X234223Y5906D01*
X234623Y6306D01*
X234223D01*
X233823Y6706D01*
X233423Y6306D01*
X233023D01*
X233423Y5906D01*
X233023Y5505D01*
X233423D01*
X233823Y5105D01*
X238170Y65932D02*
X238570Y66332D01*
X238970D01*
X238570Y66732D01*
X238970Y67132D01*
X238570D01*
X238170Y67532D01*
X237770Y67132D01*
X237370D01*
X237770Y66732D01*
X237370Y66332D01*
X237770D01*
X238170Y65932D01*
X241929Y11365D02*
X242329Y11765D01*
X242729D01*
X242329Y12165D01*
X242729Y12565D01*
X242329D01*
X241929Y12965D01*
X241529Y12565D01*
X241129D01*
X241529Y12165D01*
X241129Y11765D01*
X241529D01*
X241929Y11365D01*
X248031Y14334D02*
X248431Y14734D01*
X248832D01*
X248431Y15134D01*
X248832Y15534D01*
X248431D01*
X248031Y15934D01*
X247632Y15534D01*
X247232D01*
X247632Y15134D01*
X247232Y14734D01*
X247632D01*
X248031Y14334D01*
X241929Y6808D02*
X242329Y7209D01*
X242729D01*
X242329Y7609D01*
X242729Y8009D01*
X242329D01*
X241929Y8409D01*
X241529Y8009D01*
X241129D01*
X241529Y7609D01*
X241129Y7209D01*
X241529D01*
X241929Y6808D01*
X248031Y2796D02*
X248431Y3196D01*
X248832D01*
X248431Y3596D01*
X248832Y3997D01*
X248431D01*
X248031Y4397D01*
X247632Y3997D01*
X247232D01*
X247632Y3596D01*
X247232Y3196D01*
X247632D01*
X248031Y2796D01*
X187126Y7271D02*
X187526Y7671D01*
X187926D01*
X187526Y8071D01*
X187926Y8471D01*
X187526D01*
X187126Y8871D01*
X186726Y8471D01*
X186326D01*
X186726Y8071D01*
X186326Y7671D01*
X186726D01*
X187126Y7271D01*
X129430Y49594D02*
X128630Y51194D01*
X130230D01*
X129430Y49594D01*
X117226Y53632D02*
X116426Y55232D01*
X118026D01*
X117226Y53632D01*
X127854Y10617D02*
X128254Y11017D01*
X128654D01*
X128254Y11417D01*
X128654Y11817D01*
X128254D01*
X127854Y12217D01*
X127454Y11817D01*
X127054D01*
X127454Y11417D01*
X127054Y11017D01*
X127454D01*
X127854Y10617D01*
X99114Y63767D02*
X99514Y64167D01*
X99914D01*
X99514Y64567D01*
X99914Y64967D01*
X99514D01*
X99114Y65367D01*
X98714Y64967D01*
X98314D01*
X98714Y64567D01*
X98314Y64167D01*
X98714D01*
X99114Y63767D01*
X119481Y42361D02*
X119881Y42761D01*
X120281D01*
X119881Y43161D01*
X120281Y43561D01*
X119881D01*
X119481Y43961D01*
X119081Y43561D01*
X118681D01*
X119081Y43161D01*
X118681Y42761D01*
X119081D01*
X119481Y42361D01*
X147619Y5105D02*
X148019Y5505D01*
X148419D01*
X148019Y5906D01*
X148419Y6306D01*
X148019D01*
X147619Y6706D01*
X147219Y6306D01*
X146819D01*
X147219Y5906D01*
X146819Y5505D01*
X147219D01*
X147619Y5105D01*
X154531D02*
X154931Y5505D01*
X155331D01*
X154931Y5906D01*
X155331Y6306D01*
X154931D01*
X154531Y6706D01*
X154131Y6306D01*
X153731D01*
X154131Y5906D01*
X153731Y5505D01*
X154131D01*
X154531Y5105D01*
X149655Y2796D02*
X150056Y3196D01*
X150455D01*
X150056Y3596D01*
X150455Y3997D01*
X150056D01*
X149655Y4397D01*
X149256Y3997D01*
X148855D01*
X149256Y3596D01*
X148855Y3196D01*
X149256D01*
X149655Y2796D01*
X106665Y2796D02*
X107065Y3196D01*
X107465D01*
X107065Y3596D01*
X107465Y3997D01*
X107065D01*
X106665Y4397D01*
X106265Y3997D01*
X105865D01*
X106265Y3596D01*
X105865Y3196D01*
X106265D01*
X106665Y2796D01*
X145931Y70066D02*
X146331Y70466D01*
X146731D01*
X146331Y70866D01*
X146731Y71266D01*
X146331D01*
X145931Y71666D01*
X145531Y71266D01*
X145131D01*
X145531Y70866D01*
X145131Y70466D01*
X145531D01*
X145931Y70066D01*
X154693Y65145D02*
X155093Y65545D01*
X155493D01*
X155093Y65945D01*
X155493Y66345D01*
X155093D01*
X154693Y66745D01*
X154293Y66345D01*
X153893D01*
X154293Y65945D01*
X153893Y65545D01*
X154293D01*
X154693Y65145D01*
X156496Y56763D02*
X156896Y57163D01*
X157296D01*
X156896Y57563D01*
X157296Y57963D01*
X156896D01*
X156496Y58363D01*
X156096Y57963D01*
X155696D01*
X156096Y57563D01*
X155696Y57163D01*
X156096D01*
X156496Y56763D01*
X145145Y63060D02*
X145545Y63460D01*
X145945D01*
X145545Y63860D01*
X145945Y64260D01*
X145545D01*
X145145Y64660D01*
X144745Y64260D01*
X144345D01*
X144745Y63860D01*
X144345Y63460D01*
X144745D01*
X145145Y63060D01*
X124284Y54431D02*
X123484Y56030D01*
X125084D01*
X124284Y54431D01*
X119193Y28691D02*
X119594Y29091D01*
X119993D01*
X119594Y29491D01*
X119993Y29891D01*
X119594D01*
X119193Y30291D01*
X118793Y29891D01*
X118394D01*
X118793Y29491D01*
X118394Y29091D01*
X118793D01*
X119193Y28691D01*
X134155Y45592D02*
X134555Y45992D01*
X134955D01*
X134555Y46392D01*
X134955Y46792D01*
X134555D01*
X134155Y47192D01*
X133755Y46792D01*
X133355D01*
X133755Y46392D01*
X133355Y45992D01*
X133755D01*
X134155Y45592D01*
X118479Y16181D02*
X118879Y16581D01*
X119279D01*
X118879Y16981D01*
X119279Y17381D01*
X118879D01*
X118479Y17781D01*
X118079Y17381D01*
X117679D01*
X118079Y16981D01*
X117679Y16581D01*
X118079D01*
X118479Y16181D01*
X125434Y22030D02*
X125834Y22830D01*
X125434Y23630D01*
X126234Y23230D01*
X127034Y23630D01*
X126634Y22830D01*
X127034Y22030D01*
X126234Y22430D01*
X125434Y22030D01*
X123480Y10927D02*
X123880Y11327D01*
X124280D01*
X123880Y11727D01*
X124280Y12127D01*
X123880D01*
X123480Y12527D01*
X123080Y12127D01*
X122680D01*
X123080Y11727D01*
X122680Y11327D01*
X123080D01*
X123480Y10927D01*
X94788Y3780D02*
X95188Y4180D01*
X95588D01*
X95188Y4580D01*
X95588Y4980D01*
X95188D01*
X94788Y5380D01*
X94388Y4980D01*
X93988D01*
X94388Y4580D01*
X93988Y4180D01*
X94388D01*
X94788Y3780D01*
X100575Y2796D02*
X100975Y3196D01*
X101375D01*
X100975Y3596D01*
X101375Y3997D01*
X100975D01*
X100575Y4397D01*
X100175Y3997D01*
X99775D01*
X100175Y3596D01*
X99775Y3196D01*
X100175D01*
X100575Y2796D01*
X151870Y61653D02*
X152270Y62053D01*
X152670D01*
X152270Y62453D01*
X152670Y62853D01*
X152270D01*
X151870Y63253D01*
X151470Y62853D01*
X151070D01*
X151470Y62453D01*
X151070Y62053D01*
X151470D01*
X151870Y61653D01*
Y67598D02*
X152270Y67998D01*
X152670D01*
X152270Y68398D01*
X152670Y68798D01*
X152270D01*
X151870Y69198D01*
X151470Y68798D01*
X151070D01*
X151470Y68398D01*
X151070Y67998D01*
X151470D01*
X151870Y67598D01*
X102303Y68098D02*
X102703Y68498D01*
X103103D01*
X102703Y68898D01*
X103103Y69298D01*
X102703D01*
X102303Y69698D01*
X101903Y69298D01*
X101503D01*
X101903Y68898D01*
X101503Y68498D01*
X101903D01*
X102303Y68098D01*
X96575Y67598D02*
X96975Y67998D01*
X97375D01*
X96975Y68398D01*
X97375Y68798D01*
X96975D01*
X96575Y69198D01*
X96175Y68798D01*
X95775D01*
X96175Y68398D01*
X95775Y67998D01*
X96175D01*
X96575Y67598D01*
X113976Y45468D02*
X114376Y45868D01*
X114776D01*
X114376Y46268D01*
X114776Y46668D01*
X114376D01*
X113976Y47068D01*
X113576Y46668D01*
X113176D01*
X113576Y46268D01*
X113176Y45868D01*
X113576D01*
X113976Y45468D01*
X114236Y41655D02*
X114636Y42055D01*
X115036D01*
X114636Y42455D01*
X115036Y42855D01*
X114636D01*
X114236Y43255D01*
X113836Y42855D01*
X113436D01*
X113836Y42455D01*
X113436Y42055D01*
X113836D01*
X114236Y41655D01*
X94173Y25632D02*
X94573Y26032D01*
X94973D01*
X94573Y26432D01*
X94973Y26832D01*
X94573D01*
X94173Y27232D01*
X93773Y26832D01*
X93373D01*
X93773Y26432D01*
X93373Y26032D01*
X93773D01*
X94173Y25632D01*
X150762Y52556D02*
X151162Y52956D01*
X151562D01*
X151162Y53356D01*
X151562Y53756D01*
X151162D01*
X150762Y54156D01*
X150362Y53756D01*
X149962D01*
X150362Y53356D01*
X149962Y52956D01*
X150362D01*
X150762Y52556D01*
X156496Y49245D02*
X156896Y49645D01*
X157296D01*
X156896Y50045D01*
X157296Y50445D01*
X156896D01*
X156496Y50845D01*
X156096Y50445D01*
X155696D01*
X156096Y50045D01*
X155696Y49645D01*
X156096D01*
X156496Y49245D01*
X149016Y48788D02*
X149416Y49188D01*
X149816D01*
X149416Y49588D01*
X149816Y49988D01*
X149416D01*
X149016Y50388D01*
X148616Y49988D01*
X148216D01*
X148616Y49588D01*
X148216Y49188D01*
X148616D01*
X149016Y48788D01*
X155096Y10107D02*
X155496Y10507D01*
X155896D01*
X155496Y10907D01*
X155896Y11307D01*
X155496D01*
X155096Y11707D01*
X154696Y11307D01*
X154296D01*
X154696Y10907D01*
X154296Y10507D01*
X154696D01*
X155096Y10107D01*
X143272Y5105D02*
X143672Y5505D01*
X144072D01*
X143672Y5906D01*
X144072Y6306D01*
X143672D01*
X143272Y6706D01*
X142872Y6306D01*
X142472D01*
X142872Y5906D01*
X142472Y5505D01*
X142872D01*
X143272Y5105D01*
X147619Y65932D02*
X148019Y66332D01*
X148419D01*
X148019Y66732D01*
X148419Y67132D01*
X148019D01*
X147619Y67532D01*
X147219Y67132D01*
X146819D01*
X147219Y66732D01*
X146819Y66332D01*
X147219D01*
X147619Y65932D01*
X151378Y11365D02*
X151778Y11765D01*
X152178D01*
X151778Y12165D01*
X152178Y12565D01*
X151778D01*
X151378Y12965D01*
X150978Y12565D01*
X150578D01*
X150978Y12165D01*
X150578Y11765D01*
X150978D01*
X151378Y11365D01*
X157480Y14334D02*
X157880Y14734D01*
X158280D01*
X157880Y15134D01*
X158280Y15534D01*
X157880D01*
X157480Y15934D01*
X157080Y15534D01*
X156680D01*
X157080Y15134D01*
X156680Y14734D01*
X157080D01*
X157480Y14334D01*
X151378Y6808D02*
X151778Y7209D01*
X152178D01*
X151778Y7609D01*
X152178Y8009D01*
X151778D01*
X151378Y8409D01*
X150978Y8009D01*
X150578D01*
X150978Y7609D01*
X150578Y7209D01*
X150978D01*
X151378Y6808D01*
X157480Y2796D02*
X157880Y3196D01*
X158280D01*
X157880Y3596D01*
X158280Y3997D01*
X157880D01*
X157480Y4397D01*
X157080Y3997D01*
X156680D01*
X157080Y3596D01*
X156680Y3196D01*
X157080D01*
X157480Y2796D01*
X96575Y7271D02*
X96975Y7671D01*
X97375D01*
X96975Y8071D01*
X97375Y8471D01*
X96975D01*
X96575Y8871D01*
X96175Y8471D01*
X95775D01*
X96175Y8071D01*
X95775Y7671D01*
X96175D01*
X96575Y7271D01*
X38879Y49594D02*
X38078Y51194D01*
X39678D01*
X38879Y49594D01*
X26674Y53632D02*
X25874Y55232D01*
X27474D01*
X26674Y53632D01*
X37303Y10617D02*
X37703Y11017D01*
X38103D01*
X37703Y11417D01*
X38103Y11817D01*
X37703D01*
X37303Y12217D01*
X36903Y11817D01*
X36503D01*
X36903Y11417D01*
X36503Y11017D01*
X36903D01*
X37303Y10617D01*
X8563Y63767D02*
X8963Y64167D01*
X9363D01*
X8963Y64567D01*
X9363Y64967D01*
X8963D01*
X8563Y65367D01*
X8163Y64967D01*
X7763D01*
X8163Y64567D01*
X7763Y64167D01*
X8163D01*
X8563Y63767D01*
X28930Y42361D02*
X29330Y42761D01*
X29730D01*
X29330Y43161D01*
X29730Y43561D01*
X29330D01*
X28930Y43961D01*
X28530Y43561D01*
X28130D01*
X28530Y43161D01*
X28130Y42761D01*
X28530D01*
X28930Y42361D01*
X57068Y5105D02*
X57468Y5505D01*
X57868D01*
X57468Y5906D01*
X57868Y6306D01*
X57468D01*
X57068Y6706D01*
X56668Y6306D01*
X56268D01*
X56668Y5906D01*
X56268Y5505D01*
X56668D01*
X57068Y5105D01*
X63980D02*
X64380Y5505D01*
X64780D01*
X64380Y5906D01*
X64780Y6306D01*
X64380D01*
X63980Y6706D01*
X63580Y6306D01*
X63180D01*
X63580Y5906D01*
X63180Y5505D01*
X63580D01*
X63980Y5105D01*
X59104Y2796D02*
X59504Y3196D01*
X59904D01*
X59504Y3596D01*
X59904Y3997D01*
X59504D01*
X59104Y4397D01*
X58704Y3997D01*
X58304D01*
X58704Y3596D01*
X58304Y3196D01*
X58704D01*
X59104Y2796D01*
X16113Y2796D02*
X16513Y3196D01*
X16913D01*
X16513Y3596D01*
X16913Y3997D01*
X16513D01*
X16113Y4397D01*
X15713Y3997D01*
X15313D01*
X15713Y3596D01*
X15313Y3196D01*
X15713D01*
X16113Y2796D01*
X55380Y70066D02*
X55780Y70466D01*
X56180D01*
X55780Y70866D01*
X56180Y71266D01*
X55780D01*
X55380Y71666D01*
X54980Y71266D01*
X54580D01*
X54980Y70866D01*
X54580Y70466D01*
X54980D01*
X55380Y70066D01*
X64142Y65145D02*
X64542Y65545D01*
X64942D01*
X64542Y65945D01*
X64942Y66345D01*
X64542D01*
X64142Y66745D01*
X63742Y66345D01*
X63342D01*
X63742Y65945D01*
X63342Y65545D01*
X63742D01*
X64142Y65145D01*
X65945Y56763D02*
X66345Y57163D01*
X66745D01*
X66345Y57563D01*
X66745Y57963D01*
X66345D01*
X65945Y58363D01*
X65545Y57963D01*
X65145D01*
X65545Y57563D01*
X65145Y57163D01*
X65545D01*
X65945Y56763D01*
X54594Y63060D02*
X54994Y63460D01*
X55394D01*
X54994Y63860D01*
X55394Y64260D01*
X54994D01*
X54594Y64660D01*
X54194Y64260D01*
X53794D01*
X54194Y63860D01*
X53794Y63460D01*
X54194D01*
X54594Y63060D01*
X33733Y54431D02*
X32933Y56030D01*
X34533D01*
X33733Y54431D01*
X28642Y28691D02*
X29042Y29091D01*
X29442D01*
X29042Y29491D01*
X29442Y29891D01*
X29042D01*
X28642Y30291D01*
X28242Y29891D01*
X27842D01*
X28242Y29491D01*
X27842Y29091D01*
X28242D01*
X28642Y28691D01*
X43604Y45592D02*
X44004Y45992D01*
X44404D01*
X44004Y46392D01*
X44404Y46792D01*
X44004D01*
X43604Y47192D01*
X43204Y46792D01*
X42804D01*
X43204Y46392D01*
X42804Y45992D01*
X43204D01*
X43604Y45592D01*
X27927Y16181D02*
X28327Y16581D01*
X28727D01*
X28327Y16981D01*
X28727Y17381D01*
X28327D01*
X27927Y17781D01*
X27527Y17381D01*
X27127D01*
X27527Y16981D01*
X27127Y16581D01*
X27527D01*
X27927Y16181D01*
X34883Y22030D02*
X35283Y22830D01*
X34883Y23630D01*
X35683Y23230D01*
X36483Y23630D01*
X36083Y22830D01*
X36483Y22030D01*
X35683Y22430D01*
X34883Y22030D01*
X32929Y10927D02*
X33329Y11327D01*
X33729D01*
X33329Y11727D01*
X33729Y12127D01*
X33329D01*
X32929Y12527D01*
X32529Y12127D01*
X32129D01*
X32529Y11727D01*
X32129Y11327D01*
X32529D01*
X32929Y10927D01*
X4237Y3780D02*
X4637Y4180D01*
X5037D01*
X4637Y4580D01*
X5037Y4980D01*
X4637D01*
X4237Y5380D01*
X3837Y4980D01*
X3437D01*
X3837Y4580D01*
X3437Y4180D01*
X3837D01*
X4237Y3780D01*
X10024Y2796D02*
X10424Y3196D01*
X10824D01*
X10424Y3596D01*
X10824Y3997D01*
X10424D01*
X10024Y4397D01*
X9624Y3997D01*
X9224D01*
X9624Y3596D01*
X9224Y3196D01*
X9624D01*
X10024Y2796D01*
X61319Y61653D02*
X61719Y62053D01*
X62119D01*
X61719Y62453D01*
X62119Y62853D01*
X61719D01*
X61319Y63253D01*
X60919Y62853D01*
X60519D01*
X60919Y62453D01*
X60519Y62053D01*
X60919D01*
X61319Y61653D01*
Y67598D02*
X61719Y67998D01*
X62119D01*
X61719Y68398D01*
X62119Y68798D01*
X61719D01*
X61319Y69198D01*
X60919Y68798D01*
X60519D01*
X60919Y68398D01*
X60519Y67998D01*
X60919D01*
X61319Y67598D01*
X11752Y68098D02*
X12152Y68498D01*
X12552D01*
X12152Y68898D01*
X12552Y69298D01*
X12152D01*
X11752Y69698D01*
X11352Y69298D01*
X10952D01*
X11352Y68898D01*
X10952Y68498D01*
X11352D01*
X11752Y68098D01*
X6024Y67598D02*
X6424Y67998D01*
X6824D01*
X6424Y68398D01*
X6824Y68798D01*
X6424D01*
X6024Y69198D01*
X5624Y68798D01*
X5224D01*
X5624Y68398D01*
X5224Y67998D01*
X5624D01*
X6024Y67598D01*
X23425Y45468D02*
X23825Y45868D01*
X24225D01*
X23825Y46268D01*
X24225Y46668D01*
X23825D01*
X23425Y47068D01*
X23025Y46668D01*
X22625D01*
X23025Y46268D01*
X22625Y45868D01*
X23025D01*
X23425Y45468D01*
X23685Y41655D02*
X24085Y42055D01*
X24485D01*
X24085Y42455D01*
X24485Y42855D01*
X24085D01*
X23685Y43255D01*
X23285Y42855D01*
X22885D01*
X23285Y42455D01*
X22885Y42055D01*
X23285D01*
X23685Y41655D01*
X3622Y25632D02*
X4022Y26032D01*
X4422D01*
X4022Y26432D01*
X4422Y26832D01*
X4022D01*
X3622Y27232D01*
X3222Y26832D01*
X2822D01*
X3222Y26432D01*
X2822Y26032D01*
X3222D01*
X3622Y25632D01*
X60211Y52556D02*
X60611Y52956D01*
X61011D01*
X60611Y53356D01*
X61011Y53756D01*
X60611D01*
X60211Y54156D01*
X59811Y53756D01*
X59411D01*
X59811Y53356D01*
X59411Y52956D01*
X59811D01*
X60211Y52556D01*
X65945Y49245D02*
X66345Y49645D01*
X66745D01*
X66345Y50045D01*
X66745Y50445D01*
X66345D01*
X65945Y50845D01*
X65545Y50445D01*
X65145D01*
X65545Y50045D01*
X65145Y49645D01*
X65545D01*
X65945Y49245D01*
X58465Y48788D02*
X58865Y49188D01*
X59265D01*
X58865Y49588D01*
X59265Y49988D01*
X58865D01*
X58465Y50388D01*
X58065Y49988D01*
X57665D01*
X58065Y49588D01*
X57665Y49188D01*
X58065D01*
X58465Y48788D01*
X64545Y10107D02*
X64945Y10507D01*
X65345D01*
X64945Y10907D01*
X65345Y11307D01*
X64945D01*
X64545Y11707D01*
X64145Y11307D01*
X63745D01*
X64145Y10907D01*
X63745Y10507D01*
X64145D01*
X64545Y10107D01*
X52721Y5105D02*
X53121Y5505D01*
X53521D01*
X53121Y5906D01*
X53521Y6306D01*
X53121D01*
X52721Y6706D01*
X52321Y6306D01*
X51921D01*
X52321Y5906D01*
X51921Y5505D01*
X52321D01*
X52721Y5105D01*
X57068Y65932D02*
X57468Y66332D01*
X57868D01*
X57468Y66732D01*
X57868Y67132D01*
X57468D01*
X57068Y67532D01*
X56668Y67132D01*
X56268D01*
X56668Y66732D01*
X56268Y66332D01*
X56668D01*
X57068Y65932D01*
X60827Y11365D02*
X61227Y11765D01*
X61627D01*
X61227Y12165D01*
X61627Y12565D01*
X61227D01*
X60827Y12965D01*
X60427Y12565D01*
X60027D01*
X60427Y12165D01*
X60027Y11765D01*
X60427D01*
X60827Y11365D01*
X66929Y14334D02*
X67329Y14734D01*
X67729D01*
X67329Y15134D01*
X67729Y15534D01*
X67329D01*
X66929Y15934D01*
X66529Y15534D01*
X66129D01*
X66529Y15134D01*
X66129Y14734D01*
X66529D01*
X66929Y14334D01*
X60827Y6808D02*
X61227Y7209D01*
X61627D01*
X61227Y7609D01*
X61627Y8009D01*
X61227D01*
X60827Y8409D01*
X60427Y8009D01*
X60027D01*
X60427Y7609D01*
X60027Y7209D01*
X60427D01*
X60827Y6808D01*
X66929Y2796D02*
X67329Y3196D01*
X67729D01*
X67329Y3596D01*
X67729Y3997D01*
X67329D01*
X66929Y4397D01*
X66529Y3997D01*
X66129D01*
X66529Y3596D01*
X66129Y3196D01*
X66529D01*
X66929Y2796D01*
X6024Y7271D02*
X6424Y7671D01*
X6824D01*
X6424Y8071D01*
X6824Y8471D01*
X6424D01*
X6024Y8871D01*
X5624Y8471D01*
X5224D01*
X5624Y8071D01*
X5224Y7671D01*
X5624D01*
X6024Y7271D01*
X219481Y147594D02*
X218681Y149194D01*
X220281D01*
X219481Y147594D01*
X207277Y151632D02*
X206477Y153232D01*
X208077D01*
X207277Y151632D01*
X217905Y108617D02*
X218305Y109017D01*
X218706D01*
X218305Y109417D01*
X218706Y109817D01*
X218305D01*
X217905Y110217D01*
X217506Y109817D01*
X217106D01*
X217506Y109417D01*
X217106Y109017D01*
X217506D01*
X217905Y108617D01*
X189165Y161767D02*
X189565Y162167D01*
X189965D01*
X189565Y162567D01*
X189965Y162967D01*
X189565D01*
X189165Y163367D01*
X188765Y162967D01*
X188365D01*
X188765Y162567D01*
X188365Y162167D01*
X188765D01*
X189165Y161767D01*
X209532Y140361D02*
X209932Y140761D01*
X210332D01*
X209932Y141161D01*
X210332Y141561D01*
X209932D01*
X209532Y141961D01*
X209132Y141561D01*
X208732D01*
X209132Y141161D01*
X208732Y140761D01*
X209132D01*
X209532Y140361D01*
X237670Y103105D02*
X238070Y103506D01*
X238470D01*
X238070Y103905D01*
X238470Y104306D01*
X238070D01*
X237670Y104706D01*
X237270Y104306D01*
X236870D01*
X237270Y103905D01*
X236870Y103506D01*
X237270D01*
X237670Y103105D01*
X244582D02*
X244982Y103506D01*
X245382D01*
X244982Y103905D01*
X245382Y104306D01*
X244982D01*
X244582Y104706D01*
X244182Y104306D01*
X243782D01*
X244182Y103905D01*
X243782Y103506D01*
X244182D01*
X244582Y103105D01*
X239707Y100796D02*
X240107Y101197D01*
X240507D01*
X240107Y101596D01*
X240507Y101997D01*
X240107D01*
X239707Y102397D01*
X239307Y101997D01*
X238907D01*
X239307Y101596D01*
X238907Y101197D01*
X239307D01*
X239707Y100796D01*
X196716Y100796D02*
X197116Y101197D01*
X197516D01*
X197116Y101596D01*
X197516Y101997D01*
X197116D01*
X196716Y102397D01*
X196316Y101997D01*
X195916D01*
X196316Y101596D01*
X195916Y101197D01*
X196316D01*
X196716Y100796D01*
X235982Y168066D02*
X236382Y168466D01*
X236782D01*
X236382Y168866D01*
X236782Y169266D01*
X236382D01*
X235982Y169666D01*
X235582Y169266D01*
X235182D01*
X235582Y168866D01*
X235182Y168466D01*
X235582D01*
X235982Y168066D01*
X244744Y163145D02*
X245144Y163545D01*
X245544D01*
X245144Y163945D01*
X245544Y164345D01*
X245144D01*
X244744Y164745D01*
X244344Y164345D01*
X243944D01*
X244344Y163945D01*
X243944Y163545D01*
X244344D01*
X244744Y163145D01*
X246547Y154763D02*
X246947Y155163D01*
X247347D01*
X246947Y155563D01*
X247347Y155963D01*
X246947D01*
X246547Y156363D01*
X246147Y155963D01*
X245747D01*
X246147Y155563D01*
X245747Y155163D01*
X246147D01*
X246547Y154763D01*
X235196Y161060D02*
X235596Y161460D01*
X235996D01*
X235596Y161860D01*
X235996Y162260D01*
X235596D01*
X235196Y162660D01*
X234796Y162260D01*
X234396D01*
X234796Y161860D01*
X234396Y161460D01*
X234796D01*
X235196Y161060D01*
X214335Y152430D02*
X213535Y154031D01*
X215135D01*
X214335Y152430D01*
X209245Y126691D02*
X209645Y127091D01*
X210045D01*
X209645Y127491D01*
X210045Y127891D01*
X209645D01*
X209245Y128291D01*
X208845Y127891D01*
X208445D01*
X208845Y127491D01*
X208445Y127091D01*
X208845D01*
X209245Y126691D01*
X224206Y143592D02*
X224606Y143992D01*
X225006D01*
X224606Y144392D01*
X225006Y144792D01*
X224606D01*
X224206Y145192D01*
X223806Y144792D01*
X223406D01*
X223806Y144392D01*
X223406Y143992D01*
X223806D01*
X224206Y143592D01*
X208530Y114181D02*
X208930Y114581D01*
X209330D01*
X208930Y114981D01*
X209330Y115381D01*
X208930D01*
X208530Y115781D01*
X208130Y115381D01*
X207730D01*
X208130Y114981D01*
X207730Y114581D01*
X208130D01*
X208530Y114181D01*
X215485Y120030D02*
X215885Y120830D01*
X215485Y121630D01*
X216285Y121230D01*
X217085Y121630D01*
X216685Y120830D01*
X217085Y120030D01*
X216285Y120430D01*
X215485Y120030D01*
X213532Y108927D02*
X213932Y109327D01*
X214332D01*
X213932Y109727D01*
X214332Y110127D01*
X213932D01*
X213532Y110527D01*
X213132Y110127D01*
X212732D01*
X213132Y109727D01*
X212732Y109327D01*
X213132D01*
X213532Y108927D01*
X184840Y101780D02*
X185240Y102180D01*
X185640D01*
X185240Y102580D01*
X185640Y102980D01*
X185240D01*
X184840Y103380D01*
X184440Y102980D01*
X184040D01*
X184440Y102580D01*
X184040Y102180D01*
X184440D01*
X184840Y101780D01*
X190626Y100796D02*
X191026Y101197D01*
X191426D01*
X191026Y101596D01*
X191426Y101997D01*
X191026D01*
X190626Y102397D01*
X190226Y101997D01*
X189826D01*
X190226Y101596D01*
X189826Y101197D01*
X190226D01*
X190626Y100796D01*
X241921Y159653D02*
X242321Y160053D01*
X242721D01*
X242321Y160453D01*
X242721Y160853D01*
X242321D01*
X241921Y161253D01*
X241521Y160853D01*
X241121D01*
X241521Y160453D01*
X241121Y160053D01*
X241521D01*
X241921Y159653D01*
Y165598D02*
X242321Y165998D01*
X242721D01*
X242321Y166398D01*
X242721Y166798D01*
X242321D01*
X241921Y167198D01*
X241521Y166798D01*
X241121D01*
X241521Y166398D01*
X241121Y165998D01*
X241521D01*
X241921Y165598D01*
X192354Y166098D02*
X192754Y166498D01*
X193154D01*
X192754Y166898D01*
X193154Y167298D01*
X192754D01*
X192354Y167698D01*
X191954Y167298D01*
X191554D01*
X191954Y166898D01*
X191554Y166498D01*
X191954D01*
X192354Y166098D01*
X186626Y165598D02*
X187026Y165998D01*
X187426D01*
X187026Y166398D01*
X187426Y166798D01*
X187026D01*
X186626Y167198D01*
X186226Y166798D01*
X185826D01*
X186226Y166398D01*
X185826Y165998D01*
X186226D01*
X186626Y165598D01*
X204028Y143468D02*
X204428Y143868D01*
X204828D01*
X204428Y144268D01*
X204828Y144668D01*
X204428D01*
X204028Y145068D01*
X203627Y144668D01*
X203227D01*
X203627Y144268D01*
X203227Y143868D01*
X203627D01*
X204028Y143468D01*
X204288Y139655D02*
X204688Y140055D01*
X205088D01*
X204688Y140455D01*
X205088Y140855D01*
X204688D01*
X204288Y141255D01*
X203888Y140855D01*
X203488D01*
X203888Y140455D01*
X203488Y140055D01*
X203888D01*
X204288Y139655D01*
X184224Y123632D02*
X184624Y124032D01*
X185024D01*
X184624Y124432D01*
X185024Y124832D01*
X184624D01*
X184224Y125232D01*
X183824Y124832D01*
X183424D01*
X183824Y124432D01*
X183424Y124032D01*
X183824D01*
X184224Y123632D01*
X240813Y150556D02*
X241213Y150956D01*
X241613D01*
X241213Y151356D01*
X241613Y151756D01*
X241213D01*
X240813Y152156D01*
X240413Y151756D01*
X240013D01*
X240413Y151356D01*
X240013Y150956D01*
X240413D01*
X240813Y150556D01*
X246547Y147245D02*
X246947Y147645D01*
X247347D01*
X246947Y148045D01*
X247347Y148445D01*
X246947D01*
X246547Y148845D01*
X246147Y148445D01*
X245747D01*
X246147Y148045D01*
X245747Y147645D01*
X246147D01*
X246547Y147245D01*
X239067Y146788D02*
X239467Y147188D01*
X239867D01*
X239467Y147588D01*
X239867Y147988D01*
X239467D01*
X239067Y148388D01*
X238667Y147988D01*
X238267D01*
X238667Y147588D01*
X238267Y147188D01*
X238667D01*
X239067Y146788D01*
X245147Y108107D02*
X245547Y108507D01*
X245947D01*
X245547Y108907D01*
X245947Y109307D01*
X245547D01*
X245147Y109707D01*
X244747Y109307D01*
X244347D01*
X244747Y108907D01*
X244347Y108507D01*
X244747D01*
X245147Y108107D01*
X233323Y103105D02*
X233723Y103506D01*
X234123D01*
X233723Y103905D01*
X234123Y104306D01*
X233723D01*
X233323Y104706D01*
X232923Y104306D01*
X232523D01*
X232923Y103905D01*
X232523Y103506D01*
X232923D01*
X233323Y103105D01*
X237670Y163932D02*
X238070Y164332D01*
X238470D01*
X238070Y164732D01*
X238470Y165132D01*
X238070D01*
X237670Y165532D01*
X237270Y165132D01*
X236870D01*
X237270Y164732D01*
X236870Y164332D01*
X237270D01*
X237670Y163932D01*
X241429Y109365D02*
X241829Y109765D01*
X242229D01*
X241829Y110165D01*
X242229Y110565D01*
X241829D01*
X241429Y110965D01*
X241029Y110565D01*
X240629D01*
X241029Y110165D01*
X240629Y109765D01*
X241029D01*
X241429Y109365D01*
X247532Y112334D02*
X247932Y112734D01*
X248331D01*
X247932Y113134D01*
X248331Y113534D01*
X247932D01*
X247532Y113934D01*
X247131Y113534D01*
X246731D01*
X247131Y113134D01*
X246731Y112734D01*
X247131D01*
X247532Y112334D01*
X241429Y104808D02*
X241829Y105209D01*
X242229D01*
X241829Y105608D01*
X242229Y106009D01*
X241829D01*
X241429Y106409D01*
X241029Y106009D01*
X240629D01*
X241029Y105608D01*
X240629Y105209D01*
X241029D01*
X241429Y104808D01*
X247532Y100796D02*
X247932Y101197D01*
X248331D01*
X247932Y101596D01*
X248331Y101997D01*
X247932D01*
X247532Y102397D01*
X247131Y101997D01*
X246731D01*
X247131Y101596D01*
X246731Y101197D01*
X247131D01*
X247532Y100796D01*
X186626Y105271D02*
X187026Y105671D01*
X187426D01*
X187026Y106071D01*
X187426Y106471D01*
X187026D01*
X186626Y106871D01*
X186226Y106471D01*
X185826D01*
X186226Y106071D01*
X185826Y105671D01*
X186226D01*
X186626Y105271D01*
X128930Y147594D02*
X128130Y149194D01*
X129730D01*
X128930Y147594D01*
X116726Y151632D02*
X115926Y153232D01*
X117525D01*
X116726Y151632D01*
X127354Y108617D02*
X127754Y109017D01*
X128154D01*
X127754Y109417D01*
X128154Y109817D01*
X127754D01*
X127354Y110217D01*
X126954Y109817D01*
X126554D01*
X126954Y109417D01*
X126554Y109017D01*
X126954D01*
X127354Y108617D01*
X98614Y161767D02*
X99014Y162167D01*
X99414D01*
X99014Y162567D01*
X99414Y162967D01*
X99014D01*
X98614Y163367D01*
X98214Y162967D01*
X97814D01*
X98214Y162567D01*
X97814Y162167D01*
X98214D01*
X98614Y161767D01*
X118981Y140361D02*
X119381Y140761D01*
X119781D01*
X119381Y141161D01*
X119781Y141561D01*
X119381D01*
X118981Y141961D01*
X118581Y141561D01*
X118181D01*
X118581Y141161D01*
X118181Y140761D01*
X118581D01*
X118981Y140361D01*
X147119Y103105D02*
X147519Y103506D01*
X147919D01*
X147519Y103905D01*
X147919Y104306D01*
X147519D01*
X147119Y104706D01*
X146719Y104306D01*
X146319D01*
X146719Y103905D01*
X146319Y103506D01*
X146719D01*
X147119Y103105D01*
X154031D02*
X154431Y103506D01*
X154831D01*
X154431Y103905D01*
X154831Y104306D01*
X154431D01*
X154031Y104706D01*
X153631Y104306D01*
X153231D01*
X153631Y103905D01*
X153231Y103506D01*
X153631D01*
X154031Y103105D01*
X149155Y100796D02*
X149556Y101197D01*
X149955D01*
X149556Y101596D01*
X149955Y101997D01*
X149556D01*
X149155Y102397D01*
X148756Y101997D01*
X148355D01*
X148756Y101596D01*
X148355Y101197D01*
X148756D01*
X149155Y100796D01*
X106165Y100796D02*
X106565Y101197D01*
X106965D01*
X106565Y101596D01*
X106965Y101997D01*
X106565D01*
X106165Y102397D01*
X105765Y101997D01*
X105365D01*
X105765Y101596D01*
X105365Y101197D01*
X105765D01*
X106165Y100796D01*
X145431Y168066D02*
X145831Y168466D01*
X146231D01*
X145831Y168866D01*
X146231Y169266D01*
X145831D01*
X145431Y169666D01*
X145031Y169266D01*
X144631D01*
X145031Y168866D01*
X144631Y168466D01*
X145031D01*
X145431Y168066D01*
X154193Y163145D02*
X154593Y163545D01*
X154993D01*
X154593Y163945D01*
X154993Y164345D01*
X154593D01*
X154193Y164745D01*
X153793Y164345D01*
X153393D01*
X153793Y163945D01*
X153393Y163545D01*
X153793D01*
X154193Y163145D01*
X155996Y154763D02*
X156396Y155163D01*
X156796D01*
X156396Y155563D01*
X156796Y155963D01*
X156396D01*
X155996Y156363D01*
X155596Y155963D01*
X155196D01*
X155596Y155563D01*
X155196Y155163D01*
X155596D01*
X155996Y154763D01*
X144645Y161060D02*
X145045Y161460D01*
X145445D01*
X145045Y161860D01*
X145445Y162260D01*
X145045D01*
X144645Y162660D01*
X144245Y162260D01*
X143845D01*
X144245Y161860D01*
X143845Y161460D01*
X144245D01*
X144645Y161060D01*
X123784Y152430D02*
X122984Y154031D01*
X124584D01*
X123784Y152430D01*
X118693Y126691D02*
X119094Y127091D01*
X119493D01*
X119094Y127491D01*
X119493Y127891D01*
X119094D01*
X118693Y128291D01*
X118293Y127891D01*
X117894D01*
X118293Y127491D01*
X117894Y127091D01*
X118293D01*
X118693Y126691D01*
X133655Y143592D02*
X134055Y143992D01*
X134455D01*
X134055Y144392D01*
X134455Y144792D01*
X134055D01*
X133655Y145192D01*
X133255Y144792D01*
X132855D01*
X133255Y144392D01*
X132855Y143992D01*
X133255D01*
X133655Y143592D01*
X117979Y114181D02*
X118379Y114581D01*
X118779D01*
X118379Y114981D01*
X118779Y115381D01*
X118379D01*
X117979Y115781D01*
X117579Y115381D01*
X117179D01*
X117579Y114981D01*
X117179Y114581D01*
X117579D01*
X117979Y114181D01*
X124934Y120030D02*
X125334Y120830D01*
X124934Y121630D01*
X125734Y121230D01*
X126534Y121630D01*
X126134Y120830D01*
X126534Y120030D01*
X125734Y120430D01*
X124934Y120030D01*
X122980Y108927D02*
X123380Y109327D01*
X123780D01*
X123380Y109727D01*
X123780Y110127D01*
X123380D01*
X122980Y110527D01*
X122580Y110127D01*
X122180D01*
X122580Y109727D01*
X122180Y109327D01*
X122580D01*
X122980Y108927D01*
X94288Y101780D02*
X94688Y102180D01*
X95088D01*
X94688Y102580D01*
X95088Y102980D01*
X94688D01*
X94288Y103380D01*
X93888Y102980D01*
X93488D01*
X93888Y102580D01*
X93488Y102180D01*
X93888D01*
X94288Y101780D01*
X100075Y100796D02*
X100475Y101197D01*
X100875D01*
X100475Y101596D01*
X100875Y101997D01*
X100475D01*
X100075Y102397D01*
X99675Y101997D01*
X99275D01*
X99675Y101596D01*
X99275Y101197D01*
X99675D01*
X100075Y100796D01*
X151370Y159653D02*
X151770Y160053D01*
X152170D01*
X151770Y160453D01*
X152170Y160853D01*
X151770D01*
X151370Y161253D01*
X150970Y160853D01*
X150570D01*
X150970Y160453D01*
X150570Y160053D01*
X150970D01*
X151370Y159653D01*
Y165598D02*
X151770Y165998D01*
X152170D01*
X151770Y166398D01*
X152170Y166798D01*
X151770D01*
X151370Y167198D01*
X150970Y166798D01*
X150570D01*
X150970Y166398D01*
X150570Y165998D01*
X150970D01*
X151370Y165598D01*
X101803Y166098D02*
X102203Y166498D01*
X102603D01*
X102203Y166898D01*
X102603Y167298D01*
X102203D01*
X101803Y167698D01*
X101403Y167298D01*
X101003D01*
X101403Y166898D01*
X101003Y166498D01*
X101403D01*
X101803Y166098D01*
X96075Y165598D02*
X96475Y165998D01*
X96875D01*
X96475Y166398D01*
X96875Y166798D01*
X96475D01*
X96075Y167198D01*
X95675Y166798D01*
X95275D01*
X95675Y166398D01*
X95275Y165998D01*
X95675D01*
X96075Y165598D01*
X113476Y143468D02*
X113876Y143868D01*
X114276D01*
X113876Y144268D01*
X114276Y144668D01*
X113876D01*
X113476Y145068D01*
X113076Y144668D01*
X112676D01*
X113076Y144268D01*
X112676Y143868D01*
X113076D01*
X113476Y143468D01*
X113736Y139655D02*
X114136Y140055D01*
X114536D01*
X114136Y140455D01*
X114536Y140855D01*
X114136D01*
X113736Y141255D01*
X113336Y140855D01*
X112936D01*
X113336Y140455D01*
X112936Y140055D01*
X113336D01*
X113736Y139655D01*
X93673Y123632D02*
X94073Y124032D01*
X94473D01*
X94073Y124432D01*
X94473Y124832D01*
X94073D01*
X93673Y125232D01*
X93273Y124832D01*
X92873D01*
X93273Y124432D01*
X92873Y124032D01*
X93273D01*
X93673Y123632D01*
X150262Y150556D02*
X150662Y150956D01*
X151062D01*
X150662Y151356D01*
X151062Y151756D01*
X150662D01*
X150262Y152156D01*
X149862Y151756D01*
X149462D01*
X149862Y151356D01*
X149462Y150956D01*
X149862D01*
X150262Y150556D01*
X155996Y147245D02*
X156396Y147645D01*
X156796D01*
X156396Y148045D01*
X156796Y148445D01*
X156396D01*
X155996Y148845D01*
X155596Y148445D01*
X155196D01*
X155596Y148045D01*
X155196Y147645D01*
X155596D01*
X155996Y147245D01*
X148516Y146788D02*
X148916Y147188D01*
X149316D01*
X148916Y147588D01*
X149316Y147988D01*
X148916D01*
X148516Y148388D01*
X148116Y147988D01*
X147716D01*
X148116Y147588D01*
X147716Y147188D01*
X148116D01*
X148516Y146788D01*
X154596Y108107D02*
X154996Y108507D01*
X155396D01*
X154996Y108907D01*
X155396Y109307D01*
X154996D01*
X154596Y109707D01*
X154196Y109307D01*
X153796D01*
X154196Y108907D01*
X153796Y108507D01*
X154196D01*
X154596Y108107D01*
X142772Y103105D02*
X143172Y103506D01*
X143572D01*
X143172Y103905D01*
X143572Y104306D01*
X143172D01*
X142772Y104706D01*
X142372Y104306D01*
X141972D01*
X142372Y103905D01*
X141972Y103506D01*
X142372D01*
X142772Y103105D01*
X147119Y163932D02*
X147519Y164332D01*
X147919D01*
X147519Y164732D01*
X147919Y165132D01*
X147519D01*
X147119Y165532D01*
X146719Y165132D01*
X146319D01*
X146719Y164732D01*
X146319Y164332D01*
X146719D01*
X147119Y163932D01*
X150878Y109365D02*
X151278Y109765D01*
X151678D01*
X151278Y110165D01*
X151678Y110565D01*
X151278D01*
X150878Y110965D01*
X150478Y110565D01*
X150078D01*
X150478Y110165D01*
X150078Y109765D01*
X150478D01*
X150878Y109365D01*
X156980Y112334D02*
X157380Y112734D01*
X157780D01*
X157380Y113134D01*
X157780Y113534D01*
X157380D01*
X156980Y113934D01*
X156580Y113534D01*
X156180D01*
X156580Y113134D01*
X156180Y112734D01*
X156580D01*
X156980Y112334D01*
X150878Y104808D02*
X151278Y105209D01*
X151678D01*
X151278Y105608D01*
X151678Y106009D01*
X151278D01*
X150878Y106409D01*
X150478Y106009D01*
X150078D01*
X150478Y105608D01*
X150078Y105209D01*
X150478D01*
X150878Y104808D01*
X156980Y100796D02*
X157380Y101197D01*
X157780D01*
X157380Y101596D01*
X157780Y101997D01*
X157380D01*
X156980Y102397D01*
X156580Y101997D01*
X156180D01*
X156580Y101596D01*
X156180Y101197D01*
X156580D01*
X156980Y100796D01*
X96075Y105271D02*
X96475Y105671D01*
X96875D01*
X96475Y106071D01*
X96875Y106471D01*
X96475D01*
X96075Y106871D01*
X95675Y106471D01*
X95275D01*
X95675Y106071D01*
X95275Y105671D01*
X95675D01*
X96075Y105271D01*
X38379Y147594D02*
X37578Y149194D01*
X39178D01*
X38379Y147594D01*
X26174Y151632D02*
X25374Y153232D01*
X26974D01*
X26174Y151632D01*
X36803Y108617D02*
X37203Y109017D01*
X37603D01*
X37203Y109417D01*
X37603Y109817D01*
X37203D01*
X36803Y110217D01*
X36403Y109817D01*
X36003D01*
X36403Y109417D01*
X36003Y109017D01*
X36403D01*
X36803Y108617D01*
X8063Y161767D02*
X8463Y162167D01*
X8863D01*
X8463Y162567D01*
X8863Y162967D01*
X8463D01*
X8063Y163367D01*
X7663Y162967D01*
X7263D01*
X7663Y162567D01*
X7263Y162167D01*
X7663D01*
X8063Y161767D01*
X28430Y140361D02*
X28830Y140761D01*
X29230D01*
X28830Y141161D01*
X29230Y141561D01*
X28830D01*
X28430Y141961D01*
X28030Y141561D01*
X27630D01*
X28030Y141161D01*
X27630Y140761D01*
X28030D01*
X28430Y140361D01*
X56568Y103105D02*
X56968Y103506D01*
X57368D01*
X56968Y103905D01*
X57368Y104306D01*
X56968D01*
X56568Y104706D01*
X56168Y104306D01*
X55768D01*
X56168Y103905D01*
X55768Y103506D01*
X56168D01*
X56568Y103105D01*
X63480D02*
X63880Y103506D01*
X64280D01*
X63880Y103905D01*
X64280Y104306D01*
X63880D01*
X63480Y104706D01*
X63080Y104306D01*
X62680D01*
X63080Y103905D01*
X62680Y103506D01*
X63080D01*
X63480Y103105D01*
X58604Y100796D02*
X59004Y101197D01*
X59404D01*
X59004Y101596D01*
X59404Y101997D01*
X59004D01*
X58604Y102397D01*
X58204Y101997D01*
X57804D01*
X58204Y101596D01*
X57804Y101197D01*
X58204D01*
X58604Y100796D01*
X15613Y100796D02*
X16013Y101197D01*
X16413D01*
X16013Y101596D01*
X16413Y101997D01*
X16013D01*
X15613Y102397D01*
X15213Y101997D01*
X14813D01*
X15213Y101596D01*
X14813Y101197D01*
X15213D01*
X15613Y100796D01*
X54880Y168066D02*
X55280Y168466D01*
X55680D01*
X55280Y168866D01*
X55680Y169266D01*
X55280D01*
X54880Y169666D01*
X54480Y169266D01*
X54080D01*
X54480Y168866D01*
X54080Y168466D01*
X54480D01*
X54880Y168066D01*
X63642Y163145D02*
X64042Y163545D01*
X64442D01*
X64042Y163945D01*
X64442Y164345D01*
X64042D01*
X63642Y164745D01*
X63242Y164345D01*
X62842D01*
X63242Y163945D01*
X62842Y163545D01*
X63242D01*
X63642Y163145D01*
X65445Y154763D02*
X65845Y155163D01*
X66245D01*
X65845Y155563D01*
X66245Y155963D01*
X65845D01*
X65445Y156363D01*
X65045Y155963D01*
X64645D01*
X65045Y155563D01*
X64645Y155163D01*
X65045D01*
X65445Y154763D01*
X54094Y161060D02*
X54494Y161460D01*
X54894D01*
X54494Y161860D01*
X54894Y162260D01*
X54494D01*
X54094Y162660D01*
X53694Y162260D01*
X53294D01*
X53694Y161860D01*
X53294Y161460D01*
X53694D01*
X54094Y161060D01*
X33233Y152430D02*
X32433Y154031D01*
X34033D01*
X33233Y152430D01*
X28142Y126691D02*
X28542Y127091D01*
X28942D01*
X28542Y127491D01*
X28942Y127891D01*
X28542D01*
X28142Y128291D01*
X27742Y127891D01*
X27342D01*
X27742Y127491D01*
X27342Y127091D01*
X27742D01*
X28142Y126691D01*
X43104Y143592D02*
X43504Y143992D01*
X43904D01*
X43504Y144392D01*
X43904Y144792D01*
X43504D01*
X43104Y145192D01*
X42704Y144792D01*
X42304D01*
X42704Y144392D01*
X42304Y143992D01*
X42704D01*
X43104Y143592D01*
X27427Y114181D02*
X27827Y114581D01*
X28227D01*
X27827Y114981D01*
X28227Y115381D01*
X27827D01*
X27427Y115781D01*
X27027Y115381D01*
X26627D01*
X27027Y114981D01*
X26627Y114581D01*
X27027D01*
X27427Y114181D01*
X34383Y120030D02*
X34783Y120830D01*
X34383Y121630D01*
X35183Y121230D01*
X35983Y121630D01*
X35583Y120830D01*
X35983Y120030D01*
X35183Y120430D01*
X34383Y120030D01*
X32429Y108927D02*
X32829Y109327D01*
X33229D01*
X32829Y109727D01*
X33229Y110127D01*
X32829D01*
X32429Y110527D01*
X32029Y110127D01*
X31629D01*
X32029Y109727D01*
X31629Y109327D01*
X32029D01*
X32429Y108927D01*
X3737Y101780D02*
X4137Y102180D01*
X4537D01*
X4137Y102580D01*
X4537Y102980D01*
X4137D01*
X3737Y103380D01*
X3337Y102980D01*
X2937D01*
X3337Y102580D01*
X2937Y102180D01*
X3337D01*
X3737Y101780D01*
X9524Y100796D02*
X9924Y101197D01*
X10324D01*
X9924Y101596D01*
X10324Y101997D01*
X9924D01*
X9524Y102397D01*
X9124Y101997D01*
X8724D01*
X9124Y101596D01*
X8724Y101197D01*
X9124D01*
X9524Y100796D01*
X60819Y159653D02*
X61219Y160053D01*
X61619D01*
X61219Y160453D01*
X61619Y160853D01*
X61219D01*
X60819Y161253D01*
X60419Y160853D01*
X60019D01*
X60419Y160453D01*
X60019Y160053D01*
X60419D01*
X60819Y159653D01*
Y165598D02*
X61219Y165998D01*
X61619D01*
X61219Y166398D01*
X61619Y166798D01*
X61219D01*
X60819Y167198D01*
X60419Y166798D01*
X60019D01*
X60419Y166398D01*
X60019Y165998D01*
X60419D01*
X60819Y165598D01*
X11252Y166098D02*
X11652Y166498D01*
X12052D01*
X11652Y166898D01*
X12052Y167298D01*
X11652D01*
X11252Y167698D01*
X10852Y167298D01*
X10452D01*
X10852Y166898D01*
X10452Y166498D01*
X10852D01*
X11252Y166098D01*
X5524Y165598D02*
X5924Y165998D01*
X6324D01*
X5924Y166398D01*
X6324Y166798D01*
X5924D01*
X5524Y167198D01*
X5124Y166798D01*
X4724D01*
X5124Y166398D01*
X4724Y165998D01*
X5124D01*
X5524Y165598D01*
X22925Y143468D02*
X23325Y143868D01*
X23725D01*
X23325Y144268D01*
X23725Y144668D01*
X23325D01*
X22925Y145068D01*
X22525Y144668D01*
X22125D01*
X22525Y144268D01*
X22125Y143868D01*
X22525D01*
X22925Y143468D01*
X23185Y139655D02*
X23585Y140055D01*
X23985D01*
X23585Y140455D01*
X23985Y140855D01*
X23585D01*
X23185Y141255D01*
X22785Y140855D01*
X22385D01*
X22785Y140455D01*
X22385Y140055D01*
X22785D01*
X23185Y139655D01*
X3122Y123632D02*
X3522Y124032D01*
X3922D01*
X3522Y124432D01*
X3922Y124832D01*
X3522D01*
X3122Y125232D01*
X2722Y124832D01*
X2322D01*
X2722Y124432D01*
X2322Y124032D01*
X2722D01*
X3122Y123632D01*
X59711Y150556D02*
X60111Y150956D01*
X60511D01*
X60111Y151356D01*
X60511Y151756D01*
X60111D01*
X59711Y152156D01*
X59311Y151756D01*
X58911D01*
X59311Y151356D01*
X58911Y150956D01*
X59311D01*
X59711Y150556D01*
X65445Y147245D02*
X65845Y147645D01*
X66245D01*
X65845Y148045D01*
X66245Y148445D01*
X65845D01*
X65445Y148845D01*
X65045Y148445D01*
X64645D01*
X65045Y148045D01*
X64645Y147645D01*
X65045D01*
X65445Y147245D01*
X57965Y146788D02*
X58365Y147188D01*
X58765D01*
X58365Y147588D01*
X58765Y147988D01*
X58365D01*
X57965Y148388D01*
X57565Y147988D01*
X57165D01*
X57565Y147588D01*
X57165Y147188D01*
X57565D01*
X57965Y146788D01*
X64045Y108107D02*
X64445Y108507D01*
X64845D01*
X64445Y108907D01*
X64845Y109307D01*
X64445D01*
X64045Y109707D01*
X63645Y109307D01*
X63245D01*
X63645Y108907D01*
X63245Y108507D01*
X63645D01*
X64045Y108107D01*
X52221Y103105D02*
X52621Y103506D01*
X53021D01*
X52621Y103905D01*
X53021Y104306D01*
X52621D01*
X52221Y104706D01*
X51821Y104306D01*
X51421D01*
X51821Y103905D01*
X51421Y103506D01*
X51821D01*
X52221Y103105D01*
X56568Y163932D02*
X56968Y164332D01*
X57368D01*
X56968Y164732D01*
X57368Y165132D01*
X56968D01*
X56568Y165532D01*
X56168Y165132D01*
X55768D01*
X56168Y164732D01*
X55768Y164332D01*
X56168D01*
X56568Y163932D01*
X60327Y109365D02*
X60727Y109765D01*
X61127D01*
X60727Y110165D01*
X61127Y110565D01*
X60727D01*
X60327Y110965D01*
X59927Y110565D01*
X59527D01*
X59927Y110165D01*
X59527Y109765D01*
X59927D01*
X60327Y109365D01*
X66429Y112334D02*
X66829Y112734D01*
X67229D01*
X66829Y113134D01*
X67229Y113534D01*
X66829D01*
X66429Y113934D01*
X66029Y113534D01*
X65629D01*
X66029Y113134D01*
X65629Y112734D01*
X66029D01*
X66429Y112334D01*
X60327Y104808D02*
X60727Y105209D01*
X61127D01*
X60727Y105608D01*
X61127Y106009D01*
X60727D01*
X60327Y106409D01*
X59927Y106009D01*
X59527D01*
X59927Y105608D01*
X59527Y105209D01*
X59927D01*
X60327Y104808D01*
X66429Y100796D02*
X66829Y101197D01*
X67229D01*
X66829Y101596D01*
X67229Y101997D01*
X66829D01*
X66429Y102397D01*
X66029Y101997D01*
X65629D01*
X66029Y101596D01*
X65629Y101197D01*
X66029D01*
X66429Y100796D01*
X5524Y105271D02*
X5924Y105671D01*
X6324D01*
X5924Y106071D01*
X6324Y106471D01*
X5924D01*
X5524Y106871D01*
X5124Y106471D01*
X4724D01*
X5124Y106071D01*
X4724Y105671D01*
X5124D01*
X5524Y105271D01*
G54D12*
X180729Y14098D02*
X180176Y14859D01*
X179282Y14569D01*
Y13628D01*
X180176Y13338D01*
X180729Y14098D01*
Y21598D02*
X180176Y22359D01*
X179282Y22069D01*
Y21128D01*
X180176Y20838D01*
X180729Y21598D01*
Y18098D02*
X180176Y18859D01*
X179282Y18569D01*
Y17628D01*
X180176Y17338D01*
X180729Y18098D01*
Y24598D02*
X180176Y25359D01*
X179282Y25069D01*
Y24128D01*
X180176Y23838D01*
X180729Y24598D01*
Y38098D02*
X180176Y38859D01*
X179282Y38569D01*
Y37628D01*
X180176Y37338D01*
X180729Y38098D01*
Y31598D02*
X180176Y32359D01*
X179282Y32069D01*
Y31128D01*
X180176Y30838D01*
X180729Y31598D01*
Y35098D02*
X180176Y35859D01*
X179282Y35569D01*
Y34628D01*
X180176Y34338D01*
X180729Y35098D01*
Y27598D02*
X180176Y28359D01*
X179282Y28069D01*
Y27128D01*
X180176Y26838D01*
X180729Y27598D01*
Y51598D02*
X180176Y52359D01*
X179282Y52069D01*
Y51128D01*
X180176Y50838D01*
X180729Y51598D01*
Y45098D02*
X180176Y45859D01*
X179282Y45569D01*
Y44628D01*
X180176Y44338D01*
X180729Y45098D01*
Y48598D02*
X180176Y49359D01*
X179282Y49069D01*
Y48128D01*
X180176Y47838D01*
X180729Y48598D01*
Y41098D02*
X180176Y41859D01*
X179282Y41569D01*
Y40628D01*
X180176Y40338D01*
X180729Y41098D01*
X162611Y40780D02*
X162058Y41540D01*
X161164Y41250D01*
Y40309D01*
X162058Y40019D01*
X162611Y40780D01*
Y48280D02*
X162058Y49040D01*
X161164Y48750D01*
Y47809D01*
X162058Y47519D01*
X162611Y48280D01*
Y44780D02*
X162058Y45540D01*
X161164Y45250D01*
Y44309D01*
X162058Y44019D01*
X162611Y44780D01*
Y51279D02*
X162058Y52040D01*
X161164Y51750D01*
Y50809D01*
X162058Y50519D01*
X162611Y51279D01*
Y27279D02*
X162058Y28040D01*
X161164Y27750D01*
Y26809D01*
X162058Y26519D01*
X162611Y27279D01*
Y34780D02*
X162058Y35540D01*
X161164Y35250D01*
Y34309D01*
X162058Y34019D01*
X162611Y34780D01*
Y31280D02*
X162058Y32040D01*
X161164Y31750D01*
Y30809D01*
X162058Y30519D01*
X162611Y31280D01*
Y37780D02*
X162058Y38540D01*
X161164Y38250D01*
Y37309D01*
X162058Y37019D01*
X162611Y37780D01*
Y24280D02*
X162058Y25040D01*
X161164Y24750D01*
Y23809D01*
X162058Y23519D01*
X162611Y24280D01*
Y17779D02*
X162058Y18540D01*
X161164Y18250D01*
Y17309D01*
X162058Y17019D01*
X162611Y17779D01*
Y21280D02*
X162058Y22040D01*
X161164Y21750D01*
Y20809D01*
X162058Y20519D01*
X162611Y21280D01*
Y13780D02*
X162058Y14540D01*
X161164Y14250D01*
Y13309D01*
X162058Y13019D01*
X162611Y13780D01*
X90178Y16756D02*
X89625Y17517D01*
X88731Y17226D01*
Y16286D01*
X89625Y15995D01*
X90178Y16756D01*
Y24256D02*
X89625Y25017D01*
X88731Y24726D01*
Y23786D01*
X89625Y23495D01*
X90178Y24256D01*
Y20756D02*
X89625Y21517D01*
X88731Y21226D01*
Y20286D01*
X89625Y19995D01*
X90178Y20756D01*
Y27256D02*
X89625Y28017D01*
X88731Y27726D01*
Y26786D01*
X89625Y26495D01*
X90178Y27256D01*
Y40756D02*
X89625Y41517D01*
X88731Y41226D01*
Y40286D01*
X89625Y39995D01*
X90178Y40756D01*
Y34256D02*
X89625Y35017D01*
X88731Y34726D01*
Y33786D01*
X89625Y33495D01*
X90178Y34256D01*
Y37756D02*
X89625Y38517D01*
X88731Y38226D01*
Y37286D01*
X89625Y36995D01*
X90178Y37756D01*
Y30256D02*
X89625Y31017D01*
X88731Y30726D01*
Y29786D01*
X89625Y29495D01*
X90178Y30256D01*
Y54256D02*
X89625Y55017D01*
X88731Y54726D01*
Y53786D01*
X89625Y53495D01*
X90178Y54256D01*
Y47756D02*
X89625Y48517D01*
X88731Y48226D01*
Y47286D01*
X89625Y46995D01*
X90178Y47756D01*
Y51256D02*
X89625Y52017D01*
X88731Y51726D01*
Y50786D01*
X89625Y50495D01*
X90178Y51256D01*
Y43756D02*
X89625Y44517D01*
X88731Y44226D01*
Y43286D01*
X89625Y42995D01*
X90178Y43756D01*
X72060Y43437D02*
X71507Y44198D01*
X70613Y43907D01*
Y42967D01*
X71507Y42676D01*
X72060Y43437D01*
Y50937D02*
X71507Y51698D01*
X70613Y51407D01*
Y50467D01*
X71507Y50176D01*
X72060Y50937D01*
Y47437D02*
X71507Y48198D01*
X70613Y47907D01*
Y46967D01*
X71507Y46676D01*
X72060Y47437D01*
Y53937D02*
X71507Y54698D01*
X70613Y54407D01*
Y53467D01*
X71507Y53176D01*
X72060Y53937D01*
Y29937D02*
X71507Y30698D01*
X70613Y30407D01*
Y29467D01*
X71507Y29176D01*
X72060Y29937D01*
Y37437D02*
X71507Y38198D01*
X70613Y37907D01*
Y36967D01*
X71507Y36676D01*
X72060Y37437D01*
Y33937D02*
X71507Y34698D01*
X70613Y34407D01*
Y33467D01*
X71507Y33176D01*
X72060Y33937D01*
Y40437D02*
X71507Y41198D01*
X70613Y40907D01*
Y39967D01*
X71507Y39676D01*
X72060Y40437D01*
Y26937D02*
X71507Y27698D01*
X70613Y27407D01*
Y26467D01*
X71507Y26176D01*
X72060Y26937D01*
Y20437D02*
X71507Y21198D01*
X70613Y20907D01*
Y19967D01*
X71507Y19676D01*
X72060Y20437D01*
Y23937D02*
X71507Y24698D01*
X70613Y24407D01*
Y23467D01*
X71507Y23176D01*
X72060Y23937D01*
Y16437D02*
X71507Y17198D01*
X70613Y16907D01*
Y15967D01*
X71507Y15676D01*
X72060Y16437D01*
X56387Y97646D02*
X55834Y98406D01*
X54939Y98116D01*
Y97176D01*
X55834Y96885D01*
X56387Y97646D01*
X48887D02*
X48334Y98406D01*
X47439Y98116D01*
Y97176D01*
X48334Y96885D01*
X48887Y97646D01*
X52387D02*
X51834Y98406D01*
X50939Y98116D01*
Y97176D01*
X51834Y96885D01*
X52387Y97646D01*
X45887D02*
X45334Y98406D01*
X44439Y98116D01*
Y97176D01*
X45334Y96885D01*
X45887Y97646D01*
X32387D02*
X31834Y98406D01*
X30939Y98116D01*
Y97176D01*
X31834Y96885D01*
X32387Y97646D01*
X38887D02*
X38334Y98406D01*
X37439Y98116D01*
Y97176D01*
X38334Y96885D01*
X38887Y97646D01*
X35387D02*
X34834Y98406D01*
X33939Y98116D01*
Y97176D01*
X34834Y96885D01*
X35387Y97646D01*
X42887D02*
X42334Y98406D01*
X41439Y98116D01*
Y97176D01*
X42334Y96885D01*
X42887Y97646D01*
X18887D02*
X18334Y98406D01*
X17439Y98116D01*
Y97176D01*
X18334Y96885D01*
X18887Y97646D01*
X25387D02*
X24834Y98406D01*
X23939Y98116D01*
Y97176D01*
X24834Y96885D01*
X25387Y97646D01*
X21887D02*
X21334Y98406D01*
X20439Y98116D01*
Y97176D01*
X21334Y96885D01*
X21887Y97646D01*
X29387D02*
X28834Y98406D01*
X27939Y98116D01*
Y97176D01*
X28834Y96885D01*
X29387Y97646D01*
X29997Y75197D02*
X29444Y75958D01*
X28550Y75667D01*
Y74727D01*
X29444Y74436D01*
X29997Y75197D01*
X22497D02*
X21944Y75958D01*
X21050Y75667D01*
Y74727D01*
X21944Y74436D01*
X22497Y75197D01*
X25997D02*
X25444Y75958D01*
X24550Y75667D01*
Y74727D01*
X25444Y74436D01*
X25997Y75197D01*
X19497D02*
X18944Y75958D01*
X18050Y75667D01*
Y74727D01*
X18944Y74436D01*
X19497Y75197D01*
X43497D02*
X42944Y75958D01*
X42050Y75667D01*
Y74727D01*
X42944Y74436D01*
X43497Y75197D01*
X35997D02*
X35444Y75958D01*
X34550Y75667D01*
Y74727D01*
X35444Y74436D01*
X35997Y75197D01*
X39497D02*
X38944Y75958D01*
X38050Y75667D01*
Y74727D01*
X38944Y74436D01*
X39497Y75197D01*
X32997D02*
X32444Y75958D01*
X31550Y75667D01*
Y74727D01*
X32444Y74436D01*
X32997Y75197D01*
X46497D02*
X45944Y75958D01*
X45050Y75667D01*
Y74727D01*
X45944Y74436D01*
X46497Y75197D01*
X52997D02*
X52444Y75958D01*
X51550Y75667D01*
Y74727D01*
X52444Y74436D01*
X52997Y75197D01*
X49497D02*
X48944Y75958D01*
X48050Y75667D01*
Y74727D01*
X48944Y74436D01*
X49497Y75197D01*
X56997D02*
X56444Y75958D01*
X55550Y75667D01*
Y74727D01*
X56444Y74436D01*
X56997Y75197D01*
X237095Y97252D02*
X236543Y98013D01*
X235648Y97722D01*
Y96782D01*
X236543Y96491D01*
X237095Y97252D01*
X229595D02*
X229043Y98013D01*
X228148Y97722D01*
Y96782D01*
X229043Y96491D01*
X229595Y97252D01*
X233095D02*
X232542Y98013D01*
X231648Y97722D01*
Y96782D01*
X232542Y96491D01*
X233095Y97252D01*
X226595D02*
X226043Y98013D01*
X225148Y97722D01*
Y96782D01*
X226043Y96491D01*
X226595Y97252D01*
X213095D02*
X212543Y98013D01*
X211648Y97722D01*
Y96782D01*
X212543Y96491D01*
X213095Y97252D01*
X219595D02*
X219042Y98013D01*
X218148Y97722D01*
Y96782D01*
X219042Y96491D01*
X219595Y97252D01*
X216095D02*
X215543Y98013D01*
X214648Y97722D01*
Y96782D01*
X215543Y96491D01*
X216095Y97252D01*
X223595D02*
X223042Y98013D01*
X222148Y97722D01*
Y96782D01*
X223042Y96491D01*
X223595Y97252D01*
X199595D02*
X199042Y98013D01*
X198148Y97722D01*
Y96782D01*
X199042Y96491D01*
X199595Y97252D01*
X206095D02*
X205542Y98013D01*
X204648Y97722D01*
Y96782D01*
X205542Y96491D01*
X206095Y97252D01*
X202595D02*
X202043Y98013D01*
X201148Y97722D01*
Y96782D01*
X202043Y96491D01*
X202595Y97252D01*
X210095D02*
X209542Y98013D01*
X208648Y97722D01*
Y96782D01*
X209542Y96491D01*
X210095Y97252D01*
X210414Y75590D02*
X209861Y76351D01*
X208967Y76061D01*
Y75120D01*
X209861Y74830D01*
X210414Y75590D01*
X202914D02*
X202361Y76351D01*
X201467Y76061D01*
Y75120D01*
X202361Y74830D01*
X202914Y75590D01*
X206414D02*
X205861Y76351D01*
X204967Y76061D01*
Y75120D01*
X205861Y74830D01*
X206414Y75590D01*
X199914D02*
X199361Y76351D01*
X198467Y76061D01*
Y75120D01*
X199361Y74830D01*
X199914Y75590D01*
X223914D02*
X223361Y76351D01*
X222467Y76061D01*
Y75120D01*
X223361Y74830D01*
X223914Y75590D01*
X216414D02*
X215861Y76351D01*
X214967Y76061D01*
Y75120D01*
X215861Y74830D01*
X216414Y75590D01*
X219914D02*
X219361Y76351D01*
X218467Y76061D01*
Y75120D01*
X219361Y74830D01*
X219914Y75590D01*
X213414D02*
X212861Y76351D01*
X211967Y76061D01*
Y75120D01*
X212861Y74830D01*
X213414Y75590D01*
X226914D02*
X226361Y76351D01*
X225467Y76061D01*
Y75120D01*
X226361Y74830D01*
X226914Y75590D01*
X233414D02*
X232861Y76351D01*
X231967Y76061D01*
Y75120D01*
X232861Y74830D01*
X233414Y75590D01*
X229914D02*
X229361Y76351D01*
X228467Y76061D01*
Y75120D01*
X229361Y74830D01*
X229914Y75590D01*
X237414D02*
X236861Y76351D01*
X235967Y76061D01*
Y75120D01*
X236861Y74830D01*
X237414Y75590D01*
X146544Y97646D02*
X145991Y98406D01*
X145097Y98116D01*
Y97176D01*
X145991Y96885D01*
X146544Y97646D01*
X139044D02*
X138491Y98406D01*
X137597Y98116D01*
Y97176D01*
X138491Y96885D01*
X139044Y97646D01*
X142544D02*
X141991Y98406D01*
X141097Y98116D01*
Y97176D01*
X141991Y96885D01*
X142544Y97646D01*
X136044D02*
X135491Y98406D01*
X134597Y98116D01*
Y97176D01*
X135491Y96885D01*
X136044Y97646D01*
X122544D02*
X121991Y98406D01*
X121097Y98116D01*
Y97176D01*
X121991Y96885D01*
X122544Y97646D01*
X129044D02*
X128491Y98406D01*
X127597Y98116D01*
Y97176D01*
X128491Y96885D01*
X129044Y97646D01*
X125544D02*
X124991Y98406D01*
X124097Y98116D01*
Y97176D01*
X124991Y96885D01*
X125544Y97646D01*
X133044D02*
X132491Y98406D01*
X131597Y98116D01*
Y97176D01*
X132491Y96885D01*
X133044Y97646D01*
X109044D02*
X108491Y98406D01*
X107597Y98116D01*
Y97176D01*
X108491Y96885D01*
X109044Y97646D01*
X115544D02*
X114991Y98406D01*
X114097Y98116D01*
Y97176D01*
X114991Y96885D01*
X115544Y97646D01*
X112044D02*
X111491Y98406D01*
X110597Y98116D01*
Y97176D01*
X111491Y96885D01*
X112044Y97646D01*
X119544D02*
X118991Y98406D01*
X118097Y98116D01*
Y97176D01*
X118991Y96885D01*
X119544Y97646D01*
X119469Y75197D02*
X118916Y75958D01*
X118022Y75667D01*
Y74727D01*
X118916Y74436D01*
X119469Y75197D01*
X111969D02*
X111416Y75958D01*
X110522Y75667D01*
Y74727D01*
X111416Y74436D01*
X111969Y75197D01*
X115469D02*
X114917Y75958D01*
X114022Y75667D01*
Y74727D01*
X114917Y74436D01*
X115469Y75197D01*
X108969D02*
X108416Y75958D01*
X107522Y75667D01*
Y74727D01*
X108416Y74436D01*
X108969Y75197D01*
X132969D02*
X132416Y75958D01*
X131522Y75667D01*
Y74727D01*
X132416Y74436D01*
X132969Y75197D01*
X125469D02*
X124917Y75958D01*
X124022Y75667D01*
Y74727D01*
X124917Y74436D01*
X125469Y75197D01*
X128969D02*
X128417Y75958D01*
X127522Y75667D01*
Y74727D01*
X128417Y74436D01*
X128969Y75197D01*
X122469D02*
X121916Y75958D01*
X121022Y75667D01*
Y74727D01*
X121916Y74436D01*
X122469Y75197D01*
X135969D02*
X135416Y75958D01*
X134522Y75667D01*
Y74727D01*
X135416Y74436D01*
X135969Y75197D01*
X142469D02*
X141917Y75958D01*
X141022Y75667D01*
Y74727D01*
X141917Y74436D01*
X142469Y75197D01*
X138969D02*
X138417Y75958D01*
X137522Y75667D01*
Y74727D01*
X138417Y74436D01*
X138969Y75197D01*
X146469D02*
X145916Y75958D01*
X145022Y75667D01*
Y74727D01*
X145916Y74436D01*
X146469Y75197D01*
X180729Y112819D02*
X180176Y113580D01*
X179282Y113289D01*
Y112349D01*
X180176Y112058D01*
X180729Y112819D01*
Y120319D02*
X180176Y121080D01*
X179282Y120789D01*
Y119849D01*
X180176Y119558D01*
X180729Y120319D01*
Y116819D02*
X180176Y117580D01*
X179282Y117289D01*
Y116349D01*
X180176Y116058D01*
X180729Y116819D01*
Y123319D02*
X180176Y124080D01*
X179282Y123789D01*
Y122849D01*
X180176Y122558D01*
X180729Y123319D01*
Y136819D02*
X180176Y137580D01*
X179282Y137289D01*
Y136349D01*
X180176Y136058D01*
X180729Y136819D01*
Y130319D02*
X180176Y131080D01*
X179282Y130789D01*
Y129849D01*
X180176Y129558D01*
X180729Y130319D01*
Y133819D02*
X180176Y134580D01*
X179282Y134289D01*
Y133349D01*
X180176Y133058D01*
X180729Y133819D01*
Y126319D02*
X180176Y127080D01*
X179282Y126789D01*
Y125849D01*
X180176Y125558D01*
X180729Y126319D01*
Y150319D02*
X180176Y151080D01*
X179282Y150789D01*
Y149849D01*
X180176Y149558D01*
X180729Y150319D01*
Y143819D02*
X180176Y144580D01*
X179282Y144289D01*
Y143349D01*
X180176Y143058D01*
X180729Y143819D01*
Y147319D02*
X180176Y148080D01*
X179282Y147789D01*
Y146849D01*
X180176Y146558D01*
X180729Y147319D01*
Y139819D02*
X180176Y140580D01*
X179282Y140289D01*
Y139349D01*
X180176Y139058D01*
X180729Y139819D01*
X162611Y139500D02*
X162058Y140261D01*
X161164Y139970D01*
Y139030D01*
X162058Y138739D01*
X162611Y139500D01*
Y147000D02*
X162058Y147761D01*
X161164Y147470D01*
Y146530D01*
X162058Y146239D01*
X162611Y147000D01*
Y143500D02*
X162058Y144261D01*
X161164Y143970D01*
Y143030D01*
X162058Y142739D01*
X162611Y143500D01*
Y150000D02*
X162058Y150761D01*
X161164Y150470D01*
Y149530D01*
X162058Y149239D01*
X162611Y150000D01*
Y126000D02*
X162058Y126761D01*
X161164Y126470D01*
Y125530D01*
X162058Y125239D01*
X162611Y126000D01*
Y133500D02*
X162058Y134261D01*
X161164Y133970D01*
Y133030D01*
X162058Y132739D01*
X162611Y133500D01*
Y130000D02*
X162058Y130761D01*
X161164Y130470D01*
Y129530D01*
X162058Y129239D01*
X162611Y130000D01*
Y136500D02*
X162058Y137261D01*
X161164Y136970D01*
Y136030D01*
X162058Y135739D01*
X162611Y136500D01*
Y123000D02*
X162058Y123761D01*
X161164Y123470D01*
Y122530D01*
X162058Y122239D01*
X162611Y123000D01*
Y116500D02*
X162058Y117261D01*
X161164Y116970D01*
Y116030D01*
X162058Y115739D01*
X162611Y116500D01*
Y120000D02*
X162058Y120761D01*
X161164Y120470D01*
Y119530D01*
X162058Y119239D01*
X162611Y120000D01*
Y112500D02*
X162058Y113261D01*
X161164Y112970D01*
Y112030D01*
X162058Y111739D01*
X162611Y112500D01*
X71272Y113976D02*
X70720Y114737D01*
X69825Y114447D01*
Y113506D01*
X70720Y113215D01*
X71272Y113976D01*
Y121476D02*
X70720Y122237D01*
X69825Y121947D01*
Y121006D01*
X70720Y120715D01*
X71272Y121476D01*
Y117976D02*
X70720Y118737D01*
X69825Y118447D01*
Y117506D01*
X70720Y117216D01*
X71272Y117976D01*
Y124476D02*
X70720Y125237D01*
X69825Y124947D01*
Y124006D01*
X70720Y123715D01*
X71272Y124476D01*
Y137976D02*
X70720Y138737D01*
X69825Y138447D01*
Y137506D01*
X70720Y137215D01*
X71272Y137976D01*
Y131476D02*
X70720Y132237D01*
X69825Y131947D01*
Y131006D01*
X70720Y130716D01*
X71272Y131476D01*
Y134976D02*
X70720Y135737D01*
X69825Y135447D01*
Y134506D01*
X70720Y134215D01*
X71272Y134976D01*
Y127476D02*
X70720Y128237D01*
X69825Y127947D01*
Y127006D01*
X70720Y126716D01*
X71272Y127476D01*
Y151476D02*
X70720Y152237D01*
X69825Y151947D01*
Y151006D01*
X70720Y150715D01*
X71272Y151476D01*
Y144976D02*
X70720Y145737D01*
X69825Y145447D01*
Y144506D01*
X70720Y144216D01*
X71272Y144976D01*
Y148476D02*
X70720Y149237D01*
X69825Y148947D01*
Y148006D01*
X70720Y147715D01*
X71272Y148476D01*
Y140976D02*
X70720Y141737D01*
X69825Y141447D01*
Y140506D01*
X70720Y140216D01*
X71272Y140976D01*
X89391Y141295D02*
X88838Y142056D01*
X87943Y141765D01*
Y140825D01*
X88838Y140534D01*
X89391Y141295D01*
Y148795D02*
X88838Y149556D01*
X87943Y149266D01*
Y148325D01*
X88838Y148034D01*
X89391Y148795D01*
Y145295D02*
X88838Y146056D01*
X87943Y145765D01*
Y144825D01*
X88838Y144534D01*
X89391Y145295D01*
Y151795D02*
X88838Y152556D01*
X87943Y152266D01*
Y151325D01*
X88838Y151034D01*
X89391Y151795D01*
Y127795D02*
X88838Y128556D01*
X87943Y128266D01*
Y127325D01*
X88838Y127034D01*
X89391Y127795D01*
Y135295D02*
X88838Y136056D01*
X87943Y135766D01*
Y134825D01*
X88838Y134534D01*
X89391Y135295D01*
Y131795D02*
X88838Y132556D01*
X87943Y132265D01*
Y131325D01*
X88838Y131034D01*
X89391Y131795D01*
Y138295D02*
X88838Y139056D01*
X87943Y138766D01*
Y137825D01*
X88838Y137534D01*
X89391Y138295D01*
Y124795D02*
X88838Y125556D01*
X87943Y125266D01*
Y124325D01*
X88838Y124034D01*
X89391Y124795D01*
Y118295D02*
X88838Y119056D01*
X87943Y118765D01*
Y117825D01*
X88838Y117534D01*
X89391Y118295D01*
Y121795D02*
X88838Y122556D01*
X87943Y122266D01*
Y121325D01*
X88838Y121034D01*
X89391Y121795D01*
Y114295D02*
X88838Y115056D01*
X87943Y114766D01*
Y113825D01*
X88838Y113534D01*
X89391Y114295D01*
M02*
