M48
;Layer_Color=9474304
;FILE_FORMAT=2:5
INCH,LZ
;TYPE=PLATED
T1F00S00C0.01181
T2F00S00C0.01260
T3F00S00C0.01575
T4F00S00C0.01800
T5F00S00C0.01968
%
T01
X0207777Y0054432
X0214835Y005523
X0219981Y0050394
X0219481Y0148394
X0214335Y0153231
X0207277Y0152432
X012893Y0148394
X0123784Y0153231
X0116726Y0152432
X0117226Y0054432
X0124284Y005523
X012943Y0050394
X0038879
X0033733Y005523
X0026674Y0054432
X0026174Y0152432
X0033233Y0153231
X0038379Y0148394
T02
X0004237Y000458
X0010024Y0003596
X0016113
X0052721Y0005906
X0057068
X0059104Y0003596
X006398Y0005906
X0066929Y0003596
X0094788Y000458
X0100575Y0003596
X0106665
X0143272Y0005906
X0147619
X0149655Y0003596
X0154531Y0005906
X015748Y0003596
X018534Y000458
X0191126Y0003596
X0197216
X0233823Y0005906
X023817
X0240207Y0003596
X0245082Y0005906
X0248031Y0003596
X0245647Y0010907
X0241929Y0012165
Y0007609
X0248031Y0015134
X0218406Y0011417
X0214032Y0011727
X020903Y0016981
X0209745Y0029491
X0210032Y0043161
X0224706Y0046392
X0239567Y0049588
X0241313Y0053356
X0247047Y0050045
Y0057563
X0242421Y0062453
Y0068398
X0245244Y0065945
X023817Y0066732
X0235696Y006386
X0236482Y0070866
X0239707Y0101596
X023767Y0103905
X0233323
X0241429Y0105608
Y0110165
X0245147Y0108907
X0244582Y0103905
X0247532Y0101596
Y0113134
X0217905Y0109417
X0213532Y0109727
X020853Y0114981
X0209245Y0127491
X0209532Y0141161
X0224206Y0144392
X0239067Y0147588
X0240813Y0151356
X0246547Y0148045
Y0155563
X0241921Y0160453
X0235196Y016186
X0189165Y0162567
X0204028Y0144268
X0204288Y0140455
X0184224Y0124432
X0186626Y0106071
X018484Y010258
X0190626Y0101596
X0196716
X0192854Y0068898
X0187126Y0068398
X0189665Y0064567
X0204527Y0046268
X0204788Y0042455
X0184724Y0026432
X0187126Y0008071
X0155096Y0010907
X0151378Y0012165
Y0007609
X015748Y0015134
X0127854Y0011417
X012348Y0011727
X0118479Y0016981
X0119193Y0029491
X0119481Y0043161
X0114236Y0042455
X0113976Y0046268
X0134155Y0046392
X0149016Y0049588
X0150762Y0053356
X0156496Y0050045
Y0057563
X015187Y0062453
Y0068398
X0154693Y0065945
X0147619Y0066732
X0145145Y006386
X0145931Y0070866
X0149155Y0101596
X0147119Y0103905
X0142772
X0150878Y0105608
Y0110165
X0154596Y0108907
X0154031Y0103905
X015698Y0101596
Y0113134
X0127354Y0109417
X012298Y0109727
X0117979Y0114981
X0118693Y0127491
X0118981Y0141161
X0113736Y0140455
X0113476Y0144268
X0133655Y0144392
X0148516Y0147588
X0150262Y0151356
X0155996Y0148045
Y0155563
X015137Y0160453
X0144645Y016186
X0098614Y0162567
X0060819Y0160453
X0054094Y016186
X0059711Y0151356
X0057965Y0147588
X0065445Y0148045
Y0155563
X0066429Y0113134
X0064045Y0108907
X0060327Y0110165
Y0105608
X006348Y0103905
X0066429Y0101596
X0058604
X0056568Y0103905
X0052221
X005538Y0070866
X0057068Y0066732
X0054594Y006386
X0061319Y0062453
Y0068398
X0064142Y0065945
X0065945Y0057563
Y0050045
X0058465Y0049588
X0060211Y0053356
X0060827Y0012165
Y0007609
X0064545Y0010907
X0066929Y0015134
X0096575Y0008071
X0094173Y0026432
X0099114Y0064567
X0096575Y0068398
X0102303Y0068898
X0100075Y0101596
X0106165
X0094288Y010258
X0096075Y0106071
X0093673Y0124432
X0028142Y0127491
X0027427Y0114981
X0032429Y0109727
X0036803Y0109417
X0015613Y0101596
X0009524
X0003737Y010258
X0005524Y0106071
X0003122Y0124432
X0023185Y0140455
X0022925Y0144268
X002843Y0141161
X0043104Y0144392
X0008063Y0162567
X0006024Y0068398
X0011752Y0068898
X0008563Y0064567
X0023425Y0046268
X0023685Y0042455
X002893Y0043161
X0028642Y0029491
X0027927Y0016981
X0032929Y0011727
X0037303Y0011417
X0006024Y0008071
X0003622Y0026432
X0043604Y0046392
X0011252Y0166898
X0005524Y0166398
X005488Y0168866
X0056568Y0164732
X0060819Y0166398
X0063642Y0163945
X0096075Y0166398
X0101803Y0166898
X0145431Y0168866
X0147119Y0164732
X015137Y0166398
X0154193Y0163945
X0186626Y0166398
X0192354Y0166898
X0235982Y0168866
X023767Y0164732
X0241921Y0166398
X0244744Y0163945
T03
X0216785Y002283
X0216285Y012083
X0125734
X0126234Y002283
X0035683
X0035183Y012083
T04
X0209614Y007559
X0212614
X0215614
X0219114
X0223114
X0226114
X0229114
X0232614
X0236614
X0236295Y0097252
X0232295
X0228795
X0225795
X0222795
X0218795
X0215295
X0212295
X0209295
X0205295
X0201795
X0198795
X0199114Y007559
X0202114
X0205614
X0179929Y0051598
Y0048598
Y0045098
Y0041098
Y0038098
Y0035098
Y0031598
Y0027598
Y0024598
Y0021598
Y0018098
Y0014098
X0161811Y001378
Y0017779
Y002128
Y002428
Y0027279
Y003128
Y003478
Y003778
Y004078
Y004478
Y004828
Y0051279
X0145669Y0075197
X0141669
X0138169
X0135169
X0132169
X0128169
X0124669
X0121669
X0118669
X0114669
X0111169
X0108169
X0108244Y0097646
X0111244
X0114744
X0118744
X0121744
X0124744
X0128244
X0132244
X0135244
X0138244
X0141744
X0145744
X0161811Y01125
Y01165
Y012
Y0123
Y0126
Y013
Y01335
Y01365
Y01395
Y01435
Y0147
Y015
X0179929Y0150319
Y0147319
Y0143819
Y0139819
Y0136819
Y0133819
Y0130319
Y0126319
Y0123319
Y0120319
Y0116819
Y0112819
X0088591Y0114295
Y0118295
Y0121795
Y0124795
Y0127795
Y0131795
Y0135295
Y0138295
Y0141295
Y0145295
Y0148795
Y0151795
X0070472Y0151476
Y0148476
Y0144976
Y0140976
Y0137976
Y0134976
Y0131476
Y0127476
Y0124476
Y0121476
Y0117976
Y0113976
X0055587Y0097646
X0051587
X0052197Y0075197
X0056197
X007126Y0053937
Y0050937
Y0047437
Y0043437
Y0040437
Y0037437
Y0033937
Y0029937
Y0026937
Y0023937
Y0020437
Y0016437
X0089378Y0016756
Y0020756
Y0024256
Y0027256
Y0030256
Y0034256
Y0037756
Y0040756
Y0043756
Y0047756
Y0051256
Y0054256
X0048697Y0075197
X0045697
X0042697
X0038697
X0035197
X0032197
X0029197
X0025197
X0021697
X0018697
X0018087Y0097646
X0021087
X0024587
X0028587
X0031587
X0034587
X0038087
X0042087
X0045087
X0048087
T05
X0025591Y0005906
X0029528
X0033465
X0037402
X0041339
X0045276
X0116142
X0120079
X0124016
X0127953
X013189
X0135827
X0206693
X021063
X0214567
X0218504
X0222441
X0226378
Y0068898
X0222441
X0218504
X0214567
X021063
X021013Y0103905
X0214067
X0218004
X0221941
X0225878
X0206193
X0206693Y0068898
X0135827
X013189
X0127953
X0124016
X0120079
X0116142
X0115642Y0103905
X0119579
X0123516
X0127453
X013139
X0135327
X0044776
X0040839
X0036902
X0032965
X0029028
X0025091
X0025591Y0068898
X0029528
X0033465
X0037402
X0041339
X0045276
X0044776Y0166898
X0040839
X0036902
X0032965
X0029028
X0025091
X0115642
X0119579
X0123516
X0127453
X013139
X0135327
X0206193
X021013
X0214067
X0218004
X0221941
X0225878
M30
