G04*
G04 #@! TF.GenerationSoftware,Altium Limited,Altium Designer,20.0.13 (296)*
G04*
G04 Layer_Color=128*
%FSLAX25Y25*%
%MOIN*%
G70*
G01*
G75*
%ADD10C,0.00787*%
%ADD11C,0.00200*%
G54D10*
X181102Y0D02*
X251969D01*
Y66929D01*
Y68898D01*
X246063Y74803D02*
X251969Y68898D01*
X90551Y0D02*
X161417D01*
Y66929D02*
Y68898D01*
X155512Y74803D02*
X161417Y68898D01*
X0Y0D02*
X70866D01*
Y66929D02*
Y68898D01*
X64961Y74803D02*
X70866Y68898D01*
X0Y0D02*
Y74803D01*
X14754D01*
X59342D02*
X64961D01*
X149106D02*
X155512D01*
X89984D02*
X104724D01*
X240051D02*
X246063D01*
X180535Y75024D02*
X195476Y75094D01*
X251468Y98000D02*
Y164929D01*
Y166898D01*
X245563Y172803D02*
X251468Y166898D01*
X198811Y172803D02*
X231291D01*
X180602D02*
X198811D01*
X231291D02*
X245563D01*
X155012D02*
X160917Y166898D01*
X108260Y172803D02*
X140740D01*
X90051D02*
X108260D01*
X140740D02*
X155012D01*
X70366Y164929D02*
Y166898D01*
X64461Y172803D02*
X70366Y166898D01*
X17709Y172803D02*
X50189D01*
X-500Y98000D02*
Y172803D01*
X17709D01*
X50189D02*
X64461D01*
G54D11*
X205709Y68898D02*
X207677D01*
X206693Y67913D02*
Y69882D01*
X209646Y68898D02*
X211614D01*
X210630Y67913D02*
Y69882D01*
X213583Y68898D02*
X215551D01*
X214567Y67913D02*
Y69882D01*
X217520Y68898D02*
X219488D01*
X218504Y67913D02*
Y69882D01*
X221457Y68898D02*
X223425D01*
X222441Y67913D02*
Y69882D01*
X225394Y68898D02*
X227362D01*
X226378Y67913D02*
Y69882D01*
X225394Y5906D02*
X227362D01*
X226378Y4921D02*
Y6890D01*
X221457Y5906D02*
X223425D01*
X222441Y4921D02*
Y6890D01*
X217520Y5906D02*
X219488D01*
X218504Y4921D02*
Y6890D01*
X213583Y5906D02*
X215551D01*
X214567Y4921D02*
Y6890D01*
X209646Y5906D02*
X211614D01*
X210630Y4921D02*
Y6890D01*
X205709Y5906D02*
X207677D01*
X206693Y4921D02*
Y6890D01*
X115157Y68898D02*
X117126D01*
X116142Y67913D02*
Y69882D01*
X119095Y68898D02*
X121063D01*
X120079Y67913D02*
Y69882D01*
X123031Y68898D02*
X125000D01*
X124016Y67913D02*
Y69882D01*
X126969Y68898D02*
X128937D01*
X127953Y67913D02*
Y69882D01*
X130905Y68898D02*
X132874D01*
X131890Y67913D02*
Y69882D01*
X134843Y68898D02*
X136811D01*
X135827Y67913D02*
Y69882D01*
X134843Y5906D02*
X136811D01*
X135827Y4921D02*
Y6890D01*
X130905Y5906D02*
X132874D01*
X131890Y4921D02*
Y6890D01*
X126969Y5906D02*
X128937D01*
X127953Y4921D02*
Y6890D01*
X123031Y5906D02*
X125000D01*
X124016Y4921D02*
Y6890D01*
X119095Y5906D02*
X121063D01*
X120079Y4921D02*
Y6890D01*
X115157Y5906D02*
X117126D01*
X116142Y4921D02*
Y6890D01*
X24606Y68898D02*
X26575D01*
X25591Y67913D02*
Y69882D01*
X28543Y68898D02*
X30512D01*
X29528Y67913D02*
Y69882D01*
X32480Y68898D02*
X34449D01*
X33465Y67913D02*
Y69882D01*
X36417Y68898D02*
X38386D01*
X37402Y67913D02*
Y69882D01*
X40354Y68898D02*
X42323D01*
X41339Y67913D02*
Y69882D01*
X44291Y68898D02*
X46260D01*
X45276Y67913D02*
Y69882D01*
X44291Y5906D02*
X46260D01*
X45276Y4921D02*
Y6890D01*
X40354Y5906D02*
X42323D01*
X41339Y4921D02*
Y6890D01*
X36417Y5906D02*
X38386D01*
X37402Y4921D02*
Y6890D01*
X32480Y5906D02*
X34449D01*
X33465Y4921D02*
Y6890D01*
X28543Y5906D02*
X30512D01*
X29528Y4921D02*
Y6890D01*
X24606Y5906D02*
X26575D01*
X25591Y4921D02*
Y6890D01*
X205209Y166898D02*
X207177D01*
X206193Y165913D02*
Y167882D01*
X209146Y166898D02*
X211114D01*
X210130Y165913D02*
Y167882D01*
X213083Y166898D02*
X215051D01*
X214067Y165913D02*
Y167882D01*
X217020Y166898D02*
X218988D01*
X218004Y165913D02*
Y167882D01*
X220957Y166898D02*
X222925D01*
X221941Y165913D02*
Y167882D01*
X224894Y166898D02*
X226862D01*
X225878Y165913D02*
Y167882D01*
X224894Y103905D02*
X226862D01*
X225878Y102921D02*
Y104890D01*
X220957Y103905D02*
X222925D01*
X221941Y102921D02*
Y104890D01*
X217020Y103905D02*
X218988D01*
X218004Y102921D02*
Y104890D01*
X213083Y103905D02*
X215051D01*
X214067Y102921D02*
Y104890D01*
X209146Y103905D02*
X211114D01*
X210130Y102921D02*
Y104890D01*
X205209Y103905D02*
X207177D01*
X206193Y102921D02*
Y104890D01*
X114657Y166898D02*
X116626D01*
X115642Y165913D02*
Y167882D01*
X118595Y166898D02*
X120563D01*
X119579Y165913D02*
Y167882D01*
X122531Y166898D02*
X124500D01*
X123516Y165913D02*
Y167882D01*
X126469Y166898D02*
X128437D01*
X127453Y165913D02*
Y167882D01*
X130405Y166898D02*
X132374D01*
X131390Y165913D02*
Y167882D01*
X134343Y166898D02*
X136311D01*
X135327Y165913D02*
Y167882D01*
X134343Y103905D02*
X136311D01*
X135327Y102921D02*
Y104890D01*
X130405Y103905D02*
X132374D01*
X131390Y102921D02*
Y104890D01*
X126469Y103905D02*
X128437D01*
X127453Y102921D02*
Y104890D01*
X122531Y103905D02*
X124500D01*
X123516Y102921D02*
Y104890D01*
X118595Y103905D02*
X120563D01*
X119579Y102921D02*
Y104890D01*
X114657Y103905D02*
X116626D01*
X115642Y102921D02*
Y104890D01*
X24106Y166898D02*
X26075D01*
X25091Y165913D02*
Y167882D01*
X28043Y166898D02*
X30012D01*
X29028Y165913D02*
Y167882D01*
X31980Y166898D02*
X33949D01*
X32965Y165913D02*
Y167882D01*
X35917Y166898D02*
X37886D01*
X36902Y165913D02*
Y167882D01*
X39854Y166898D02*
X41823D01*
X40839Y165913D02*
Y167882D01*
X43791Y166898D02*
X45760D01*
X44776Y165913D02*
Y167882D01*
X43791Y103905D02*
X45760D01*
X44776Y102921D02*
Y104890D01*
X39854Y103905D02*
X41823D01*
X40839Y102921D02*
Y104890D01*
X35917Y103905D02*
X37886D01*
X36902Y102921D02*
Y104890D01*
X31980Y103905D02*
X33949D01*
X32965Y102921D02*
Y104890D01*
X28043Y103905D02*
X30012D01*
X29028Y102921D02*
Y104890D01*
X24106Y103905D02*
X26075D01*
X25091Y102921D02*
Y104890D01*
X179029Y14098D02*
X180829D01*
X179929Y13198D02*
Y14998D01*
X179029Y21598D02*
X180829D01*
X179929Y20698D02*
Y22498D01*
X179029Y18098D02*
X180829D01*
X179929Y17198D02*
Y18998D01*
X179029Y24598D02*
X180829D01*
X179929Y23698D02*
Y25498D01*
X179029Y38098D02*
X180829D01*
X179929Y37198D02*
Y38998D01*
X179029Y31598D02*
X180829D01*
X179929Y30698D02*
Y32498D01*
X179029Y35098D02*
X180829D01*
X179929Y34198D02*
Y35998D01*
X179029Y27598D02*
X180829D01*
X179929Y26698D02*
Y28498D01*
X179029Y51598D02*
X180829D01*
X179929Y50698D02*
Y52498D01*
X179029Y45098D02*
X180829D01*
X179929Y44198D02*
Y45998D01*
X179029Y48598D02*
X180829D01*
X179929Y47698D02*
Y49498D01*
X179029Y41098D02*
X180829D01*
X179929Y40198D02*
Y41998D01*
X160911Y40780D02*
X162711D01*
X161811Y39880D02*
Y41679D01*
X160911Y48280D02*
X162711D01*
X161811Y47379D02*
Y49180D01*
X160911Y44780D02*
X162711D01*
X161811Y43880D02*
Y45680D01*
X160911Y51279D02*
X162711D01*
X161811Y50380D02*
Y52179D01*
X160911Y27279D02*
X162711D01*
X161811Y26379D02*
Y28179D01*
X160911Y34780D02*
X162711D01*
X161811Y33880D02*
Y35680D01*
X160911Y31280D02*
X162711D01*
X161811Y30380D02*
Y32179D01*
X160911Y37780D02*
X162711D01*
X161811Y36880D02*
Y38680D01*
X160911Y24280D02*
X162711D01*
X161811Y23380D02*
Y25179D01*
X160911Y17779D02*
X162711D01*
X161811Y16880D02*
Y18679D01*
X160911Y21280D02*
X162711D01*
X161811Y20380D02*
Y22179D01*
X160911Y13780D02*
X162711D01*
X161811Y12879D02*
Y14680D01*
X88478Y16756D02*
X90278D01*
X89378Y15856D02*
Y17656D01*
X88478Y24256D02*
X90278D01*
X89378Y23356D02*
Y25156D01*
X88478Y20756D02*
X90278D01*
X89378Y19856D02*
Y21656D01*
X88478Y27256D02*
X90278D01*
X89378Y26356D02*
Y28156D01*
X88478Y40756D02*
X90278D01*
X89378Y39856D02*
Y41656D01*
X88478Y34256D02*
X90278D01*
X89378Y33356D02*
Y35156D01*
X88478Y37756D02*
X90278D01*
X89378Y36856D02*
Y38656D01*
X88478Y30256D02*
X90278D01*
X89378Y29356D02*
Y31156D01*
X88478Y54256D02*
X90278D01*
X89378Y53356D02*
Y55156D01*
X88478Y47756D02*
X90278D01*
X89378Y46856D02*
Y48656D01*
X88478Y51256D02*
X90278D01*
X89378Y50356D02*
Y52156D01*
X88478Y43756D02*
X90278D01*
X89378Y42856D02*
Y44656D01*
X70360Y43437D02*
X72160D01*
X71260Y42537D02*
Y44337D01*
X70360Y50937D02*
X72160D01*
X71260Y50037D02*
Y51837D01*
X70360Y47437D02*
X72160D01*
X71260Y46537D02*
Y48337D01*
X70360Y53937D02*
X72160D01*
X71260Y53037D02*
Y54837D01*
X70360Y29937D02*
X72160D01*
X71260Y29037D02*
Y30837D01*
X70360Y37437D02*
X72160D01*
X71260Y36537D02*
Y38337D01*
X70360Y33937D02*
X72160D01*
X71260Y33037D02*
Y34837D01*
X70360Y40437D02*
X72160D01*
X71260Y39537D02*
Y41337D01*
X70360Y26937D02*
X72160D01*
X71260Y26037D02*
Y27837D01*
X70360Y20437D02*
X72160D01*
X71260Y19537D02*
Y21337D01*
X70360Y23937D02*
X72160D01*
X71260Y23037D02*
Y24837D01*
X70360Y16437D02*
X72160D01*
X71260Y15537D02*
Y17337D01*
X219390Y50394D02*
X220571D01*
X219981Y49803D02*
Y50984D01*
X207186Y54432D02*
X208367D01*
X207777Y53841D02*
Y55022D01*
X217776Y11417D02*
X219035D01*
X218406Y10787D02*
Y12047D01*
X189035Y64567D02*
X190295D01*
X189665Y63937D02*
Y65197D01*
X209402Y43161D02*
X210662D01*
X210032Y42531D02*
Y43791D01*
X237540Y5906D02*
X238800D01*
X238170Y5276D02*
Y6535D01*
X244452Y5906D02*
X245712D01*
X245082Y5276D02*
Y6535D01*
X239577Y3596D02*
X240837D01*
X240207Y2967D02*
Y4226D01*
X196586Y3596D02*
X197846D01*
X197216Y2967D02*
Y4226D01*
X235852Y70866D02*
X237112D01*
X236482Y70236D02*
Y71496D01*
X244614Y65945D02*
X245874D01*
X245244Y65315D02*
Y66575D01*
X246417Y57563D02*
X247677D01*
X247047Y56933D02*
Y58193D01*
X235066Y63860D02*
X236326D01*
X235696Y63230D02*
Y64490D01*
X214245Y55230D02*
X215426D01*
X214835Y54640D02*
Y55821D01*
X209115Y29491D02*
X210375D01*
X209745Y28861D02*
Y30121D01*
X224076Y46392D02*
X225336D01*
X224706Y45762D02*
Y47022D01*
X208400Y16981D02*
X209660D01*
X209030Y16351D02*
Y17611D01*
X215998Y22830D02*
X217573D01*
X216785Y22042D02*
Y23617D01*
X213402Y11727D02*
X214662D01*
X214032Y11097D02*
Y12357D01*
X184710Y4580D02*
X185969D01*
X185340Y3950D02*
Y5210D01*
X190496Y3596D02*
X191756D01*
X191126Y2967D02*
Y4226D01*
X241791Y62453D02*
X243051D01*
X242421Y61823D02*
Y63083D01*
X241791Y68398D02*
X243051D01*
X242421Y67768D02*
Y69028D01*
X192224Y68898D02*
X193484D01*
X192854Y68268D02*
Y69528D01*
X186496Y68398D02*
X187756D01*
X187126Y67768D02*
Y69028D01*
X203898Y46268D02*
X205157D01*
X204527Y45638D02*
Y46898D01*
X204158Y42455D02*
X205417D01*
X204788Y41825D02*
Y43084D01*
X184095Y26432D02*
X185354D01*
X184724Y25802D02*
Y27062D01*
X240683Y53356D02*
X241943D01*
X241313Y52726D02*
Y53986D01*
X246417Y50045D02*
X247677D01*
X247047Y49415D02*
Y50675D01*
X238937Y49588D02*
X240197D01*
X239567Y48958D02*
Y50218D01*
X245017Y10907D02*
X246277D01*
X245647Y10277D02*
Y11537D01*
X233193Y5906D02*
X234453D01*
X233823Y5276D02*
Y6535D01*
X237540Y66732D02*
X238800D01*
X238170Y66102D02*
Y67362D01*
X241299Y12165D02*
X242559D01*
X241929Y11535D02*
Y12795D01*
X247402Y15134D02*
X248661D01*
X248031Y14504D02*
Y15764D01*
X241299Y7609D02*
X242559D01*
X241929Y6979D02*
Y8239D01*
X247402Y3596D02*
X248661D01*
X248031Y2967D02*
Y4226D01*
X186496Y8071D02*
X187756D01*
X187126Y7441D02*
Y8701D01*
X128839Y50394D02*
X130020D01*
X129430Y49803D02*
Y50984D01*
X116635Y54432D02*
X117816D01*
X117226Y53841D02*
Y55022D01*
X127224Y11417D02*
X128484D01*
X127854Y10787D02*
Y12047D01*
X98484Y64567D02*
X99744D01*
X99114Y63937D02*
Y65197D01*
X118851Y43161D02*
X120111D01*
X119481Y42531D02*
Y43791D01*
X146989Y5906D02*
X148249D01*
X147619Y5276D02*
Y6535D01*
X153901Y5906D02*
X155161D01*
X154531Y5276D02*
Y6535D01*
X149026Y3596D02*
X150285D01*
X149655Y2967D02*
Y4226D01*
X106035Y3596D02*
X107294D01*
X106665Y2967D02*
Y4226D01*
X145301Y70866D02*
X146561D01*
X145931Y70236D02*
Y71496D01*
X154063Y65945D02*
X155323D01*
X154693Y65315D02*
Y66575D01*
X155866Y57563D02*
X157126D01*
X156496Y56933D02*
Y58193D01*
X144515Y63860D02*
X145775D01*
X145145Y63230D02*
Y64490D01*
X123694Y55230D02*
X124875D01*
X124284Y54640D02*
Y55821D01*
X118564Y29491D02*
X119824D01*
X119193Y28861D02*
Y30121D01*
X133525Y46392D02*
X134785D01*
X134155Y45762D02*
Y47022D01*
X117849Y16981D02*
X119108D01*
X118479Y16351D02*
Y17611D01*
X125447Y22830D02*
X127022D01*
X126234Y22042D02*
Y23617D01*
X122851Y11727D02*
X124110D01*
X123480Y11097D02*
Y12357D01*
X94159Y4580D02*
X95418D01*
X94788Y3950D02*
Y5210D01*
X99945Y3596D02*
X101205D01*
X100575Y2967D02*
Y4226D01*
X151240Y62453D02*
X152500D01*
X151870Y61823D02*
Y63083D01*
X151240Y68398D02*
X152500D01*
X151870Y67768D02*
Y69028D01*
X101673Y68898D02*
X102933D01*
X102303Y68268D02*
Y69528D01*
X95945Y68398D02*
X97205D01*
X96575Y67768D02*
Y69028D01*
X113347Y46268D02*
X114606D01*
X113976Y45638D02*
Y46898D01*
X113607Y42455D02*
X114866D01*
X114236Y41825D02*
Y43084D01*
X93543Y26432D02*
X94803D01*
X94173Y25802D02*
Y27062D01*
X150132Y53356D02*
X151392D01*
X150762Y52726D02*
Y53986D01*
X155866Y50045D02*
X157126D01*
X156496Y49415D02*
Y50675D01*
X148386Y49588D02*
X149646D01*
X149016Y48958D02*
Y50218D01*
X154466Y10907D02*
X155726D01*
X155096Y10277D02*
Y11537D01*
X142642Y5906D02*
X143902D01*
X143272Y5276D02*
Y6535D01*
X146989Y66732D02*
X148249D01*
X147619Y66102D02*
Y67362D01*
X150748Y12165D02*
X152008D01*
X151378Y11535D02*
Y12795D01*
X156850Y15134D02*
X158110D01*
X157480Y14504D02*
Y15764D01*
X150748Y7609D02*
X152008D01*
X151378Y6979D02*
Y8239D01*
X156850Y3596D02*
X158110D01*
X157480Y2967D02*
Y4226D01*
X95945Y8071D02*
X97205D01*
X96575Y7441D02*
Y8701D01*
X38288Y50394D02*
X39469D01*
X38879Y49803D02*
Y50984D01*
X26084Y54432D02*
X27265D01*
X26674Y53841D02*
Y55022D01*
X36673Y11417D02*
X37933D01*
X37303Y10787D02*
Y12047D01*
X7933Y64567D02*
X9193D01*
X8563Y63937D02*
Y65197D01*
X28300Y43161D02*
X29560D01*
X28930Y42531D02*
Y43791D01*
X56438Y5906D02*
X57698D01*
X57068Y5276D02*
Y6535D01*
X63350Y5906D02*
X64610D01*
X63980Y5276D02*
Y6535D01*
X58474Y3596D02*
X59734D01*
X59104Y2967D02*
Y4226D01*
X15484Y3596D02*
X16743D01*
X16113Y2967D02*
Y4226D01*
X54750Y70866D02*
X56010D01*
X55380Y70236D02*
Y71496D01*
X63512Y65945D02*
X64772D01*
X64142Y65315D02*
Y66575D01*
X65315Y57563D02*
X66575D01*
X65945Y56933D02*
Y58193D01*
X53964Y63860D02*
X55224D01*
X54594Y63230D02*
Y64490D01*
X33142Y55230D02*
X34323D01*
X33733Y54640D02*
Y55821D01*
X28012Y29491D02*
X29272D01*
X28642Y28861D02*
Y30121D01*
X42974Y46392D02*
X44234D01*
X43604Y45762D02*
Y47022D01*
X27297Y16981D02*
X28557D01*
X27927Y16351D02*
Y17611D01*
X34896Y22830D02*
X36470D01*
X35683Y22042D02*
Y23617D01*
X32299Y11727D02*
X33559D01*
X32929Y11097D02*
Y12357D01*
X3607Y4580D02*
X4867D01*
X4237Y3950D02*
Y5210D01*
X9394Y3596D02*
X10654D01*
X10024Y2967D02*
Y4226D01*
X60689Y62453D02*
X61949D01*
X61319Y61823D02*
Y63083D01*
X60689Y68398D02*
X61949D01*
X61319Y67768D02*
Y69028D01*
X11122Y68898D02*
X12382D01*
X11752Y68268D02*
Y69528D01*
X5394Y68398D02*
X6654D01*
X6024Y67768D02*
Y69028D01*
X22795Y46268D02*
X24055D01*
X23425Y45638D02*
Y46898D01*
X23055Y42455D02*
X24315D01*
X23685Y41825D02*
Y43084D01*
X2992Y26432D02*
X4252D01*
X3622Y25802D02*
Y27062D01*
X59581Y53356D02*
X60840D01*
X60211Y52726D02*
Y53986D01*
X65315Y50045D02*
X66575D01*
X65945Y49415D02*
Y50675D01*
X57835Y49588D02*
X59095D01*
X58465Y48958D02*
Y50218D01*
X63915Y10907D02*
X65175D01*
X64545Y10277D02*
Y11537D01*
X52091Y5906D02*
X53351D01*
X52721Y5276D02*
Y6535D01*
X56438Y66732D02*
X57698D01*
X57068Y66102D02*
Y67362D01*
X60197Y12165D02*
X61457D01*
X60827Y11535D02*
Y12795D01*
X66299Y15134D02*
X67559D01*
X66929Y14504D02*
Y15764D01*
X60197Y7609D02*
X61457D01*
X60827Y6979D02*
Y8239D01*
X66299Y3596D02*
X67559D01*
X66929Y2967D02*
Y4226D01*
X5394Y8071D02*
X6654D01*
X6024Y7441D02*
Y8701D01*
X54687Y97646D02*
X56487D01*
X55587Y96746D02*
Y98546D01*
X47187Y97646D02*
X48987D01*
X48087Y96746D02*
Y98546D01*
X50687Y97646D02*
X52487D01*
X51587Y96746D02*
Y98546D01*
X44187Y97646D02*
X45987D01*
X45087Y96746D02*
Y98546D01*
X30687Y97646D02*
X32487D01*
X31587Y96746D02*
Y98546D01*
X37187Y97646D02*
X38987D01*
X38087Y96746D02*
Y98546D01*
X33687Y97646D02*
X35487D01*
X34587Y96746D02*
Y98546D01*
X41187Y97646D02*
X42987D01*
X42087Y96746D02*
Y98546D01*
X17187Y97646D02*
X18987D01*
X18087Y96746D02*
Y98546D01*
X23687Y97646D02*
X25487D01*
X24587Y96746D02*
Y98546D01*
X20187Y97646D02*
X21987D01*
X21087Y96746D02*
Y98546D01*
X27687Y97646D02*
X29487D01*
X28587Y96746D02*
Y98546D01*
X28297Y75197D02*
X30097D01*
X29197Y74297D02*
Y76097D01*
X20797Y75197D02*
X22597D01*
X21697Y74297D02*
Y76097D01*
X24297Y75197D02*
X26097D01*
X25197Y74297D02*
Y76097D01*
X17797Y75197D02*
X19597D01*
X18697Y74297D02*
Y76097D01*
X41797Y75197D02*
X43597D01*
X42697Y74297D02*
Y76097D01*
X34297Y75197D02*
X36097D01*
X35197Y74297D02*
Y76097D01*
X37797Y75197D02*
X39597D01*
X38697Y74297D02*
Y76097D01*
X31297Y75197D02*
X33097D01*
X32197Y74297D02*
Y76097D01*
X44797Y75197D02*
X46597D01*
X45697Y74297D02*
Y76097D01*
X51297Y75197D02*
X53097D01*
X52197Y74297D02*
Y76097D01*
X47797Y75197D02*
X49597D01*
X48697Y74297D02*
Y76097D01*
X55297Y75197D02*
X57097D01*
X56197Y74297D02*
Y76097D01*
X235395Y97252D02*
X237195D01*
X236295Y96352D02*
Y98152D01*
X227895Y97252D02*
X229695D01*
X228795Y96352D02*
Y98152D01*
X231395Y97252D02*
X233195D01*
X232295Y96352D02*
Y98152D01*
X224895Y97252D02*
X226695D01*
X225795Y96352D02*
Y98152D01*
X211395Y97252D02*
X213195D01*
X212295Y96352D02*
Y98152D01*
X217895Y97252D02*
X219695D01*
X218795Y96352D02*
Y98152D01*
X214395Y97252D02*
X216195D01*
X215295Y96352D02*
Y98152D01*
X221895Y97252D02*
X223695D01*
X222795Y96352D02*
Y98152D01*
X197895Y97252D02*
X199695D01*
X198795Y96352D02*
Y98152D01*
X204395Y97252D02*
X206195D01*
X205295Y96352D02*
Y98152D01*
X200895Y97252D02*
X202695D01*
X201795Y96352D02*
Y98152D01*
X208395Y97252D02*
X210195D01*
X209295Y96352D02*
Y98152D01*
X208714Y75590D02*
X210514D01*
X209614Y74691D02*
Y76490D01*
X201214Y75590D02*
X203014D01*
X202114Y74691D02*
Y76490D01*
X204714Y75590D02*
X206514D01*
X205614Y74691D02*
Y76490D01*
X198214Y75590D02*
X200014D01*
X199114Y74691D02*
Y76490D01*
X222214Y75590D02*
X224014D01*
X223114Y74691D02*
Y76490D01*
X214714Y75590D02*
X216514D01*
X215614Y74691D02*
Y76490D01*
X218214Y75590D02*
X220014D01*
X219114Y74691D02*
Y76490D01*
X211714Y75590D02*
X213514D01*
X212614Y74691D02*
Y76490D01*
X225214Y75590D02*
X227014D01*
X226114Y74691D02*
Y76490D01*
X231714Y75590D02*
X233514D01*
X232614Y74691D02*
Y76490D01*
X228214Y75590D02*
X230014D01*
X229114Y74691D02*
Y76490D01*
X235714Y75590D02*
X237514D01*
X236614Y74691D02*
Y76490D01*
X144844Y97646D02*
X146644D01*
X145744Y96746D02*
Y98546D01*
X137344Y97646D02*
X139144D01*
X138244Y96746D02*
Y98546D01*
X140844Y97646D02*
X142644D01*
X141744Y96746D02*
Y98546D01*
X134344Y97646D02*
X136144D01*
X135244Y96746D02*
Y98546D01*
X120844Y97646D02*
X122644D01*
X121744Y96746D02*
Y98546D01*
X127344Y97646D02*
X129144D01*
X128244Y96746D02*
Y98546D01*
X123844Y97646D02*
X125644D01*
X124744Y96746D02*
Y98546D01*
X131344Y97646D02*
X133144D01*
X132244Y96746D02*
Y98546D01*
X107344Y97646D02*
X109144D01*
X108244Y96746D02*
Y98546D01*
X113844Y97646D02*
X115644D01*
X114744Y96746D02*
Y98546D01*
X110344Y97646D02*
X112144D01*
X111244Y96746D02*
Y98546D01*
X117844Y97646D02*
X119644D01*
X118744Y96746D02*
Y98546D01*
X117769Y75197D02*
X119569D01*
X118669Y74297D02*
Y76097D01*
X110269Y75197D02*
X112069D01*
X111169Y74297D02*
Y76097D01*
X113769Y75197D02*
X115569D01*
X114669Y74297D02*
Y76097D01*
X107269Y75197D02*
X109069D01*
X108169Y74297D02*
Y76097D01*
X131269Y75197D02*
X133069D01*
X132169Y74297D02*
Y76097D01*
X123769Y75197D02*
X125569D01*
X124669Y74297D02*
Y76097D01*
X127269Y75197D02*
X129069D01*
X128169Y74297D02*
Y76097D01*
X120769Y75197D02*
X122569D01*
X121669Y74297D02*
Y76097D01*
X134269Y75197D02*
X136069D01*
X135169Y74297D02*
Y76097D01*
X140769Y75197D02*
X142569D01*
X141669Y74297D02*
Y76097D01*
X137269Y75197D02*
X139069D01*
X138169Y74297D02*
Y76097D01*
X144769Y75197D02*
X146569D01*
X145669Y74297D02*
Y76097D01*
X179029Y112819D02*
X180829D01*
X179929Y111919D02*
Y113719D01*
X179029Y120319D02*
X180829D01*
X179929Y119419D02*
Y121219D01*
X179029Y116819D02*
X180829D01*
X179929Y115919D02*
Y117719D01*
X179029Y123319D02*
X180829D01*
X179929Y122419D02*
Y124219D01*
X179029Y136819D02*
X180829D01*
X179929Y135919D02*
Y137719D01*
X179029Y130319D02*
X180829D01*
X179929Y129419D02*
Y131219D01*
X179029Y133819D02*
X180829D01*
X179929Y132919D02*
Y134719D01*
X179029Y126319D02*
X180829D01*
X179929Y125419D02*
Y127219D01*
X179029Y150319D02*
X180829D01*
X179929Y149419D02*
Y151219D01*
X179029Y143819D02*
X180829D01*
X179929Y142919D02*
Y144719D01*
X179029Y147319D02*
X180829D01*
X179929Y146419D02*
Y148219D01*
X179029Y139819D02*
X180829D01*
X179929Y138919D02*
Y140719D01*
X160911Y139500D02*
X162711D01*
X161811Y138600D02*
Y140400D01*
X160911Y147000D02*
X162711D01*
X161811Y146100D02*
Y147900D01*
X160911Y143500D02*
X162711D01*
X161811Y142600D02*
Y144400D01*
X160911Y150000D02*
X162711D01*
X161811Y149100D02*
Y150900D01*
X160911Y126000D02*
X162711D01*
X161811Y125100D02*
Y126900D01*
X160911Y133500D02*
X162711D01*
X161811Y132600D02*
Y134400D01*
X160911Y130000D02*
X162711D01*
X161811Y129100D02*
Y130900D01*
X160911Y136500D02*
X162711D01*
X161811Y135600D02*
Y137400D01*
X160911Y123000D02*
X162711D01*
X161811Y122100D02*
Y123900D01*
X160911Y116500D02*
X162711D01*
X161811Y115600D02*
Y117400D01*
X160911Y120000D02*
X162711D01*
X161811Y119100D02*
Y120900D01*
X160911Y112500D02*
X162711D01*
X161811Y111600D02*
Y113400D01*
X69572Y113976D02*
X71372D01*
X70472Y113076D02*
Y114876D01*
X69572Y121476D02*
X71372D01*
X70472Y120576D02*
Y122376D01*
X69572Y117976D02*
X71372D01*
X70472Y117076D02*
Y118876D01*
X69572Y124476D02*
X71372D01*
X70472Y123576D02*
Y125376D01*
X69572Y137976D02*
X71372D01*
X70472Y137076D02*
Y138876D01*
X69572Y131476D02*
X71372D01*
X70472Y130576D02*
Y132376D01*
X69572Y134976D02*
X71372D01*
X70472Y134076D02*
Y135876D01*
X69572Y127476D02*
X71372D01*
X70472Y126576D02*
Y128376D01*
X69572Y151476D02*
X71372D01*
X70472Y150576D02*
Y152376D01*
X69572Y144976D02*
X71372D01*
X70472Y144076D02*
Y145876D01*
X69572Y148476D02*
X71372D01*
X70472Y147576D02*
Y149376D01*
X69572Y140976D02*
X71372D01*
X70472Y140076D02*
Y141876D01*
X87691Y141295D02*
X89491D01*
X88591Y140395D02*
Y142195D01*
X87691Y148795D02*
X89491D01*
X88591Y147895D02*
Y149695D01*
X87691Y145295D02*
X89491D01*
X88591Y144395D02*
Y146195D01*
X87691Y151795D02*
X89491D01*
X88591Y150895D02*
Y152695D01*
X87691Y127795D02*
X89491D01*
X88591Y126895D02*
Y128695D01*
X87691Y135295D02*
X89491D01*
X88591Y134395D02*
Y136195D01*
X87691Y131795D02*
X89491D01*
X88591Y130895D02*
Y132695D01*
X87691Y138295D02*
X89491D01*
X88591Y137395D02*
Y139195D01*
X87691Y124795D02*
X89491D01*
X88591Y123895D02*
Y125695D01*
X87691Y118295D02*
X89491D01*
X88591Y117395D02*
Y119195D01*
X87691Y121795D02*
X89491D01*
X88591Y120895D02*
Y122695D01*
X87691Y114295D02*
X89491D01*
X88591Y113395D02*
Y115195D01*
X218890Y148394D02*
X220071D01*
X219481Y147803D02*
Y148984D01*
X206686Y152432D02*
X207867D01*
X207277Y151841D02*
Y153022D01*
X217276Y109417D02*
X218535D01*
X217905Y108787D02*
Y110047D01*
X188535Y162567D02*
X189795D01*
X189165Y161937D02*
Y163197D01*
X208902Y141161D02*
X210162D01*
X209532Y140531D02*
Y141791D01*
X237040Y103905D02*
X238300D01*
X237670Y103276D02*
Y104535D01*
X243952Y103905D02*
X245212D01*
X244582Y103276D02*
Y104535D01*
X239077Y101596D02*
X240337D01*
X239707Y100967D02*
Y102226D01*
X196086Y101596D02*
X197346D01*
X196716Y100967D02*
Y102226D01*
X235352Y168866D02*
X236612D01*
X235982Y168236D02*
Y169496D01*
X244114Y163945D02*
X245374D01*
X244744Y163315D02*
Y164575D01*
X245917Y155563D02*
X247177D01*
X246547Y154933D02*
Y156193D01*
X234566Y161860D02*
X235826D01*
X235196Y161230D02*
Y162490D01*
X213745Y153231D02*
X214926D01*
X214335Y152640D02*
Y153821D01*
X208615Y127491D02*
X209875D01*
X209245Y126861D02*
Y128121D01*
X223576Y144392D02*
X224836D01*
X224206Y143762D02*
Y145022D01*
X207900Y114981D02*
X209160D01*
X208530Y114351D02*
Y115611D01*
X215498Y120830D02*
X217073D01*
X216285Y120042D02*
Y121617D01*
X212902Y109727D02*
X214161D01*
X213532Y109097D02*
Y110357D01*
X184210Y102580D02*
X185469D01*
X184840Y101950D02*
Y103210D01*
X189996Y101596D02*
X191256D01*
X190626Y100967D02*
Y102226D01*
X241291Y160453D02*
X242551D01*
X241921Y159823D02*
Y161083D01*
X241291Y166398D02*
X242551D01*
X241921Y165768D02*
Y167027D01*
X191724Y166898D02*
X192984D01*
X192354Y166268D02*
Y167527D01*
X185996Y166398D02*
X187256D01*
X186626Y165768D02*
Y167027D01*
X203398Y144268D02*
X204658D01*
X204028Y143638D02*
Y144898D01*
X203658Y140455D02*
X204918D01*
X204288Y139825D02*
Y141085D01*
X183595Y124432D02*
X184854D01*
X184224Y123802D02*
Y125062D01*
X240183Y151356D02*
X241443D01*
X240813Y150726D02*
Y151986D01*
X245917Y148045D02*
X247177D01*
X246547Y147415D02*
Y148675D01*
X238437Y147588D02*
X239697D01*
X239067Y146958D02*
Y148218D01*
X244517Y108907D02*
X245777D01*
X245147Y108277D02*
Y109537D01*
X232693Y103905D02*
X233953D01*
X233323Y103276D02*
Y104535D01*
X237040Y164732D02*
X238300D01*
X237670Y164102D02*
Y165362D01*
X240799Y110165D02*
X242059D01*
X241429Y109535D02*
Y110794D01*
X246902Y113134D02*
X248161D01*
X247532Y112504D02*
Y113764D01*
X240799Y105608D02*
X242059D01*
X241429Y104979D02*
Y106238D01*
X246902Y101596D02*
X248161D01*
X247532Y100967D02*
Y102226D01*
X185996Y106071D02*
X187256D01*
X186626Y105441D02*
Y106701D01*
X128339Y148394D02*
X129520D01*
X128930Y147803D02*
Y148984D01*
X116135Y152432D02*
X117316D01*
X116726Y151841D02*
Y153022D01*
X126724Y109417D02*
X127984D01*
X127354Y108787D02*
Y110047D01*
X97984Y162567D02*
X99244D01*
X98614Y161937D02*
Y163197D01*
X118351Y141161D02*
X119611D01*
X118981Y140531D02*
Y141791D01*
X146489Y103905D02*
X147749D01*
X147119Y103276D02*
Y104535D01*
X153401Y103905D02*
X154661D01*
X154031Y103276D02*
Y104535D01*
X148526Y101596D02*
X149785D01*
X149155Y100967D02*
Y102226D01*
X105535Y101596D02*
X106795D01*
X106165Y100967D02*
Y102226D01*
X144801Y168866D02*
X146061D01*
X145431Y168236D02*
Y169496D01*
X153563Y163945D02*
X154823D01*
X154193Y163315D02*
Y164575D01*
X155366Y155563D02*
X156626D01*
X155996Y154933D02*
Y156193D01*
X144015Y161860D02*
X145275D01*
X144645Y161230D02*
Y162490D01*
X123194Y153231D02*
X124375D01*
X123784Y152640D02*
Y153821D01*
X118064Y127491D02*
X119324D01*
X118693Y126861D02*
Y128121D01*
X133025Y144392D02*
X134285D01*
X133655Y143762D02*
Y145022D01*
X117349Y114981D02*
X118608D01*
X117979Y114351D02*
Y115611D01*
X124947Y120830D02*
X126522D01*
X125734Y120042D02*
Y121617D01*
X122351Y109727D02*
X123610D01*
X122980Y109097D02*
Y110357D01*
X93659Y102580D02*
X94918D01*
X94288Y101950D02*
Y103210D01*
X99445Y101596D02*
X100705D01*
X100075Y100967D02*
Y102226D01*
X150740Y160453D02*
X152000D01*
X151370Y159823D02*
Y161083D01*
X150740Y166398D02*
X152000D01*
X151370Y165768D02*
Y167027D01*
X101173Y166898D02*
X102433D01*
X101803Y166268D02*
Y167527D01*
X95445Y166398D02*
X96705D01*
X96075Y165768D02*
Y167027D01*
X112847Y144268D02*
X114106D01*
X113476Y143638D02*
Y144898D01*
X113107Y140455D02*
X114366D01*
X113736Y139825D02*
Y141085D01*
X93043Y124432D02*
X94303D01*
X93673Y123802D02*
Y125062D01*
X149632Y151356D02*
X150892D01*
X150262Y150726D02*
Y151986D01*
X155366Y148045D02*
X156626D01*
X155996Y147415D02*
Y148675D01*
X147886Y147588D02*
X149146D01*
X148516Y146958D02*
Y148218D01*
X153966Y108907D02*
X155226D01*
X154596Y108277D02*
Y109537D01*
X142142Y103905D02*
X143402D01*
X142772Y103276D02*
Y104535D01*
X146489Y164732D02*
X147749D01*
X147119Y164102D02*
Y165362D01*
X150248Y110165D02*
X151508D01*
X150878Y109535D02*
Y110794D01*
X156350Y113134D02*
X157610D01*
X156980Y112504D02*
Y113764D01*
X150248Y105608D02*
X151508D01*
X150878Y104979D02*
Y106238D01*
X156350Y101596D02*
X157610D01*
X156980Y100967D02*
Y102226D01*
X95445Y106071D02*
X96705D01*
X96075Y105441D02*
Y106701D01*
X37788Y148394D02*
X38969D01*
X38379Y147803D02*
Y148984D01*
X25584Y152432D02*
X26765D01*
X26174Y151841D02*
Y153022D01*
X36173Y109417D02*
X37433D01*
X36803Y108787D02*
Y110047D01*
X7433Y162567D02*
X8693D01*
X8063Y161937D02*
Y163197D01*
X27800Y141161D02*
X29060D01*
X28430Y140531D02*
Y141791D01*
X55938Y103905D02*
X57198D01*
X56568Y103276D02*
Y104535D01*
X62850Y103905D02*
X64110D01*
X63480Y103276D02*
Y104535D01*
X57974Y101596D02*
X59234D01*
X58604Y100967D02*
Y102226D01*
X14984Y101596D02*
X16243D01*
X15613Y100967D02*
Y102226D01*
X54250Y168866D02*
X55510D01*
X54880Y168236D02*
Y169496D01*
X63012Y163945D02*
X64272D01*
X63642Y163315D02*
Y164575D01*
X64815Y155563D02*
X66075D01*
X65445Y154933D02*
Y156193D01*
X53464Y161860D02*
X54724D01*
X54094Y161230D02*
Y162490D01*
X32642Y153231D02*
X33823D01*
X33233Y152640D02*
Y153821D01*
X27512Y127491D02*
X28772D01*
X28142Y126861D02*
Y128121D01*
X42474Y144392D02*
X43734D01*
X43104Y143762D02*
Y145022D01*
X26798Y114981D02*
X28057D01*
X27427Y114351D02*
Y115611D01*
X34396Y120830D02*
X35971D01*
X35183Y120042D02*
Y121617D01*
X31799Y109727D02*
X33059D01*
X32429Y109097D02*
Y110357D01*
X3107Y102580D02*
X4367D01*
X3737Y101950D02*
Y103210D01*
X8894Y101596D02*
X10153D01*
X9524Y100967D02*
Y102226D01*
X60189Y160453D02*
X61449D01*
X60819Y159823D02*
Y161083D01*
X60189Y166398D02*
X61449D01*
X60819Y165768D02*
Y167027D01*
X10622Y166898D02*
X11882D01*
X11252Y166268D02*
Y167527D01*
X4894Y166398D02*
X6154D01*
X5524Y165768D02*
Y167027D01*
X22295Y144268D02*
X23555D01*
X22925Y143638D02*
Y144898D01*
X22555Y140455D02*
X23815D01*
X23185Y139825D02*
Y141085D01*
X2492Y124432D02*
X3752D01*
X3122Y123802D02*
Y125062D01*
X59081Y151356D02*
X60340D01*
X59711Y150726D02*
Y151986D01*
X64815Y148045D02*
X66075D01*
X65445Y147415D02*
Y148675D01*
X57335Y147588D02*
X58595D01*
X57965Y146958D02*
Y148218D01*
X63415Y108907D02*
X64675D01*
X64045Y108277D02*
Y109537D01*
X51591Y103905D02*
X52851D01*
X52221Y103276D02*
Y104535D01*
X55938Y164732D02*
X57198D01*
X56568Y164102D02*
Y165362D01*
X59697Y110165D02*
X60957D01*
X60327Y109535D02*
Y110794D01*
X65799Y113134D02*
X67059D01*
X66429Y112504D02*
Y113764D01*
X59697Y105608D02*
X60957D01*
X60327Y104979D02*
Y106238D01*
X65799Y101596D02*
X67059D01*
X66429Y100967D02*
Y102226D01*
X4894Y106071D02*
X6154D01*
X5524Y105441D02*
Y106701D01*
M02*
