G04*
G04 #@! TF.GenerationSoftware,Altium Limited,Altium Designer,20.0.13 (296)*
G04*
G04 Layer_Color=16711935*
%FSLAX25Y25*%
%MOIN*%
G70*
G01*
G75*
%ADD35R,0.03950X0.03950*%
%ADD36C,0.03950*%
%ADD37C,0.02769*%
%ADD38C,0.03162*%
%ADD39C,0.03241*%
G54D35*
X206693Y68898D02*
D03*
X226378Y5906D02*
D03*
X116142Y68898D02*
D03*
X135827Y5906D02*
D03*
X25591Y68898D02*
D03*
X45276Y5906D02*
D03*
X206193Y166898D02*
D03*
X225878Y103905D02*
D03*
X115642Y166898D02*
D03*
X135327Y103905D02*
D03*
X25091Y166898D02*
D03*
X44776Y103905D02*
D03*
G54D36*
X210630Y68898D02*
D03*
X214567D02*
D03*
X218504D02*
D03*
X222441D02*
D03*
X226378D02*
D03*
X222441Y5906D02*
D03*
X218504D02*
D03*
X214567D02*
D03*
X210630D02*
D03*
X206693D02*
D03*
X120079Y68898D02*
D03*
X124016D02*
D03*
X127953D02*
D03*
X131890D02*
D03*
X135827D02*
D03*
X131890Y5906D02*
D03*
X127953D02*
D03*
X124016D02*
D03*
X120079D02*
D03*
X116142D02*
D03*
X29528Y68898D02*
D03*
X33465D02*
D03*
X37402D02*
D03*
X41339D02*
D03*
X45276D02*
D03*
X41339Y5906D02*
D03*
X37402D02*
D03*
X33465D02*
D03*
X29528D02*
D03*
X25591D02*
D03*
X210130Y166898D02*
D03*
X214067D02*
D03*
X218004D02*
D03*
X221941D02*
D03*
X225878D02*
D03*
X221941Y103905D02*
D03*
X218004D02*
D03*
X214067D02*
D03*
X210130D02*
D03*
X206193D02*
D03*
X119579Y166898D02*
D03*
X123516D02*
D03*
X127453D02*
D03*
X131390D02*
D03*
X135327D02*
D03*
X131390Y103905D02*
D03*
X127453D02*
D03*
X123516D02*
D03*
X119579D02*
D03*
X115642D02*
D03*
X29028Y166898D02*
D03*
X32965D02*
D03*
X36902D02*
D03*
X40839D02*
D03*
X44776D02*
D03*
X40839Y103905D02*
D03*
X36902D02*
D03*
X32965D02*
D03*
X29028D02*
D03*
X25091D02*
D03*
G54D37*
X219981Y50394D02*
D03*
X129430D02*
D03*
X38879D02*
D03*
X219481Y148394D02*
D03*
X128930D02*
D03*
X38379D02*
D03*
G54D38*
X207777Y54432D02*
D03*
X218406Y11417D02*
D03*
X214835Y55230D02*
D03*
X216785Y22830D02*
D03*
X117226Y54432D02*
D03*
X127854Y11417D02*
D03*
X124284Y55230D02*
D03*
X126234Y22830D02*
D03*
X26674Y54432D02*
D03*
X37303Y11417D02*
D03*
X33733Y55230D02*
D03*
X35683Y22830D02*
D03*
X207277Y152432D02*
D03*
X217905Y109417D02*
D03*
X214335Y153231D02*
D03*
X216285Y120830D02*
D03*
X116726Y152432D02*
D03*
X127354Y109417D02*
D03*
X123784Y153231D02*
D03*
X125734Y120830D02*
D03*
X26174Y152432D02*
D03*
X36803Y109417D02*
D03*
X33233Y153231D02*
D03*
X35183Y120830D02*
D03*
G54D39*
X189665Y64567D02*
D03*
X210032Y43161D02*
D03*
X238170Y5906D02*
D03*
X245082D02*
D03*
X240207Y3596D02*
D03*
X197216Y3596D02*
D03*
X236482Y70866D02*
D03*
X245244Y65945D02*
D03*
X247047Y57563D02*
D03*
X235696Y63860D02*
D03*
X209745Y29491D02*
D03*
X224706Y46392D02*
D03*
X209030Y16981D02*
D03*
X214032Y11727D02*
D03*
X185340Y4580D02*
D03*
X191126Y3596D02*
D03*
X242421Y62453D02*
D03*
Y68398D02*
D03*
X192854Y68898D02*
D03*
X187126Y68398D02*
D03*
X204527Y46268D02*
D03*
X204788Y42455D02*
D03*
X184724Y26432D02*
D03*
X241313Y53356D02*
D03*
X247047Y50045D02*
D03*
X239567Y49588D02*
D03*
X245647Y10907D02*
D03*
X233823Y5906D02*
D03*
X238170Y66732D02*
D03*
X241929Y12165D02*
D03*
X248031Y15134D02*
D03*
X241929Y7609D02*
D03*
X248031Y3596D02*
D03*
X187126Y8071D02*
D03*
X99114Y64567D02*
D03*
X119481Y43161D02*
D03*
X147619Y5906D02*
D03*
X154531D02*
D03*
X149655Y3596D02*
D03*
X106665Y3596D02*
D03*
X145931Y70866D02*
D03*
X154693Y65945D02*
D03*
X156496Y57563D02*
D03*
X145145Y63860D02*
D03*
X119193Y29491D02*
D03*
X134155Y46392D02*
D03*
X118479Y16981D02*
D03*
X123480Y11727D02*
D03*
X94788Y4580D02*
D03*
X100575Y3596D02*
D03*
X151870Y62453D02*
D03*
Y68398D02*
D03*
X102303Y68898D02*
D03*
X96575Y68398D02*
D03*
X113976Y46268D02*
D03*
X114236Y42455D02*
D03*
X94173Y26432D02*
D03*
X150762Y53356D02*
D03*
X156496Y50045D02*
D03*
X149016Y49588D02*
D03*
X155096Y10907D02*
D03*
X143272Y5906D02*
D03*
X147619Y66732D02*
D03*
X151378Y12165D02*
D03*
X157480Y15134D02*
D03*
X151378Y7609D02*
D03*
X157480Y3596D02*
D03*
X96575Y8071D02*
D03*
X8563Y64567D02*
D03*
X28930Y43161D02*
D03*
X57068Y5906D02*
D03*
X63980D02*
D03*
X59104Y3596D02*
D03*
X16113Y3596D02*
D03*
X55380Y70866D02*
D03*
X64142Y65945D02*
D03*
X65945Y57563D02*
D03*
X54594Y63860D02*
D03*
X28642Y29491D02*
D03*
X43604Y46392D02*
D03*
X27927Y16981D02*
D03*
X32929Y11727D02*
D03*
X4237Y4580D02*
D03*
X10024Y3596D02*
D03*
X61319Y62453D02*
D03*
Y68398D02*
D03*
X11752Y68898D02*
D03*
X6024Y68398D02*
D03*
X23425Y46268D02*
D03*
X23685Y42455D02*
D03*
X3622Y26432D02*
D03*
X60211Y53356D02*
D03*
X65945Y50045D02*
D03*
X58465Y49588D02*
D03*
X64545Y10907D02*
D03*
X52721Y5906D02*
D03*
X57068Y66732D02*
D03*
X60827Y12165D02*
D03*
X66929Y15134D02*
D03*
X60827Y7609D02*
D03*
X66929Y3596D02*
D03*
X6024Y8071D02*
D03*
X189165Y162567D02*
D03*
X209532Y141161D02*
D03*
X237670Y103905D02*
D03*
X244582D02*
D03*
X239707Y101596D02*
D03*
X196716Y101596D02*
D03*
X235982Y168866D02*
D03*
X244744Y163945D02*
D03*
X246547Y155563D02*
D03*
X235196Y161860D02*
D03*
X209245Y127491D02*
D03*
X224206Y144392D02*
D03*
X208530Y114981D02*
D03*
X213532Y109727D02*
D03*
X184840Y102580D02*
D03*
X190626Y101596D02*
D03*
X241921Y160453D02*
D03*
Y166398D02*
D03*
X192354Y166898D02*
D03*
X186626Y166398D02*
D03*
X204028Y144268D02*
D03*
X204288Y140455D02*
D03*
X184224Y124432D02*
D03*
X240813Y151356D02*
D03*
X246547Y148045D02*
D03*
X239067Y147588D02*
D03*
X245147Y108907D02*
D03*
X233323Y103905D02*
D03*
X237670Y164732D02*
D03*
X241429Y110165D02*
D03*
X247532Y113134D02*
D03*
X241429Y105608D02*
D03*
X247532Y101596D02*
D03*
X186626Y106071D02*
D03*
X98614Y162567D02*
D03*
X118981Y141161D02*
D03*
X147119Y103905D02*
D03*
X154031D02*
D03*
X149155Y101596D02*
D03*
X106165Y101596D02*
D03*
X145431Y168866D02*
D03*
X154193Y163945D02*
D03*
X155996Y155563D02*
D03*
X144645Y161860D02*
D03*
X118693Y127491D02*
D03*
X133655Y144392D02*
D03*
X117979Y114981D02*
D03*
X122980Y109727D02*
D03*
X94288Y102580D02*
D03*
X100075Y101596D02*
D03*
X151370Y160453D02*
D03*
Y166398D02*
D03*
X101803Y166898D02*
D03*
X96075Y166398D02*
D03*
X113476Y144268D02*
D03*
X113736Y140455D02*
D03*
X93673Y124432D02*
D03*
X150262Y151356D02*
D03*
X155996Y148045D02*
D03*
X148516Y147588D02*
D03*
X154596Y108907D02*
D03*
X142772Y103905D02*
D03*
X147119Y164732D02*
D03*
X150878Y110165D02*
D03*
X156980Y113134D02*
D03*
X150878Y105608D02*
D03*
X156980Y101596D02*
D03*
X96075Y106071D02*
D03*
X8063Y162567D02*
D03*
X28430Y141161D02*
D03*
X56568Y103905D02*
D03*
X63480D02*
D03*
X58604Y101596D02*
D03*
X15613Y101596D02*
D03*
X54880Y168866D02*
D03*
X63642Y163945D02*
D03*
X65445Y155563D02*
D03*
X54094Y161860D02*
D03*
X28142Y127491D02*
D03*
X43104Y144392D02*
D03*
X27427Y114981D02*
D03*
X32429Y109727D02*
D03*
X3737Y102580D02*
D03*
X9524Y101596D02*
D03*
X60819Y160453D02*
D03*
Y166398D02*
D03*
X11252Y166898D02*
D03*
X5524Y166398D02*
D03*
X22925Y144268D02*
D03*
X23185Y140455D02*
D03*
X3122Y124432D02*
D03*
X59711Y151356D02*
D03*
X65445Y148045D02*
D03*
X57965Y147588D02*
D03*
X64045Y108907D02*
D03*
X52221Y103905D02*
D03*
X56568Y164732D02*
D03*
X60327Y110165D02*
D03*
X66429Y113134D02*
D03*
X60327Y105608D02*
D03*
X66429Y101596D02*
D03*
X5524Y106071D02*
D03*
M02*
