G04*
G04 #@! TF.GenerationSoftware,Altium Limited,Altium Designer,20.0.13 (296)*
G04*
G04 Layer_Color=255*
%FSLAX25Y25*%
%MOIN*%
G70*
G01*
G75*
%ADD43R,0.03150X0.03150*%
%ADD44C,0.03150*%
G54D43*
X206693Y68898D02*
D03*
X226378Y5906D02*
D03*
X116142Y68898D02*
D03*
X135827Y5906D02*
D03*
X25591Y68898D02*
D03*
X45276Y5906D02*
D03*
X206193Y166898D02*
D03*
X225878Y103905D02*
D03*
X115642Y166898D02*
D03*
X135327Y103905D02*
D03*
X25091Y166898D02*
D03*
X44776Y103905D02*
D03*
G54D44*
X210630Y68898D02*
D03*
X214567D02*
D03*
X218504D02*
D03*
X222441D02*
D03*
X226378D02*
D03*
X222441Y5906D02*
D03*
X218504D02*
D03*
X214567D02*
D03*
X210630D02*
D03*
X206693D02*
D03*
X120079Y68898D02*
D03*
X124016D02*
D03*
X127953D02*
D03*
X131890D02*
D03*
X135827D02*
D03*
X131890Y5906D02*
D03*
X127953D02*
D03*
X124016D02*
D03*
X120079D02*
D03*
X116142D02*
D03*
X29528Y68898D02*
D03*
X33465D02*
D03*
X37402D02*
D03*
X41339D02*
D03*
X45276D02*
D03*
X41339Y5906D02*
D03*
X37402D02*
D03*
X33465D02*
D03*
X29528D02*
D03*
X25591D02*
D03*
X210130Y166898D02*
D03*
X214067D02*
D03*
X218004D02*
D03*
X221941D02*
D03*
X225878D02*
D03*
X221941Y103905D02*
D03*
X218004D02*
D03*
X214067D02*
D03*
X210130D02*
D03*
X206193D02*
D03*
X119579Y166898D02*
D03*
X123516D02*
D03*
X127453D02*
D03*
X131390D02*
D03*
X135327D02*
D03*
X131390Y103905D02*
D03*
X127453D02*
D03*
X123516D02*
D03*
X119579D02*
D03*
X115642D02*
D03*
X29028Y166898D02*
D03*
X32965D02*
D03*
X36902D02*
D03*
X40839D02*
D03*
X44776D02*
D03*
X40839Y103905D02*
D03*
X36902D02*
D03*
X32965D02*
D03*
X29028D02*
D03*
X25091D02*
D03*
M02*
