G04*
G04 #@! TF.GenerationSoftware,Altium Limited,Altium Designer,20.0.13 (296)*
G04*
G04 Layer_Physical_Order=2*
G04 Layer_Color=16711680*
%FSLAX25Y25*%
%MOIN*%
G70*
G01*
G75*
%ADD13C,0.01000*%
%ADD43R,0.03150X0.03150*%
%ADD44C,0.03150*%
%ADD46C,0.01968*%
%ADD47C,0.02362*%
%ADD48C,0.02441*%
G36*
X250047Y166309D02*
Y99065D01*
X240051D01*
X239466Y98948D01*
X238970Y98617D01*
X238776Y98327D01*
X238206Y98318D01*
X237868Y98825D01*
X237146Y99306D01*
X236295Y99476D01*
X235444Y99306D01*
X234723Y98825D01*
X234545Y98559D01*
X234045D01*
X233868Y98825D01*
X233146Y99306D01*
X232295Y99476D01*
X231444Y99306D01*
X230893Y98938D01*
X230545Y98863D01*
X230198Y98938D01*
X229646Y99306D01*
X228795Y99476D01*
X227944Y99306D01*
X227295Y98873D01*
X226646Y99306D01*
X225795Y99476D01*
X224944Y99306D01*
X224295Y98873D01*
X223646Y99306D01*
X222795Y99476D01*
X221944Y99306D01*
X221223Y98825D01*
X221045Y98559D01*
X220545D01*
X220368Y98825D01*
X219646Y99306D01*
X218795Y99476D01*
X217944Y99306D01*
X217393Y98938D01*
X217045Y98863D01*
X216698Y98938D01*
X216146Y99306D01*
X215295Y99476D01*
X214444Y99306D01*
X213795Y98873D01*
X213146Y99306D01*
X212295Y99476D01*
X211444Y99306D01*
X210795Y98873D01*
X210146Y99306D01*
X209295Y99476D01*
X208444Y99306D01*
X207723Y98825D01*
X207545Y98559D01*
X207045D01*
X206868Y98825D01*
X206146Y99306D01*
X205295Y99476D01*
X204444Y99306D01*
X203893Y98938D01*
X203545Y98863D01*
X203198Y98938D01*
X202646Y99306D01*
X201795Y99476D01*
X200944Y99306D01*
X200295Y98873D01*
X199646Y99306D01*
X198795Y99476D01*
X197944Y99306D01*
X197223Y98825D01*
X197169Y98744D01*
X196973Y98689D01*
X196567Y98743D01*
X196497Y98849D01*
X196495Y98850D01*
X196494Y98852D01*
X196247Y99016D01*
X196001Y99181D01*
X195998Y99181D01*
X195997Y99182D01*
X195706Y99239D01*
X195415Y99297D01*
X182132D01*
Y109346D01*
X182015Y109932D01*
X181684Y110428D01*
X181430Y110597D01*
X181411Y111186D01*
X181502Y111246D01*
X181984Y111968D01*
X182153Y112819D01*
X181984Y113670D01*
X181502Y114391D01*
X181236Y114569D01*
Y115069D01*
X181502Y115246D01*
X181984Y115968D01*
X182153Y116819D01*
X181984Y117670D01*
X181502Y118391D01*
Y118746D01*
X181984Y119468D01*
X182153Y120319D01*
X181984Y121170D01*
X181550Y121819D01*
X181984Y122468D01*
X182048Y122792D01*
X182579Y122898D01*
X182624Y122831D01*
X183358Y122341D01*
X184224Y122168D01*
X185091Y122341D01*
X185825Y122831D01*
X185873Y122903D01*
X189730D01*
X190316Y123019D01*
X190812Y123351D01*
X193423Y125962D01*
X207596D01*
X207644Y125891D01*
X208378Y125400D01*
X209245Y125227D01*
X209640Y125306D01*
X210026Y124989D01*
Y123703D01*
X207448Y121125D01*
X207117Y120629D01*
X207000Y120043D01*
Y116629D01*
X206929Y116582D01*
X206438Y115847D01*
X206266Y114981D01*
X206438Y114114D01*
X206929Y113380D01*
X207663Y112889D01*
X208530Y112717D01*
X209396Y112889D01*
X210131Y113380D01*
X210621Y114114D01*
X210794Y114981D01*
X210621Y115847D01*
X210131Y116582D01*
X210059Y116629D01*
Y119410D01*
X212637Y121988D01*
X212969Y122484D01*
X213085Y123069D01*
Y139138D01*
X212969Y139723D01*
X212637Y140219D01*
X211779Y141077D01*
X211796Y141161D01*
X211624Y142028D01*
X211133Y142762D01*
X210399Y143253D01*
X209532Y143425D01*
X208666Y143253D01*
X207931Y142762D01*
X207440Y142028D01*
X207268Y141161D01*
X207440Y140295D01*
X207931Y139560D01*
X208666Y139070D01*
X209532Y138897D01*
X209616Y138914D01*
X210026Y138504D01*
Y129994D01*
X209640Y129677D01*
X209245Y129755D01*
X208378Y129583D01*
X207644Y129092D01*
X207596Y129021D01*
X192789D01*
X192204Y128904D01*
X191708Y128573D01*
X189097Y125962D01*
X185873D01*
X185825Y126033D01*
X185091Y126524D01*
X184224Y126696D01*
X183358Y126524D01*
X182624Y126033D01*
X182598Y125996D01*
X182127Y126191D01*
X182153Y126319D01*
X181984Y127170D01*
X181502Y127891D01*
X181236Y128069D01*
Y128569D01*
X181502Y128746D01*
X181984Y129468D01*
X182153Y130319D01*
X181984Y131170D01*
X181502Y131891D01*
Y132246D01*
X181984Y132968D01*
X182153Y133819D01*
X181984Y134670D01*
X181550Y135319D01*
X181984Y135968D01*
X182153Y136819D01*
X181984Y137670D01*
X181550Y138319D01*
X181984Y138968D01*
X182153Y139819D01*
X181984Y140670D01*
X181502Y141391D01*
X181236Y141569D01*
Y142069D01*
X181502Y142246D01*
X181984Y142968D01*
X182153Y143819D01*
X181984Y144670D01*
X181502Y145391D01*
Y145746D01*
X181984Y146468D01*
X182153Y147319D01*
X181984Y148170D01*
X181550Y148819D01*
X181984Y149468D01*
X182153Y150319D01*
X181984Y151170D01*
X181502Y151891D01*
X181100Y152160D01*
X181100Y152761D01*
X181223Y152844D01*
X181555Y153340D01*
X181671Y153925D01*
Y171382D01*
X244974D01*
X250047Y166309D01*
D02*
G37*
G36*
X69236Y166018D02*
X69222Y165873D01*
X68890Y165377D01*
X68774Y164791D01*
Y155106D01*
X68890Y154521D01*
X69222Y154025D01*
X69363Y153930D01*
Y153358D01*
X68900Y153049D01*
X68418Y152327D01*
X68249Y151476D01*
X68418Y150625D01*
X68852Y149976D01*
X68418Y149327D01*
X68249Y148476D01*
X68418Y147625D01*
X68900Y146904D01*
Y146549D01*
X68418Y145827D01*
X68249Y144976D01*
X68418Y144125D01*
X68900Y143404D01*
X69166Y143226D01*
Y142726D01*
X68900Y142549D01*
X68418Y141827D01*
X68249Y140976D01*
X68418Y140125D01*
X68852Y139476D01*
X68418Y138827D01*
X68249Y137976D01*
X68418Y137125D01*
X68852Y136476D01*
X68418Y135827D01*
X68249Y134976D01*
X68418Y134125D01*
X68900Y133404D01*
Y133049D01*
X68418Y132327D01*
X68249Y131476D01*
X68418Y130625D01*
X68900Y129904D01*
X69166Y129726D01*
Y129226D01*
X68900Y129049D01*
X68418Y128327D01*
X68249Y127476D01*
X68418Y126625D01*
X68852Y125976D01*
X68418Y125327D01*
X68249Y124476D01*
X68418Y123625D01*
X68852Y122976D01*
X68418Y122327D01*
X68249Y121476D01*
X68418Y120625D01*
X68900Y119904D01*
Y119549D01*
X68418Y118827D01*
X68249Y117976D01*
X68418Y117125D01*
X68900Y116404D01*
X69166Y116226D01*
Y115726D01*
X68900Y115549D01*
X68418Y114827D01*
X68249Y113976D01*
X68418Y113125D01*
X68900Y112404D01*
X69237Y112179D01*
X69282Y111641D01*
X69255Y111565D01*
X68953Y111113D01*
X68837Y110528D01*
Y99421D01*
X59887D01*
X59342Y99529D01*
X58757Y99413D01*
X58261Y99081D01*
X58056Y98775D01*
X57511Y98730D01*
X57478Y98741D01*
X57159Y99218D01*
X56438Y99700D01*
X55587Y99870D01*
X54736Y99700D01*
X54014Y99218D01*
X53837Y98953D01*
X53337D01*
X53159Y99218D01*
X52438Y99700D01*
X51587Y99870D01*
X50736Y99700D01*
X50014Y99218D01*
X49659D01*
X48938Y99700D01*
X48087Y99870D01*
X47236Y99700D01*
X46587Y99267D01*
X45938Y99700D01*
X45087Y99870D01*
X44236Y99700D01*
X43587Y99267D01*
X42938Y99700D01*
X42087Y99870D01*
X41236Y99700D01*
X40514Y99218D01*
X40337Y98953D01*
X39837D01*
X39659Y99218D01*
X38938Y99700D01*
X38087Y99870D01*
X37236Y99700D01*
X36514Y99218D01*
X36159D01*
X35438Y99700D01*
X34587Y99870D01*
X33736Y99700D01*
X33087Y99267D01*
X32438Y99700D01*
X31587Y99870D01*
X30736Y99700D01*
X30087Y99267D01*
X29438Y99700D01*
X28587Y99870D01*
X27736Y99700D01*
X27014Y99218D01*
X26837Y98953D01*
X26337D01*
X26159Y99218D01*
X25438Y99700D01*
X24587Y99870D01*
X23736Y99700D01*
X23184Y99332D01*
X22837Y99257D01*
X22489Y99332D01*
X21938Y99700D01*
X21087Y99870D01*
X20236Y99700D01*
X19587Y99267D01*
X18938Y99700D01*
X18087Y99870D01*
X17236Y99700D01*
X16514Y99218D01*
X16457Y99132D01*
X16243Y99080D01*
X15824Y99085D01*
X15690Y99175D01*
X15446Y99339D01*
X15442Y99340D01*
X15440Y99342D01*
X15149Y99400D01*
X14861Y99458D01*
X14858Y99458D01*
X14854Y99458D01*
X-291D01*
X-500Y99630D01*
Y171382D01*
X63872D01*
X69236Y166018D01*
D02*
G37*
G36*
X159325Y166480D02*
Y153925D01*
X159441Y153340D01*
X159773Y152844D01*
X160130Y152605D01*
Y151410D01*
X159757Y150851D01*
X159587Y150000D01*
X159757Y149149D01*
X160130Y148590D01*
Y148410D01*
X159757Y147851D01*
X159587Y147000D01*
X159757Y146149D01*
X160130Y145590D01*
Y144910D01*
X159757Y144351D01*
X159587Y143500D01*
X159757Y142649D01*
X160130Y142090D01*
Y140910D01*
X159757Y140351D01*
X159587Y139500D01*
X159757Y138649D01*
X160130Y138090D01*
Y137910D01*
X159757Y137351D01*
X159587Y136500D01*
X159757Y135649D01*
X160130Y135090D01*
Y134910D01*
X159757Y134351D01*
X159587Y133500D01*
X159757Y132649D01*
X160130Y132090D01*
Y131410D01*
X159757Y130851D01*
X159587Y130000D01*
X159757Y129149D01*
X160130Y128590D01*
Y127410D01*
X159757Y126851D01*
X159587Y126000D01*
X159757Y125149D01*
X160130Y124590D01*
Y124410D01*
X159757Y123851D01*
X159587Y123000D01*
X159757Y122149D01*
X160130Y121590D01*
Y121410D01*
X159757Y120851D01*
X159587Y120000D01*
X159757Y119149D01*
X160130Y118590D01*
Y117910D01*
X159757Y117351D01*
X159587Y116500D01*
X159757Y115649D01*
X160130Y115090D01*
Y113910D01*
X159757Y113351D01*
X159587Y112500D01*
X159757Y111649D01*
X160130Y111090D01*
Y110624D01*
X159836Y110428D01*
X159504Y109932D01*
X159388Y109346D01*
Y99458D01*
X149106D01*
X148521Y99342D01*
X148047Y99025D01*
X147913Y98958D01*
X147490Y98958D01*
X147317Y99218D01*
X146595Y99700D01*
X145744Y99870D01*
X144893Y99700D01*
X144172Y99218D01*
X143994Y98953D01*
X143494D01*
X143317Y99218D01*
X142595Y99700D01*
X141744Y99870D01*
X140893Y99700D01*
X140342Y99332D01*
X139994Y99257D01*
X139646Y99332D01*
X139095Y99700D01*
X138244Y99870D01*
X137393Y99700D01*
X136744Y99267D01*
X136095Y99700D01*
X135244Y99870D01*
X134393Y99700D01*
X133744Y99267D01*
X133095Y99700D01*
X132244Y99870D01*
X131393Y99700D01*
X130672Y99218D01*
X130494Y98953D01*
X129994D01*
X129817Y99218D01*
X129095Y99700D01*
X128244Y99870D01*
X127393Y99700D01*
X126842Y99332D01*
X126494Y99257D01*
X126146Y99332D01*
X125595Y99700D01*
X124744Y99870D01*
X123893Y99700D01*
X123244Y99267D01*
X122595Y99700D01*
X121744Y99870D01*
X120893Y99700D01*
X120244Y99267D01*
X119595Y99700D01*
X118744Y99870D01*
X117893Y99700D01*
X117172Y99218D01*
X116994Y98953D01*
X116494D01*
X116317Y99218D01*
X115595Y99700D01*
X114744Y99870D01*
X113893Y99700D01*
X113342Y99332D01*
X112994Y99257D01*
X112646Y99332D01*
X112095Y99700D01*
X111244Y99870D01*
X110393Y99700D01*
X109744Y99267D01*
X109095Y99700D01*
X108244Y99870D01*
X107393Y99700D01*
X106672Y99218D01*
X106463Y98907D01*
X106457Y98904D01*
X105884Y98939D01*
X105860Y98974D01*
X105697Y99219D01*
X105694Y99221D01*
X105692Y99224D01*
X105445Y99387D01*
X105201Y99551D01*
X105197Y99551D01*
X105194Y99554D01*
X104905Y99610D01*
X104615Y99667D01*
X91581D01*
Y110528D01*
X91464Y111113D01*
X91133Y111609D01*
X90636Y111941D01*
X90051Y112057D01*
Y112648D01*
X90163Y112723D01*
X90645Y113444D01*
X90814Y114295D01*
X90645Y115146D01*
X90163Y115868D01*
X90051Y115943D01*
Y116648D01*
X90163Y116723D01*
X90645Y117444D01*
X90814Y118295D01*
X90645Y119146D01*
X90163Y119868D01*
Y120223D01*
X90645Y120944D01*
X90814Y121795D01*
X90645Y122646D01*
X90211Y123295D01*
X90645Y123944D01*
X90814Y124795D01*
X90645Y125646D01*
X90211Y126295D01*
X90645Y126944D01*
X90814Y127795D01*
X90645Y128646D01*
X90163Y129368D01*
X90051Y129443D01*
Y130148D01*
X90163Y130223D01*
X90645Y130944D01*
X90814Y131795D01*
X90645Y132646D01*
X90163Y133368D01*
Y133723D01*
X90645Y134444D01*
X90814Y135295D01*
X90645Y136146D01*
X90211Y136795D01*
X90645Y137444D01*
X90814Y138295D01*
X90645Y139146D01*
X90211Y139795D01*
X90645Y140444D01*
X90814Y141295D01*
X90645Y142146D01*
X90163Y142868D01*
X90051Y142943D01*
Y143648D01*
X90163Y143723D01*
X90645Y144444D01*
X90814Y145295D01*
X90645Y146146D01*
X90163Y146868D01*
Y147223D01*
X90645Y147944D01*
X90814Y148795D01*
X90645Y149646D01*
X90211Y150295D01*
X90645Y150944D01*
X90814Y151795D01*
X90645Y152646D01*
X90273Y153203D01*
X90217Y153485D01*
X90376Y153827D01*
X90672Y154025D01*
X91004Y154521D01*
X91120Y155106D01*
Y171382D01*
X154423D01*
X159325Y166480D01*
D02*
G37*
G36*
X154507Y73798D02*
X159888Y68417D01*
Y55118D01*
X160004Y54533D01*
X160336Y54037D01*
X160630Y53840D01*
Y53114D01*
X160239Y52852D01*
X159757Y52131D01*
X159587Y51279D01*
X159757Y50428D01*
X160190Y49779D01*
X159757Y49130D01*
X159587Y48280D01*
X159757Y47429D01*
X160239Y46707D01*
Y46352D01*
X159757Y45630D01*
X159587Y44780D01*
X159757Y43929D01*
X160239Y43207D01*
X160470Y43053D01*
Y42506D01*
X160239Y42352D01*
X159757Y41631D01*
X159587Y40780D01*
X159757Y39928D01*
X160190Y39279D01*
X159757Y38631D01*
X159587Y37780D01*
X159757Y36928D01*
X160190Y36279D01*
X159757Y35631D01*
X159587Y34780D01*
X159757Y33928D01*
X160239Y33207D01*
Y32852D01*
X159757Y32131D01*
X159587Y31280D01*
X159757Y30428D01*
X160239Y29707D01*
X160470Y29553D01*
Y29006D01*
X160239Y28852D01*
X159757Y28130D01*
X159587Y27279D01*
X159757Y26428D01*
X160190Y25780D01*
X159757Y25131D01*
X159587Y24280D01*
X159757Y23428D01*
X160190Y22780D01*
X159757Y22130D01*
X159587Y21280D01*
X159757Y20428D01*
X160239Y19707D01*
Y19352D01*
X159757Y18631D01*
X159587Y17779D01*
X159757Y16928D01*
X160239Y16207D01*
X160470Y16053D01*
Y15506D01*
X160239Y15352D01*
X159757Y14630D01*
X159587Y13780D01*
X159757Y12928D01*
X160239Y12207D01*
X160098Y11700D01*
X160004Y11560D01*
X159888Y10974D01*
Y1421D01*
X91974D01*
Y12890D01*
X91858Y13475D01*
X91526Y13971D01*
X91030Y14303D01*
X90551Y14398D01*
Y14917D01*
X90951Y15183D01*
X91432Y15905D01*
X91602Y16756D01*
X91432Y17607D01*
X90951Y18328D01*
X90724Y18480D01*
Y19032D01*
X90951Y19183D01*
X91432Y19905D01*
X91602Y20756D01*
X91432Y21607D01*
X90951Y22328D01*
Y22683D01*
X91432Y23405D01*
X91602Y24256D01*
X91432Y25107D01*
X90999Y25756D01*
X91432Y26405D01*
X91438Y26433D01*
X91909Y26432D01*
X92082Y25566D01*
X92572Y24831D01*
X93307Y24341D01*
X94173Y24168D01*
X95040Y24341D01*
X95774Y24831D01*
X95822Y24903D01*
X99679D01*
X100264Y25019D01*
X100761Y25351D01*
X103372Y27962D01*
X117545D01*
X117593Y27891D01*
X118327Y27400D01*
X119193Y27227D01*
X119589Y27306D01*
X119975Y26989D01*
Y25703D01*
X117397Y23125D01*
X117066Y22629D01*
X116949Y22043D01*
Y18629D01*
X116878Y18582D01*
X116387Y17847D01*
X116215Y16981D01*
X116387Y16114D01*
X116878Y15380D01*
X117612Y14889D01*
X118479Y14717D01*
X119345Y14889D01*
X120080Y15380D01*
X120570Y16114D01*
X120743Y16981D01*
X120570Y17847D01*
X120080Y18582D01*
X120008Y18629D01*
Y21410D01*
X122586Y23988D01*
X122917Y24484D01*
X123034Y25069D01*
Y41138D01*
X122917Y41723D01*
X122586Y42219D01*
X121728Y43077D01*
X121745Y43161D01*
X121573Y44028D01*
X121082Y44762D01*
X120347Y45253D01*
X119481Y45425D01*
X118615Y45253D01*
X117880Y44762D01*
X117389Y44028D01*
X117217Y43161D01*
X117389Y42295D01*
X117880Y41560D01*
X118615Y41070D01*
X119481Y40897D01*
X119565Y40914D01*
X119975Y40504D01*
Y31994D01*
X119589Y31677D01*
X119193Y31755D01*
X118327Y31583D01*
X117593Y31092D01*
X117545Y31021D01*
X102738D01*
X102153Y30904D01*
X101657Y30573D01*
X99046Y27962D01*
X95822D01*
X95774Y28033D01*
X95040Y28524D01*
X94173Y28696D01*
X93307Y28524D01*
X92572Y28033D01*
X92082Y27299D01*
X92073Y27255D01*
X91602Y27256D01*
X91432Y28107D01*
X90999Y28756D01*
X91432Y29405D01*
X91602Y30256D01*
X91432Y31107D01*
X90951Y31828D01*
X90724Y31980D01*
Y32532D01*
X90951Y32683D01*
X91432Y33405D01*
X91602Y34256D01*
X91432Y35107D01*
X90951Y35828D01*
Y36183D01*
X91432Y36905D01*
X91602Y37756D01*
X91432Y38607D01*
X90999Y39256D01*
X91432Y39905D01*
X91602Y40756D01*
X91432Y41607D01*
X90999Y42256D01*
X91432Y42905D01*
X91602Y43756D01*
X91432Y44607D01*
X90951Y45328D01*
X90724Y45480D01*
Y46032D01*
X90951Y46183D01*
X91432Y46905D01*
X91602Y47756D01*
X91432Y48607D01*
X90951Y49328D01*
Y49683D01*
X91432Y50405D01*
X91602Y51256D01*
X91432Y52107D01*
X90999Y52756D01*
X91432Y53405D01*
X91602Y54256D01*
X91432Y55107D01*
X90951Y55828D01*
Y56310D01*
X91066Y56387D01*
X91397Y56883D01*
X91514Y57468D01*
Y73784D01*
X103603D01*
X103648Y73717D01*
X104146Y73387D01*
X104732Y73274D01*
X105316Y73393D01*
X105811Y73727D01*
X105869Y73814D01*
X106469Y73816D01*
X106597Y73624D01*
X107318Y73142D01*
X108169Y72973D01*
X109020Y73142D01*
X109669Y73576D01*
X110318Y73142D01*
X111169Y72973D01*
X112020Y73142D01*
X112572Y73511D01*
X112919Y73586D01*
X113267Y73511D01*
X113818Y73142D01*
X114669Y72973D01*
X115520Y73142D01*
X116242Y73624D01*
X116419Y73890D01*
X116919D01*
X117097Y73624D01*
X117818Y73142D01*
X118669Y72973D01*
X119520Y73142D01*
X120169Y73576D01*
X120818Y73142D01*
X121669Y72973D01*
X122520Y73142D01*
X123169Y73576D01*
X123818Y73142D01*
X124669Y72973D01*
X125520Y73142D01*
X126072Y73511D01*
X126419Y73586D01*
X126767Y73511D01*
X127318Y73142D01*
X128169Y72973D01*
X129020Y73142D01*
X129742Y73624D01*
X129919Y73890D01*
X130419D01*
X130597Y73624D01*
X131318Y73142D01*
X132169Y72973D01*
X133020Y73142D01*
X133669Y73576D01*
X134318Y73142D01*
X135169Y72973D01*
X136020Y73142D01*
X136669Y73576D01*
X137318Y73142D01*
X138169Y72973D01*
X139020Y73142D01*
X139571Y73511D01*
X139919Y73586D01*
X140267Y73511D01*
X140818Y73142D01*
X141669Y72973D01*
X142520Y73142D01*
X143242Y73624D01*
X143419Y73890D01*
X143919D01*
X144097Y73624D01*
X144818Y73142D01*
X145669Y72973D01*
X146520Y73142D01*
X147242Y73624D01*
X147462Y73955D01*
X147974Y74008D01*
X148079Y73977D01*
X148521Y73681D01*
X149106Y73565D01*
X149692Y73681D01*
X150188Y74013D01*
X150229Y74075D01*
X154322D01*
X154507Y73798D01*
D02*
G37*
G36*
X197329Y74337D02*
X197542Y74018D01*
X198263Y73536D01*
X199114Y73367D01*
X199965Y73536D01*
X200614Y73970D01*
X201263Y73536D01*
X202114Y73367D01*
X202965Y73536D01*
X203516Y73904D01*
X203864Y73980D01*
X204212Y73904D01*
X204763Y73536D01*
X205614Y73367D01*
X206465Y73536D01*
X207187Y74018D01*
X207364Y74284D01*
X207864D01*
X208042Y74018D01*
X208763Y73536D01*
X209614Y73367D01*
X210465Y73536D01*
X211114Y73970D01*
X211763Y73536D01*
X212614Y73367D01*
X213465Y73536D01*
X214114Y73970D01*
X214763Y73536D01*
X215614Y73367D01*
X216465Y73536D01*
X217016Y73904D01*
X217364Y73980D01*
X217712Y73904D01*
X218263Y73536D01*
X219114Y73367D01*
X219965Y73536D01*
X220687Y74018D01*
X220864Y74284D01*
X221364D01*
X221542Y74018D01*
X222263Y73536D01*
X223114Y73367D01*
X223965Y73536D01*
X224614Y73970D01*
X225263Y73536D01*
X226114Y73367D01*
X226965Y73536D01*
X227614Y73970D01*
X228263Y73536D01*
X229114Y73367D01*
X229965Y73536D01*
X230516Y73904D01*
X230864Y73980D01*
X231212Y73904D01*
X231763Y73536D01*
X232614Y73367D01*
X233465Y73536D01*
X234187Y74018D01*
X234364Y74284D01*
X234864D01*
X235042Y74018D01*
X235763Y73536D01*
X236614Y73367D01*
X237465Y73536D01*
X238187Y74018D01*
X238276Y74151D01*
X238877Y74151D01*
X238970Y74013D01*
X239466Y73681D01*
X240051Y73565D01*
X245138D01*
X250548Y68156D01*
Y1421D01*
X182632D01*
Y10974D01*
X182515Y11560D01*
X182184Y12056D01*
X181879Y12259D01*
X181688Y12394D01*
X181742Y12886D01*
X181984Y13247D01*
X182153Y14098D01*
X181984Y14949D01*
X181502Y15671D01*
X181275Y15822D01*
Y16374D01*
X181502Y16526D01*
X181984Y17247D01*
X182153Y18098D01*
X181984Y18949D01*
X181502Y19671D01*
Y20026D01*
X181984Y20747D01*
X182153Y21598D01*
X181984Y22449D01*
X181550Y23098D01*
X181984Y23747D01*
X182153Y24598D01*
X181984Y25449D01*
X181550Y26098D01*
X181984Y26747D01*
X182153Y27598D01*
X181984Y28449D01*
X181502Y29171D01*
X181275Y29322D01*
Y29874D01*
X181502Y30026D01*
X181984Y30747D01*
X182153Y31598D01*
X181984Y32449D01*
X181502Y33171D01*
Y33526D01*
X181984Y34247D01*
X182153Y35098D01*
X181984Y35950D01*
X181550Y36598D01*
X181984Y37247D01*
X182153Y38098D01*
X181984Y38949D01*
X181550Y39598D01*
X181984Y40247D01*
X182153Y41098D01*
X181984Y41949D01*
X181502Y42671D01*
X181275Y42823D01*
Y43374D01*
X181502Y43526D01*
X181984Y44247D01*
X182153Y45098D01*
X181984Y45950D01*
X181502Y46671D01*
Y47026D01*
X181984Y47747D01*
X182153Y48598D01*
X181984Y49450D01*
X181550Y50098D01*
X181984Y50747D01*
X182153Y51598D01*
X181984Y52450D01*
X181502Y53171D01*
X181341Y53278D01*
X181351Y53859D01*
X181617Y54037D01*
X181948Y54533D01*
X182065Y55118D01*
Y74075D01*
X194354D01*
X194398Y74010D01*
X194895Y73680D01*
X195481Y73565D01*
X196066Y73683D01*
X196561Y74016D01*
X196751Y74302D01*
X197325Y74338D01*
X197329Y74337D01*
D02*
G37*
G36*
X16636Y74377D02*
X16642Y74346D01*
X17124Y73624D01*
X17846Y73142D01*
X18697Y72973D01*
X19548Y73142D01*
X20197Y73576D01*
X20846Y73142D01*
X21697Y72973D01*
X22548Y73142D01*
X23099Y73511D01*
X23447Y73586D01*
X23795Y73511D01*
X24346Y73142D01*
X25197Y72973D01*
X26048Y73142D01*
X26769Y73624D01*
X26947Y73890D01*
X27447D01*
X27624Y73624D01*
X28346Y73142D01*
X29197Y72973D01*
X30048Y73142D01*
X30697Y73576D01*
X31346Y73142D01*
X32197Y72973D01*
X33048Y73142D01*
X33697Y73576D01*
X34346Y73142D01*
X35197Y72973D01*
X36048Y73142D01*
X36599Y73511D01*
X36947Y73586D01*
X37295Y73511D01*
X37846Y73142D01*
X38697Y72973D01*
X39548Y73142D01*
X40269Y73624D01*
X40447Y73890D01*
X40947D01*
X41124Y73624D01*
X41846Y73142D01*
X42697Y72973D01*
X43548Y73142D01*
X44197Y73576D01*
X44846Y73142D01*
X45697Y72973D01*
X46548Y73142D01*
X47197Y73576D01*
X47846Y73142D01*
X48697Y72973D01*
X49548Y73142D01*
X50099Y73511D01*
X50447Y73586D01*
X50795Y73511D01*
X51346Y73142D01*
X52197Y72973D01*
X53048Y73142D01*
X53769Y73624D01*
X53947Y73890D01*
X54447D01*
X54624Y73624D01*
X55346Y73142D01*
X56197Y72973D01*
X57048Y73142D01*
X57769Y73624D01*
X57867Y73771D01*
X58516Y73842D01*
X58757Y73681D01*
X59342Y73565D01*
X59928Y73681D01*
X60080Y73784D01*
X63971D01*
X69168Y68587D01*
Y57468D01*
X69284Y56883D01*
X69615Y56387D01*
X69889Y56204D01*
X69889Y55644D01*
X69687Y55510D01*
X69205Y54788D01*
X69036Y53937D01*
X69205Y53086D01*
X69639Y52437D01*
X69205Y51788D01*
X69036Y50937D01*
X69205Y50086D01*
X69687Y49365D01*
Y49009D01*
X69205Y48288D01*
X69036Y47437D01*
X69205Y46586D01*
X69687Y45864D01*
X69918Y45710D01*
Y45164D01*
X69687Y45009D01*
X69205Y44288D01*
X69036Y43437D01*
X69205Y42586D01*
X69639Y41937D01*
X69205Y41288D01*
X69036Y40437D01*
X69205Y39586D01*
X69639Y38937D01*
X69205Y38288D01*
X69036Y37437D01*
X69205Y36586D01*
X69687Y35864D01*
Y35509D01*
X69205Y34788D01*
X69036Y33937D01*
X69205Y33086D01*
X69687Y32364D01*
X69918Y32210D01*
Y31664D01*
X69687Y31510D01*
X69205Y30788D01*
X69036Y29937D01*
X69205Y29086D01*
X69639Y28437D01*
X69205Y27788D01*
X69036Y26937D01*
X69205Y26086D01*
X69639Y25437D01*
X69205Y24788D01*
X69036Y23937D01*
X69205Y23086D01*
X69687Y22365D01*
Y22009D01*
X69205Y21288D01*
X69036Y20437D01*
X69205Y19586D01*
X69687Y18865D01*
X69918Y18710D01*
Y18164D01*
X69687Y18010D01*
X69205Y17288D01*
X69036Y16437D01*
X69205Y15586D01*
X69687Y14864D01*
X69956Y14685D01*
Y14156D01*
X69678Y13971D01*
X69347Y13475D01*
X69230Y12890D01*
Y1421D01*
X0D01*
Y73482D01*
X102Y73566D01*
X14754D01*
X15042Y73623D01*
X15333Y73679D01*
X15336Y73681D01*
X15339Y73682D01*
X15584Y73846D01*
X15830Y74009D01*
X15832Y74012D01*
X15835Y74014D01*
X15999Y74259D01*
X16116Y74432D01*
X16409Y74438D01*
X16636Y74377D01*
D02*
G37*
%LPC*%
G36*
X218004Y169495D02*
X217332Y169406D01*
X216705Y169147D01*
X216168Y168734D01*
X215903D01*
X215365Y169147D01*
X214739Y169406D01*
X214067Y169495D01*
X213395Y169406D01*
X212768Y169147D01*
X212230Y168734D01*
X211818Y168196D01*
X211558Y167570D01*
X211470Y166898D01*
X211558Y166226D01*
X211818Y165599D01*
X212230Y165061D01*
X212768Y164648D01*
X213395Y164389D01*
X214067Y164301D01*
X214739Y164389D01*
X215365Y164648D01*
X215673Y164884D01*
X216035Y165014D01*
X216398Y164884D01*
X216475Y164826D01*
Y150133D01*
X216591Y149547D01*
X216922Y149051D01*
X217478Y148496D01*
X217458Y148394D01*
X217612Y147619D01*
X218050Y146963D01*
X218707Y146525D01*
X219481Y146370D01*
X220255Y146525D01*
X220911Y146963D01*
X221350Y147619D01*
X221504Y148394D01*
X221350Y149168D01*
X220911Y149824D01*
X220255Y150263D01*
X219983Y150317D01*
X219533Y150766D01*
Y164826D01*
X219840Y165061D01*
X220253Y165599D01*
X220512Y166226D01*
X220601Y166898D01*
X220512Y167570D01*
X220253Y168196D01*
X219840Y168734D01*
X219302Y169147D01*
X218676Y169406D01*
X218004Y169495D01*
D02*
G37*
G36*
X208768Y169472D02*
X203618D01*
Y164323D01*
X208768D01*
Y169472D01*
D02*
G37*
G36*
X189165Y164831D02*
X188299Y164659D01*
X187565Y164168D01*
X187074Y163433D01*
X186901Y162567D01*
X187074Y161700D01*
X187565Y160966D01*
X188299Y160475D01*
X189165Y160303D01*
X190032Y160475D01*
X190766Y160966D01*
X190814Y161038D01*
X196508D01*
X205063Y152482D01*
X205053Y152432D01*
X205222Y151581D01*
X205704Y150859D01*
X206426Y150377D01*
X207277Y150208D01*
X208128Y150377D01*
X208849Y150859D01*
X209331Y151581D01*
X209501Y152432D01*
X209331Y153283D01*
X208849Y154004D01*
X208128Y154486D01*
X207277Y154656D01*
X207226Y154645D01*
X198223Y163648D01*
X197727Y163980D01*
X197141Y164096D01*
X190814D01*
X190766Y164168D01*
X190032Y164659D01*
X189165Y164831D01*
D02*
G37*
G36*
X224206Y146656D02*
X223340Y146484D01*
X222605Y145993D01*
X222558Y145922D01*
X220430D01*
X219845Y145805D01*
X219349Y145474D01*
X219017Y144977D01*
X218901Y144392D01*
Y120174D01*
X215008Y116282D01*
X214780D01*
X214195Y116165D01*
X213699Y115834D01*
X209049Y111184D01*
X208717Y110687D01*
X208600Y110102D01*
Y105977D01*
X208294Y105742D01*
X207881Y105204D01*
X207621Y104578D01*
X207533Y103905D01*
X207621Y103233D01*
X207881Y102607D01*
X208294Y102069D01*
X208831Y101656D01*
X209458Y101397D01*
X210130Y101309D01*
X210802Y101397D01*
X211428Y101656D01*
X211966Y102069D01*
X212231D01*
X212768Y101656D01*
X213395Y101397D01*
X214067Y101309D01*
X214739Y101397D01*
X215365Y101656D01*
X215903Y102069D01*
X216168D01*
X216705Y101656D01*
X217332Y101397D01*
X218004Y101309D01*
X218676Y101397D01*
X219302Y101656D01*
X219840Y102069D01*
X220105D01*
X220642Y101656D01*
X221269Y101397D01*
X221941Y101309D01*
X222613Y101397D01*
X222803Y101476D01*
X223303Y101331D01*
Y101331D01*
X228453D01*
Y106480D01*
X223470D01*
Y108595D01*
X223354Y109180D01*
X223022Y109676D01*
X219928Y112770D01*
X219432Y113102D01*
X218846Y113218D01*
X216946D01*
X216797Y113520D01*
X216771Y113718D01*
X221512Y118459D01*
X221843Y118956D01*
X221960Y119541D01*
Y142863D01*
X222558D01*
X222605Y142791D01*
X223340Y142300D01*
X224206Y142128D01*
X225073Y142300D01*
X225807Y142791D01*
X226298Y143526D01*
X226470Y144392D01*
X226298Y145258D01*
X225807Y145993D01*
X225073Y146484D01*
X224206Y146656D01*
D02*
G37*
%LPD*%
G36*
X215190Y110678D02*
X215125Y110606D01*
X215064Y110525D01*
X215007Y110435D01*
X214956Y110336D01*
X214908Y110228D01*
X214865Y110111D01*
X214827Y109986D01*
X214764Y109707D01*
X214740Y109555D01*
X213360Y110935D01*
X213512Y110960D01*
X213790Y111023D01*
X213916Y111061D01*
X214033Y111103D01*
X214141Y111151D01*
X214240Y111203D01*
X214330Y111259D01*
X214411Y111320D01*
X214483Y111386D01*
X215190Y110678D01*
D02*
G37*
G36*
X218671Y108518D02*
X218571Y108427D01*
X218481Y108336D01*
X218403Y108243D01*
X218334Y108149D01*
X218276Y108053D01*
X218229Y107955D01*
X218192Y107857D01*
X218166Y107756D01*
X218150Y107655D01*
X218145Y107552D01*
X217145Y107805D01*
X217142Y107914D01*
X217120Y108128D01*
X217101Y108234D01*
X217047Y108442D01*
X217011Y108545D01*
X216924Y108747D01*
X216872Y108846D01*
X218671Y108518D01*
D02*
G37*
G36*
X222448Y106242D02*
X222471Y106130D01*
X222509Y106007D01*
X222562Y105874D01*
X222631Y105730D01*
X222813Y105410D01*
X222927Y105234D01*
X223200Y104851D01*
X220682D01*
X220826Y105048D01*
X221168Y105575D01*
X221251Y105730D01*
X221373Y106007D01*
X221411Y106130D01*
X221433Y106242D01*
X221441Y106344D01*
X222441D01*
X222448Y106242D01*
D02*
G37*
%LPC*%
G36*
X36902Y169495D02*
X36229Y169406D01*
X35603Y169147D01*
X35296Y168911D01*
X34933Y168781D01*
X34571Y168911D01*
X34263Y169147D01*
X33637Y169406D01*
X32965Y169495D01*
X32292Y169406D01*
X31666Y169147D01*
X31128Y168734D01*
X30716Y168196D01*
X30456Y167570D01*
X30367Y166898D01*
X30456Y166226D01*
X30716Y165599D01*
X31128Y165061D01*
X31666Y164648D01*
X32292Y164389D01*
X32965Y164301D01*
X33637Y164389D01*
X34263Y164648D01*
X34571Y164884D01*
X34933Y165014D01*
X35296Y164884D01*
X35372Y164826D01*
Y150133D01*
X35489Y149547D01*
X35820Y149051D01*
X36376Y148496D01*
X36355Y148394D01*
X36509Y147619D01*
X36948Y146963D01*
X37604Y146525D01*
X38379Y146370D01*
X39153Y146525D01*
X39809Y146963D01*
X40248Y147619D01*
X40402Y148394D01*
X40248Y149168D01*
X39809Y149824D01*
X39153Y150263D01*
X38880Y150317D01*
X38431Y150766D01*
Y164826D01*
X38738Y165061D01*
X39151Y165599D01*
X39410Y166226D01*
X39499Y166898D01*
X39410Y167570D01*
X39151Y168196D01*
X38738Y168734D01*
X38200Y169147D01*
X37574Y169406D01*
X36902Y169495D01*
D02*
G37*
G36*
X27665Y169472D02*
X22516D01*
Y164323D01*
X27665D01*
Y169472D01*
D02*
G37*
G36*
X8063Y164831D02*
X7197Y164659D01*
X6462Y164168D01*
X5971Y163433D01*
X5799Y162567D01*
X5971Y161700D01*
X6462Y160966D01*
X7197Y160475D01*
X8063Y160303D01*
X8929Y160475D01*
X9664Y160966D01*
X9712Y161038D01*
X15405D01*
X23961Y152482D01*
X23950Y152432D01*
X24120Y151581D01*
X24602Y150859D01*
X25323Y150377D01*
X26174Y150208D01*
X27025Y150377D01*
X27747Y150859D01*
X28229Y151581D01*
X28398Y152432D01*
X28229Y153283D01*
X27747Y154004D01*
X27025Y154486D01*
X26174Y154656D01*
X26123Y154645D01*
X17120Y163648D01*
X16624Y163980D01*
X16039Y164096D01*
X9712D01*
X9664Y164168D01*
X8929Y164659D01*
X8063Y164831D01*
D02*
G37*
G36*
X43104Y146656D02*
X42238Y146484D01*
X41503Y145993D01*
X41455Y145922D01*
X39328D01*
X38743Y145805D01*
X38247Y145474D01*
X37915Y144977D01*
X37799Y144392D01*
Y120174D01*
X33906Y116282D01*
X33678D01*
X33092Y116165D01*
X32596Y115834D01*
X27946Y111184D01*
X27615Y110687D01*
X27498Y110102D01*
Y105977D01*
X27191Y105742D01*
X26779Y105204D01*
X26519Y104578D01*
X26430Y103905D01*
X26519Y103233D01*
X26779Y102607D01*
X27191Y102069D01*
X27729Y101656D01*
X28355Y101397D01*
X29028Y101309D01*
X29700Y101397D01*
X30326Y101656D01*
X30634Y101892D01*
X30996Y102022D01*
X31359Y101892D01*
X31666Y101656D01*
X32292Y101397D01*
X32965Y101309D01*
X33637Y101397D01*
X34263Y101656D01*
X34571Y101892D01*
X34933Y102022D01*
X35296Y101892D01*
X35603Y101656D01*
X36229Y101397D01*
X36902Y101309D01*
X37574Y101397D01*
X38200Y101656D01*
X38508Y101892D01*
X38870Y102022D01*
X39233Y101892D01*
X39540Y101656D01*
X40166Y101397D01*
X40839Y101309D01*
X41511Y101397D01*
X41701Y101476D01*
X42201Y101331D01*
Y101331D01*
X47350D01*
Y106480D01*
X42368D01*
Y108595D01*
X42252Y109180D01*
X41920Y109676D01*
X38826Y112770D01*
X38329Y113102D01*
X37744Y113218D01*
X35844D01*
X35695Y113520D01*
X35668Y113718D01*
X40409Y118459D01*
X40741Y118956D01*
X40857Y119541D01*
Y142863D01*
X41455D01*
X41503Y142791D01*
X42238Y142300D01*
X43104Y142128D01*
X43970Y142300D01*
X44705Y142791D01*
X45196Y143526D01*
X45368Y144392D01*
X45196Y145258D01*
X44705Y145993D01*
X43970Y146484D01*
X43104Y146656D01*
D02*
G37*
G36*
X28430Y143425D02*
X27563Y143253D01*
X26829Y142762D01*
X26338Y142028D01*
X26166Y141161D01*
X26338Y140295D01*
X26829Y139560D01*
X27563Y139070D01*
X28430Y138897D01*
X28514Y138914D01*
X28924Y138504D01*
Y129994D01*
X28537Y129677D01*
X28142Y129755D01*
X27276Y129583D01*
X26542Y129092D01*
X26494Y129021D01*
X11687D01*
X11102Y128904D01*
X10606Y128573D01*
X7994Y125962D01*
X4771D01*
X4723Y126033D01*
X3988Y126524D01*
X3122Y126696D01*
X2256Y126524D01*
X1521Y126033D01*
X1030Y125299D01*
X858Y124432D01*
X1030Y123566D01*
X1521Y122831D01*
X2256Y122341D01*
X3122Y122168D01*
X3988Y122341D01*
X4723Y122831D01*
X4771Y122903D01*
X8628D01*
X9213Y123019D01*
X9709Y123351D01*
X12321Y125962D01*
X26494D01*
X26542Y125891D01*
X27276Y125400D01*
X28142Y125227D01*
X28537Y125306D01*
X28924Y124989D01*
Y123703D01*
X26346Y121125D01*
X26014Y120629D01*
X25898Y120043D01*
Y116629D01*
X25826Y116582D01*
X25336Y115847D01*
X25163Y114981D01*
X25336Y114114D01*
X25826Y113380D01*
X26561Y112889D01*
X27427Y112717D01*
X28294Y112889D01*
X29028Y113380D01*
X29519Y114114D01*
X29691Y114981D01*
X29519Y115847D01*
X29028Y116582D01*
X28957Y116629D01*
Y119410D01*
X31535Y121988D01*
X31866Y122484D01*
X31983Y123069D01*
Y139138D01*
X31866Y139723D01*
X31535Y140219D01*
X30677Y141077D01*
X30694Y141161D01*
X30521Y142028D01*
X30031Y142762D01*
X29296Y143253D01*
X28430Y143425D01*
D02*
G37*
%LPD*%
G36*
X34088Y110678D02*
X34022Y110606D01*
X33961Y110525D01*
X33905Y110435D01*
X33853Y110336D01*
X33806Y110228D01*
X33763Y110111D01*
X33725Y109986D01*
X33662Y109707D01*
X33637Y109555D01*
X32257Y110935D01*
X32410Y110960D01*
X32688Y111023D01*
X32814Y111061D01*
X32930Y111103D01*
X33038Y111151D01*
X33137Y111203D01*
X33227Y111259D01*
X33309Y111320D01*
X33381Y111386D01*
X34088Y110678D01*
D02*
G37*
G36*
X37568Y108518D02*
X37468Y108427D01*
X37379Y108336D01*
X37300Y108243D01*
X37232Y108149D01*
X37174Y108053D01*
X37127Y107955D01*
X37090Y107857D01*
X37064Y107756D01*
X37048Y107655D01*
X37042Y107552D01*
X36042Y107805D01*
X36040Y107914D01*
X36018Y108128D01*
X35999Y108234D01*
X35944Y108442D01*
X35909Y108545D01*
X35821Y108747D01*
X35770Y108846D01*
X37568Y108518D01*
D02*
G37*
G36*
X41346Y106242D02*
X41369Y106130D01*
X41407Y106007D01*
X41460Y105874D01*
X41528Y105730D01*
X41711Y105410D01*
X41824Y105234D01*
X42098Y104851D01*
X39579D01*
X39724Y105048D01*
X40065Y105575D01*
X40149Y105730D01*
X40270Y106007D01*
X40308Y106130D01*
X40331Y106242D01*
X40339Y106344D01*
X41339D01*
X41346Y106242D01*
D02*
G37*
%LPC*%
G36*
X127453Y169495D02*
X126781Y169406D01*
X126154Y169147D01*
X125847Y168911D01*
X125484Y168781D01*
X125122Y168911D01*
X124814Y169147D01*
X124188Y169406D01*
X123516Y169495D01*
X122844Y169406D01*
X122217Y169147D01*
X121679Y168734D01*
X121267Y168196D01*
X121007Y167570D01*
X120919Y166898D01*
X121007Y166226D01*
X121267Y165599D01*
X121679Y165061D01*
X122217Y164648D01*
X122844Y164389D01*
X123516Y164301D01*
X124188Y164389D01*
X124814Y164648D01*
X125122Y164884D01*
X125484Y165014D01*
X125847Y164884D01*
X125923Y164826D01*
Y150133D01*
X126040Y149547D01*
X126371Y149051D01*
X126927Y148496D01*
X126907Y148394D01*
X127060Y147619D01*
X127499Y146963D01*
X128156Y146525D01*
X128930Y146370D01*
X129704Y146525D01*
X130360Y146963D01*
X130799Y147619D01*
X130953Y148394D01*
X130799Y149168D01*
X130360Y149824D01*
X129704Y150263D01*
X129431Y150317D01*
X128982Y150766D01*
Y164826D01*
X129289Y165061D01*
X129702Y165599D01*
X129961Y166226D01*
X130050Y166898D01*
X129961Y167570D01*
X129702Y168196D01*
X129289Y168734D01*
X128751Y169147D01*
X128125Y169406D01*
X127453Y169495D01*
D02*
G37*
G36*
X118217Y169472D02*
X113067D01*
Y164323D01*
X118217D01*
Y169472D01*
D02*
G37*
G36*
X98614Y164831D02*
X97748Y164659D01*
X97013Y164168D01*
X96522Y163433D01*
X96350Y162567D01*
X96522Y161700D01*
X97013Y160966D01*
X97748Y160475D01*
X98614Y160303D01*
X99481Y160475D01*
X100215Y160966D01*
X100263Y161038D01*
X105957D01*
X114512Y152482D01*
X114502Y152432D01*
X114671Y151581D01*
X115153Y150859D01*
X115875Y150377D01*
X116726Y150208D01*
X117577Y150377D01*
X118298Y150859D01*
X118780Y151581D01*
X118949Y152432D01*
X118780Y153283D01*
X118298Y154004D01*
X117577Y154486D01*
X116726Y154656D01*
X116675Y154645D01*
X107672Y163648D01*
X107176Y163980D01*
X106590Y164096D01*
X100263D01*
X100215Y164168D01*
X99481Y164659D01*
X98614Y164831D01*
D02*
G37*
G36*
X133655Y146656D02*
X132789Y146484D01*
X132054Y145993D01*
X132007Y145922D01*
X129879D01*
X129294Y145805D01*
X128798Y145474D01*
X128466Y144977D01*
X128350Y144392D01*
Y120174D01*
X124457Y116282D01*
X124229D01*
X123644Y116165D01*
X123147Y115834D01*
X118497Y111184D01*
X118166Y110687D01*
X118049Y110102D01*
Y105977D01*
X117742Y105742D01*
X117330Y105204D01*
X117070Y104578D01*
X116982Y103905D01*
X117070Y103233D01*
X117330Y102607D01*
X117742Y102069D01*
X118280Y101656D01*
X118907Y101397D01*
X119579Y101309D01*
X120251Y101397D01*
X120877Y101656D01*
X121415Y102069D01*
X121679D01*
X122217Y101656D01*
X122844Y101397D01*
X123516Y101309D01*
X124188Y101397D01*
X124814Y101656D01*
X125352Y102069D01*
X125616D01*
X126154Y101656D01*
X126781Y101397D01*
X127453Y101309D01*
X128125Y101397D01*
X128751Y101656D01*
X129059Y101892D01*
X129421Y102022D01*
X129784Y101892D01*
X130091Y101656D01*
X130718Y101397D01*
X131390Y101309D01*
X132062Y101397D01*
X132252Y101476D01*
X132752Y101331D01*
Y101331D01*
X137902D01*
Y106480D01*
X132919D01*
Y108595D01*
X132803Y109180D01*
X132471Y109676D01*
X129377Y112770D01*
X128881Y113102D01*
X128295Y113218D01*
X126395D01*
X126246Y113520D01*
X126220Y113718D01*
X130961Y118459D01*
X131292Y118956D01*
X131409Y119541D01*
Y142863D01*
X132007D01*
X132054Y142791D01*
X132789Y142300D01*
X133655Y142128D01*
X134521Y142300D01*
X135256Y142791D01*
X135747Y143526D01*
X135919Y144392D01*
X135747Y145258D01*
X135256Y145993D01*
X134521Y146484D01*
X133655Y146656D01*
D02*
G37*
G36*
X118981Y143425D02*
X118115Y143253D01*
X117380Y142762D01*
X116889Y142028D01*
X116717Y141161D01*
X116889Y140295D01*
X117380Y139560D01*
X118115Y139070D01*
X118981Y138897D01*
X119065Y138914D01*
X119475Y138504D01*
Y129994D01*
X119089Y129677D01*
X118693Y129755D01*
X117827Y129583D01*
X117093Y129092D01*
X117045Y129021D01*
X102238D01*
X101653Y128904D01*
X101157Y128573D01*
X98546Y125962D01*
X95322D01*
X95274Y126033D01*
X94540Y126524D01*
X93673Y126696D01*
X92807Y126524D01*
X92072Y126033D01*
X91582Y125299D01*
X91409Y124432D01*
X91582Y123566D01*
X92072Y122831D01*
X92807Y122341D01*
X93673Y122168D01*
X94540Y122341D01*
X95274Y122831D01*
X95322Y122903D01*
X99179D01*
X99764Y123019D01*
X100261Y123351D01*
X102872Y125962D01*
X117045D01*
X117093Y125891D01*
X117827Y125400D01*
X118693Y125227D01*
X119089Y125306D01*
X119475Y124989D01*
Y123703D01*
X116897Y121125D01*
X116566Y120629D01*
X116449Y120043D01*
Y116629D01*
X116378Y116582D01*
X115887Y115847D01*
X115715Y114981D01*
X115887Y114114D01*
X116378Y113380D01*
X117112Y112889D01*
X117979Y112717D01*
X118845Y112889D01*
X119580Y113380D01*
X120070Y114114D01*
X120243Y114981D01*
X120070Y115847D01*
X119580Y116582D01*
X119508Y116629D01*
Y119410D01*
X122086Y121988D01*
X122417Y122484D01*
X122534Y123069D01*
Y139138D01*
X122417Y139723D01*
X122086Y140219D01*
X121228Y141077D01*
X121245Y141161D01*
X121073Y142028D01*
X120582Y142762D01*
X119847Y143253D01*
X118981Y143425D01*
D02*
G37*
%LPD*%
G36*
X124639Y110678D02*
X124574Y110606D01*
X124513Y110525D01*
X124456Y110435D01*
X124404Y110336D01*
X124357Y110228D01*
X124314Y110111D01*
X124276Y109986D01*
X124213Y109707D01*
X124189Y109555D01*
X122809Y110935D01*
X122961Y110960D01*
X123239Y111023D01*
X123365Y111061D01*
X123482Y111103D01*
X123590Y111151D01*
X123689Y111203D01*
X123779Y111259D01*
X123860Y111320D01*
X123932Y111386D01*
X124639Y110678D01*
D02*
G37*
G36*
X128120Y108518D02*
X128020Y108427D01*
X127930Y108336D01*
X127851Y108243D01*
X127783Y108149D01*
X127725Y108053D01*
X127678Y107955D01*
X127641Y107857D01*
X127615Y107756D01*
X127599Y107655D01*
X127594Y107552D01*
X126594Y107805D01*
X126591Y107914D01*
X126569Y108128D01*
X126550Y108234D01*
X126495Y108442D01*
X126460Y108545D01*
X126373Y108747D01*
X126321Y108846D01*
X128120Y108518D01*
D02*
G37*
G36*
X131897Y106242D02*
X131920Y106130D01*
X131958Y106007D01*
X132011Y105874D01*
X132080Y105730D01*
X132262Y105410D01*
X132376Y105234D01*
X132649Y104851D01*
X130131D01*
X130275Y105048D01*
X130616Y105575D01*
X130700Y105730D01*
X130821Y106007D01*
X130859Y106130D01*
X130882Y106242D01*
X130890Y106344D01*
X131890D01*
X131897Y106242D01*
D02*
G37*
%LPC*%
G36*
X127953Y71495D02*
X127281Y71406D01*
X126654Y71147D01*
X126347Y70911D01*
X125984Y70781D01*
X125622Y70911D01*
X125314Y71147D01*
X124688Y71406D01*
X124016Y71495D01*
X123344Y71406D01*
X122717Y71147D01*
X122179Y70734D01*
X121767Y70196D01*
X121507Y69570D01*
X121419Y68898D01*
X121507Y68226D01*
X121767Y67599D01*
X122179Y67061D01*
X122717Y66649D01*
X123344Y66389D01*
X124016Y66301D01*
X124688Y66389D01*
X125314Y66649D01*
X125622Y66884D01*
X125984Y67014D01*
X126347Y66884D01*
X126423Y66826D01*
Y52133D01*
X126540Y51547D01*
X126871Y51051D01*
X127427Y50496D01*
X127407Y50394D01*
X127560Y49619D01*
X127999Y48963D01*
X128656Y48524D01*
X129430Y48371D01*
X130204Y48524D01*
X130860Y48963D01*
X131299Y49619D01*
X131453Y50394D01*
X131299Y51168D01*
X130860Y51824D01*
X130204Y52263D01*
X129931Y52317D01*
X129482Y52766D01*
Y66826D01*
X129789Y67061D01*
X130202Y67599D01*
X130461Y68226D01*
X130550Y68898D01*
X130461Y69570D01*
X130202Y70196D01*
X129789Y70734D01*
X129251Y71147D01*
X128625Y71406D01*
X127953Y71495D01*
D02*
G37*
G36*
X118717Y71472D02*
X113567D01*
Y66323D01*
X118717D01*
Y71472D01*
D02*
G37*
G36*
X99114Y66831D02*
X98248Y66659D01*
X97513Y66168D01*
X97022Y65433D01*
X96850Y64567D01*
X97022Y63700D01*
X97513Y62966D01*
X98248Y62475D01*
X99114Y62303D01*
X99981Y62475D01*
X100715Y62966D01*
X100763Y63038D01*
X106457D01*
X115012Y54483D01*
X115002Y54432D01*
X115171Y53581D01*
X115653Y52859D01*
X116375Y52377D01*
X117226Y52208D01*
X118077Y52377D01*
X118798Y52859D01*
X119280Y53581D01*
X119449Y54432D01*
X119280Y55283D01*
X118798Y56004D01*
X118077Y56486D01*
X117226Y56656D01*
X117175Y56645D01*
X108172Y65648D01*
X107676Y65980D01*
X107090Y66096D01*
X100763D01*
X100715Y66168D01*
X99981Y66659D01*
X99114Y66831D01*
D02*
G37*
G36*
X134155Y48656D02*
X133289Y48484D01*
X132554Y47993D01*
X132507Y47921D01*
X130379D01*
X129794Y47805D01*
X129298Y47474D01*
X128966Y46977D01*
X128850Y46392D01*
Y22174D01*
X124957Y18282D01*
X124729D01*
X124144Y18165D01*
X123647Y17834D01*
X118997Y13183D01*
X118666Y12687D01*
X118549Y12102D01*
Y7977D01*
X118242Y7742D01*
X117830Y7204D01*
X117570Y6578D01*
X117482Y5906D01*
X117570Y5233D01*
X117830Y4607D01*
X118242Y4069D01*
X118780Y3656D01*
X119407Y3397D01*
X120079Y3308D01*
X120751Y3397D01*
X121377Y3656D01*
X121685Y3892D01*
X122047Y4022D01*
X122410Y3892D01*
X122717Y3656D01*
X123344Y3397D01*
X124016Y3308D01*
X124688Y3397D01*
X125314Y3656D01*
X125622Y3892D01*
X125984Y4022D01*
X126347Y3892D01*
X126654Y3656D01*
X127281Y3397D01*
X127953Y3308D01*
X128625Y3397D01*
X129251Y3656D01*
X129559Y3892D01*
X129921Y4022D01*
X130284Y3892D01*
X130591Y3656D01*
X131218Y3397D01*
X131890Y3308D01*
X132562Y3397D01*
X132752Y3476D01*
X133252Y3331D01*
Y3331D01*
X138402D01*
Y8480D01*
X133419D01*
Y10594D01*
X133303Y11180D01*
X132971Y11676D01*
X129877Y14770D01*
X129381Y15102D01*
X128795Y15218D01*
X126895D01*
X126746Y15520D01*
X126720Y15718D01*
X131461Y20459D01*
X131792Y20956D01*
X131909Y21541D01*
Y44863D01*
X132507D01*
X132554Y44791D01*
X133289Y44300D01*
X134155Y44128D01*
X135021Y44300D01*
X135756Y44791D01*
X136247Y45526D01*
X136419Y46392D01*
X136247Y47258D01*
X135756Y47993D01*
X135021Y48484D01*
X134155Y48656D01*
D02*
G37*
%LPD*%
G36*
X125139Y12678D02*
X125074Y12606D01*
X125013Y12525D01*
X124956Y12435D01*
X124904Y12336D01*
X124857Y12228D01*
X124814Y12111D01*
X124776Y11986D01*
X124713Y11708D01*
X124689Y11555D01*
X123309Y12935D01*
X123461Y12960D01*
X123739Y13023D01*
X123865Y13061D01*
X123982Y13104D01*
X124090Y13151D01*
X124189Y13203D01*
X124279Y13259D01*
X124360Y13320D01*
X124432Y13386D01*
X125139Y12678D01*
D02*
G37*
G36*
X128620Y10518D02*
X128520Y10428D01*
X128430Y10336D01*
X128351Y10243D01*
X128283Y10148D01*
X128225Y10053D01*
X128178Y9955D01*
X128141Y9857D01*
X128115Y9757D01*
X128099Y9655D01*
X128094Y9552D01*
X127094Y9805D01*
X127091Y9914D01*
X127069Y10129D01*
X127050Y10234D01*
X126995Y10442D01*
X126960Y10545D01*
X126873Y10746D01*
X126821Y10846D01*
X128620Y10518D01*
D02*
G37*
G36*
X132397Y8242D02*
X132420Y8130D01*
X132458Y8007D01*
X132511Y7874D01*
X132580Y7730D01*
X132762Y7410D01*
X132876Y7234D01*
X133149Y6851D01*
X130631D01*
X130775Y7048D01*
X131116Y7575D01*
X131200Y7730D01*
X131321Y8007D01*
X131359Y8130D01*
X131382Y8242D01*
X131390Y8344D01*
X132390D01*
X132397Y8242D01*
D02*
G37*
%LPC*%
G36*
X218504Y71495D02*
X217832Y71406D01*
X217205Y71147D01*
X216898Y70911D01*
X216535Y70781D01*
X216173Y70911D01*
X215865Y71147D01*
X215239Y71406D01*
X214567Y71495D01*
X213895Y71406D01*
X213268Y71147D01*
X212731Y70734D01*
X212318Y70196D01*
X212058Y69570D01*
X211970Y68898D01*
X212058Y68226D01*
X212318Y67599D01*
X212731Y67061D01*
X213268Y66649D01*
X213895Y66389D01*
X214567Y66301D01*
X215239Y66389D01*
X215865Y66649D01*
X216173Y66884D01*
X216535Y67014D01*
X216898Y66884D01*
X216974Y66826D01*
Y52133D01*
X217091Y51547D01*
X217423Y51051D01*
X217978Y50496D01*
X217958Y50394D01*
X218112Y49619D01*
X218550Y48963D01*
X219207Y48524D01*
X219981Y48371D01*
X220755Y48524D01*
X221411Y48963D01*
X221850Y49619D01*
X222004Y50394D01*
X221850Y51168D01*
X221411Y51824D01*
X220755Y52263D01*
X220482Y52317D01*
X220033Y52766D01*
Y66826D01*
X220340Y67061D01*
X220753Y67599D01*
X221012Y68226D01*
X221101Y68898D01*
X221012Y69570D01*
X220753Y70196D01*
X220340Y70734D01*
X219802Y71147D01*
X219176Y71406D01*
X218504Y71495D01*
D02*
G37*
G36*
X209268Y71472D02*
X204118D01*
Y66323D01*
X209268D01*
Y71472D01*
D02*
G37*
G36*
X189665Y66831D02*
X188799Y66659D01*
X188065Y66168D01*
X187574Y65433D01*
X187401Y64567D01*
X187574Y63700D01*
X188065Y62966D01*
X188799Y62475D01*
X189665Y62303D01*
X190532Y62475D01*
X191266Y62966D01*
X191314Y63038D01*
X197008D01*
X205563Y54483D01*
X205553Y54432D01*
X205722Y53581D01*
X206204Y52859D01*
X206926Y52377D01*
X207777Y52208D01*
X208628Y52377D01*
X209349Y52859D01*
X209831Y53581D01*
X210000Y54432D01*
X209831Y55283D01*
X209349Y56004D01*
X208628Y56486D01*
X207777Y56656D01*
X207726Y56645D01*
X198723Y65648D01*
X198227Y65980D01*
X197641Y66096D01*
X191314D01*
X191266Y66168D01*
X190532Y66659D01*
X189665Y66831D01*
D02*
G37*
G36*
X224706Y48656D02*
X223840Y48484D01*
X223106Y47993D01*
X223058Y47921D01*
X220930D01*
X220345Y47805D01*
X219849Y47474D01*
X219517Y46977D01*
X219401Y46392D01*
Y22174D01*
X215508Y18282D01*
X215280D01*
X214695Y18165D01*
X214199Y17834D01*
X209548Y13183D01*
X209217Y12687D01*
X209101Y12102D01*
Y7977D01*
X208793Y7742D01*
X208381Y7204D01*
X208121Y6578D01*
X208033Y5906D01*
X208121Y5233D01*
X208381Y4607D01*
X208793Y4069D01*
X209331Y3656D01*
X209958Y3397D01*
X210630Y3308D01*
X211302Y3397D01*
X211928Y3656D01*
X212466Y4069D01*
X212731D01*
X213268Y3656D01*
X213895Y3397D01*
X214567Y3308D01*
X215239Y3397D01*
X215865Y3656D01*
X216403Y4069D01*
X216668D01*
X217205Y3656D01*
X217832Y3397D01*
X218504Y3308D01*
X219176Y3397D01*
X219802Y3656D01*
X220340Y4069D01*
X220605D01*
X221142Y3656D01*
X221769Y3397D01*
X222441Y3308D01*
X223113Y3397D01*
X223303Y3476D01*
X223803Y3331D01*
Y3331D01*
X228953D01*
Y8480D01*
X223970D01*
Y10594D01*
X223854Y11180D01*
X223522Y11676D01*
X220428Y14770D01*
X219932Y15102D01*
X219346Y15218D01*
X217446D01*
X217297Y15520D01*
X217271Y15718D01*
X222012Y20459D01*
X222343Y20956D01*
X222460Y21541D01*
Y44863D01*
X223058D01*
X223106Y44791D01*
X223840Y44300D01*
X224706Y44128D01*
X225573Y44300D01*
X226307Y44791D01*
X226798Y45526D01*
X226970Y46392D01*
X226798Y47258D01*
X226307Y47993D01*
X225573Y48484D01*
X224706Y48656D01*
D02*
G37*
G36*
X210032Y45425D02*
X209166Y45253D01*
X208431Y44762D01*
X207941Y44028D01*
X207768Y43161D01*
X207941Y42295D01*
X208431Y41560D01*
X209166Y41070D01*
X210032Y40897D01*
X210116Y40914D01*
X210526Y40504D01*
Y31994D01*
X210140Y31677D01*
X209745Y31755D01*
X208878Y31583D01*
X208144Y31092D01*
X208096Y31021D01*
X193289D01*
X192704Y30904D01*
X192208Y30573D01*
X189597Y27962D01*
X186373D01*
X186325Y28033D01*
X185591Y28524D01*
X184724Y28696D01*
X183858Y28524D01*
X183124Y28033D01*
X182633Y27299D01*
X182460Y26432D01*
X182633Y25566D01*
X183124Y24831D01*
X183858Y24341D01*
X184724Y24168D01*
X185591Y24341D01*
X186325Y24831D01*
X186373Y24903D01*
X190230D01*
X190816Y25019D01*
X191312Y25351D01*
X193923Y27962D01*
X208096D01*
X208144Y27891D01*
X208878Y27400D01*
X209745Y27227D01*
X210140Y27306D01*
X210526Y26989D01*
Y25703D01*
X207948Y23125D01*
X207617Y22629D01*
X207500Y22043D01*
Y18629D01*
X207429Y18582D01*
X206938Y17847D01*
X206766Y16981D01*
X206938Y16114D01*
X207429Y15380D01*
X208163Y14889D01*
X209030Y14717D01*
X209896Y14889D01*
X210631Y15380D01*
X211121Y16114D01*
X211294Y16981D01*
X211121Y17847D01*
X210631Y18582D01*
X210559Y18629D01*
Y21410D01*
X213137Y23988D01*
X213469Y24484D01*
X213585Y25069D01*
Y41138D01*
X213469Y41723D01*
X213137Y42219D01*
X212279Y43077D01*
X212296Y43161D01*
X212124Y44028D01*
X211633Y44762D01*
X210898Y45253D01*
X210032Y45425D01*
D02*
G37*
%LPD*%
G36*
X215690Y12678D02*
X215625Y12606D01*
X215564Y12525D01*
X215507Y12435D01*
X215456Y12336D01*
X215408Y12228D01*
X215366Y12111D01*
X215327Y11986D01*
X215265Y11708D01*
X215240Y11555D01*
X213860Y12935D01*
X214012Y12960D01*
X214290Y13023D01*
X214416Y13061D01*
X214533Y13104D01*
X214641Y13151D01*
X214740Y13203D01*
X214830Y13259D01*
X214911Y13320D01*
X214983Y13386D01*
X215690Y12678D01*
D02*
G37*
G36*
X219171Y10518D02*
X219071Y10428D01*
X218981Y10336D01*
X218902Y10243D01*
X218834Y10148D01*
X218776Y10053D01*
X218729Y9955D01*
X218692Y9857D01*
X218666Y9757D01*
X218650Y9655D01*
X218645Y9552D01*
X217645Y9805D01*
X217642Y9914D01*
X217620Y10129D01*
X217601Y10234D01*
X217547Y10442D01*
X217511Y10545D01*
X217424Y10746D01*
X217372Y10846D01*
X219171Y10518D01*
D02*
G37*
G36*
X222949Y8242D02*
X222971Y8130D01*
X223009Y8007D01*
X223062Y7874D01*
X223131Y7730D01*
X223313Y7410D01*
X223427Y7234D01*
X223700Y6851D01*
X221182D01*
X221326Y7048D01*
X221668Y7575D01*
X221751Y7730D01*
X221873Y8007D01*
X221911Y8130D01*
X221933Y8242D01*
X221941Y8344D01*
X222941D01*
X222949Y8242D01*
D02*
G37*
%LPC*%
G36*
X37402Y71495D02*
X36729Y71406D01*
X36103Y71147D01*
X35796Y70911D01*
X35433Y70781D01*
X35071Y70911D01*
X34763Y71147D01*
X34137Y71406D01*
X33465Y71495D01*
X32792Y71406D01*
X32166Y71147D01*
X31628Y70734D01*
X31216Y70196D01*
X30956Y69570D01*
X30867Y68898D01*
X30956Y68226D01*
X31216Y67599D01*
X31628Y67061D01*
X32166Y66649D01*
X32792Y66389D01*
X33465Y66301D01*
X34137Y66389D01*
X34763Y66649D01*
X35071Y66884D01*
X35433Y67014D01*
X35796Y66884D01*
X35872Y66826D01*
Y52133D01*
X35989Y51547D01*
X36320Y51051D01*
X36876Y50496D01*
X36855Y50394D01*
X37009Y49619D01*
X37448Y48963D01*
X38104Y48524D01*
X38879Y48371D01*
X39653Y48524D01*
X40309Y48963D01*
X40748Y49619D01*
X40902Y50394D01*
X40748Y51168D01*
X40309Y51824D01*
X39653Y52263D01*
X39380Y52317D01*
X38931Y52766D01*
Y66826D01*
X39238Y67061D01*
X39651Y67599D01*
X39910Y68226D01*
X39999Y68898D01*
X39910Y69570D01*
X39651Y70196D01*
X39238Y70734D01*
X38700Y71147D01*
X38074Y71406D01*
X37402Y71495D01*
D02*
G37*
G36*
X28165Y71472D02*
X23016D01*
Y66323D01*
X28165D01*
Y71472D01*
D02*
G37*
G36*
X8563Y66831D02*
X7697Y66659D01*
X6962Y66168D01*
X6471Y65433D01*
X6299Y64567D01*
X6471Y63700D01*
X6962Y62966D01*
X7697Y62475D01*
X8563Y62303D01*
X9429Y62475D01*
X10164Y62966D01*
X10212Y63038D01*
X15905D01*
X24461Y54483D01*
X24451Y54432D01*
X24620Y53581D01*
X25102Y52859D01*
X25823Y52377D01*
X26674Y52208D01*
X27525Y52377D01*
X28247Y52859D01*
X28729Y53581D01*
X28898Y54432D01*
X28729Y55283D01*
X28247Y56004D01*
X27525Y56486D01*
X26674Y56656D01*
X26623Y56645D01*
X17620Y65648D01*
X17124Y65980D01*
X16539Y66096D01*
X10212D01*
X10164Y66168D01*
X9429Y66659D01*
X8563Y66831D01*
D02*
G37*
G36*
X43604Y48656D02*
X42738Y48484D01*
X42003Y47993D01*
X41955Y47921D01*
X39828D01*
X39243Y47805D01*
X38747Y47474D01*
X38415Y46977D01*
X38299Y46392D01*
Y22174D01*
X34406Y18282D01*
X34178D01*
X33592Y18165D01*
X33096Y17834D01*
X28446Y13183D01*
X28115Y12687D01*
X27998Y12102D01*
Y7977D01*
X27691Y7742D01*
X27279Y7204D01*
X27019Y6578D01*
X26930Y5906D01*
X27019Y5233D01*
X27279Y4607D01*
X27691Y4069D01*
X28229Y3656D01*
X28855Y3397D01*
X29528Y3308D01*
X30200Y3397D01*
X30826Y3656D01*
X31134Y3892D01*
X31496Y4022D01*
X31859Y3892D01*
X32166Y3656D01*
X32792Y3397D01*
X33465Y3308D01*
X34137Y3397D01*
X34763Y3656D01*
X35071Y3892D01*
X35433Y4022D01*
X35796Y3892D01*
X36103Y3656D01*
X36729Y3397D01*
X37402Y3308D01*
X38074Y3397D01*
X38700Y3656D01*
X39008Y3892D01*
X39370Y4022D01*
X39733Y3892D01*
X40040Y3656D01*
X40666Y3397D01*
X41339Y3308D01*
X42011Y3397D01*
X42201Y3476D01*
X42701Y3331D01*
Y3331D01*
X47850D01*
Y8480D01*
X42868D01*
Y10594D01*
X42752Y11180D01*
X42420Y11676D01*
X39325Y14770D01*
X38829Y15102D01*
X38244Y15218D01*
X36344D01*
X36195Y15520D01*
X36168Y15718D01*
X40909Y20459D01*
X41241Y20956D01*
X41357Y21541D01*
Y44863D01*
X41955D01*
X42003Y44791D01*
X42738Y44300D01*
X43604Y44128D01*
X44470Y44300D01*
X45205Y44791D01*
X45696Y45526D01*
X45868Y46392D01*
X45696Y47258D01*
X45205Y47993D01*
X44470Y48484D01*
X43604Y48656D01*
D02*
G37*
G36*
X28930Y45425D02*
X28063Y45253D01*
X27329Y44762D01*
X26838Y44028D01*
X26666Y43161D01*
X26838Y42295D01*
X27329Y41560D01*
X28063Y41070D01*
X28930Y40897D01*
X29014Y40914D01*
X29424Y40504D01*
Y31994D01*
X29037Y31677D01*
X28642Y31755D01*
X27776Y31583D01*
X27042Y31092D01*
X26994Y31021D01*
X12187D01*
X11602Y30904D01*
X11106Y30573D01*
X8495Y27962D01*
X5271D01*
X5223Y28033D01*
X4488Y28524D01*
X3622Y28696D01*
X2756Y28524D01*
X2021Y28033D01*
X1530Y27299D01*
X1358Y26432D01*
X1530Y25566D01*
X2021Y24831D01*
X2756Y24341D01*
X3622Y24168D01*
X4488Y24341D01*
X5223Y24831D01*
X5271Y24903D01*
X9128D01*
X9713Y25019D01*
X10209Y25351D01*
X12821Y27962D01*
X26994D01*
X27042Y27891D01*
X27776Y27400D01*
X28642Y27227D01*
X29037Y27306D01*
X29424Y26989D01*
Y25703D01*
X26846Y23125D01*
X26514Y22629D01*
X26398Y22043D01*
Y18629D01*
X26327Y18582D01*
X25836Y17847D01*
X25664Y16981D01*
X25836Y16114D01*
X26327Y15380D01*
X27061Y14889D01*
X27927Y14717D01*
X28794Y14889D01*
X29528Y15380D01*
X30019Y16114D01*
X30191Y16981D01*
X30019Y17847D01*
X29528Y18582D01*
X29457Y18629D01*
Y21410D01*
X32035Y23988D01*
X32366Y24484D01*
X32483Y25069D01*
Y41138D01*
X32366Y41723D01*
X32035Y42219D01*
X31177Y43077D01*
X31194Y43161D01*
X31021Y44028D01*
X30531Y44762D01*
X29796Y45253D01*
X28930Y45425D01*
D02*
G37*
%LPD*%
G36*
X34588Y12678D02*
X34522Y12606D01*
X34462Y12525D01*
X34405Y12435D01*
X34353Y12336D01*
X34306Y12228D01*
X34263Y12111D01*
X34225Y11986D01*
X34162Y11708D01*
X34137Y11555D01*
X32757Y12935D01*
X32910Y12960D01*
X33188Y13023D01*
X33314Y13061D01*
X33430Y13104D01*
X33538Y13151D01*
X33637Y13203D01*
X33727Y13259D01*
X33808Y13320D01*
X33881Y13386D01*
X34588Y12678D01*
D02*
G37*
G36*
X38068Y10518D02*
X37968Y10428D01*
X37879Y10336D01*
X37800Y10243D01*
X37732Y10148D01*
X37674Y10053D01*
X37627Y9955D01*
X37590Y9857D01*
X37563Y9757D01*
X37548Y9655D01*
X37543Y9552D01*
X36542Y9805D01*
X36540Y9914D01*
X36518Y10129D01*
X36499Y10234D01*
X36444Y10442D01*
X36409Y10545D01*
X36321Y10746D01*
X36270Y10846D01*
X38068Y10518D01*
D02*
G37*
G36*
X41846Y8242D02*
X41869Y8130D01*
X41907Y8007D01*
X41960Y7874D01*
X42028Y7730D01*
X42211Y7410D01*
X42325Y7234D01*
X42598Y6851D01*
X40079D01*
X40224Y7048D01*
X40565Y7575D01*
X40649Y7730D01*
X40770Y8007D01*
X40808Y8130D01*
X40831Y8242D01*
X40839Y8344D01*
X41839D01*
X41846Y8242D01*
D02*
G37*
G54D13*
X222441Y5906D02*
Y10594D01*
X218145Y11157D02*
X218406Y11417D01*
X218145Y9483D02*
Y11157D01*
X214567Y5906D02*
X218145Y9483D01*
X219981Y50394D02*
Y50656D01*
X218504Y52133D02*
X219981Y50656D01*
X218504Y52133D02*
Y68898D01*
X197641Y64567D02*
X207777Y54432D01*
X189665Y64567D02*
X197641D01*
X210032Y43161D02*
X212056Y41138D01*
X193289Y29491D02*
X209745D01*
X212056Y25069D02*
Y41138D01*
X220930Y46392D02*
X224706D01*
X209030Y16981D02*
Y22043D01*
X212056Y25069D01*
X216142Y16752D02*
X220930Y21541D01*
Y46392D01*
X219346Y13689D02*
X222441Y10594D01*
X214032Y11727D02*
X215994Y13689D01*
X219346D01*
X215280Y16752D02*
X216142D01*
X210630Y12102D02*
X215280Y16752D01*
X210630Y5906D02*
Y12102D01*
X190230Y26432D02*
X193289Y29491D01*
X184724Y26432D02*
X190230D01*
X131890Y5906D02*
Y10594D01*
X127594Y11157D02*
X127854Y11417D01*
X127594Y9483D02*
Y11157D01*
X124016Y5906D02*
X127594Y9483D01*
X129430Y50394D02*
Y50656D01*
X127953Y52133D02*
X129430Y50656D01*
X127953Y52133D02*
Y68898D01*
X107090Y64567D02*
X117226Y54432D01*
X99114Y64567D02*
X107090D01*
X119481Y43161D02*
X121505Y41138D01*
X102738Y29491D02*
X119193D01*
X121505Y25069D02*
Y41138D01*
X130379Y46392D02*
X134155D01*
X118479Y16981D02*
Y22043D01*
X121505Y25069D01*
X125591Y16752D02*
X130379Y21541D01*
Y46392D01*
X128795Y13689D02*
X131890Y10594D01*
X123480Y11727D02*
X125443Y13689D01*
X128795D01*
X124729Y16752D02*
X125591D01*
X120079Y12102D02*
X124729Y16752D01*
X120079Y5906D02*
Y12102D01*
X99679Y26432D02*
X102738Y29491D01*
X94173Y26432D02*
X99679D01*
X41339Y5906D02*
Y10594D01*
X37042Y11157D02*
X37303Y11417D01*
X37042Y9483D02*
Y11157D01*
X33465Y5906D02*
X37042Y9483D01*
X38879Y50394D02*
Y50656D01*
X37402Y52133D02*
X38879Y50656D01*
X37402Y52133D02*
Y68898D01*
X16539Y64567D02*
X26674Y54432D01*
X8563Y64567D02*
X16539D01*
X28930Y43161D02*
X30953Y41138D01*
X12187Y29491D02*
X28642D01*
X30953Y25069D02*
Y41138D01*
X39828Y46392D02*
X43604D01*
X27927Y16981D02*
Y22043D01*
X30953Y25069D01*
X35039Y16752D02*
X39828Y21541D01*
Y46392D01*
X38244Y13689D02*
X41339Y10594D01*
X32929Y11727D02*
X34891Y13689D01*
X38244D01*
X34178Y16752D02*
X35039D01*
X29528Y12102D02*
X34178Y16752D01*
X29528Y5906D02*
Y12102D01*
X9128Y26432D02*
X12187Y29491D01*
X3622Y26432D02*
X9128D01*
X221941Y103905D02*
Y108595D01*
X217645Y109157D02*
X217905Y109417D01*
X217645Y107483D02*
Y109157D01*
X214067Y103905D02*
X217645Y107483D01*
X219481Y148394D02*
Y148656D01*
X218004Y150133D02*
X219481Y148656D01*
X218004Y150133D02*
Y166898D01*
X197141Y162567D02*
X207277Y152432D01*
X189165Y162567D02*
X197141D01*
X209532Y141161D02*
X211556Y139138D01*
X192789Y127491D02*
X209245D01*
X211556Y123069D02*
Y139138D01*
X220430Y144392D02*
X224206D01*
X208530Y114981D02*
Y120043D01*
X211556Y123069D01*
X215642Y114752D02*
X220430Y119541D01*
Y144392D01*
X218846Y111689D02*
X221941Y108595D01*
X213532Y109727D02*
X215494Y111689D01*
X218846D01*
X214780Y114752D02*
X215642D01*
X210130Y110102D02*
X214780Y114752D01*
X210130Y103905D02*
Y110102D01*
X189730Y124432D02*
X192789Y127491D01*
X184224Y124432D02*
X189730D01*
X131390Y103905D02*
Y108595D01*
X127094Y109157D02*
X127354Y109417D01*
X127094Y107483D02*
Y109157D01*
X123516Y103905D02*
X127094Y107483D01*
X128930Y148394D02*
Y148656D01*
X127453Y150133D02*
X128930Y148656D01*
X127453Y150133D02*
Y166898D01*
X106590Y162567D02*
X116726Y152432D01*
X98614Y162567D02*
X106590D01*
X118981Y141161D02*
X121005Y139138D01*
X102238Y127491D02*
X118693D01*
X121005Y123069D02*
Y139138D01*
X129879Y144392D02*
X133655D01*
X117979Y114981D02*
Y120043D01*
X121005Y123069D01*
X125091Y114752D02*
X129879Y119541D01*
Y144392D01*
X128295Y111689D02*
X131390Y108595D01*
X122980Y109727D02*
X124943Y111689D01*
X128295D01*
X124229Y114752D02*
X125091D01*
X119579Y110102D02*
X124229Y114752D01*
X119579Y103905D02*
Y110102D01*
X99179Y124432D02*
X102238Y127491D01*
X93673Y124432D02*
X99179D01*
X40839Y103905D02*
Y108595D01*
X36542Y109157D02*
X36803Y109417D01*
X36542Y107483D02*
Y109157D01*
X32965Y103905D02*
X36542Y107483D01*
X38379Y148394D02*
Y148656D01*
X36902Y150133D02*
X38379Y148656D01*
X36902Y150133D02*
Y166898D01*
X16039Y162567D02*
X26174Y152432D01*
X8063Y162567D02*
X16039D01*
X28430Y141161D02*
X30453Y139138D01*
X11687Y127491D02*
X28142D01*
X30453Y123069D02*
Y139138D01*
X39328Y144392D02*
X43104D01*
X27427Y114981D02*
Y120043D01*
X30453Y123069D01*
X34539Y114752D02*
X39328Y119541D01*
Y144392D01*
X37744Y111689D02*
X40839Y108595D01*
X32429Y109727D02*
X34391Y111689D01*
X37744D01*
X33678Y114752D02*
X34539D01*
X29028Y110102D02*
X33678Y114752D01*
X29028Y103905D02*
Y110102D01*
X8628Y124432D02*
X11687Y127491D01*
X3122Y124432D02*
X8628D01*
G54D43*
X206693Y68898D02*
D03*
X226378Y5906D02*
D03*
X116142Y68898D02*
D03*
X135827Y5906D02*
D03*
X25591Y68898D02*
D03*
X45276Y5906D02*
D03*
X206193Y166898D02*
D03*
X225878Y103905D02*
D03*
X115642Y166898D02*
D03*
X135327Y103905D02*
D03*
X25091Y166898D02*
D03*
X44776Y103905D02*
D03*
G54D44*
X210630Y68898D02*
D03*
X214567D02*
D03*
X218504D02*
D03*
X222441D02*
D03*
X226378D02*
D03*
X222441Y5906D02*
D03*
X218504D02*
D03*
X214567D02*
D03*
X210630D02*
D03*
X206693D02*
D03*
X120079Y68898D02*
D03*
X124016D02*
D03*
X127953D02*
D03*
X131890D02*
D03*
X135827D02*
D03*
X131890Y5906D02*
D03*
X127953D02*
D03*
X124016D02*
D03*
X120079D02*
D03*
X116142D02*
D03*
X29528Y68898D02*
D03*
X33465D02*
D03*
X37402D02*
D03*
X41339D02*
D03*
X45276D02*
D03*
X41339Y5906D02*
D03*
X37402D02*
D03*
X33465D02*
D03*
X29528D02*
D03*
X25591D02*
D03*
X210130Y166898D02*
D03*
X214067D02*
D03*
X218004D02*
D03*
X221941D02*
D03*
X225878D02*
D03*
X221941Y103905D02*
D03*
X218004D02*
D03*
X214067D02*
D03*
X210130D02*
D03*
X206193D02*
D03*
X119579Y166898D02*
D03*
X123516D02*
D03*
X127453D02*
D03*
X131390D02*
D03*
X135327D02*
D03*
X131390Y103905D02*
D03*
X127453D02*
D03*
X123516D02*
D03*
X119579D02*
D03*
X115642D02*
D03*
X29028Y166898D02*
D03*
X32965D02*
D03*
X36902D02*
D03*
X40839D02*
D03*
X44776D02*
D03*
X40839Y103905D02*
D03*
X36902D02*
D03*
X32965D02*
D03*
X29028D02*
D03*
X25091D02*
D03*
G54D46*
X219981Y50394D02*
D03*
X129430D02*
D03*
X38879D02*
D03*
X219481Y148394D02*
D03*
X128930D02*
D03*
X38379D02*
D03*
G54D47*
X179929Y14098D02*
D03*
Y21598D02*
D03*
Y18098D02*
D03*
Y24598D02*
D03*
Y38098D02*
D03*
Y31598D02*
D03*
Y35098D02*
D03*
Y27598D02*
D03*
Y51598D02*
D03*
Y45098D02*
D03*
Y48598D02*
D03*
Y41098D02*
D03*
X161811Y40780D02*
D03*
Y48280D02*
D03*
Y44780D02*
D03*
Y51279D02*
D03*
Y27279D02*
D03*
Y34780D02*
D03*
Y31280D02*
D03*
Y37780D02*
D03*
Y24280D02*
D03*
Y17779D02*
D03*
Y21280D02*
D03*
Y13780D02*
D03*
X89378Y16756D02*
D03*
Y24256D02*
D03*
Y20756D02*
D03*
Y27256D02*
D03*
Y40756D02*
D03*
Y34256D02*
D03*
Y37756D02*
D03*
Y30256D02*
D03*
Y54256D02*
D03*
Y47756D02*
D03*
Y51256D02*
D03*
Y43756D02*
D03*
X71260Y43437D02*
D03*
Y50937D02*
D03*
Y47437D02*
D03*
Y53937D02*
D03*
Y29937D02*
D03*
Y37437D02*
D03*
Y33937D02*
D03*
Y40437D02*
D03*
Y26937D02*
D03*
Y20437D02*
D03*
Y23937D02*
D03*
Y16437D02*
D03*
X207777Y54432D02*
D03*
X218406Y11417D02*
D03*
X214835Y55230D02*
D03*
X216785Y22830D02*
D03*
X117226Y54432D02*
D03*
X127854Y11417D02*
D03*
X124284Y55230D02*
D03*
X126234Y22830D02*
D03*
X26674Y54432D02*
D03*
X37303Y11417D02*
D03*
X33733Y55230D02*
D03*
X35683Y22830D02*
D03*
X55587Y97646D02*
D03*
X48087D02*
D03*
X51587D02*
D03*
X45087D02*
D03*
X31587D02*
D03*
X38087D02*
D03*
X34587D02*
D03*
X42087D02*
D03*
X18087D02*
D03*
X24587D02*
D03*
X21087D02*
D03*
X28587D02*
D03*
X29197Y75197D02*
D03*
X21697D02*
D03*
X25197D02*
D03*
X18697D02*
D03*
X42697D02*
D03*
X35197D02*
D03*
X38697D02*
D03*
X32197D02*
D03*
X45697D02*
D03*
X52197D02*
D03*
X48697D02*
D03*
X56197D02*
D03*
X236295Y97252D02*
D03*
X228795D02*
D03*
X232295D02*
D03*
X225795D02*
D03*
X212295D02*
D03*
X218795D02*
D03*
X215295D02*
D03*
X222795D02*
D03*
X198795D02*
D03*
X205295D02*
D03*
X201795D02*
D03*
X209295D02*
D03*
X209614Y75590D02*
D03*
X202114D02*
D03*
X205614D02*
D03*
X199114D02*
D03*
X223114D02*
D03*
X215614D02*
D03*
X219114D02*
D03*
X212614D02*
D03*
X226114D02*
D03*
X232614D02*
D03*
X229114D02*
D03*
X236614D02*
D03*
X145744Y97646D02*
D03*
X138244D02*
D03*
X141744D02*
D03*
X135244D02*
D03*
X121744D02*
D03*
X128244D02*
D03*
X124744D02*
D03*
X132244D02*
D03*
X108244D02*
D03*
X114744D02*
D03*
X111244D02*
D03*
X118744D02*
D03*
X118669Y75197D02*
D03*
X111169D02*
D03*
X114669D02*
D03*
X108169D02*
D03*
X132169D02*
D03*
X124669D02*
D03*
X128169D02*
D03*
X121669D02*
D03*
X135169D02*
D03*
X141669D02*
D03*
X138169D02*
D03*
X145669D02*
D03*
X179929Y112819D02*
D03*
Y120319D02*
D03*
Y116819D02*
D03*
Y123319D02*
D03*
Y136819D02*
D03*
Y130319D02*
D03*
Y133819D02*
D03*
Y126319D02*
D03*
Y150319D02*
D03*
Y143819D02*
D03*
Y147319D02*
D03*
Y139819D02*
D03*
X161811Y139500D02*
D03*
Y147000D02*
D03*
Y143500D02*
D03*
Y150000D02*
D03*
Y126000D02*
D03*
Y133500D02*
D03*
Y130000D02*
D03*
Y136500D02*
D03*
Y123000D02*
D03*
Y116500D02*
D03*
Y120000D02*
D03*
Y112500D02*
D03*
X70472Y113976D02*
D03*
Y121476D02*
D03*
Y117976D02*
D03*
Y124476D02*
D03*
Y137976D02*
D03*
Y131476D02*
D03*
Y134976D02*
D03*
Y127476D02*
D03*
Y151476D02*
D03*
Y144976D02*
D03*
Y148476D02*
D03*
Y140976D02*
D03*
X88591Y141295D02*
D03*
Y148795D02*
D03*
Y145295D02*
D03*
Y151795D02*
D03*
Y127795D02*
D03*
Y135295D02*
D03*
Y131795D02*
D03*
Y138295D02*
D03*
Y124795D02*
D03*
Y118295D02*
D03*
Y121795D02*
D03*
Y114295D02*
D03*
X207277Y152432D02*
D03*
X217905Y109417D02*
D03*
X214335Y153231D02*
D03*
X216285Y120830D02*
D03*
X116726Y152432D02*
D03*
X127354Y109417D02*
D03*
X123784Y153231D02*
D03*
X125734Y120830D02*
D03*
X26174Y152432D02*
D03*
X36803Y109417D02*
D03*
X33233Y153231D02*
D03*
X35183Y120830D02*
D03*
G54D48*
X189665Y64567D02*
D03*
X210032Y43161D02*
D03*
X238170Y5906D02*
D03*
X245082D02*
D03*
X240207Y3596D02*
D03*
X197216Y3596D02*
D03*
X236482Y70866D02*
D03*
X245244Y65945D02*
D03*
X247047Y57563D02*
D03*
X235696Y63860D02*
D03*
X209745Y29491D02*
D03*
X224706Y46392D02*
D03*
X209030Y16981D02*
D03*
X214032Y11727D02*
D03*
X185340Y4580D02*
D03*
X191126Y3596D02*
D03*
X242421Y62453D02*
D03*
Y68398D02*
D03*
X192854Y68898D02*
D03*
X187126Y68398D02*
D03*
X204527Y46268D02*
D03*
X204788Y42455D02*
D03*
X184724Y26432D02*
D03*
X241313Y53356D02*
D03*
X247047Y50045D02*
D03*
X239567Y49588D02*
D03*
X245647Y10907D02*
D03*
X233823Y5906D02*
D03*
X238170Y66732D02*
D03*
X241929Y12165D02*
D03*
X248031Y15134D02*
D03*
X241929Y7609D02*
D03*
X248031Y3596D02*
D03*
X187126Y8071D02*
D03*
X99114Y64567D02*
D03*
X119481Y43161D02*
D03*
X147619Y5906D02*
D03*
X154531D02*
D03*
X149655Y3596D02*
D03*
X106665Y3596D02*
D03*
X145931Y70866D02*
D03*
X154693Y65945D02*
D03*
X156496Y57563D02*
D03*
X145145Y63860D02*
D03*
X119193Y29491D02*
D03*
X134155Y46392D02*
D03*
X118479Y16981D02*
D03*
X123480Y11727D02*
D03*
X94788Y4580D02*
D03*
X100575Y3596D02*
D03*
X151870Y62453D02*
D03*
Y68398D02*
D03*
X102303Y68898D02*
D03*
X96575Y68398D02*
D03*
X113976Y46268D02*
D03*
X114236Y42455D02*
D03*
X94173Y26432D02*
D03*
X150762Y53356D02*
D03*
X156496Y50045D02*
D03*
X149016Y49588D02*
D03*
X155096Y10907D02*
D03*
X143272Y5906D02*
D03*
X147619Y66732D02*
D03*
X151378Y12165D02*
D03*
X157480Y15134D02*
D03*
X151378Y7609D02*
D03*
X157480Y3596D02*
D03*
X96575Y8071D02*
D03*
X8563Y64567D02*
D03*
X28930Y43161D02*
D03*
X57068Y5906D02*
D03*
X63980D02*
D03*
X59104Y3596D02*
D03*
X16113Y3596D02*
D03*
X55380Y70866D02*
D03*
X64142Y65945D02*
D03*
X65945Y57563D02*
D03*
X54594Y63860D02*
D03*
X28642Y29491D02*
D03*
X43604Y46392D02*
D03*
X27927Y16981D02*
D03*
X32929Y11727D02*
D03*
X4237Y4580D02*
D03*
X10024Y3596D02*
D03*
X61319Y62453D02*
D03*
Y68398D02*
D03*
X11752Y68898D02*
D03*
X6024Y68398D02*
D03*
X23425Y46268D02*
D03*
X23685Y42455D02*
D03*
X3622Y26432D02*
D03*
X60211Y53356D02*
D03*
X65945Y50045D02*
D03*
X58465Y49588D02*
D03*
X64545Y10907D02*
D03*
X52721Y5906D02*
D03*
X57068Y66732D02*
D03*
X60827Y12165D02*
D03*
X66929Y15134D02*
D03*
X60827Y7609D02*
D03*
X66929Y3596D02*
D03*
X6024Y8071D02*
D03*
X189165Y162567D02*
D03*
X209532Y141161D02*
D03*
X237670Y103905D02*
D03*
X244582D02*
D03*
X239707Y101596D02*
D03*
X196716Y101596D02*
D03*
X235982Y168866D02*
D03*
X244744Y163945D02*
D03*
X246547Y155563D02*
D03*
X235196Y161860D02*
D03*
X209245Y127491D02*
D03*
X224206Y144392D02*
D03*
X208530Y114981D02*
D03*
X213532Y109727D02*
D03*
X184840Y102580D02*
D03*
X190626Y101596D02*
D03*
X241921Y160453D02*
D03*
Y166398D02*
D03*
X192354Y166898D02*
D03*
X186626Y166398D02*
D03*
X204028Y144268D02*
D03*
X204288Y140455D02*
D03*
X184224Y124432D02*
D03*
X240813Y151356D02*
D03*
X246547Y148045D02*
D03*
X239067Y147588D02*
D03*
X245147Y108907D02*
D03*
X233323Y103905D02*
D03*
X237670Y164732D02*
D03*
X241429Y110165D02*
D03*
X247532Y113134D02*
D03*
X241429Y105608D02*
D03*
X247532Y101596D02*
D03*
X186626Y106071D02*
D03*
X98614Y162567D02*
D03*
X118981Y141161D02*
D03*
X147119Y103905D02*
D03*
X154031D02*
D03*
X149155Y101596D02*
D03*
X106165Y101596D02*
D03*
X145431Y168866D02*
D03*
X154193Y163945D02*
D03*
X155996Y155563D02*
D03*
X144645Y161860D02*
D03*
X118693Y127491D02*
D03*
X133655Y144392D02*
D03*
X117979Y114981D02*
D03*
X122980Y109727D02*
D03*
X94288Y102580D02*
D03*
X100075Y101596D02*
D03*
X151370Y160453D02*
D03*
Y166398D02*
D03*
X101803Y166898D02*
D03*
X96075Y166398D02*
D03*
X113476Y144268D02*
D03*
X113736Y140455D02*
D03*
X93673Y124432D02*
D03*
X150262Y151356D02*
D03*
X155996Y148045D02*
D03*
X148516Y147588D02*
D03*
X154596Y108907D02*
D03*
X142772Y103905D02*
D03*
X147119Y164732D02*
D03*
X150878Y110165D02*
D03*
X156980Y113134D02*
D03*
X150878Y105608D02*
D03*
X156980Y101596D02*
D03*
X96075Y106071D02*
D03*
X8063Y162567D02*
D03*
X28430Y141161D02*
D03*
X56568Y103905D02*
D03*
X63480D02*
D03*
X58604Y101596D02*
D03*
X15613Y101596D02*
D03*
X54880Y168866D02*
D03*
X63642Y163945D02*
D03*
X65445Y155563D02*
D03*
X54094Y161860D02*
D03*
X28142Y127491D02*
D03*
X43104Y144392D02*
D03*
X27427Y114981D02*
D03*
X32429Y109727D02*
D03*
X3737Y102580D02*
D03*
X9524Y101596D02*
D03*
X60819Y160453D02*
D03*
Y166398D02*
D03*
X11252Y166898D02*
D03*
X5524Y166398D02*
D03*
X22925Y144268D02*
D03*
X23185Y140455D02*
D03*
X3122Y124432D02*
D03*
X59711Y151356D02*
D03*
X65445Y148045D02*
D03*
X57965Y147588D02*
D03*
X64045Y108907D02*
D03*
X52221Y103905D02*
D03*
X56568Y164732D02*
D03*
X60327Y110165D02*
D03*
X66429Y113134D02*
D03*
X60327Y105608D02*
D03*
X66429Y101596D02*
D03*
X5524Y106071D02*
D03*
M02*
