G04*
G04 #@! TF.GenerationSoftware,Altium Limited,Altium Designer,20.0.13 (296)*
G04*
G04 Layer_Color=16711935*
%FSLAX25Y25*%
%MOIN*%
G70*
G01*
G75*
%ADD11C,0.00787*%
%ADD13C,0.01000*%
G54D11*
X181102Y0D02*
X251969D01*
Y68898D01*
X246063Y74803D02*
X251969Y68898D01*
X90551Y0D02*
X161417D01*
X155512Y74803D02*
X161417Y68898D01*
X0Y0D02*
X70866D01*
X64961Y74803D02*
X70866Y68898D01*
X59342Y98000D02*
X70366D01*
X64961Y74803D02*
X70866Y68898D01*
X251468Y98000D02*
Y166898D01*
X245563Y172803D02*
X251468Y166898D01*
X180602Y172803D02*
X245563D01*
X155012D02*
X160917Y166898D01*
X90051Y172803D02*
X155012D01*
X64461D02*
X70366Y166898D01*
X-500Y172803D02*
X64461D01*
G54D13*
X102Y75095D02*
X14754D01*
X245772Y75094D02*
X251969Y68898D01*
X240051Y75094D02*
X245772D01*
X70697Y57468D02*
Y68728D01*
X70760Y106D02*
Y12890D01*
X161417Y55118D02*
Y68898D01*
Y55118D02*
X180535D01*
X161417Y10974D02*
X181102D01*
X161417Y0D02*
Y10974D01*
X89591Y172343D02*
X90051Y172803D01*
X180142Y172343D02*
X180602Y172803D01*
X89591Y155106D02*
Y172343D01*
X180142Y153925D02*
Y172343D01*
X160854Y153925D02*
Y166835D01*
X160732Y97929D02*
X160917D01*
Y109346D01*
X149106Y97929D02*
X160732D01*
X180602Y97768D02*
Y109346D01*
Y97768D02*
X192181D01*
X195415D01*
X240051Y97535D02*
X251468D01*
X180535Y55118D02*
Y75197D01*
X181102Y0D02*
Y10974D01*
X90051Y98138D02*
X104615D01*
X90051D02*
Y110528D01*
X70366Y98000D02*
Y110528D01*
X70303Y155106D02*
Y164791D01*
X89984Y57468D02*
Y74803D01*
X90445Y106D02*
Y12890D01*
X-291Y97929D02*
X14854D01*
X14754Y75095D02*
X14854Y97929D01*
X59342Y75094D02*
Y98000D01*
X195415Y97768D02*
X195476Y75094D01*
X240051Y75094D02*
Y97535D01*
X104615Y98138D02*
X104724Y74803D01*
X149106Y75094D02*
Y97929D01*
X70697Y57468D02*
X89984D01*
X70760Y12890D02*
X90445D01*
X160854Y153925D02*
X180142D01*
X160917Y109346D02*
X180602D01*
X70366Y110528D02*
X90051D01*
X70303Y155106D02*
X89591D01*
M02*
